%TF.GenerationSoftware,KiCad,Pcbnew,9.0.7*%
%TF.CreationDate,2026-09-10T20:05:50+01:00*%
%TF.ProjectId,ESP32-S3-SMALL,45535033-322d-4533-932d-534d414c4c2e,rev?*%
%TF.SameCoordinates,Original*%
%TF.FileFunction,Legend,Top*%
%TF.FilePolarity,Positive*%
%FSLAX46Y46*%
G04 Gerber Fmt 4.6, Leading zero omitted, Abs format (unit mm)*
G04 Created by KiCad (PCBNEW 9.0.7) date 2026-09-10 20:05:50*
%MOMM*%
%LPD*%
G01*
G04 APERTURE LIST*
%ADD10C,0.300000*%
%ADD11C,0.150000*%
%ADD12C,0.120000*%
G04 APERTURE END LIST*
D10*
X147911653Y-104917257D02*
X147911653Y-101917257D01*
X151054510Y-104631542D02*
X150911653Y-104774400D01*
X150911653Y-104774400D02*
X150483081Y-104917257D01*
X150483081Y-104917257D02*
X150197367Y-104917257D01*
X150197367Y-104917257D02*
X149768796Y-104774400D01*
X149768796Y-104774400D02*
X149483081Y-104488685D01*
X149483081Y-104488685D02*
X149340224Y-104202971D01*
X149340224Y-104202971D02*
X149197367Y-103631542D01*
X149197367Y-103631542D02*
X149197367Y-103202971D01*
X149197367Y-103202971D02*
X149340224Y-102631542D01*
X149340224Y-102631542D02*
X149483081Y-102345828D01*
X149483081Y-102345828D02*
X149768796Y-102060114D01*
X149768796Y-102060114D02*
X150197367Y-101917257D01*
X150197367Y-101917257D02*
X150483081Y-101917257D01*
X150483081Y-101917257D02*
X150911653Y-102060114D01*
X150911653Y-102060114D02*
X151054510Y-102202971D01*
X152911653Y-101917257D02*
X153483081Y-101917257D01*
X153483081Y-101917257D02*
X153768796Y-102060114D01*
X153768796Y-102060114D02*
X154054510Y-102345828D01*
X154054510Y-102345828D02*
X154197367Y-102917257D01*
X154197367Y-102917257D02*
X154197367Y-103917257D01*
X154197367Y-103917257D02*
X154054510Y-104488685D01*
X154054510Y-104488685D02*
X153768796Y-104774400D01*
X153768796Y-104774400D02*
X153483081Y-104917257D01*
X153483081Y-104917257D02*
X152911653Y-104917257D01*
X152911653Y-104917257D02*
X152625939Y-104774400D01*
X152625939Y-104774400D02*
X152340224Y-104488685D01*
X152340224Y-104488685D02*
X152197367Y-103917257D01*
X152197367Y-103917257D02*
X152197367Y-102917257D01*
X152197367Y-102917257D02*
X152340224Y-102345828D01*
X152340224Y-102345828D02*
X152625939Y-102060114D01*
X152625939Y-102060114D02*
X152911653Y-101917257D01*
X155483081Y-104917257D02*
X155483081Y-101917257D01*
X155483081Y-101917257D02*
X157197367Y-104917257D01*
X157197367Y-104917257D02*
X157197367Y-101917257D01*
X151654510Y-119129400D02*
X152797368Y-119129400D01*
X140854510Y-119129400D02*
X141997368Y-119129400D01*
X141425939Y-119700828D02*
X141425939Y-118557971D01*
D11*
X151336779Y-117346009D02*
X151670112Y-117346009D01*
X151812969Y-117869819D02*
X151336779Y-117869819D01*
X151336779Y-117869819D02*
X151336779Y-116869819D01*
X151336779Y-116869819D02*
X151812969Y-116869819D01*
X152193922Y-117822200D02*
X152336779Y-117869819D01*
X152336779Y-117869819D02*
X152574874Y-117869819D01*
X152574874Y-117869819D02*
X152670112Y-117822200D01*
X152670112Y-117822200D02*
X152717731Y-117774580D01*
X152717731Y-117774580D02*
X152765350Y-117679342D01*
X152765350Y-117679342D02*
X152765350Y-117584104D01*
X152765350Y-117584104D02*
X152717731Y-117488866D01*
X152717731Y-117488866D02*
X152670112Y-117441247D01*
X152670112Y-117441247D02*
X152574874Y-117393628D01*
X152574874Y-117393628D02*
X152384398Y-117346009D01*
X152384398Y-117346009D02*
X152289160Y-117298390D01*
X152289160Y-117298390D02*
X152241541Y-117250771D01*
X152241541Y-117250771D02*
X152193922Y-117155533D01*
X152193922Y-117155533D02*
X152193922Y-117060295D01*
X152193922Y-117060295D02*
X152241541Y-116965057D01*
X152241541Y-116965057D02*
X152289160Y-116917438D01*
X152289160Y-116917438D02*
X152384398Y-116869819D01*
X152384398Y-116869819D02*
X152622493Y-116869819D01*
X152622493Y-116869819D02*
X152765350Y-116917438D01*
X153193922Y-117869819D02*
X153193922Y-116869819D01*
X153193922Y-116869819D02*
X153574874Y-116869819D01*
X153574874Y-116869819D02*
X153670112Y-116917438D01*
X153670112Y-116917438D02*
X153717731Y-116965057D01*
X153717731Y-116965057D02*
X153765350Y-117060295D01*
X153765350Y-117060295D02*
X153765350Y-117203152D01*
X153765350Y-117203152D02*
X153717731Y-117298390D01*
X153717731Y-117298390D02*
X153670112Y-117346009D01*
X153670112Y-117346009D02*
X153574874Y-117393628D01*
X153574874Y-117393628D02*
X153193922Y-117393628D01*
X154098684Y-116869819D02*
X154717731Y-116869819D01*
X154717731Y-116869819D02*
X154384398Y-117250771D01*
X154384398Y-117250771D02*
X154527255Y-117250771D01*
X154527255Y-117250771D02*
X154622493Y-117298390D01*
X154622493Y-117298390D02*
X154670112Y-117346009D01*
X154670112Y-117346009D02*
X154717731Y-117441247D01*
X154717731Y-117441247D02*
X154717731Y-117679342D01*
X154717731Y-117679342D02*
X154670112Y-117774580D01*
X154670112Y-117774580D02*
X154622493Y-117822200D01*
X154622493Y-117822200D02*
X154527255Y-117869819D01*
X154527255Y-117869819D02*
X154241541Y-117869819D01*
X154241541Y-117869819D02*
X154146303Y-117822200D01*
X154146303Y-117822200D02*
X154098684Y-117774580D01*
X155098684Y-116965057D02*
X155146303Y-116917438D01*
X155146303Y-116917438D02*
X155241541Y-116869819D01*
X155241541Y-116869819D02*
X155479636Y-116869819D01*
X155479636Y-116869819D02*
X155574874Y-116917438D01*
X155574874Y-116917438D02*
X155622493Y-116965057D01*
X155622493Y-116965057D02*
X155670112Y-117060295D01*
X155670112Y-117060295D02*
X155670112Y-117155533D01*
X155670112Y-117155533D02*
X155622493Y-117298390D01*
X155622493Y-117298390D02*
X155051065Y-117869819D01*
X155051065Y-117869819D02*
X155670112Y-117869819D01*
X156098684Y-117488866D02*
X156860589Y-117488866D01*
X157289160Y-117822200D02*
X157432017Y-117869819D01*
X157432017Y-117869819D02*
X157670112Y-117869819D01*
X157670112Y-117869819D02*
X157765350Y-117822200D01*
X157765350Y-117822200D02*
X157812969Y-117774580D01*
X157812969Y-117774580D02*
X157860588Y-117679342D01*
X157860588Y-117679342D02*
X157860588Y-117584104D01*
X157860588Y-117584104D02*
X157812969Y-117488866D01*
X157812969Y-117488866D02*
X157765350Y-117441247D01*
X157765350Y-117441247D02*
X157670112Y-117393628D01*
X157670112Y-117393628D02*
X157479636Y-117346009D01*
X157479636Y-117346009D02*
X157384398Y-117298390D01*
X157384398Y-117298390D02*
X157336779Y-117250771D01*
X157336779Y-117250771D02*
X157289160Y-117155533D01*
X157289160Y-117155533D02*
X157289160Y-117060295D01*
X157289160Y-117060295D02*
X157336779Y-116965057D01*
X157336779Y-116965057D02*
X157384398Y-116917438D01*
X157384398Y-116917438D02*
X157479636Y-116869819D01*
X157479636Y-116869819D02*
X157717731Y-116869819D01*
X157717731Y-116869819D02*
X157860588Y-116917438D01*
X158193922Y-116869819D02*
X158812969Y-116869819D01*
X158812969Y-116869819D02*
X158479636Y-117250771D01*
X158479636Y-117250771D02*
X158622493Y-117250771D01*
X158622493Y-117250771D02*
X158717731Y-117298390D01*
X158717731Y-117298390D02*
X158765350Y-117346009D01*
X158765350Y-117346009D02*
X158812969Y-117441247D01*
X158812969Y-117441247D02*
X158812969Y-117679342D01*
X158812969Y-117679342D02*
X158765350Y-117774580D01*
X158765350Y-117774580D02*
X158717731Y-117822200D01*
X158717731Y-117822200D02*
X158622493Y-117869819D01*
X158622493Y-117869819D02*
X158336779Y-117869819D01*
X158336779Y-117869819D02*
X158241541Y-117822200D01*
X158241541Y-117822200D02*
X158193922Y-117774580D01*
X159270113Y-87704485D02*
X159470113Y-87704485D01*
X159555827Y-88018771D02*
X159270113Y-88018771D01*
X159270113Y-88018771D02*
X159270113Y-87418771D01*
X159270113Y-87418771D02*
X159555827Y-87418771D01*
X159812970Y-88018771D02*
X159812970Y-87418771D01*
X159812970Y-87418771D02*
X160155827Y-88018771D01*
X160155827Y-88018771D02*
X160155827Y-87418771D01*
X158955826Y-90068771D02*
X159298684Y-90068771D01*
X159127255Y-90668771D02*
X159127255Y-90068771D01*
X159441541Y-90068771D02*
X159841541Y-90668771D01*
X159841541Y-90068771D02*
X159441541Y-90668771D01*
X160070113Y-90668771D02*
X160070113Y-90068771D01*
X160070113Y-90068771D02*
X160212970Y-90068771D01*
X160212970Y-90068771D02*
X160298684Y-90097342D01*
X160298684Y-90097342D02*
X160355827Y-90154485D01*
X160355827Y-90154485D02*
X160384398Y-90211628D01*
X160384398Y-90211628D02*
X160412970Y-90325914D01*
X160412970Y-90325914D02*
X160412970Y-90411628D01*
X160412970Y-90411628D02*
X160384398Y-90525914D01*
X160384398Y-90525914D02*
X160355827Y-90583057D01*
X160355827Y-90583057D02*
X160298684Y-90640200D01*
X160298684Y-90640200D02*
X160212970Y-90668771D01*
X160212970Y-90668771D02*
X160070113Y-90668771D01*
X159312970Y-93318771D02*
X159112970Y-93033057D01*
X158970113Y-93318771D02*
X158970113Y-92718771D01*
X158970113Y-92718771D02*
X159198684Y-92718771D01*
X159198684Y-92718771D02*
X159255827Y-92747342D01*
X159255827Y-92747342D02*
X159284398Y-92775914D01*
X159284398Y-92775914D02*
X159312970Y-92833057D01*
X159312970Y-92833057D02*
X159312970Y-92918771D01*
X159312970Y-92918771D02*
X159284398Y-92975914D01*
X159284398Y-92975914D02*
X159255827Y-93004485D01*
X159255827Y-93004485D02*
X159198684Y-93033057D01*
X159198684Y-93033057D02*
X158970113Y-93033057D01*
X159512970Y-92718771D02*
X159912970Y-93318771D01*
X159912970Y-92718771D02*
X159512970Y-93318771D01*
X160141542Y-93318771D02*
X160141542Y-92718771D01*
X160141542Y-92718771D02*
X160284399Y-92718771D01*
X160284399Y-92718771D02*
X160370113Y-92747342D01*
X160370113Y-92747342D02*
X160427256Y-92804485D01*
X160427256Y-92804485D02*
X160455827Y-92861628D01*
X160455827Y-92861628D02*
X160484399Y-92975914D01*
X160484399Y-92975914D02*
X160484399Y-93061628D01*
X160484399Y-93061628D02*
X160455827Y-93175914D01*
X160455827Y-93175914D02*
X160427256Y-93233057D01*
X160427256Y-93233057D02*
X160370113Y-93290200D01*
X160370113Y-93290200D02*
X160284399Y-93318771D01*
X160284399Y-93318771D02*
X160141542Y-93318771D01*
X167170113Y-93418771D02*
X167170113Y-92818771D01*
X167570112Y-92818771D02*
X167684398Y-92818771D01*
X167684398Y-92818771D02*
X167741541Y-92847342D01*
X167741541Y-92847342D02*
X167798684Y-92904485D01*
X167798684Y-92904485D02*
X167827255Y-93018771D01*
X167827255Y-93018771D02*
X167827255Y-93218771D01*
X167827255Y-93218771D02*
X167798684Y-93333057D01*
X167798684Y-93333057D02*
X167741541Y-93390200D01*
X167741541Y-93390200D02*
X167684398Y-93418771D01*
X167684398Y-93418771D02*
X167570112Y-93418771D01*
X167570112Y-93418771D02*
X167512970Y-93390200D01*
X167512970Y-93390200D02*
X167455827Y-93333057D01*
X167455827Y-93333057D02*
X167427255Y-93218771D01*
X167427255Y-93218771D02*
X167427255Y-93018771D01*
X167427255Y-93018771D02*
X167455827Y-92904485D01*
X167455827Y-92904485D02*
X167512970Y-92847342D01*
X167512970Y-92847342D02*
X167570112Y-92818771D01*
X168198683Y-92818771D02*
X168255826Y-92818771D01*
X168255826Y-92818771D02*
X168312969Y-92847342D01*
X168312969Y-92847342D02*
X168341541Y-92875914D01*
X168341541Y-92875914D02*
X168370112Y-92933057D01*
X168370112Y-92933057D02*
X168398683Y-93047342D01*
X168398683Y-93047342D02*
X168398683Y-93190200D01*
X168398683Y-93190200D02*
X168370112Y-93304485D01*
X168370112Y-93304485D02*
X168341541Y-93361628D01*
X168341541Y-93361628D02*
X168312969Y-93390200D01*
X168312969Y-93390200D02*
X168255826Y-93418771D01*
X168255826Y-93418771D02*
X168198683Y-93418771D01*
X168198683Y-93418771D02*
X168141541Y-93390200D01*
X168141541Y-93390200D02*
X168112969Y-93361628D01*
X168112969Y-93361628D02*
X168084398Y-93304485D01*
X168084398Y-93304485D02*
X168055826Y-93190200D01*
X168055826Y-93190200D02*
X168055826Y-93047342D01*
X168055826Y-93047342D02*
X168084398Y-92933057D01*
X168084398Y-92933057D02*
X168112969Y-92875914D01*
X168112969Y-92875914D02*
X168141541Y-92847342D01*
X168141541Y-92847342D02*
X168198683Y-92818771D01*
X167312970Y-90297342D02*
X167255828Y-90268771D01*
X167255828Y-90268771D02*
X167170113Y-90268771D01*
X167170113Y-90268771D02*
X167084399Y-90297342D01*
X167084399Y-90297342D02*
X167027256Y-90354485D01*
X167027256Y-90354485D02*
X166998685Y-90411628D01*
X166998685Y-90411628D02*
X166970113Y-90525914D01*
X166970113Y-90525914D02*
X166970113Y-90611628D01*
X166970113Y-90611628D02*
X166998685Y-90725914D01*
X166998685Y-90725914D02*
X167027256Y-90783057D01*
X167027256Y-90783057D02*
X167084399Y-90840200D01*
X167084399Y-90840200D02*
X167170113Y-90868771D01*
X167170113Y-90868771D02*
X167227256Y-90868771D01*
X167227256Y-90868771D02*
X167312970Y-90840200D01*
X167312970Y-90840200D02*
X167341542Y-90811628D01*
X167341542Y-90811628D02*
X167341542Y-90611628D01*
X167341542Y-90611628D02*
X167227256Y-90611628D01*
X167598685Y-90868771D02*
X167598685Y-90268771D01*
X167598685Y-90268771D02*
X167941542Y-90868771D01*
X167941542Y-90868771D02*
X167941542Y-90268771D01*
X168227256Y-90868771D02*
X168227256Y-90268771D01*
X168227256Y-90268771D02*
X168370113Y-90268771D01*
X168370113Y-90268771D02*
X168455827Y-90297342D01*
X168455827Y-90297342D02*
X168512970Y-90354485D01*
X168512970Y-90354485D02*
X168541541Y-90411628D01*
X168541541Y-90411628D02*
X168570113Y-90525914D01*
X168570113Y-90525914D02*
X168570113Y-90611628D01*
X168570113Y-90611628D02*
X168541541Y-90725914D01*
X168541541Y-90725914D02*
X168512970Y-90783057D01*
X168512970Y-90783057D02*
X168455827Y-90840200D01*
X168455827Y-90840200D02*
X168370113Y-90868771D01*
X168370113Y-90868771D02*
X168227256Y-90868771D01*
X166884398Y-87718771D02*
X167255826Y-87718771D01*
X167255826Y-87718771D02*
X167055826Y-87947342D01*
X167055826Y-87947342D02*
X167141541Y-87947342D01*
X167141541Y-87947342D02*
X167198684Y-87975914D01*
X167198684Y-87975914D02*
X167227255Y-88004485D01*
X167227255Y-88004485D02*
X167255826Y-88061628D01*
X167255826Y-88061628D02*
X167255826Y-88204485D01*
X167255826Y-88204485D02*
X167227255Y-88261628D01*
X167227255Y-88261628D02*
X167198684Y-88290200D01*
X167198684Y-88290200D02*
X167141541Y-88318771D01*
X167141541Y-88318771D02*
X166970112Y-88318771D01*
X166970112Y-88318771D02*
X166912969Y-88290200D01*
X166912969Y-88290200D02*
X166884398Y-88261628D01*
X167512970Y-88261628D02*
X167541541Y-88290200D01*
X167541541Y-88290200D02*
X167512970Y-88318771D01*
X167512970Y-88318771D02*
X167484398Y-88290200D01*
X167484398Y-88290200D02*
X167512970Y-88261628D01*
X167512970Y-88261628D02*
X167512970Y-88318771D01*
X167741541Y-87718771D02*
X168112969Y-87718771D01*
X168112969Y-87718771D02*
X167912969Y-87947342D01*
X167912969Y-87947342D02*
X167998684Y-87947342D01*
X167998684Y-87947342D02*
X168055827Y-87975914D01*
X168055827Y-87975914D02*
X168084398Y-88004485D01*
X168084398Y-88004485D02*
X168112969Y-88061628D01*
X168112969Y-88061628D02*
X168112969Y-88204485D01*
X168112969Y-88204485D02*
X168084398Y-88261628D01*
X168084398Y-88261628D02*
X168055827Y-88290200D01*
X168055827Y-88290200D02*
X167998684Y-88318771D01*
X167998684Y-88318771D02*
X167827255Y-88318771D01*
X167827255Y-88318771D02*
X167770112Y-88290200D01*
X167770112Y-88290200D02*
X167741541Y-88261628D01*
X168284398Y-87718771D02*
X168484398Y-88318771D01*
X168484398Y-88318771D02*
X168684398Y-87718771D01*
X134298684Y-97239866D02*
X134232017Y-97206533D01*
X134232017Y-97206533D02*
X134132017Y-97206533D01*
X134132017Y-97206533D02*
X134032017Y-97239866D01*
X134032017Y-97239866D02*
X133965351Y-97306533D01*
X133965351Y-97306533D02*
X133932017Y-97373200D01*
X133932017Y-97373200D02*
X133898684Y-97506533D01*
X133898684Y-97506533D02*
X133898684Y-97606533D01*
X133898684Y-97606533D02*
X133932017Y-97739866D01*
X133932017Y-97739866D02*
X133965351Y-97806533D01*
X133965351Y-97806533D02*
X134032017Y-97873200D01*
X134032017Y-97873200D02*
X134132017Y-97906533D01*
X134132017Y-97906533D02*
X134198684Y-97906533D01*
X134198684Y-97906533D02*
X134298684Y-97873200D01*
X134298684Y-97873200D02*
X134332017Y-97839866D01*
X134332017Y-97839866D02*
X134332017Y-97606533D01*
X134332017Y-97606533D02*
X134198684Y-97606533D01*
X134632017Y-97906533D02*
X134632017Y-97206533D01*
X134632017Y-97206533D02*
X135032017Y-97906533D01*
X135032017Y-97906533D02*
X135032017Y-97206533D01*
X135365350Y-97906533D02*
X135365350Y-97206533D01*
X135365350Y-97206533D02*
X135532017Y-97206533D01*
X135532017Y-97206533D02*
X135632017Y-97239866D01*
X135632017Y-97239866D02*
X135698684Y-97306533D01*
X135698684Y-97306533D02*
X135732017Y-97373200D01*
X135732017Y-97373200D02*
X135765350Y-97506533D01*
X135765350Y-97506533D02*
X135765350Y-97606533D01*
X135765350Y-97606533D02*
X135732017Y-97739866D01*
X135732017Y-97739866D02*
X135698684Y-97806533D01*
X135698684Y-97806533D02*
X135632017Y-97873200D01*
X135632017Y-97873200D02*
X135532017Y-97906533D01*
X135532017Y-97906533D02*
X135365350Y-97906533D01*
X133798683Y-92806533D02*
X133798683Y-92106533D01*
X134265350Y-92106533D02*
X134398683Y-92106533D01*
X134398683Y-92106533D02*
X134465350Y-92139866D01*
X134465350Y-92139866D02*
X134532016Y-92206533D01*
X134532016Y-92206533D02*
X134565350Y-92339866D01*
X134565350Y-92339866D02*
X134565350Y-92573200D01*
X134565350Y-92573200D02*
X134532016Y-92706533D01*
X134532016Y-92706533D02*
X134465350Y-92773200D01*
X134465350Y-92773200D02*
X134398683Y-92806533D01*
X134398683Y-92806533D02*
X134265350Y-92806533D01*
X134265350Y-92806533D02*
X134198683Y-92773200D01*
X134198683Y-92773200D02*
X134132016Y-92706533D01*
X134132016Y-92706533D02*
X134098683Y-92573200D01*
X134098683Y-92573200D02*
X134098683Y-92339866D01*
X134098683Y-92339866D02*
X134132016Y-92206533D01*
X134132016Y-92206533D02*
X134198683Y-92139866D01*
X134198683Y-92139866D02*
X134265350Y-92106533D01*
X135232016Y-92806533D02*
X134832016Y-92806533D01*
X135032016Y-92806533D02*
X135032016Y-92106533D01*
X135032016Y-92106533D02*
X134965349Y-92206533D01*
X134965349Y-92206533D02*
X134898683Y-92273200D01*
X134898683Y-92273200D02*
X134832016Y-92306533D01*
X135465350Y-92106533D02*
X135898683Y-92106533D01*
X135898683Y-92106533D02*
X135665350Y-92373200D01*
X135665350Y-92373200D02*
X135765350Y-92373200D01*
X135765350Y-92373200D02*
X135832016Y-92406533D01*
X135832016Y-92406533D02*
X135865350Y-92439866D01*
X135865350Y-92439866D02*
X135898683Y-92506533D01*
X135898683Y-92506533D02*
X135898683Y-92673200D01*
X135898683Y-92673200D02*
X135865350Y-92739866D01*
X135865350Y-92739866D02*
X135832016Y-92773200D01*
X135832016Y-92773200D02*
X135765350Y-92806533D01*
X135765350Y-92806533D02*
X135565350Y-92806533D01*
X135565350Y-92806533D02*
X135498683Y-92773200D01*
X135498683Y-92773200D02*
X135465350Y-92739866D01*
X133798683Y-95356533D02*
X133798683Y-94656533D01*
X134265350Y-94656533D02*
X134398683Y-94656533D01*
X134398683Y-94656533D02*
X134465350Y-94689866D01*
X134465350Y-94689866D02*
X134532016Y-94756533D01*
X134532016Y-94756533D02*
X134565350Y-94889866D01*
X134565350Y-94889866D02*
X134565350Y-95123200D01*
X134565350Y-95123200D02*
X134532016Y-95256533D01*
X134532016Y-95256533D02*
X134465350Y-95323200D01*
X134465350Y-95323200D02*
X134398683Y-95356533D01*
X134398683Y-95356533D02*
X134265350Y-95356533D01*
X134265350Y-95356533D02*
X134198683Y-95323200D01*
X134198683Y-95323200D02*
X134132016Y-95256533D01*
X134132016Y-95256533D02*
X134098683Y-95123200D01*
X134098683Y-95123200D02*
X134098683Y-94889866D01*
X134098683Y-94889866D02*
X134132016Y-94756533D01*
X134132016Y-94756533D02*
X134198683Y-94689866D01*
X134198683Y-94689866D02*
X134265350Y-94656533D01*
X135232016Y-95356533D02*
X134832016Y-95356533D01*
X135032016Y-95356533D02*
X135032016Y-94656533D01*
X135032016Y-94656533D02*
X134965349Y-94756533D01*
X134965349Y-94756533D02*
X134898683Y-94823200D01*
X134898683Y-94823200D02*
X134832016Y-94856533D01*
X135865350Y-94656533D02*
X135532016Y-94656533D01*
X135532016Y-94656533D02*
X135498683Y-94989866D01*
X135498683Y-94989866D02*
X135532016Y-94956533D01*
X135532016Y-94956533D02*
X135598683Y-94923200D01*
X135598683Y-94923200D02*
X135765350Y-94923200D01*
X135765350Y-94923200D02*
X135832016Y-94956533D01*
X135832016Y-94956533D02*
X135865350Y-94989866D01*
X135865350Y-94989866D02*
X135898683Y-95056533D01*
X135898683Y-95056533D02*
X135898683Y-95223200D01*
X135898683Y-95223200D02*
X135865350Y-95289866D01*
X135865350Y-95289866D02*
X135832016Y-95323200D01*
X135832016Y-95323200D02*
X135765350Y-95356533D01*
X135765350Y-95356533D02*
X135598683Y-95356533D01*
X135598683Y-95356533D02*
X135532016Y-95323200D01*
X135532016Y-95323200D02*
X135498683Y-95289866D01*
X133798684Y-87006533D02*
X134232017Y-87006533D01*
X134232017Y-87006533D02*
X133998684Y-87273200D01*
X133998684Y-87273200D02*
X134098684Y-87273200D01*
X134098684Y-87273200D02*
X134165350Y-87306533D01*
X134165350Y-87306533D02*
X134198684Y-87339866D01*
X134198684Y-87339866D02*
X134232017Y-87406533D01*
X134232017Y-87406533D02*
X134232017Y-87573200D01*
X134232017Y-87573200D02*
X134198684Y-87639866D01*
X134198684Y-87639866D02*
X134165350Y-87673200D01*
X134165350Y-87673200D02*
X134098684Y-87706533D01*
X134098684Y-87706533D02*
X133898684Y-87706533D01*
X133898684Y-87706533D02*
X133832017Y-87673200D01*
X133832017Y-87673200D02*
X133798684Y-87639866D01*
X134532017Y-87639866D02*
X134565351Y-87673200D01*
X134565351Y-87673200D02*
X134532017Y-87706533D01*
X134532017Y-87706533D02*
X134498684Y-87673200D01*
X134498684Y-87673200D02*
X134532017Y-87639866D01*
X134532017Y-87639866D02*
X134532017Y-87706533D01*
X134798684Y-87006533D02*
X135232017Y-87006533D01*
X135232017Y-87006533D02*
X134998684Y-87273200D01*
X134998684Y-87273200D02*
X135098684Y-87273200D01*
X135098684Y-87273200D02*
X135165350Y-87306533D01*
X135165350Y-87306533D02*
X135198684Y-87339866D01*
X135198684Y-87339866D02*
X135232017Y-87406533D01*
X135232017Y-87406533D02*
X135232017Y-87573200D01*
X135232017Y-87573200D02*
X135198684Y-87639866D01*
X135198684Y-87639866D02*
X135165350Y-87673200D01*
X135165350Y-87673200D02*
X135098684Y-87706533D01*
X135098684Y-87706533D02*
X134898684Y-87706533D01*
X134898684Y-87706533D02*
X134832017Y-87673200D01*
X134832017Y-87673200D02*
X134798684Y-87639866D01*
X135432017Y-87006533D02*
X135665351Y-87706533D01*
X135665351Y-87706533D02*
X135898684Y-87006533D01*
X133798683Y-90256533D02*
X133798683Y-89556533D01*
X134265350Y-89556533D02*
X134398683Y-89556533D01*
X134398683Y-89556533D02*
X134465350Y-89589866D01*
X134465350Y-89589866D02*
X134532016Y-89656533D01*
X134532016Y-89656533D02*
X134565350Y-89789866D01*
X134565350Y-89789866D02*
X134565350Y-90023200D01*
X134565350Y-90023200D02*
X134532016Y-90156533D01*
X134532016Y-90156533D02*
X134465350Y-90223200D01*
X134465350Y-90223200D02*
X134398683Y-90256533D01*
X134398683Y-90256533D02*
X134265350Y-90256533D01*
X134265350Y-90256533D02*
X134198683Y-90223200D01*
X134198683Y-90223200D02*
X134132016Y-90156533D01*
X134132016Y-90156533D02*
X134098683Y-90023200D01*
X134098683Y-90023200D02*
X134098683Y-89789866D01*
X134098683Y-89789866D02*
X134132016Y-89656533D01*
X134132016Y-89656533D02*
X134198683Y-89589866D01*
X134198683Y-89589866D02*
X134265350Y-89556533D01*
X135232016Y-90256533D02*
X134832016Y-90256533D01*
X135032016Y-90256533D02*
X135032016Y-89556533D01*
X135032016Y-89556533D02*
X134965349Y-89656533D01*
X134965349Y-89656533D02*
X134898683Y-89723200D01*
X134898683Y-89723200D02*
X134832016Y-89756533D01*
X135898683Y-90256533D02*
X135498683Y-90256533D01*
X135698683Y-90256533D02*
X135698683Y-89556533D01*
X135698683Y-89556533D02*
X135632016Y-89656533D01*
X135632016Y-89656533D02*
X135565350Y-89723200D01*
X135565350Y-89723200D02*
X135498683Y-89756533D01*
X125598684Y-97339866D02*
X125532017Y-97306533D01*
X125532017Y-97306533D02*
X125432017Y-97306533D01*
X125432017Y-97306533D02*
X125332017Y-97339866D01*
X125332017Y-97339866D02*
X125265351Y-97406533D01*
X125265351Y-97406533D02*
X125232017Y-97473200D01*
X125232017Y-97473200D02*
X125198684Y-97606533D01*
X125198684Y-97606533D02*
X125198684Y-97706533D01*
X125198684Y-97706533D02*
X125232017Y-97839866D01*
X125232017Y-97839866D02*
X125265351Y-97906533D01*
X125265351Y-97906533D02*
X125332017Y-97973200D01*
X125332017Y-97973200D02*
X125432017Y-98006533D01*
X125432017Y-98006533D02*
X125498684Y-98006533D01*
X125498684Y-98006533D02*
X125598684Y-97973200D01*
X125598684Y-97973200D02*
X125632017Y-97939866D01*
X125632017Y-97939866D02*
X125632017Y-97706533D01*
X125632017Y-97706533D02*
X125498684Y-97706533D01*
X125932017Y-98006533D02*
X125932017Y-97306533D01*
X125932017Y-97306533D02*
X126332017Y-98006533D01*
X126332017Y-98006533D02*
X126332017Y-97306533D01*
X126665350Y-98006533D02*
X126665350Y-97306533D01*
X126665350Y-97306533D02*
X126832017Y-97306533D01*
X126832017Y-97306533D02*
X126932017Y-97339866D01*
X126932017Y-97339866D02*
X126998684Y-97406533D01*
X126998684Y-97406533D02*
X127032017Y-97473200D01*
X127032017Y-97473200D02*
X127065350Y-97606533D01*
X127065350Y-97606533D02*
X127065350Y-97706533D01*
X127065350Y-97706533D02*
X127032017Y-97839866D01*
X127032017Y-97839866D02*
X126998684Y-97906533D01*
X126998684Y-97906533D02*
X126932017Y-97973200D01*
X126932017Y-97973200D02*
X126832017Y-98006533D01*
X126832017Y-98006533D02*
X126665350Y-98006533D01*
X125098683Y-95456533D02*
X125098683Y-94756533D01*
X125565350Y-94756533D02*
X125698683Y-94756533D01*
X125698683Y-94756533D02*
X125765350Y-94789866D01*
X125765350Y-94789866D02*
X125832016Y-94856533D01*
X125832016Y-94856533D02*
X125865350Y-94989866D01*
X125865350Y-94989866D02*
X125865350Y-95223200D01*
X125865350Y-95223200D02*
X125832016Y-95356533D01*
X125832016Y-95356533D02*
X125765350Y-95423200D01*
X125765350Y-95423200D02*
X125698683Y-95456533D01*
X125698683Y-95456533D02*
X125565350Y-95456533D01*
X125565350Y-95456533D02*
X125498683Y-95423200D01*
X125498683Y-95423200D02*
X125432016Y-95356533D01*
X125432016Y-95356533D02*
X125398683Y-95223200D01*
X125398683Y-95223200D02*
X125398683Y-94989866D01*
X125398683Y-94989866D02*
X125432016Y-94856533D01*
X125432016Y-94856533D02*
X125498683Y-94789866D01*
X125498683Y-94789866D02*
X125565350Y-94756533D01*
X126532016Y-95456533D02*
X126132016Y-95456533D01*
X126332016Y-95456533D02*
X126332016Y-94756533D01*
X126332016Y-94756533D02*
X126265349Y-94856533D01*
X126265349Y-94856533D02*
X126198683Y-94923200D01*
X126198683Y-94923200D02*
X126132016Y-94956533D01*
X127132016Y-94989866D02*
X127132016Y-95456533D01*
X126965350Y-94723200D02*
X126798683Y-95223200D01*
X126798683Y-95223200D02*
X127232016Y-95223200D01*
X125098683Y-92906533D02*
X125098683Y-92206533D01*
X125565350Y-92206533D02*
X125698683Y-92206533D01*
X125698683Y-92206533D02*
X125765350Y-92239866D01*
X125765350Y-92239866D02*
X125832016Y-92306533D01*
X125832016Y-92306533D02*
X125865350Y-92439866D01*
X125865350Y-92439866D02*
X125865350Y-92673200D01*
X125865350Y-92673200D02*
X125832016Y-92806533D01*
X125832016Y-92806533D02*
X125765350Y-92873200D01*
X125765350Y-92873200D02*
X125698683Y-92906533D01*
X125698683Y-92906533D02*
X125565350Y-92906533D01*
X125565350Y-92906533D02*
X125498683Y-92873200D01*
X125498683Y-92873200D02*
X125432016Y-92806533D01*
X125432016Y-92806533D02*
X125398683Y-92673200D01*
X125398683Y-92673200D02*
X125398683Y-92439866D01*
X125398683Y-92439866D02*
X125432016Y-92306533D01*
X125432016Y-92306533D02*
X125498683Y-92239866D01*
X125498683Y-92239866D02*
X125565350Y-92206533D01*
X126532016Y-92906533D02*
X126132016Y-92906533D01*
X126332016Y-92906533D02*
X126332016Y-92206533D01*
X126332016Y-92206533D02*
X126265349Y-92306533D01*
X126265349Y-92306533D02*
X126198683Y-92373200D01*
X126198683Y-92373200D02*
X126132016Y-92406533D01*
X126798683Y-92273200D02*
X126832016Y-92239866D01*
X126832016Y-92239866D02*
X126898683Y-92206533D01*
X126898683Y-92206533D02*
X127065350Y-92206533D01*
X127065350Y-92206533D02*
X127132016Y-92239866D01*
X127132016Y-92239866D02*
X127165350Y-92273200D01*
X127165350Y-92273200D02*
X127198683Y-92339866D01*
X127198683Y-92339866D02*
X127198683Y-92406533D01*
X127198683Y-92406533D02*
X127165350Y-92506533D01*
X127165350Y-92506533D02*
X126765350Y-92906533D01*
X126765350Y-92906533D02*
X127198683Y-92906533D01*
X125098683Y-90356533D02*
X125098683Y-89656533D01*
X125565350Y-89656533D02*
X125698683Y-89656533D01*
X125698683Y-89656533D02*
X125765350Y-89689866D01*
X125765350Y-89689866D02*
X125832016Y-89756533D01*
X125832016Y-89756533D02*
X125865350Y-89889866D01*
X125865350Y-89889866D02*
X125865350Y-90123200D01*
X125865350Y-90123200D02*
X125832016Y-90256533D01*
X125832016Y-90256533D02*
X125765350Y-90323200D01*
X125765350Y-90323200D02*
X125698683Y-90356533D01*
X125698683Y-90356533D02*
X125565350Y-90356533D01*
X125565350Y-90356533D02*
X125498683Y-90323200D01*
X125498683Y-90323200D02*
X125432016Y-90256533D01*
X125432016Y-90256533D02*
X125398683Y-90123200D01*
X125398683Y-90123200D02*
X125398683Y-89889866D01*
X125398683Y-89889866D02*
X125432016Y-89756533D01*
X125432016Y-89756533D02*
X125498683Y-89689866D01*
X125498683Y-89689866D02*
X125565350Y-89656533D01*
X126532016Y-90356533D02*
X126132016Y-90356533D01*
X126332016Y-90356533D02*
X126332016Y-89656533D01*
X126332016Y-89656533D02*
X126265349Y-89756533D01*
X126265349Y-89756533D02*
X126198683Y-89823200D01*
X126198683Y-89823200D02*
X126132016Y-89856533D01*
X126965350Y-89656533D02*
X127032016Y-89656533D01*
X127032016Y-89656533D02*
X127098683Y-89689866D01*
X127098683Y-89689866D02*
X127132016Y-89723200D01*
X127132016Y-89723200D02*
X127165350Y-89789866D01*
X127165350Y-89789866D02*
X127198683Y-89923200D01*
X127198683Y-89923200D02*
X127198683Y-90089866D01*
X127198683Y-90089866D02*
X127165350Y-90223200D01*
X127165350Y-90223200D02*
X127132016Y-90289866D01*
X127132016Y-90289866D02*
X127098683Y-90323200D01*
X127098683Y-90323200D02*
X127032016Y-90356533D01*
X127032016Y-90356533D02*
X126965350Y-90356533D01*
X126965350Y-90356533D02*
X126898683Y-90323200D01*
X126898683Y-90323200D02*
X126865350Y-90289866D01*
X126865350Y-90289866D02*
X126832016Y-90223200D01*
X126832016Y-90223200D02*
X126798683Y-90089866D01*
X126798683Y-90089866D02*
X126798683Y-89923200D01*
X126798683Y-89923200D02*
X126832016Y-89789866D01*
X126832016Y-89789866D02*
X126865350Y-89723200D01*
X126865350Y-89723200D02*
X126898683Y-89689866D01*
X126898683Y-89689866D02*
X126965350Y-89656533D01*
X125098684Y-87106533D02*
X125532017Y-87106533D01*
X125532017Y-87106533D02*
X125298684Y-87373200D01*
X125298684Y-87373200D02*
X125398684Y-87373200D01*
X125398684Y-87373200D02*
X125465350Y-87406533D01*
X125465350Y-87406533D02*
X125498684Y-87439866D01*
X125498684Y-87439866D02*
X125532017Y-87506533D01*
X125532017Y-87506533D02*
X125532017Y-87673200D01*
X125532017Y-87673200D02*
X125498684Y-87739866D01*
X125498684Y-87739866D02*
X125465350Y-87773200D01*
X125465350Y-87773200D02*
X125398684Y-87806533D01*
X125398684Y-87806533D02*
X125198684Y-87806533D01*
X125198684Y-87806533D02*
X125132017Y-87773200D01*
X125132017Y-87773200D02*
X125098684Y-87739866D01*
X125832017Y-87739866D02*
X125865351Y-87773200D01*
X125865351Y-87773200D02*
X125832017Y-87806533D01*
X125832017Y-87806533D02*
X125798684Y-87773200D01*
X125798684Y-87773200D02*
X125832017Y-87739866D01*
X125832017Y-87739866D02*
X125832017Y-87806533D01*
X126098684Y-87106533D02*
X126532017Y-87106533D01*
X126532017Y-87106533D02*
X126298684Y-87373200D01*
X126298684Y-87373200D02*
X126398684Y-87373200D01*
X126398684Y-87373200D02*
X126465350Y-87406533D01*
X126465350Y-87406533D02*
X126498684Y-87439866D01*
X126498684Y-87439866D02*
X126532017Y-87506533D01*
X126532017Y-87506533D02*
X126532017Y-87673200D01*
X126532017Y-87673200D02*
X126498684Y-87739866D01*
X126498684Y-87739866D02*
X126465350Y-87773200D01*
X126465350Y-87773200D02*
X126398684Y-87806533D01*
X126398684Y-87806533D02*
X126198684Y-87806533D01*
X126198684Y-87806533D02*
X126132017Y-87773200D01*
X126132017Y-87773200D02*
X126098684Y-87739866D01*
X126732017Y-87106533D02*
X126965351Y-87806533D01*
X126965351Y-87806533D02*
X127198684Y-87106533D01*
X125236779Y-112169819D02*
X125236779Y-112979342D01*
X125236779Y-112979342D02*
X125284398Y-113074580D01*
X125284398Y-113074580D02*
X125332017Y-113122200D01*
X125332017Y-113122200D02*
X125427255Y-113169819D01*
X125427255Y-113169819D02*
X125617731Y-113169819D01*
X125617731Y-113169819D02*
X125712969Y-113122200D01*
X125712969Y-113122200D02*
X125760588Y-113074580D01*
X125760588Y-113074580D02*
X125808207Y-112979342D01*
X125808207Y-112979342D02*
X125808207Y-112169819D01*
X126236779Y-113122200D02*
X126379636Y-113169819D01*
X126379636Y-113169819D02*
X126617731Y-113169819D01*
X126617731Y-113169819D02*
X126712969Y-113122200D01*
X126712969Y-113122200D02*
X126760588Y-113074580D01*
X126760588Y-113074580D02*
X126808207Y-112979342D01*
X126808207Y-112979342D02*
X126808207Y-112884104D01*
X126808207Y-112884104D02*
X126760588Y-112788866D01*
X126760588Y-112788866D02*
X126712969Y-112741247D01*
X126712969Y-112741247D02*
X126617731Y-112693628D01*
X126617731Y-112693628D02*
X126427255Y-112646009D01*
X126427255Y-112646009D02*
X126332017Y-112598390D01*
X126332017Y-112598390D02*
X126284398Y-112550771D01*
X126284398Y-112550771D02*
X126236779Y-112455533D01*
X126236779Y-112455533D02*
X126236779Y-112360295D01*
X126236779Y-112360295D02*
X126284398Y-112265057D01*
X126284398Y-112265057D02*
X126332017Y-112217438D01*
X126332017Y-112217438D02*
X126427255Y-112169819D01*
X126427255Y-112169819D02*
X126665350Y-112169819D01*
X126665350Y-112169819D02*
X126808207Y-112217438D01*
X127236779Y-112646009D02*
X127570112Y-112646009D01*
X127712969Y-113169819D02*
X127236779Y-113169819D01*
X127236779Y-113169819D02*
X127236779Y-112169819D01*
X127236779Y-112169819D02*
X127712969Y-112169819D01*
X128712969Y-113169819D02*
X128379636Y-112693628D01*
X128141541Y-113169819D02*
X128141541Y-112169819D01*
X128141541Y-112169819D02*
X128522493Y-112169819D01*
X128522493Y-112169819D02*
X128617731Y-112217438D01*
X128617731Y-112217438D02*
X128665350Y-112265057D01*
X128665350Y-112265057D02*
X128712969Y-112360295D01*
X128712969Y-112360295D02*
X128712969Y-112503152D01*
X128712969Y-112503152D02*
X128665350Y-112598390D01*
X128665350Y-112598390D02*
X128617731Y-112646009D01*
X128617731Y-112646009D02*
X128522493Y-112693628D01*
X128522493Y-112693628D02*
X128141541Y-112693628D01*
X129855827Y-113122200D02*
X129998684Y-113169819D01*
X129998684Y-113169819D02*
X130236779Y-113169819D01*
X130236779Y-113169819D02*
X130332017Y-113122200D01*
X130332017Y-113122200D02*
X130379636Y-113074580D01*
X130379636Y-113074580D02*
X130427255Y-112979342D01*
X130427255Y-112979342D02*
X130427255Y-112884104D01*
X130427255Y-112884104D02*
X130379636Y-112788866D01*
X130379636Y-112788866D02*
X130332017Y-112741247D01*
X130332017Y-112741247D02*
X130236779Y-112693628D01*
X130236779Y-112693628D02*
X130046303Y-112646009D01*
X130046303Y-112646009D02*
X129951065Y-112598390D01*
X129951065Y-112598390D02*
X129903446Y-112550771D01*
X129903446Y-112550771D02*
X129855827Y-112455533D01*
X129855827Y-112455533D02*
X129855827Y-112360295D01*
X129855827Y-112360295D02*
X129903446Y-112265057D01*
X129903446Y-112265057D02*
X129951065Y-112217438D01*
X129951065Y-112217438D02*
X130046303Y-112169819D01*
X130046303Y-112169819D02*
X130284398Y-112169819D01*
X130284398Y-112169819D02*
X130427255Y-112217438D01*
X130760589Y-112169819D02*
X130998684Y-113169819D01*
X130998684Y-113169819D02*
X131189160Y-112455533D01*
X131189160Y-112455533D02*
X131379636Y-113169819D01*
X131379636Y-113169819D02*
X131617732Y-112169819D01*
X164708207Y-97169819D02*
X164374874Y-96693628D01*
X164136779Y-97169819D02*
X164136779Y-96169819D01*
X164136779Y-96169819D02*
X164517731Y-96169819D01*
X164517731Y-96169819D02*
X164612969Y-96217438D01*
X164612969Y-96217438D02*
X164660588Y-96265057D01*
X164660588Y-96265057D02*
X164708207Y-96360295D01*
X164708207Y-96360295D02*
X164708207Y-96503152D01*
X164708207Y-96503152D02*
X164660588Y-96598390D01*
X164660588Y-96598390D02*
X164612969Y-96646009D01*
X164612969Y-96646009D02*
X164517731Y-96693628D01*
X164517731Y-96693628D02*
X164136779Y-96693628D01*
X165136779Y-96646009D02*
X165470112Y-96646009D01*
X165612969Y-97169819D02*
X165136779Y-97169819D01*
X165136779Y-97169819D02*
X165136779Y-96169819D01*
X165136779Y-96169819D02*
X165612969Y-96169819D01*
X165993922Y-97122200D02*
X166136779Y-97169819D01*
X166136779Y-97169819D02*
X166374874Y-97169819D01*
X166374874Y-97169819D02*
X166470112Y-97122200D01*
X166470112Y-97122200D02*
X166517731Y-97074580D01*
X166517731Y-97074580D02*
X166565350Y-96979342D01*
X166565350Y-96979342D02*
X166565350Y-96884104D01*
X166565350Y-96884104D02*
X166517731Y-96788866D01*
X166517731Y-96788866D02*
X166470112Y-96741247D01*
X166470112Y-96741247D02*
X166374874Y-96693628D01*
X166374874Y-96693628D02*
X166184398Y-96646009D01*
X166184398Y-96646009D02*
X166089160Y-96598390D01*
X166089160Y-96598390D02*
X166041541Y-96550771D01*
X166041541Y-96550771D02*
X165993922Y-96455533D01*
X165993922Y-96455533D02*
X165993922Y-96360295D01*
X165993922Y-96360295D02*
X166041541Y-96265057D01*
X166041541Y-96265057D02*
X166089160Y-96217438D01*
X166089160Y-96217438D02*
X166184398Y-96169819D01*
X166184398Y-96169819D02*
X166422493Y-96169819D01*
X166422493Y-96169819D02*
X166565350Y-96217438D01*
X166993922Y-96646009D02*
X167327255Y-96646009D01*
X167470112Y-97169819D02*
X166993922Y-97169819D01*
X166993922Y-97169819D02*
X166993922Y-96169819D01*
X166993922Y-96169819D02*
X167470112Y-96169819D01*
X167755827Y-96169819D02*
X168327255Y-96169819D01*
X168041541Y-97169819D02*
X168041541Y-96169819D01*
X165103445Y-104765057D02*
X165008207Y-104717438D01*
X165008207Y-104717438D02*
X164912969Y-104622200D01*
X164912969Y-104622200D02*
X164770112Y-104479342D01*
X164770112Y-104479342D02*
X164674874Y-104431723D01*
X164674874Y-104431723D02*
X164579636Y-104431723D01*
X164627255Y-104669819D02*
X164532017Y-104622200D01*
X164532017Y-104622200D02*
X164436779Y-104526961D01*
X164436779Y-104526961D02*
X164389160Y-104336485D01*
X164389160Y-104336485D02*
X164389160Y-104003152D01*
X164389160Y-104003152D02*
X164436779Y-103812676D01*
X164436779Y-103812676D02*
X164532017Y-103717438D01*
X164532017Y-103717438D02*
X164627255Y-103669819D01*
X164627255Y-103669819D02*
X164817731Y-103669819D01*
X164817731Y-103669819D02*
X164912969Y-103717438D01*
X164912969Y-103717438D02*
X165008207Y-103812676D01*
X165008207Y-103812676D02*
X165055826Y-104003152D01*
X165055826Y-104003152D02*
X165055826Y-104336485D01*
X165055826Y-104336485D02*
X165008207Y-104526961D01*
X165008207Y-104526961D02*
X164912969Y-104622200D01*
X164912969Y-104622200D02*
X164817731Y-104669819D01*
X164817731Y-104669819D02*
X164627255Y-104669819D01*
X165389160Y-103669819D02*
X165627255Y-104669819D01*
X165627255Y-104669819D02*
X165817731Y-103955533D01*
X165817731Y-103955533D02*
X166008207Y-104669819D01*
X166008207Y-104669819D02*
X166246303Y-103669819D01*
X166627255Y-104669819D02*
X166627255Y-103669819D01*
X167103445Y-104669819D02*
X167103445Y-103669819D01*
X168151063Y-104574580D02*
X168103444Y-104622200D01*
X168103444Y-104622200D02*
X167960587Y-104669819D01*
X167960587Y-104669819D02*
X167865349Y-104669819D01*
X167865349Y-104669819D02*
X167722492Y-104622200D01*
X167722492Y-104622200D02*
X167627254Y-104526961D01*
X167627254Y-104526961D02*
X167579635Y-104431723D01*
X167579635Y-104431723D02*
X167532016Y-104241247D01*
X167532016Y-104241247D02*
X167532016Y-104098390D01*
X167532016Y-104098390D02*
X167579635Y-103907914D01*
X167579635Y-103907914D02*
X167627254Y-103812676D01*
X167627254Y-103812676D02*
X167722492Y-103717438D01*
X167722492Y-103717438D02*
X167865349Y-103669819D01*
X167865349Y-103669819D02*
X167960587Y-103669819D01*
X167960587Y-103669819D02*
X168103444Y-103717438D01*
X168103444Y-103717438D02*
X168151063Y-103765057D01*
X163396666Y-85074819D02*
X163396666Y-85789104D01*
X163396666Y-85789104D02*
X163349047Y-85931961D01*
X163349047Y-85931961D02*
X163253809Y-86027200D01*
X163253809Y-86027200D02*
X163110952Y-86074819D01*
X163110952Y-86074819D02*
X163015714Y-86074819D01*
X164301428Y-85408152D02*
X164301428Y-86074819D01*
X164063333Y-85027200D02*
X163825238Y-85741485D01*
X163825238Y-85741485D02*
X164444285Y-85741485D01*
X161954819Y-106133333D02*
X162669104Y-106133333D01*
X162669104Y-106133333D02*
X162811961Y-106180952D01*
X162811961Y-106180952D02*
X162907200Y-106276190D01*
X162907200Y-106276190D02*
X162954819Y-106419047D01*
X162954819Y-106419047D02*
X162954819Y-106514285D01*
X162050057Y-105704761D02*
X162002438Y-105657142D01*
X162002438Y-105657142D02*
X161954819Y-105561904D01*
X161954819Y-105561904D02*
X161954819Y-105323809D01*
X161954819Y-105323809D02*
X162002438Y-105228571D01*
X162002438Y-105228571D02*
X162050057Y-105180952D01*
X162050057Y-105180952D02*
X162145295Y-105133333D01*
X162145295Y-105133333D02*
X162240533Y-105133333D01*
X162240533Y-105133333D02*
X162383390Y-105180952D01*
X162383390Y-105180952D02*
X162954819Y-105752380D01*
X162954819Y-105752380D02*
X162954819Y-105133333D01*
X126666667Y-101707200D02*
X126809524Y-101754819D01*
X126809524Y-101754819D02*
X127047619Y-101754819D01*
X127047619Y-101754819D02*
X127142857Y-101707200D01*
X127142857Y-101707200D02*
X127190476Y-101659580D01*
X127190476Y-101659580D02*
X127238095Y-101564342D01*
X127238095Y-101564342D02*
X127238095Y-101469104D01*
X127238095Y-101469104D02*
X127190476Y-101373866D01*
X127190476Y-101373866D02*
X127142857Y-101326247D01*
X127142857Y-101326247D02*
X127047619Y-101278628D01*
X127047619Y-101278628D02*
X126857143Y-101231009D01*
X126857143Y-101231009D02*
X126761905Y-101183390D01*
X126761905Y-101183390D02*
X126714286Y-101135771D01*
X126714286Y-101135771D02*
X126666667Y-101040533D01*
X126666667Y-101040533D02*
X126666667Y-100945295D01*
X126666667Y-100945295D02*
X126714286Y-100850057D01*
X126714286Y-100850057D02*
X126761905Y-100802438D01*
X126761905Y-100802438D02*
X126857143Y-100754819D01*
X126857143Y-100754819D02*
X127095238Y-100754819D01*
X127095238Y-100754819D02*
X127238095Y-100802438D01*
X127571429Y-100754819D02*
X127809524Y-101754819D01*
X127809524Y-101754819D02*
X128000000Y-101040533D01*
X128000000Y-101040533D02*
X128190476Y-101754819D01*
X128190476Y-101754819D02*
X128428572Y-100754819D01*
X129333333Y-101754819D02*
X128761905Y-101754819D01*
X129047619Y-101754819D02*
X129047619Y-100754819D01*
X129047619Y-100754819D02*
X128952381Y-100897676D01*
X128952381Y-100897676D02*
X128857143Y-100992914D01*
X128857143Y-100992914D02*
X128761905Y-101040533D01*
X149333333Y-110959580D02*
X149285714Y-111007200D01*
X149285714Y-111007200D02*
X149142857Y-111054819D01*
X149142857Y-111054819D02*
X149047619Y-111054819D01*
X149047619Y-111054819D02*
X148904762Y-111007200D01*
X148904762Y-111007200D02*
X148809524Y-110911961D01*
X148809524Y-110911961D02*
X148761905Y-110816723D01*
X148761905Y-110816723D02*
X148714286Y-110626247D01*
X148714286Y-110626247D02*
X148714286Y-110483390D01*
X148714286Y-110483390D02*
X148761905Y-110292914D01*
X148761905Y-110292914D02*
X148809524Y-110197676D01*
X148809524Y-110197676D02*
X148904762Y-110102438D01*
X148904762Y-110102438D02*
X149047619Y-110054819D01*
X149047619Y-110054819D02*
X149142857Y-110054819D01*
X149142857Y-110054819D02*
X149285714Y-110102438D01*
X149285714Y-110102438D02*
X149333333Y-110150057D01*
X150285714Y-111054819D02*
X149714286Y-111054819D01*
X150000000Y-111054819D02*
X150000000Y-110054819D01*
X150000000Y-110054819D02*
X149904762Y-110197676D01*
X149904762Y-110197676D02*
X149809524Y-110292914D01*
X149809524Y-110292914D02*
X149714286Y-110340533D01*
X135554819Y-84961904D02*
X136364342Y-84961904D01*
X136364342Y-84961904D02*
X136459580Y-84914285D01*
X136459580Y-84914285D02*
X136507200Y-84866666D01*
X136507200Y-84866666D02*
X136554819Y-84771428D01*
X136554819Y-84771428D02*
X136554819Y-84580952D01*
X136554819Y-84580952D02*
X136507200Y-84485714D01*
X136507200Y-84485714D02*
X136459580Y-84438095D01*
X136459580Y-84438095D02*
X136364342Y-84390476D01*
X136364342Y-84390476D02*
X135554819Y-84390476D01*
X135650057Y-83961904D02*
X135602438Y-83914285D01*
X135602438Y-83914285D02*
X135554819Y-83819047D01*
X135554819Y-83819047D02*
X135554819Y-83580952D01*
X135554819Y-83580952D02*
X135602438Y-83485714D01*
X135602438Y-83485714D02*
X135650057Y-83438095D01*
X135650057Y-83438095D02*
X135745295Y-83390476D01*
X135745295Y-83390476D02*
X135840533Y-83390476D01*
X135840533Y-83390476D02*
X135983390Y-83438095D01*
X135983390Y-83438095D02*
X136554819Y-84009523D01*
X136554819Y-84009523D02*
X136554819Y-83390476D01*
X151433333Y-114254819D02*
X151100000Y-113778628D01*
X150861905Y-114254819D02*
X150861905Y-113254819D01*
X150861905Y-113254819D02*
X151242857Y-113254819D01*
X151242857Y-113254819D02*
X151338095Y-113302438D01*
X151338095Y-113302438D02*
X151385714Y-113350057D01*
X151385714Y-113350057D02*
X151433333Y-113445295D01*
X151433333Y-113445295D02*
X151433333Y-113588152D01*
X151433333Y-113588152D02*
X151385714Y-113683390D01*
X151385714Y-113683390D02*
X151338095Y-113731009D01*
X151338095Y-113731009D02*
X151242857Y-113778628D01*
X151242857Y-113778628D02*
X150861905Y-113778628D01*
X151766667Y-113254819D02*
X152385714Y-113254819D01*
X152385714Y-113254819D02*
X152052381Y-113635771D01*
X152052381Y-113635771D02*
X152195238Y-113635771D01*
X152195238Y-113635771D02*
X152290476Y-113683390D01*
X152290476Y-113683390D02*
X152338095Y-113731009D01*
X152338095Y-113731009D02*
X152385714Y-113826247D01*
X152385714Y-113826247D02*
X152385714Y-114064342D01*
X152385714Y-114064342D02*
X152338095Y-114159580D01*
X152338095Y-114159580D02*
X152290476Y-114207200D01*
X152290476Y-114207200D02*
X152195238Y-114254819D01*
X152195238Y-114254819D02*
X151909524Y-114254819D01*
X151909524Y-114254819D02*
X151814286Y-114207200D01*
X151814286Y-114207200D02*
X151766667Y-114159580D01*
X135959580Y-81866666D02*
X136007200Y-81914285D01*
X136007200Y-81914285D02*
X136054819Y-82057142D01*
X136054819Y-82057142D02*
X136054819Y-82152380D01*
X136054819Y-82152380D02*
X136007200Y-82295237D01*
X136007200Y-82295237D02*
X135911961Y-82390475D01*
X135911961Y-82390475D02*
X135816723Y-82438094D01*
X135816723Y-82438094D02*
X135626247Y-82485713D01*
X135626247Y-82485713D02*
X135483390Y-82485713D01*
X135483390Y-82485713D02*
X135292914Y-82438094D01*
X135292914Y-82438094D02*
X135197676Y-82390475D01*
X135197676Y-82390475D02*
X135102438Y-82295237D01*
X135102438Y-82295237D02*
X135054819Y-82152380D01*
X135054819Y-82152380D02*
X135054819Y-82057142D01*
X135054819Y-82057142D02*
X135102438Y-81914285D01*
X135102438Y-81914285D02*
X135150057Y-81866666D01*
X135054819Y-81009523D02*
X135054819Y-81199999D01*
X135054819Y-81199999D02*
X135102438Y-81295237D01*
X135102438Y-81295237D02*
X135150057Y-81342856D01*
X135150057Y-81342856D02*
X135292914Y-81438094D01*
X135292914Y-81438094D02*
X135483390Y-81485713D01*
X135483390Y-81485713D02*
X135864342Y-81485713D01*
X135864342Y-81485713D02*
X135959580Y-81438094D01*
X135959580Y-81438094D02*
X136007200Y-81390475D01*
X136007200Y-81390475D02*
X136054819Y-81295237D01*
X136054819Y-81295237D02*
X136054819Y-81104761D01*
X136054819Y-81104761D02*
X136007200Y-81009523D01*
X136007200Y-81009523D02*
X135959580Y-80961904D01*
X135959580Y-80961904D02*
X135864342Y-80914285D01*
X135864342Y-80914285D02*
X135626247Y-80914285D01*
X135626247Y-80914285D02*
X135531009Y-80961904D01*
X135531009Y-80961904D02*
X135483390Y-81009523D01*
X135483390Y-81009523D02*
X135435771Y-81104761D01*
X135435771Y-81104761D02*
X135435771Y-81295237D01*
X135435771Y-81295237D02*
X135483390Y-81390475D01*
X135483390Y-81390475D02*
X135531009Y-81438094D01*
X135531009Y-81438094D02*
X135626247Y-81485713D01*
X161654819Y-103566666D02*
X161178628Y-103899999D01*
X161654819Y-104138094D02*
X160654819Y-104138094D01*
X160654819Y-104138094D02*
X160654819Y-103757142D01*
X160654819Y-103757142D02*
X160702438Y-103661904D01*
X160702438Y-103661904D02*
X160750057Y-103614285D01*
X160750057Y-103614285D02*
X160845295Y-103566666D01*
X160845295Y-103566666D02*
X160988152Y-103566666D01*
X160988152Y-103566666D02*
X161083390Y-103614285D01*
X161083390Y-103614285D02*
X161131009Y-103661904D01*
X161131009Y-103661904D02*
X161178628Y-103757142D01*
X161178628Y-103757142D02*
X161178628Y-104138094D01*
X160750057Y-103185713D02*
X160702438Y-103138094D01*
X160702438Y-103138094D02*
X160654819Y-103042856D01*
X160654819Y-103042856D02*
X160654819Y-102804761D01*
X160654819Y-102804761D02*
X160702438Y-102709523D01*
X160702438Y-102709523D02*
X160750057Y-102661904D01*
X160750057Y-102661904D02*
X160845295Y-102614285D01*
X160845295Y-102614285D02*
X160940533Y-102614285D01*
X160940533Y-102614285D02*
X161083390Y-102661904D01*
X161083390Y-102661904D02*
X161654819Y-103233332D01*
X161654819Y-103233332D02*
X161654819Y-102614285D01*
X137554819Y-105261904D02*
X138364342Y-105261904D01*
X138364342Y-105261904D02*
X138459580Y-105214285D01*
X138459580Y-105214285D02*
X138507200Y-105166666D01*
X138507200Y-105166666D02*
X138554819Y-105071428D01*
X138554819Y-105071428D02*
X138554819Y-104880952D01*
X138554819Y-104880952D02*
X138507200Y-104785714D01*
X138507200Y-104785714D02*
X138459580Y-104738095D01*
X138459580Y-104738095D02*
X138364342Y-104690476D01*
X138364342Y-104690476D02*
X137554819Y-104690476D01*
X138554819Y-103690476D02*
X138554819Y-104261904D01*
X138554819Y-103976190D02*
X137554819Y-103976190D01*
X137554819Y-103976190D02*
X137697676Y-104071428D01*
X137697676Y-104071428D02*
X137792914Y-104166666D01*
X137792914Y-104166666D02*
X137840533Y-104261904D01*
X159454819Y-104166666D02*
X158978628Y-104499999D01*
X159454819Y-104738094D02*
X158454819Y-104738094D01*
X158454819Y-104738094D02*
X158454819Y-104357142D01*
X158454819Y-104357142D02*
X158502438Y-104261904D01*
X158502438Y-104261904D02*
X158550057Y-104214285D01*
X158550057Y-104214285D02*
X158645295Y-104166666D01*
X158645295Y-104166666D02*
X158788152Y-104166666D01*
X158788152Y-104166666D02*
X158883390Y-104214285D01*
X158883390Y-104214285D02*
X158931009Y-104261904D01*
X158931009Y-104261904D02*
X158978628Y-104357142D01*
X158978628Y-104357142D02*
X158978628Y-104738094D01*
X159454819Y-103214285D02*
X159454819Y-103785713D01*
X159454819Y-103499999D02*
X158454819Y-103499999D01*
X158454819Y-103499999D02*
X158597676Y-103595237D01*
X158597676Y-103595237D02*
X158692914Y-103690475D01*
X158692914Y-103690475D02*
X158740533Y-103785713D01*
X136354819Y-102966666D02*
X135878628Y-103299999D01*
X136354819Y-103538094D02*
X135354819Y-103538094D01*
X135354819Y-103538094D02*
X135354819Y-103157142D01*
X135354819Y-103157142D02*
X135402438Y-103061904D01*
X135402438Y-103061904D02*
X135450057Y-103014285D01*
X135450057Y-103014285D02*
X135545295Y-102966666D01*
X135545295Y-102966666D02*
X135688152Y-102966666D01*
X135688152Y-102966666D02*
X135783390Y-103014285D01*
X135783390Y-103014285D02*
X135831009Y-103061904D01*
X135831009Y-103061904D02*
X135878628Y-103157142D01*
X135878628Y-103157142D02*
X135878628Y-103538094D01*
X135354819Y-102109523D02*
X135354819Y-102299999D01*
X135354819Y-102299999D02*
X135402438Y-102395237D01*
X135402438Y-102395237D02*
X135450057Y-102442856D01*
X135450057Y-102442856D02*
X135592914Y-102538094D01*
X135592914Y-102538094D02*
X135783390Y-102585713D01*
X135783390Y-102585713D02*
X136164342Y-102585713D01*
X136164342Y-102585713D02*
X136259580Y-102538094D01*
X136259580Y-102538094D02*
X136307200Y-102490475D01*
X136307200Y-102490475D02*
X136354819Y-102395237D01*
X136354819Y-102395237D02*
X136354819Y-102204761D01*
X136354819Y-102204761D02*
X136307200Y-102109523D01*
X136307200Y-102109523D02*
X136259580Y-102061904D01*
X136259580Y-102061904D02*
X136164342Y-102014285D01*
X136164342Y-102014285D02*
X135926247Y-102014285D01*
X135926247Y-102014285D02*
X135831009Y-102061904D01*
X135831009Y-102061904D02*
X135783390Y-102109523D01*
X135783390Y-102109523D02*
X135735771Y-102204761D01*
X135735771Y-102204761D02*
X135735771Y-102395237D01*
X135735771Y-102395237D02*
X135783390Y-102490475D01*
X135783390Y-102490475D02*
X135831009Y-102538094D01*
X135831009Y-102538094D02*
X135926247Y-102585713D01*
X136289580Y-106866666D02*
X136337200Y-106914285D01*
X136337200Y-106914285D02*
X136384819Y-107057142D01*
X136384819Y-107057142D02*
X136384819Y-107152380D01*
X136384819Y-107152380D02*
X136337200Y-107295237D01*
X136337200Y-107295237D02*
X136241961Y-107390475D01*
X136241961Y-107390475D02*
X136146723Y-107438094D01*
X136146723Y-107438094D02*
X135956247Y-107485713D01*
X135956247Y-107485713D02*
X135813390Y-107485713D01*
X135813390Y-107485713D02*
X135622914Y-107438094D01*
X135622914Y-107438094D02*
X135527676Y-107390475D01*
X135527676Y-107390475D02*
X135432438Y-107295237D01*
X135432438Y-107295237D02*
X135384819Y-107152380D01*
X135384819Y-107152380D02*
X135384819Y-107057142D01*
X135384819Y-107057142D02*
X135432438Y-106914285D01*
X135432438Y-106914285D02*
X135480057Y-106866666D01*
X135384819Y-106533332D02*
X135384819Y-105914285D01*
X135384819Y-105914285D02*
X135765771Y-106247618D01*
X135765771Y-106247618D02*
X135765771Y-106104761D01*
X135765771Y-106104761D02*
X135813390Y-106009523D01*
X135813390Y-106009523D02*
X135861009Y-105961904D01*
X135861009Y-105961904D02*
X135956247Y-105914285D01*
X135956247Y-105914285D02*
X136194342Y-105914285D01*
X136194342Y-105914285D02*
X136289580Y-105961904D01*
X136289580Y-105961904D02*
X136337200Y-106009523D01*
X136337200Y-106009523D02*
X136384819Y-106104761D01*
X136384819Y-106104761D02*
X136384819Y-106390475D01*
X136384819Y-106390475D02*
X136337200Y-106485713D01*
X136337200Y-106485713D02*
X136289580Y-106533332D01*
X133454819Y-105038094D02*
X132454819Y-105038094D01*
X132454819Y-105038094D02*
X132454819Y-104799999D01*
X132454819Y-104799999D02*
X132502438Y-104657142D01*
X132502438Y-104657142D02*
X132597676Y-104561904D01*
X132597676Y-104561904D02*
X132692914Y-104514285D01*
X132692914Y-104514285D02*
X132883390Y-104466666D01*
X132883390Y-104466666D02*
X133026247Y-104466666D01*
X133026247Y-104466666D02*
X133216723Y-104514285D01*
X133216723Y-104514285D02*
X133311961Y-104561904D01*
X133311961Y-104561904D02*
X133407200Y-104657142D01*
X133407200Y-104657142D02*
X133454819Y-104799999D01*
X133454819Y-104799999D02*
X133454819Y-105038094D01*
X132454819Y-104133332D02*
X132454819Y-103514285D01*
X132454819Y-103514285D02*
X132835771Y-103847618D01*
X132835771Y-103847618D02*
X132835771Y-103704761D01*
X132835771Y-103704761D02*
X132883390Y-103609523D01*
X132883390Y-103609523D02*
X132931009Y-103561904D01*
X132931009Y-103561904D02*
X133026247Y-103514285D01*
X133026247Y-103514285D02*
X133264342Y-103514285D01*
X133264342Y-103514285D02*
X133359580Y-103561904D01*
X133359580Y-103561904D02*
X133407200Y-103609523D01*
X133407200Y-103609523D02*
X133454819Y-103704761D01*
X133454819Y-103704761D02*
X133454819Y-103990475D01*
X133454819Y-103990475D02*
X133407200Y-104085713D01*
X133407200Y-104085713D02*
X133359580Y-104133332D01*
X164666667Y-102007200D02*
X164809524Y-102054819D01*
X164809524Y-102054819D02*
X165047619Y-102054819D01*
X165047619Y-102054819D02*
X165142857Y-102007200D01*
X165142857Y-102007200D02*
X165190476Y-101959580D01*
X165190476Y-101959580D02*
X165238095Y-101864342D01*
X165238095Y-101864342D02*
X165238095Y-101769104D01*
X165238095Y-101769104D02*
X165190476Y-101673866D01*
X165190476Y-101673866D02*
X165142857Y-101626247D01*
X165142857Y-101626247D02*
X165047619Y-101578628D01*
X165047619Y-101578628D02*
X164857143Y-101531009D01*
X164857143Y-101531009D02*
X164761905Y-101483390D01*
X164761905Y-101483390D02*
X164714286Y-101435771D01*
X164714286Y-101435771D02*
X164666667Y-101340533D01*
X164666667Y-101340533D02*
X164666667Y-101245295D01*
X164666667Y-101245295D02*
X164714286Y-101150057D01*
X164714286Y-101150057D02*
X164761905Y-101102438D01*
X164761905Y-101102438D02*
X164857143Y-101054819D01*
X164857143Y-101054819D02*
X165095238Y-101054819D01*
X165095238Y-101054819D02*
X165238095Y-101102438D01*
X165571429Y-101054819D02*
X165809524Y-102054819D01*
X165809524Y-102054819D02*
X166000000Y-101340533D01*
X166000000Y-101340533D02*
X166190476Y-102054819D01*
X166190476Y-102054819D02*
X166428572Y-101054819D01*
X166761905Y-101150057D02*
X166809524Y-101102438D01*
X166809524Y-101102438D02*
X166904762Y-101054819D01*
X166904762Y-101054819D02*
X167142857Y-101054819D01*
X167142857Y-101054819D02*
X167238095Y-101102438D01*
X167238095Y-101102438D02*
X167285714Y-101150057D01*
X167285714Y-101150057D02*
X167333333Y-101245295D01*
X167333333Y-101245295D02*
X167333333Y-101340533D01*
X167333333Y-101340533D02*
X167285714Y-101483390D01*
X167285714Y-101483390D02*
X166714286Y-102054819D01*
X166714286Y-102054819D02*
X167333333Y-102054819D01*
X139533333Y-100054819D02*
X139200000Y-99578628D01*
X138961905Y-100054819D02*
X138961905Y-99054819D01*
X138961905Y-99054819D02*
X139342857Y-99054819D01*
X139342857Y-99054819D02*
X139438095Y-99102438D01*
X139438095Y-99102438D02*
X139485714Y-99150057D01*
X139485714Y-99150057D02*
X139533333Y-99245295D01*
X139533333Y-99245295D02*
X139533333Y-99388152D01*
X139533333Y-99388152D02*
X139485714Y-99483390D01*
X139485714Y-99483390D02*
X139438095Y-99531009D01*
X139438095Y-99531009D02*
X139342857Y-99578628D01*
X139342857Y-99578628D02*
X138961905Y-99578628D01*
X140009524Y-100054819D02*
X140200000Y-100054819D01*
X140200000Y-100054819D02*
X140295238Y-100007200D01*
X140295238Y-100007200D02*
X140342857Y-99959580D01*
X140342857Y-99959580D02*
X140438095Y-99816723D01*
X140438095Y-99816723D02*
X140485714Y-99626247D01*
X140485714Y-99626247D02*
X140485714Y-99245295D01*
X140485714Y-99245295D02*
X140438095Y-99150057D01*
X140438095Y-99150057D02*
X140390476Y-99102438D01*
X140390476Y-99102438D02*
X140295238Y-99054819D01*
X140295238Y-99054819D02*
X140104762Y-99054819D01*
X140104762Y-99054819D02*
X140009524Y-99102438D01*
X140009524Y-99102438D02*
X139961905Y-99150057D01*
X139961905Y-99150057D02*
X139914286Y-99245295D01*
X139914286Y-99245295D02*
X139914286Y-99483390D01*
X139914286Y-99483390D02*
X139961905Y-99578628D01*
X139961905Y-99578628D02*
X140009524Y-99626247D01*
X140009524Y-99626247D02*
X140104762Y-99673866D01*
X140104762Y-99673866D02*
X140295238Y-99673866D01*
X140295238Y-99673866D02*
X140390476Y-99626247D01*
X140390476Y-99626247D02*
X140438095Y-99578628D01*
X140438095Y-99578628D02*
X140485714Y-99483390D01*
X159154819Y-97066666D02*
X158678628Y-97399999D01*
X159154819Y-97638094D02*
X158154819Y-97638094D01*
X158154819Y-97638094D02*
X158154819Y-97257142D01*
X158154819Y-97257142D02*
X158202438Y-97161904D01*
X158202438Y-97161904D02*
X158250057Y-97114285D01*
X158250057Y-97114285D02*
X158345295Y-97066666D01*
X158345295Y-97066666D02*
X158488152Y-97066666D01*
X158488152Y-97066666D02*
X158583390Y-97114285D01*
X158583390Y-97114285D02*
X158631009Y-97161904D01*
X158631009Y-97161904D02*
X158678628Y-97257142D01*
X158678628Y-97257142D02*
X158678628Y-97638094D01*
X158583390Y-96495237D02*
X158535771Y-96590475D01*
X158535771Y-96590475D02*
X158488152Y-96638094D01*
X158488152Y-96638094D02*
X158392914Y-96685713D01*
X158392914Y-96685713D02*
X158345295Y-96685713D01*
X158345295Y-96685713D02*
X158250057Y-96638094D01*
X158250057Y-96638094D02*
X158202438Y-96590475D01*
X158202438Y-96590475D02*
X158154819Y-96495237D01*
X158154819Y-96495237D02*
X158154819Y-96304761D01*
X158154819Y-96304761D02*
X158202438Y-96209523D01*
X158202438Y-96209523D02*
X158250057Y-96161904D01*
X158250057Y-96161904D02*
X158345295Y-96114285D01*
X158345295Y-96114285D02*
X158392914Y-96114285D01*
X158392914Y-96114285D02*
X158488152Y-96161904D01*
X158488152Y-96161904D02*
X158535771Y-96209523D01*
X158535771Y-96209523D02*
X158583390Y-96304761D01*
X158583390Y-96304761D02*
X158583390Y-96495237D01*
X158583390Y-96495237D02*
X158631009Y-96590475D01*
X158631009Y-96590475D02*
X158678628Y-96638094D01*
X158678628Y-96638094D02*
X158773866Y-96685713D01*
X158773866Y-96685713D02*
X158964342Y-96685713D01*
X158964342Y-96685713D02*
X159059580Y-96638094D01*
X159059580Y-96638094D02*
X159107200Y-96590475D01*
X159107200Y-96590475D02*
X159154819Y-96495237D01*
X159154819Y-96495237D02*
X159154819Y-96304761D01*
X159154819Y-96304761D02*
X159107200Y-96209523D01*
X159107200Y-96209523D02*
X159059580Y-96161904D01*
X159059580Y-96161904D02*
X158964342Y-96114285D01*
X158964342Y-96114285D02*
X158773866Y-96114285D01*
X158773866Y-96114285D02*
X158678628Y-96161904D01*
X158678628Y-96161904D02*
X158631009Y-96209523D01*
X158631009Y-96209523D02*
X158583390Y-96304761D01*
X138933333Y-115954819D02*
X138600000Y-115478628D01*
X138361905Y-115954819D02*
X138361905Y-114954819D01*
X138361905Y-114954819D02*
X138742857Y-114954819D01*
X138742857Y-114954819D02*
X138838095Y-115002438D01*
X138838095Y-115002438D02*
X138885714Y-115050057D01*
X138885714Y-115050057D02*
X138933333Y-115145295D01*
X138933333Y-115145295D02*
X138933333Y-115288152D01*
X138933333Y-115288152D02*
X138885714Y-115383390D01*
X138885714Y-115383390D02*
X138838095Y-115431009D01*
X138838095Y-115431009D02*
X138742857Y-115478628D01*
X138742857Y-115478628D02*
X138361905Y-115478628D01*
X139266667Y-114954819D02*
X139933333Y-114954819D01*
X139933333Y-114954819D02*
X139504762Y-115954819D01*
X161133333Y-114354819D02*
X160800000Y-113878628D01*
X160561905Y-114354819D02*
X160561905Y-113354819D01*
X160561905Y-113354819D02*
X160942857Y-113354819D01*
X160942857Y-113354819D02*
X161038095Y-113402438D01*
X161038095Y-113402438D02*
X161085714Y-113450057D01*
X161085714Y-113450057D02*
X161133333Y-113545295D01*
X161133333Y-113545295D02*
X161133333Y-113688152D01*
X161133333Y-113688152D02*
X161085714Y-113783390D01*
X161085714Y-113783390D02*
X161038095Y-113831009D01*
X161038095Y-113831009D02*
X160942857Y-113878628D01*
X160942857Y-113878628D02*
X160561905Y-113878628D01*
X162038095Y-113354819D02*
X161561905Y-113354819D01*
X161561905Y-113354819D02*
X161514286Y-113831009D01*
X161514286Y-113831009D02*
X161561905Y-113783390D01*
X161561905Y-113783390D02*
X161657143Y-113735771D01*
X161657143Y-113735771D02*
X161895238Y-113735771D01*
X161895238Y-113735771D02*
X161990476Y-113783390D01*
X161990476Y-113783390D02*
X162038095Y-113831009D01*
X162038095Y-113831009D02*
X162085714Y-113926247D01*
X162085714Y-113926247D02*
X162085714Y-114164342D01*
X162085714Y-114164342D02*
X162038095Y-114259580D01*
X162038095Y-114259580D02*
X161990476Y-114307200D01*
X161990476Y-114307200D02*
X161895238Y-114354819D01*
X161895238Y-114354819D02*
X161657143Y-114354819D01*
X161657143Y-114354819D02*
X161561905Y-114307200D01*
X161561905Y-114307200D02*
X161514286Y-114259580D01*
X161133333Y-115854819D02*
X160800000Y-115378628D01*
X160561905Y-115854819D02*
X160561905Y-114854819D01*
X160561905Y-114854819D02*
X160942857Y-114854819D01*
X160942857Y-114854819D02*
X161038095Y-114902438D01*
X161038095Y-114902438D02*
X161085714Y-114950057D01*
X161085714Y-114950057D02*
X161133333Y-115045295D01*
X161133333Y-115045295D02*
X161133333Y-115188152D01*
X161133333Y-115188152D02*
X161085714Y-115283390D01*
X161085714Y-115283390D02*
X161038095Y-115331009D01*
X161038095Y-115331009D02*
X160942857Y-115378628D01*
X160942857Y-115378628D02*
X160561905Y-115378628D01*
X161990476Y-115188152D02*
X161990476Y-115854819D01*
X161752381Y-114807200D02*
X161514286Y-115521485D01*
X161514286Y-115521485D02*
X162133333Y-115521485D01*
X130131666Y-84534819D02*
X130131666Y-85249104D01*
X130131666Y-85249104D02*
X130084047Y-85391961D01*
X130084047Y-85391961D02*
X129988809Y-85487200D01*
X129988809Y-85487200D02*
X129845952Y-85534819D01*
X129845952Y-85534819D02*
X129750714Y-85534819D01*
X130512619Y-84534819D02*
X131131666Y-84534819D01*
X131131666Y-84534819D02*
X130798333Y-84915771D01*
X130798333Y-84915771D02*
X130941190Y-84915771D01*
X130941190Y-84915771D02*
X131036428Y-84963390D01*
X131036428Y-84963390D02*
X131084047Y-85011009D01*
X131084047Y-85011009D02*
X131131666Y-85106247D01*
X131131666Y-85106247D02*
X131131666Y-85344342D01*
X131131666Y-85344342D02*
X131084047Y-85439580D01*
X131084047Y-85439580D02*
X131036428Y-85487200D01*
X131036428Y-85487200D02*
X130941190Y-85534819D01*
X130941190Y-85534819D02*
X130655476Y-85534819D01*
X130655476Y-85534819D02*
X130560238Y-85487200D01*
X130560238Y-85487200D02*
X130512619Y-85439580D01*
X163054819Y-97938094D02*
X162054819Y-97938094D01*
X162054819Y-97938094D02*
X162054819Y-97699999D01*
X162054819Y-97699999D02*
X162102438Y-97557142D01*
X162102438Y-97557142D02*
X162197676Y-97461904D01*
X162197676Y-97461904D02*
X162292914Y-97414285D01*
X162292914Y-97414285D02*
X162483390Y-97366666D01*
X162483390Y-97366666D02*
X162626247Y-97366666D01*
X162626247Y-97366666D02*
X162816723Y-97414285D01*
X162816723Y-97414285D02*
X162911961Y-97461904D01*
X162911961Y-97461904D02*
X163007200Y-97557142D01*
X163007200Y-97557142D02*
X163054819Y-97699999D01*
X163054819Y-97699999D02*
X163054819Y-97938094D01*
X162388152Y-96509523D02*
X163054819Y-96509523D01*
X162007200Y-96747618D02*
X162721485Y-96985713D01*
X162721485Y-96985713D02*
X162721485Y-96366666D01*
X134761905Y-115854819D02*
X134761905Y-114854819D01*
X134761905Y-114854819D02*
X135000000Y-114854819D01*
X135000000Y-114854819D02*
X135142857Y-114902438D01*
X135142857Y-114902438D02*
X135238095Y-114997676D01*
X135238095Y-114997676D02*
X135285714Y-115092914D01*
X135285714Y-115092914D02*
X135333333Y-115283390D01*
X135333333Y-115283390D02*
X135333333Y-115426247D01*
X135333333Y-115426247D02*
X135285714Y-115616723D01*
X135285714Y-115616723D02*
X135238095Y-115711961D01*
X135238095Y-115711961D02*
X135142857Y-115807200D01*
X135142857Y-115807200D02*
X135000000Y-115854819D01*
X135000000Y-115854819D02*
X134761905Y-115854819D01*
X135714286Y-114950057D02*
X135761905Y-114902438D01*
X135761905Y-114902438D02*
X135857143Y-114854819D01*
X135857143Y-114854819D02*
X136095238Y-114854819D01*
X136095238Y-114854819D02*
X136190476Y-114902438D01*
X136190476Y-114902438D02*
X136238095Y-114950057D01*
X136238095Y-114950057D02*
X136285714Y-115045295D01*
X136285714Y-115045295D02*
X136285714Y-115140533D01*
X136285714Y-115140533D02*
X136238095Y-115283390D01*
X136238095Y-115283390D02*
X135666667Y-115854819D01*
X135666667Y-115854819D02*
X136285714Y-115854819D01*
X155411905Y-112654819D02*
X155411905Y-111654819D01*
X155411905Y-111654819D02*
X155650000Y-111654819D01*
X155650000Y-111654819D02*
X155792857Y-111702438D01*
X155792857Y-111702438D02*
X155888095Y-111797676D01*
X155888095Y-111797676D02*
X155935714Y-111892914D01*
X155935714Y-111892914D02*
X155983333Y-112083390D01*
X155983333Y-112083390D02*
X155983333Y-112226247D01*
X155983333Y-112226247D02*
X155935714Y-112416723D01*
X155935714Y-112416723D02*
X155888095Y-112511961D01*
X155888095Y-112511961D02*
X155792857Y-112607200D01*
X155792857Y-112607200D02*
X155650000Y-112654819D01*
X155650000Y-112654819D02*
X155411905Y-112654819D01*
X156935714Y-112654819D02*
X156364286Y-112654819D01*
X156650000Y-112654819D02*
X156650000Y-111654819D01*
X156650000Y-111654819D02*
X156554762Y-111797676D01*
X156554762Y-111797676D02*
X156459524Y-111892914D01*
X156459524Y-111892914D02*
X156364286Y-111940533D01*
X133159580Y-81666666D02*
X133207200Y-81714285D01*
X133207200Y-81714285D02*
X133254819Y-81857142D01*
X133254819Y-81857142D02*
X133254819Y-81952380D01*
X133254819Y-81952380D02*
X133207200Y-82095237D01*
X133207200Y-82095237D02*
X133111961Y-82190475D01*
X133111961Y-82190475D02*
X133016723Y-82238094D01*
X133016723Y-82238094D02*
X132826247Y-82285713D01*
X132826247Y-82285713D02*
X132683390Y-82285713D01*
X132683390Y-82285713D02*
X132492914Y-82238094D01*
X132492914Y-82238094D02*
X132397676Y-82190475D01*
X132397676Y-82190475D02*
X132302438Y-82095237D01*
X132302438Y-82095237D02*
X132254819Y-81952380D01*
X132254819Y-81952380D02*
X132254819Y-81857142D01*
X132254819Y-81857142D02*
X132302438Y-81714285D01*
X132302438Y-81714285D02*
X132350057Y-81666666D01*
X132254819Y-80761904D02*
X132254819Y-81238094D01*
X132254819Y-81238094D02*
X132731009Y-81285713D01*
X132731009Y-81285713D02*
X132683390Y-81238094D01*
X132683390Y-81238094D02*
X132635771Y-81142856D01*
X132635771Y-81142856D02*
X132635771Y-80904761D01*
X132635771Y-80904761D02*
X132683390Y-80809523D01*
X132683390Y-80809523D02*
X132731009Y-80761904D01*
X132731009Y-80761904D02*
X132826247Y-80714285D01*
X132826247Y-80714285D02*
X133064342Y-80714285D01*
X133064342Y-80714285D02*
X133159580Y-80761904D01*
X133159580Y-80761904D02*
X133207200Y-80809523D01*
X133207200Y-80809523D02*
X133254819Y-80904761D01*
X133254819Y-80904761D02*
X133254819Y-81142856D01*
X133254819Y-81142856D02*
X133207200Y-81238094D01*
X133207200Y-81238094D02*
X133159580Y-81285713D01*
X158959580Y-100066666D02*
X159007200Y-100114285D01*
X159007200Y-100114285D02*
X159054819Y-100257142D01*
X159054819Y-100257142D02*
X159054819Y-100352380D01*
X159054819Y-100352380D02*
X159007200Y-100495237D01*
X159007200Y-100495237D02*
X158911961Y-100590475D01*
X158911961Y-100590475D02*
X158816723Y-100638094D01*
X158816723Y-100638094D02*
X158626247Y-100685713D01*
X158626247Y-100685713D02*
X158483390Y-100685713D01*
X158483390Y-100685713D02*
X158292914Y-100638094D01*
X158292914Y-100638094D02*
X158197676Y-100590475D01*
X158197676Y-100590475D02*
X158102438Y-100495237D01*
X158102438Y-100495237D02*
X158054819Y-100352380D01*
X158054819Y-100352380D02*
X158054819Y-100257142D01*
X158054819Y-100257142D02*
X158102438Y-100114285D01*
X158102438Y-100114285D02*
X158150057Y-100066666D01*
X158388152Y-99209523D02*
X159054819Y-99209523D01*
X158007200Y-99447618D02*
X158721485Y-99685713D01*
X158721485Y-99685713D02*
X158721485Y-99066666D01*
X140933333Y-112359580D02*
X140885714Y-112407200D01*
X140885714Y-112407200D02*
X140742857Y-112454819D01*
X140742857Y-112454819D02*
X140647619Y-112454819D01*
X140647619Y-112454819D02*
X140504762Y-112407200D01*
X140504762Y-112407200D02*
X140409524Y-112311961D01*
X140409524Y-112311961D02*
X140361905Y-112216723D01*
X140361905Y-112216723D02*
X140314286Y-112026247D01*
X140314286Y-112026247D02*
X140314286Y-111883390D01*
X140314286Y-111883390D02*
X140361905Y-111692914D01*
X140361905Y-111692914D02*
X140409524Y-111597676D01*
X140409524Y-111597676D02*
X140504762Y-111502438D01*
X140504762Y-111502438D02*
X140647619Y-111454819D01*
X140647619Y-111454819D02*
X140742857Y-111454819D01*
X140742857Y-111454819D02*
X140885714Y-111502438D01*
X140885714Y-111502438D02*
X140933333Y-111550057D01*
X141314286Y-111550057D02*
X141361905Y-111502438D01*
X141361905Y-111502438D02*
X141457143Y-111454819D01*
X141457143Y-111454819D02*
X141695238Y-111454819D01*
X141695238Y-111454819D02*
X141790476Y-111502438D01*
X141790476Y-111502438D02*
X141838095Y-111550057D01*
X141838095Y-111550057D02*
X141885714Y-111645295D01*
X141885714Y-111645295D02*
X141885714Y-111740533D01*
X141885714Y-111740533D02*
X141838095Y-111883390D01*
X141838095Y-111883390D02*
X141266667Y-112454819D01*
X141266667Y-112454819D02*
X141885714Y-112454819D01*
X146401666Y-111502319D02*
X146401666Y-112216604D01*
X146401666Y-112216604D02*
X146354047Y-112359461D01*
X146354047Y-112359461D02*
X146258809Y-112454700D01*
X146258809Y-112454700D02*
X146115952Y-112502319D01*
X146115952Y-112502319D02*
X146020714Y-112502319D01*
X147401666Y-112502319D02*
X146830238Y-112502319D01*
X147115952Y-112502319D02*
X147115952Y-111502319D01*
X147115952Y-111502319D02*
X147020714Y-111645176D01*
X147020714Y-111645176D02*
X146925476Y-111740414D01*
X146925476Y-111740414D02*
X146830238Y-111788033D01*
D12*
%TO.C,J4*%
X161080000Y-86620000D02*
X162460000Y-86620000D01*
X161080000Y-88000000D02*
X161080000Y-86620000D01*
X161080000Y-89270000D02*
X161080000Y-94460000D01*
X161080000Y-89270000D02*
X163730000Y-89270000D01*
X161080000Y-94460000D02*
X166380000Y-94460000D01*
X163730000Y-86620000D02*
X166380000Y-86620000D01*
X163730000Y-89270000D02*
X163730000Y-86620000D01*
X166380000Y-86620000D02*
X166380000Y-94460000D01*
%TO.C,J2*%
X163950000Y-112110000D02*
X163950000Y-111060000D01*
X166450000Y-112110000D02*
X163950000Y-112110000D01*
X163950000Y-111060000D02*
X162960000Y-111060000D01*
X168420000Y-110940000D02*
X168420000Y-107060000D01*
X163950000Y-105890000D02*
X163950000Y-106940000D01*
X166450000Y-105890000D02*
X163950000Y-105890000D01*
%TO.C,SW1*%
X126010000Y-110885000D02*
X128110000Y-110885000D01*
X130710000Y-110885000D02*
X131220000Y-110885000D01*
X131220000Y-110885000D02*
X131220000Y-110365000D01*
X127880000Y-110365000D02*
X128110000Y-110365000D01*
X127880000Y-110365000D02*
X127880000Y-109825000D01*
X130710000Y-110365000D02*
X131220000Y-110365000D01*
X127880000Y-108725000D02*
X127880000Y-105325000D01*
X127880000Y-104225000D02*
X127880000Y-103685000D01*
X127880000Y-103685000D02*
X128110000Y-103685000D01*
X130710000Y-103685000D02*
X131220000Y-103685000D01*
X131220000Y-103685000D02*
X131220000Y-103165000D01*
X126010000Y-103165000D02*
X128110000Y-103165000D01*
X130710000Y-103165000D02*
X131220000Y-103165000D01*
%TO.C,C1*%
X145659420Y-109990000D02*
X145940580Y-109990000D01*
X145659420Y-111010000D02*
X145940580Y-111010000D01*
%TO.C,U2*%
X137635000Y-76115000D02*
X137135000Y-76115000D01*
X137635000Y-75615000D01*
X137635000Y-76115000D01*
G36*
X137635000Y-76115000D02*
G01*
X137135000Y-76115000D01*
X137635000Y-75615000D01*
X137635000Y-76115000D01*
G37*
X156035000Y-95090000D02*
X156035000Y-94090000D01*
X156035000Y-95090000D02*
X154535000Y-95090000D01*
X156035000Y-69240000D02*
X156035000Y-75440000D01*
X137635000Y-95090000D02*
X139135000Y-95090000D01*
X137635000Y-94090000D02*
X137635000Y-95090000D01*
X137635000Y-69240000D02*
X156035000Y-69240000D01*
X137635000Y-69240000D02*
X137635000Y-75440000D01*
%TO.C,R3*%
X152553641Y-114820000D02*
X152246359Y-114820000D01*
X152553641Y-115580000D02*
X152246359Y-115580000D01*
%TO.C,C6*%
X135140000Y-78572164D02*
X135140000Y-78787836D01*
X135860000Y-78572164D02*
X135860000Y-78787836D01*
%TO.C,R2*%
X160980000Y-106856359D02*
X160980000Y-107163641D01*
X160220000Y-106856359D02*
X160220000Y-107163641D01*
%TO.C,U1*%
X139190000Y-106350000D02*
X139190000Y-102590000D01*
X146010000Y-106350000D02*
X146010000Y-102590000D01*
X139190000Y-102590000D02*
X140450000Y-102590000D01*
X146010000Y-102590000D02*
X144750000Y-102590000D01*
X139290000Y-107630000D02*
X138960000Y-107870000D01*
X138960000Y-107390000D01*
X139290000Y-107630000D01*
G36*
X139290000Y-107630000D02*
G01*
X138960000Y-107870000D01*
X138960000Y-107390000D01*
X139290000Y-107630000D01*
G37*
%TO.C,R1*%
X158620000Y-106836359D02*
X158620000Y-107143641D01*
X159380000Y-106836359D02*
X159380000Y-107143641D01*
%TO.C,R6*%
X134120000Y-103756359D02*
X134120000Y-104063641D01*
X134880000Y-103756359D02*
X134880000Y-104063641D01*
%TO.C,C3*%
X133990000Y-106559420D02*
X133990000Y-106840580D01*
X135010000Y-106559420D02*
X135010000Y-106840580D01*
%TO.C,D3*%
X133400000Y-105900000D02*
X133400000Y-107260000D01*
X132600000Y-105900000D02*
X132600000Y-107260000D01*
X132600000Y-107260000D02*
X133400000Y-107260000D01*
%TO.C,SW2*%
X167650000Y-100500000D02*
X164350000Y-100500000D01*
X167650000Y-100200000D02*
X167650000Y-100500000D01*
X167650000Y-98000000D02*
X167650000Y-97700000D01*
X167650000Y-97700000D02*
X164350000Y-97700000D01*
X164350000Y-100500000D02*
X164350000Y-100200000D01*
X164350000Y-97700000D02*
X164350000Y-98000000D01*
%TO.C,R9*%
X140553641Y-98480000D02*
X140246359Y-98480000D01*
X140553641Y-97720000D02*
X140246359Y-97720000D01*
%TO.C,R8*%
X160480000Y-97036359D02*
X160480000Y-97343641D01*
X159720000Y-97036359D02*
X159720000Y-97343641D01*
%TO.C,R7*%
X139253641Y-117180000D02*
X138946359Y-117180000D01*
X139253641Y-116420000D02*
X138946359Y-116420000D01*
%TO.C,R5*%
X159246359Y-113420000D02*
X159553641Y-113420000D01*
X159246359Y-114180000D02*
X159553641Y-114180000D01*
%TO.C,R4*%
X159146359Y-114820000D02*
X159453641Y-114820000D01*
X159146359Y-115580000D02*
X159453641Y-115580000D01*
%TO.C,J3*%
X127815000Y-86080000D02*
X129195000Y-86080000D01*
X127815000Y-87460000D02*
X127815000Y-86080000D01*
X127815000Y-88730000D02*
X127815000Y-99000000D01*
X127815000Y-88730000D02*
X130465000Y-88730000D01*
X127815000Y-99000000D02*
X133115000Y-99000000D01*
X130465000Y-86080000D02*
X133115000Y-86080000D01*
X130465000Y-88730000D02*
X130465000Y-86080000D01*
X133115000Y-86080000D02*
X133115000Y-99000000D01*
%TO.C,D4*%
X162100000Y-100360000D02*
X162900000Y-100360000D01*
X162100000Y-99000000D02*
X162100000Y-100360000D01*
X162900000Y-99000000D02*
X162900000Y-100360000D01*
%TO.C,D2*%
X133840000Y-116065000D02*
X133840000Y-117535000D01*
X133840000Y-117535000D02*
X136300000Y-117535000D01*
X136300000Y-116065000D02*
X133840000Y-116065000D01*
%TO.C,D1*%
X157910000Y-116010000D02*
X153890000Y-116010000D01*
X153890000Y-113290000D01*
X154190000Y-112990000D01*
X157910000Y-112990000D01*
X157910000Y-116010000D01*
%TO.C,C5*%
X134310000Y-78834420D02*
X134310000Y-79115580D01*
X133290000Y-78834420D02*
X133290000Y-79115580D01*
%TO.C,C4*%
X160610000Y-99759420D02*
X160610000Y-100040580D01*
X159590000Y-99759420D02*
X159590000Y-100040580D01*
%TO.C,C2*%
X141965580Y-111010000D02*
X141684420Y-111010000D01*
X141965580Y-109990000D02*
X141684420Y-109990000D01*
%TO.C,J1*%
X143115000Y-113047500D02*
X150355000Y-113047500D01*
X143115000Y-119267500D02*
X150355000Y-119267500D01*
X143115000Y-120367500D02*
X150355000Y-120367500D01*
X143115000Y-120887500D02*
X143115000Y-113047500D01*
X144685000Y-120887500D02*
X143115000Y-120887500D01*
X150355000Y-113047500D02*
X150355000Y-120887500D01*
X150355000Y-120887500D02*
X145285000Y-120887500D01*
X145425000Y-121497500D02*
X144545000Y-121497500D01*
X144985000Y-120887500D01*
X145425000Y-121497500D01*
G36*
X145425000Y-121497500D02*
G01*
X144545000Y-121497500D01*
X144985000Y-120887500D01*
X145425000Y-121497500D01*
G37*
%TD*%
M02*
