%TF.GenerationSoftware,KiCad,Pcbnew,9.0.7*%
%TF.CreationDate,2026-09-10T20:05:49+01:00*%
%TF.ProjectId,ESP32-S3-SMALL,45535033-322d-4533-932d-534d414c4c2e,rev?*%
%TF.SameCoordinates,Original*%
%TF.FileFunction,Copper,L2,Inr*%
%TF.FilePolarity,Positive*%
%FSLAX46Y46*%
G04 Gerber Fmt 4.6, Leading zero omitted, Abs format (unit mm)*
G04 Created by KiCad (PCBNEW 9.0.7) date 2026-09-10 20:05:49*
%MOMM*%
%LPD*%
G01*
G04 APERTURE LIST*
G04 Aperture macros list*
%AMRoundRect*
0 Rectangle with rounded corners*
0 $1 Rounding radius*
0 $2 $3 $4 $5 $6 $7 $8 $9 X,Y pos of 4 corners*
0 Add a 4 corners polygon primitive as box body*
4,1,4,$2,$3,$4,$5,$6,$7,$8,$9,$2,$3,0*
0 Add four circle primitives for the rounded corners*
1,1,$1+$1,$2,$3*
1,1,$1+$1,$4,$5*
1,1,$1+$1,$6,$7*
1,1,$1+$1,$8,$9*
0 Add four rect primitives between the rounded corners*
20,1,$1+$1,$2,$3,$4,$5,0*
20,1,$1+$1,$4,$5,$6,$7,0*
20,1,$1+$1,$6,$7,$8,$9,0*
20,1,$1+$1,$8,$9,$2,$3,0*%
G04 Aperture macros list end*
%TA.AperFunction,ComponentPad*%
%ADD10R,1.700000X1.700000*%
%TD*%
%TA.AperFunction,ComponentPad*%
%ADD11C,1.700000*%
%TD*%
%TA.AperFunction,ComponentPad*%
%ADD12C,2.100000*%
%TD*%
%TA.AperFunction,ComponentPad*%
%ADD13C,1.750000*%
%TD*%
%TA.AperFunction,HeatsinkPad*%
%ADD14C,0.600000*%
%TD*%
%TA.AperFunction,ComponentPad*%
%ADD15RoundRect,0.250001X-0.949999X-0.949999X0.949999X-0.949999X0.949999X0.949999X-0.949999X0.949999X0*%
%TD*%
%TA.AperFunction,ComponentPad*%
%ADD16C,2.400000*%
%TD*%
%TA.AperFunction,ViaPad*%
%ADD17C,0.600000*%
%TD*%
G04 APERTURE END LIST*
D10*
%TO.N,/ESP_EN*%
%TO.C,J4*%
X162460000Y-88000000D03*
D11*
%TO.N,+3V3*%
X165000000Y-88000000D03*
%TO.N,/ESP_TXD*%
X162460000Y-90540000D03*
%TO.N,GND*%
X165000000Y-90540000D03*
%TO.N,/ESP_RND*%
X162460000Y-93080000D03*
%TO.N,/ESP_IO0*%
X165000000Y-93080000D03*
%TD*%
D12*
%TO.N,*%
%TO.C,SW1*%
X129400000Y-110525000D03*
X129400000Y-103515000D03*
D13*
%TO.N,GND*%
X126910000Y-109275000D03*
%TO.N,/USR_SW*%
X126910000Y-104775000D03*
%TD*%
D14*
%TO.N,GND*%
%TO.C,U2*%
X146735000Y-85300000D03*
X146735000Y-83900000D03*
X146035000Y-86000000D03*
X146035000Y-84600000D03*
X146035000Y-83200000D03*
X145335000Y-85300000D03*
X145335000Y-83900000D03*
X144635000Y-86000000D03*
X144635000Y-84600000D03*
X144635000Y-83200000D03*
X143935000Y-85300000D03*
X143935000Y-83900000D03*
%TD*%
D10*
%TO.N,+3V3*%
%TO.C,J3*%
X129195000Y-87460000D03*
D11*
X131735000Y-87460000D03*
%TO.N,/IO10*%
X129195000Y-90000000D03*
%TO.N,/IO11*%
X131735000Y-90000000D03*
%TO.N,/IO12*%
X129195000Y-92540000D03*
%TO.N,/IO13*%
X131735000Y-92540000D03*
%TO.N,/IO14*%
X129195000Y-95080000D03*
%TO.N,/IO15*%
X131735000Y-95080000D03*
%TO.N,GND*%
X129195000Y-97620000D03*
X131735000Y-97620000D03*
%TD*%
D15*
%TO.N,+5V*%
%TO.C,J1*%
X144985000Y-116267500D03*
D16*
%TO.N,GND*%
X148485000Y-116267500D03*
%TD*%
D17*
%TO.N,GND*%
X165200000Y-110500000D03*
X143800000Y-98500000D03*
X141800000Y-97000000D03*
X137500000Y-97800000D03*
%TO.N,+3V3*%
X142600000Y-111900000D03*
X152900000Y-113800000D03*
%TO.N,/LED_B*%
X153400000Y-86000000D03*
%TO.N,/LED_R*%
X151400000Y-88300000D03*
X150700000Y-106800000D03*
%TO.N,/LED_B*%
X157000000Y-108800000D03*
%TO.N,/LED_G*%
X152800000Y-87100000D03*
X159810000Y-117500000D03*
%TO.N,/ESP_IO0*%
X155585000Y-95000000D03*
%TO.N,/ESP_EN*%
X140400000Y-79500000D03*
%TO.N,/ESP_RND*%
X157200000Y-82000000D03*
%TO.N,/ESP_TXD*%
X157900000Y-80700000D03*
%TO.N,+3V3*%
X157500000Y-106500000D03*
X160600000Y-105000000D03*
%TO.N,/IO14*%
X148700000Y-96700000D03*
%TO.N,/IO12*%
X146300000Y-96200000D03*
%TO.N,/IO13*%
X147250000Y-93250000D03*
%TO.N,/IO10*%
X143500000Y-93300000D03*
%TO.N,/IO11*%
X144900000Y-93100000D03*
%TO.N,Net-(U2-GPIO20{slash}USB_D+)*%
X145700000Y-92000000D03*
%TO.N,Net-(U2-GPIO19{slash}USB_D-)*%
X142200000Y-91100000D03*
%TO.N,/USR_SW*%
X150000000Y-97500000D03*
%TO.N,+3V3*%
X160100000Y-95700000D03*
%TO.N,GND*%
X160100000Y-102000000D03*
X162500000Y-100800000D03*
X167700000Y-96400000D03*
%TO.N,+3V3*%
X165200000Y-109500000D03*
%TO.N,GND*%
X133200000Y-116800000D03*
%TO.N,+3V3*%
X140700000Y-116800000D03*
%TO.N,GND*%
X148100000Y-110500000D03*
X139800000Y-110500000D03*
%TO.N,+3V3*%
X142100000Y-98100000D03*
X132700000Y-78200000D03*
%TO.N,GND*%
X135500000Y-80200000D03*
X133800000Y-80900000D03*
%TO.N,+3V3*%
X134500000Y-102400000D03*
%TO.N,GND*%
X133000000Y-107800000D03*
X134500000Y-108700000D03*
%TO.N,/USR_SW*%
X136480000Y-104420000D03*
%TD*%
%TA.AperFunction,Conductor*%
%TO.N,GND*%
G36*
X165089921Y-76500619D02*
G01*
X165118658Y-76502030D01*
X165425673Y-76517113D01*
X165435315Y-76518063D01*
X165765415Y-76567029D01*
X165774921Y-76568919D01*
X166098644Y-76650008D01*
X166107915Y-76652820D01*
X166422125Y-76765246D01*
X166431094Y-76768961D01*
X166732763Y-76911640D01*
X166741326Y-76916218D01*
X167027549Y-77087773D01*
X167035627Y-77093171D01*
X167303650Y-77291951D01*
X167311160Y-77298114D01*
X167558421Y-77522218D01*
X167565281Y-77529078D01*
X167690984Y-77667770D01*
X167789385Y-77776339D01*
X167795548Y-77783849D01*
X167994328Y-78051872D01*
X167999726Y-78059950D01*
X168171281Y-78346173D01*
X168175861Y-78354741D01*
X168318536Y-78656402D01*
X168322254Y-78665378D01*
X168434675Y-78979571D01*
X168437495Y-78988868D01*
X168518577Y-79312567D01*
X168520472Y-79322096D01*
X168569434Y-79652170D01*
X168570387Y-79661838D01*
X168586881Y-79997577D01*
X168587000Y-80002435D01*
X168587000Y-116997564D01*
X168586881Y-117002422D01*
X168570387Y-117338161D01*
X168569434Y-117347829D01*
X168520472Y-117677903D01*
X168518577Y-117687432D01*
X168437495Y-118011131D01*
X168434675Y-118020428D01*
X168322254Y-118334621D01*
X168318536Y-118343597D01*
X168175861Y-118645258D01*
X168171281Y-118653826D01*
X167999726Y-118940049D01*
X167994328Y-118948127D01*
X167795548Y-119216150D01*
X167789385Y-119223660D01*
X167565286Y-119470916D01*
X167558416Y-119477786D01*
X167311160Y-119701885D01*
X167303650Y-119708048D01*
X167035627Y-119906828D01*
X167027549Y-119912226D01*
X166741326Y-120083781D01*
X166732758Y-120088361D01*
X166431097Y-120231036D01*
X166422121Y-120234754D01*
X166107928Y-120347175D01*
X166098631Y-120349995D01*
X165774932Y-120431077D01*
X165765403Y-120432972D01*
X165435329Y-120481934D01*
X165425661Y-120482887D01*
X165089922Y-120499381D01*
X165085064Y-120499500D01*
X128089936Y-120499500D01*
X128085078Y-120499381D01*
X127749338Y-120482887D01*
X127739670Y-120481934D01*
X127409596Y-120432972D01*
X127400067Y-120431077D01*
X127076368Y-120349995D01*
X127067071Y-120347175D01*
X126752878Y-120234754D01*
X126743902Y-120231036D01*
X126442241Y-120088361D01*
X126433673Y-120083781D01*
X126147450Y-119912226D01*
X126139372Y-119906828D01*
X125871349Y-119708048D01*
X125863839Y-119701885D01*
X125616583Y-119477786D01*
X125609718Y-119470921D01*
X125385614Y-119223660D01*
X125379451Y-119216150D01*
X125180671Y-118948127D01*
X125175273Y-118940049D01*
X125045723Y-118723908D01*
X125003716Y-118653823D01*
X124999138Y-118645258D01*
X124950270Y-118541936D01*
X124856461Y-118343594D01*
X124852745Y-118334621D01*
X124740320Y-118020415D01*
X124737508Y-118011144D01*
X124656419Y-117687421D01*
X124654529Y-117677915D01*
X124605563Y-117347815D01*
X124604613Y-117338173D01*
X124588119Y-117002421D01*
X124588000Y-116997564D01*
X124588000Y-116878710D01*
X126884500Y-116878710D01*
X126884500Y-117121289D01*
X126916161Y-117361781D01*
X126916161Y-117361786D01*
X126978944Y-117596092D01*
X126978948Y-117596105D01*
X127071772Y-117820204D01*
X127071774Y-117820208D01*
X127071776Y-117820212D01*
X127187371Y-118020428D01*
X127193066Y-118030292D01*
X127340729Y-118222731D01*
X127340731Y-118222733D01*
X127340735Y-118222738D01*
X127512262Y-118394265D01*
X127512266Y-118394268D01*
X127512268Y-118394270D01*
X127704707Y-118541933D01*
X127704711Y-118541936D01*
X127914788Y-118663224D01*
X128138900Y-118756054D01*
X128373211Y-118818838D01*
X128613712Y-118850500D01*
X128613713Y-118850500D01*
X128856287Y-118850500D01*
X128856288Y-118850500D01*
X129096789Y-118818838D01*
X129331100Y-118756054D01*
X129555212Y-118663224D01*
X129765289Y-118541936D01*
X129957738Y-118394265D01*
X130129265Y-118222738D01*
X130276936Y-118030289D01*
X130398224Y-117820212D01*
X130491054Y-117596100D01*
X130553838Y-117361789D01*
X130585500Y-117121288D01*
X130585500Y-116878712D01*
X130566463Y-116734108D01*
X140199500Y-116734108D01*
X140199500Y-116865892D01*
X140217778Y-116934108D01*
X140233609Y-116993190D01*
X140299496Y-117107309D01*
X140299498Y-117107311D01*
X140299500Y-117107314D01*
X140392686Y-117200500D01*
X140392688Y-117200501D01*
X140392690Y-117200503D01*
X140506810Y-117266390D01*
X140506808Y-117266390D01*
X140506812Y-117266391D01*
X140506814Y-117266392D01*
X140634108Y-117300500D01*
X140634110Y-117300500D01*
X140765890Y-117300500D01*
X140765892Y-117300500D01*
X140893186Y-117266392D01*
X140893188Y-117266390D01*
X140893190Y-117266390D01*
X141007309Y-117200503D01*
X141007309Y-117200502D01*
X141007314Y-117200500D01*
X141100500Y-117107314D01*
X141100503Y-117107309D01*
X141166390Y-116993190D01*
X141166390Y-116993188D01*
X141166392Y-116993186D01*
X141200500Y-116865892D01*
X141200500Y-116734108D01*
X141166392Y-116606814D01*
X141166390Y-116606811D01*
X141166390Y-116606809D01*
X141100503Y-116492690D01*
X141100501Y-116492688D01*
X141100500Y-116492686D01*
X141007314Y-116399500D01*
X141007311Y-116399498D01*
X141007309Y-116399496D01*
X140893189Y-116333609D01*
X140893191Y-116333609D01*
X140843799Y-116320375D01*
X140765892Y-116299500D01*
X140634108Y-116299500D01*
X140556200Y-116320375D01*
X140506809Y-116333609D01*
X140392690Y-116399496D01*
X140299496Y-116492690D01*
X140233609Y-116606809D01*
X140233608Y-116606814D01*
X140199500Y-116734108D01*
X130566463Y-116734108D01*
X130553838Y-116638211D01*
X130491054Y-116403900D01*
X130398224Y-116179788D01*
X130276936Y-115969711D01*
X130129265Y-115777262D01*
X129957738Y-115605735D01*
X129957733Y-115605731D01*
X129957731Y-115605729D01*
X129765292Y-115458066D01*
X129765289Y-115458064D01*
X129555212Y-115336776D01*
X129555207Y-115336773D01*
X129377647Y-115263226D01*
X143584500Y-115263226D01*
X143584500Y-117271765D01*
X143587353Y-117302194D01*
X143587353Y-117302196D01*
X143587354Y-117302198D01*
X143599938Y-117338160D01*
X143632208Y-117430385D01*
X143712845Y-117539644D01*
X143712847Y-117539646D01*
X143712850Y-117539650D01*
X143712853Y-117539652D01*
X143712855Y-117539654D01*
X143822114Y-117620291D01*
X143822116Y-117620291D01*
X143822118Y-117620293D01*
X143950302Y-117665146D01*
X143980735Y-117668000D01*
X145989264Y-117667999D01*
X145989265Y-117667999D01*
X145995350Y-117667428D01*
X146019698Y-117665146D01*
X146147882Y-117620293D01*
X146257150Y-117539650D01*
X146312329Y-117464885D01*
X146337791Y-117430385D01*
X146337791Y-117430384D01*
X146337793Y-117430382D01*
X146382646Y-117302198D01*
X146385500Y-117271765D01*
X146385499Y-116157314D01*
X147085000Y-116157314D01*
X147085000Y-116377685D01*
X147119471Y-116595329D01*
X147187569Y-116804913D01*
X147287612Y-117001259D01*
X147287614Y-117001263D01*
X147393442Y-117146923D01*
X147968123Y-116572241D01*
X148004881Y-116635908D01*
X148116592Y-116747619D01*
X148180255Y-116784375D01*
X147605575Y-117359056D01*
X147751236Y-117464885D01*
X147751240Y-117464887D01*
X147947586Y-117564930D01*
X148157170Y-117633028D01*
X148374815Y-117667500D01*
X148595185Y-117667500D01*
X148812829Y-117633028D01*
X149022413Y-117564930D01*
X149218757Y-117464888D01*
X149261122Y-117434108D01*
X159309500Y-117434108D01*
X159309500Y-117565892D01*
X159339513Y-117677903D01*
X159343609Y-117693190D01*
X159409496Y-117807309D01*
X159409498Y-117807311D01*
X159409500Y-117807314D01*
X159502686Y-117900500D01*
X159502688Y-117900501D01*
X159502690Y-117900503D01*
X159616810Y-117966390D01*
X159616808Y-117966390D01*
X159616812Y-117966391D01*
X159616814Y-117966392D01*
X159744108Y-118000500D01*
X159744110Y-118000500D01*
X159875890Y-118000500D01*
X159875892Y-118000500D01*
X160003186Y-117966392D01*
X160003188Y-117966390D01*
X160003190Y-117966390D01*
X160117309Y-117900503D01*
X160117309Y-117900502D01*
X160117314Y-117900500D01*
X160210500Y-117807314D01*
X160276392Y-117693186D01*
X160310500Y-117565892D01*
X160310500Y-117434108D01*
X160276392Y-117306814D01*
X160276390Y-117306811D01*
X160276390Y-117306809D01*
X160210503Y-117192690D01*
X160210501Y-117192688D01*
X160210500Y-117192686D01*
X160117314Y-117099500D01*
X160117311Y-117099498D01*
X160117309Y-117099496D01*
X160003189Y-117033609D01*
X160003191Y-117033609D01*
X159953799Y-117020375D01*
X159875892Y-116999500D01*
X159744108Y-116999500D01*
X159666200Y-117020375D01*
X159616809Y-117033609D01*
X159502690Y-117099496D01*
X159409496Y-117192690D01*
X159343609Y-117306809D01*
X159333909Y-117343011D01*
X159309500Y-117434108D01*
X149261122Y-117434108D01*
X149364423Y-117359056D01*
X148789743Y-116784376D01*
X148853408Y-116747619D01*
X148965119Y-116635908D01*
X149001876Y-116572243D01*
X149576555Y-117146922D01*
X149682388Y-117001257D01*
X149744829Y-116878710D01*
X163149500Y-116878710D01*
X163149500Y-117121289D01*
X163181161Y-117361781D01*
X163181161Y-117361786D01*
X163243944Y-117596092D01*
X163243948Y-117596105D01*
X163336772Y-117820204D01*
X163336774Y-117820208D01*
X163336776Y-117820212D01*
X163452371Y-118020428D01*
X163458066Y-118030292D01*
X163605729Y-118222731D01*
X163605731Y-118222733D01*
X163605735Y-118222738D01*
X163777262Y-118394265D01*
X163777266Y-118394268D01*
X163777268Y-118394270D01*
X163969707Y-118541933D01*
X163969711Y-118541936D01*
X164179788Y-118663224D01*
X164403900Y-118756054D01*
X164638211Y-118818838D01*
X164878712Y-118850500D01*
X164878713Y-118850500D01*
X165121287Y-118850500D01*
X165121288Y-118850500D01*
X165361789Y-118818838D01*
X165596100Y-118756054D01*
X165820212Y-118663224D01*
X166030289Y-118541936D01*
X166222738Y-118394265D01*
X166394265Y-118222738D01*
X166541936Y-118030289D01*
X166663224Y-117820212D01*
X166756054Y-117596100D01*
X166818838Y-117361789D01*
X166850500Y-117121288D01*
X166850500Y-116878712D01*
X166818838Y-116638211D01*
X166756054Y-116403900D01*
X166663224Y-116179788D01*
X166541936Y-115969711D01*
X166394265Y-115777262D01*
X166222738Y-115605735D01*
X166222733Y-115605731D01*
X166222731Y-115605729D01*
X166030292Y-115458066D01*
X165909064Y-115388075D01*
X165820212Y-115336776D01*
X165820208Y-115336774D01*
X165820204Y-115336772D01*
X165596105Y-115243948D01*
X165596104Y-115243947D01*
X165596100Y-115243946D01*
X165361789Y-115181162D01*
X165361786Y-115181161D01*
X165361784Y-115181161D01*
X165121289Y-115149500D01*
X165121288Y-115149500D01*
X164878712Y-115149500D01*
X164878710Y-115149500D01*
X164638218Y-115181161D01*
X164638213Y-115181161D01*
X164403907Y-115243944D01*
X164403894Y-115243948D01*
X164179795Y-115336772D01*
X163969707Y-115458066D01*
X163777268Y-115605729D01*
X163605729Y-115777268D01*
X163458066Y-115969707D01*
X163336772Y-116179795D01*
X163243948Y-116403894D01*
X163243944Y-116403907D01*
X163181161Y-116638213D01*
X163181161Y-116638218D01*
X163149500Y-116878710D01*
X149744829Y-116878710D01*
X149769380Y-116830526D01*
X149769381Y-116830525D01*
X149782429Y-116804915D01*
X149850528Y-116595329D01*
X149885000Y-116377685D01*
X149885000Y-116157314D01*
X149850528Y-115939670D01*
X149782430Y-115730086D01*
X149682387Y-115533740D01*
X149682385Y-115533736D01*
X149576556Y-115388075D01*
X149001875Y-115962755D01*
X148965119Y-115899092D01*
X148853408Y-115787381D01*
X148789741Y-115750623D01*
X149364423Y-115175942D01*
X149218763Y-115070114D01*
X149218759Y-115070112D01*
X149022413Y-114970069D01*
X148812829Y-114901971D01*
X148595185Y-114867500D01*
X148374815Y-114867500D01*
X148157170Y-114901971D01*
X147947586Y-114970069D01*
X147751241Y-115070112D01*
X147605575Y-115175942D01*
X148180256Y-115750623D01*
X148116592Y-115787381D01*
X148004881Y-115899092D01*
X147968123Y-115962756D01*
X147393442Y-115388075D01*
X147287612Y-115533741D01*
X147187569Y-115730086D01*
X147119471Y-115939670D01*
X147085000Y-116157314D01*
X146385499Y-116157314D01*
X146385499Y-115263236D01*
X146382646Y-115232802D01*
X146337793Y-115104618D01*
X146337791Y-115104616D01*
X146337791Y-115104614D01*
X146257154Y-114995355D01*
X146257152Y-114995353D01*
X146257150Y-114995350D01*
X146257146Y-114995347D01*
X146257144Y-114995345D01*
X146147885Y-114914708D01*
X146111484Y-114901971D01*
X146019698Y-114869854D01*
X146019696Y-114869853D01*
X146019694Y-114869853D01*
X145989272Y-114867000D01*
X143980734Y-114867000D01*
X143950305Y-114869853D01*
X143822114Y-114914708D01*
X143712855Y-114995345D01*
X143712845Y-114995355D01*
X143632208Y-115104614D01*
X143587353Y-115232805D01*
X143584500Y-115263226D01*
X129377647Y-115263226D01*
X129331105Y-115243948D01*
X129331104Y-115243947D01*
X129331100Y-115243946D01*
X129096789Y-115181162D01*
X129096786Y-115181161D01*
X129096784Y-115181161D01*
X128856289Y-115149500D01*
X128856288Y-115149500D01*
X128613712Y-115149500D01*
X128613710Y-115149500D01*
X128373218Y-115181161D01*
X128373213Y-115181161D01*
X128138907Y-115243944D01*
X128138894Y-115243948D01*
X127914795Y-115336772D01*
X127704707Y-115458066D01*
X127512268Y-115605729D01*
X127340729Y-115777268D01*
X127193066Y-115969707D01*
X127071772Y-116179795D01*
X126978948Y-116403894D01*
X126978944Y-116403907D01*
X126916161Y-116638213D01*
X126916161Y-116638218D01*
X126884500Y-116878710D01*
X124588000Y-116878710D01*
X124588000Y-113734108D01*
X152399500Y-113734108D01*
X152399500Y-113865892D01*
X152429579Y-113978151D01*
X152433609Y-113993190D01*
X152499496Y-114107309D01*
X152499498Y-114107311D01*
X152499500Y-114107314D01*
X152592686Y-114200500D01*
X152592688Y-114200501D01*
X152592690Y-114200503D01*
X152706810Y-114266390D01*
X152706808Y-114266390D01*
X152706812Y-114266391D01*
X152706814Y-114266392D01*
X152834108Y-114300500D01*
X152834110Y-114300500D01*
X152965890Y-114300500D01*
X152965892Y-114300500D01*
X153093186Y-114266392D01*
X153093188Y-114266390D01*
X153093190Y-114266390D01*
X153207309Y-114200503D01*
X153207309Y-114200502D01*
X153207314Y-114200500D01*
X153300500Y-114107314D01*
X153366392Y-113993186D01*
X153400500Y-113865892D01*
X153400500Y-113734108D01*
X153366392Y-113606814D01*
X153366390Y-113606811D01*
X153366390Y-113606809D01*
X153300503Y-113492690D01*
X153300501Y-113492688D01*
X153300500Y-113492686D01*
X153207314Y-113399500D01*
X153207311Y-113399498D01*
X153207309Y-113399496D01*
X153093189Y-113333609D01*
X153093191Y-113333609D01*
X153043799Y-113320375D01*
X152965892Y-113299500D01*
X152834108Y-113299500D01*
X152756200Y-113320375D01*
X152706809Y-113333609D01*
X152592690Y-113399496D01*
X152499496Y-113492690D01*
X152433609Y-113606809D01*
X152433608Y-113606814D01*
X152399500Y-113734108D01*
X124588000Y-113734108D01*
X124588000Y-111834108D01*
X142099500Y-111834108D01*
X142099500Y-111965892D01*
X142129579Y-112078151D01*
X142133609Y-112093190D01*
X142199496Y-112207309D01*
X142199498Y-112207311D01*
X142199500Y-112207314D01*
X142292686Y-112300500D01*
X142292688Y-112300501D01*
X142292690Y-112300503D01*
X142406810Y-112366390D01*
X142406808Y-112366390D01*
X142406812Y-112366391D01*
X142406814Y-112366392D01*
X142534108Y-112400500D01*
X142534110Y-112400500D01*
X142665890Y-112400500D01*
X142665892Y-112400500D01*
X142793186Y-112366392D01*
X142793188Y-112366390D01*
X142793190Y-112366390D01*
X142907309Y-112300503D01*
X142907309Y-112300502D01*
X142907314Y-112300500D01*
X143000500Y-112207314D01*
X143066392Y-112093186D01*
X143100500Y-111965892D01*
X143100500Y-111834108D01*
X143066392Y-111706814D01*
X143066390Y-111706811D01*
X143066390Y-111706809D01*
X143000503Y-111592690D01*
X143000501Y-111592688D01*
X143000500Y-111592686D01*
X142907314Y-111499500D01*
X142907311Y-111499498D01*
X142907309Y-111499496D01*
X142793189Y-111433609D01*
X142793191Y-111433609D01*
X142743799Y-111420375D01*
X142665892Y-111399500D01*
X142534108Y-111399500D01*
X142456200Y-111420375D01*
X142406809Y-111433609D01*
X142292690Y-111499496D01*
X142199496Y-111592690D01*
X142133609Y-111706809D01*
X142133608Y-111706814D01*
X142099500Y-111834108D01*
X124588000Y-111834108D01*
X124588000Y-110426579D01*
X128149500Y-110426579D01*
X128149500Y-110623420D01*
X128180289Y-110817821D01*
X128180291Y-110817826D01*
X128241116Y-111005025D01*
X128330476Y-111180405D01*
X128446172Y-111339646D01*
X128585354Y-111478828D01*
X128744595Y-111594524D01*
X128919975Y-111683884D01*
X129107174Y-111744709D01*
X129107175Y-111744709D01*
X129107178Y-111744710D01*
X129301580Y-111775500D01*
X129301583Y-111775500D01*
X129498420Y-111775500D01*
X129692821Y-111744710D01*
X129692822Y-111744709D01*
X129692826Y-111744709D01*
X129880025Y-111683884D01*
X130055405Y-111594524D01*
X130214646Y-111478828D01*
X130353828Y-111339646D01*
X130469524Y-111180405D01*
X130558884Y-111005025D01*
X130619709Y-110817826D01*
X130650500Y-110623417D01*
X130650500Y-110426583D01*
X130650500Y-110426579D01*
X130619710Y-110232178D01*
X130619709Y-110232174D01*
X130558884Y-110044975D01*
X130469524Y-109869595D01*
X130353828Y-109710354D01*
X130214646Y-109571172D01*
X130214642Y-109571169D01*
X130214640Y-109571167D01*
X130127303Y-109507712D01*
X130127301Y-109507712D01*
X130098975Y-109487132D01*
X130055405Y-109455476D01*
X130055404Y-109455475D01*
X130055402Y-109455474D01*
X130013468Y-109434108D01*
X164699500Y-109434108D01*
X164699500Y-109565892D01*
X164727690Y-109671098D01*
X164733609Y-109693190D01*
X164799496Y-109807309D01*
X164799498Y-109807311D01*
X164799500Y-109807314D01*
X164892686Y-109900500D01*
X164892688Y-109900501D01*
X164892690Y-109900503D01*
X165006810Y-109966390D01*
X165006808Y-109966390D01*
X165006812Y-109966391D01*
X165006814Y-109966392D01*
X165134108Y-110000500D01*
X165134110Y-110000500D01*
X165265890Y-110000500D01*
X165265892Y-110000500D01*
X165393186Y-109966392D01*
X165393188Y-109966390D01*
X165393190Y-109966390D01*
X165507309Y-109900503D01*
X165507309Y-109900502D01*
X165507314Y-109900500D01*
X165600500Y-109807314D01*
X165641520Y-109736266D01*
X165666390Y-109693190D01*
X165666390Y-109693188D01*
X165666392Y-109693186D01*
X165700500Y-109565892D01*
X165700500Y-109434108D01*
X165666392Y-109306814D01*
X165666390Y-109306811D01*
X165666390Y-109306809D01*
X165600503Y-109192690D01*
X165600501Y-109192688D01*
X165600500Y-109192686D01*
X165507314Y-109099500D01*
X165507311Y-109099498D01*
X165507309Y-109099496D01*
X165393189Y-109033609D01*
X165393191Y-109033609D01*
X165343799Y-109020375D01*
X165265892Y-108999500D01*
X165134108Y-108999500D01*
X165056200Y-109020375D01*
X165006809Y-109033609D01*
X164892690Y-109099496D01*
X164799496Y-109192690D01*
X164733609Y-109306809D01*
X164733608Y-109306814D01*
X164699500Y-109434108D01*
X130013468Y-109434108D01*
X129880025Y-109366116D01*
X129692821Y-109305289D01*
X129498420Y-109274500D01*
X129498417Y-109274500D01*
X129301583Y-109274500D01*
X129301580Y-109274500D01*
X129107178Y-109305289D01*
X128919974Y-109366116D01*
X128744597Y-109455474D01*
X128585355Y-109571171D01*
X128446171Y-109710355D01*
X128330474Y-109869597D01*
X128241116Y-110044974D01*
X128180289Y-110232178D01*
X128149500Y-110426579D01*
X124588000Y-110426579D01*
X124588000Y-109190392D01*
X125835000Y-109190392D01*
X125835000Y-109359607D01*
X125861469Y-109526731D01*
X125861470Y-109526735D01*
X125913755Y-109687650D01*
X125913757Y-109687653D01*
X125990576Y-109838420D01*
X126051118Y-109921748D01*
X126469988Y-109502876D01*
X126513902Y-109578937D01*
X126606063Y-109671098D01*
X126682120Y-109715010D01*
X126263250Y-110133880D01*
X126263250Y-110133881D01*
X126346571Y-110194418D01*
X126346577Y-110194422D01*
X126497346Y-110271242D01*
X126497349Y-110271244D01*
X126658264Y-110323529D01*
X126658268Y-110323530D01*
X126825393Y-110350000D01*
X126994607Y-110350000D01*
X127153008Y-110324912D01*
X127161730Y-110323530D01*
X127161735Y-110323529D01*
X127322650Y-110271244D01*
X127322653Y-110271242D01*
X127473422Y-110194422D01*
X127473427Y-110194418D01*
X127556748Y-110133882D01*
X127556748Y-110133881D01*
X127137877Y-109715010D01*
X127213937Y-109671098D01*
X127306098Y-109578937D01*
X127350010Y-109502877D01*
X127768881Y-109921748D01*
X127768882Y-109921748D01*
X127829418Y-109838427D01*
X127829422Y-109838422D01*
X127906242Y-109687653D01*
X127906244Y-109687650D01*
X127958529Y-109526735D01*
X127958530Y-109526731D01*
X127985000Y-109359607D01*
X127985000Y-109190392D01*
X127958530Y-109023268D01*
X127958529Y-109023264D01*
X127906244Y-108862349D01*
X127906242Y-108862346D01*
X127860496Y-108772564D01*
X127840902Y-108734108D01*
X156499500Y-108734108D01*
X156499500Y-108865892D01*
X156502986Y-108878902D01*
X156533609Y-108993190D01*
X156599496Y-109107309D01*
X156599498Y-109107311D01*
X156599500Y-109107314D01*
X156692686Y-109200500D01*
X156692688Y-109200501D01*
X156692690Y-109200503D01*
X156806810Y-109266390D01*
X156806808Y-109266390D01*
X156806812Y-109266391D01*
X156806814Y-109266392D01*
X156934108Y-109300500D01*
X156934110Y-109300500D01*
X157065890Y-109300500D01*
X157065892Y-109300500D01*
X157193186Y-109266392D01*
X157193188Y-109266390D01*
X157193190Y-109266390D01*
X157307309Y-109200503D01*
X157307309Y-109200502D01*
X157307314Y-109200500D01*
X157400500Y-109107314D01*
X157400503Y-109107309D01*
X157466390Y-108993190D01*
X157466390Y-108993188D01*
X157466392Y-108993186D01*
X157500500Y-108865892D01*
X157500500Y-108734108D01*
X157466392Y-108606814D01*
X157466390Y-108606811D01*
X157466390Y-108606809D01*
X157400503Y-108492690D01*
X157400501Y-108492688D01*
X157400500Y-108492686D01*
X157307314Y-108399500D01*
X157307311Y-108399498D01*
X157307309Y-108399496D01*
X157193189Y-108333609D01*
X157193191Y-108333609D01*
X157143799Y-108320375D01*
X157065892Y-108299500D01*
X156934108Y-108299500D01*
X156856200Y-108320375D01*
X156806809Y-108333609D01*
X156692690Y-108399496D01*
X156599496Y-108492690D01*
X156533609Y-108606809D01*
X156533608Y-108606814D01*
X156499500Y-108734108D01*
X127840902Y-108734108D01*
X127829422Y-108711577D01*
X127829418Y-108711571D01*
X127768881Y-108628250D01*
X127768880Y-108628250D01*
X127350010Y-109047120D01*
X127306098Y-108971063D01*
X127213937Y-108878902D01*
X127137876Y-108834988D01*
X127556748Y-108416118D01*
X127473420Y-108355576D01*
X127322653Y-108278757D01*
X127322650Y-108278755D01*
X127161735Y-108226470D01*
X127161731Y-108226469D01*
X126994607Y-108200000D01*
X126825393Y-108200000D01*
X126658268Y-108226469D01*
X126658264Y-108226470D01*
X126497349Y-108278755D01*
X126497346Y-108278757D01*
X126346577Y-108355577D01*
X126346573Y-108355579D01*
X126263250Y-108416117D01*
X126682122Y-108834989D01*
X126606063Y-108878902D01*
X126513902Y-108971063D01*
X126469989Y-109047122D01*
X126051117Y-108628250D01*
X125990579Y-108711573D01*
X125990577Y-108711577D01*
X125913757Y-108862346D01*
X125913755Y-108862349D01*
X125861470Y-109023264D01*
X125861469Y-109023268D01*
X125835000Y-109190392D01*
X124588000Y-109190392D01*
X124588000Y-106734108D01*
X150199500Y-106734108D01*
X150199500Y-106865892D01*
X150208773Y-106900500D01*
X150233609Y-106993190D01*
X150299496Y-107107309D01*
X150299498Y-107107311D01*
X150299500Y-107107314D01*
X150392686Y-107200500D01*
X150392688Y-107200501D01*
X150392690Y-107200503D01*
X150506810Y-107266390D01*
X150506808Y-107266390D01*
X150506812Y-107266391D01*
X150506814Y-107266392D01*
X150634108Y-107300500D01*
X150634110Y-107300500D01*
X150765890Y-107300500D01*
X150765892Y-107300500D01*
X150893186Y-107266392D01*
X150893188Y-107266390D01*
X150893190Y-107266390D01*
X151007309Y-107200503D01*
X151007309Y-107200502D01*
X151007314Y-107200500D01*
X151100500Y-107107314D01*
X151100503Y-107107309D01*
X151166390Y-106993190D01*
X151166390Y-106993188D01*
X151166392Y-106993186D01*
X151200500Y-106865892D01*
X151200500Y-106734108D01*
X151166392Y-106606814D01*
X151166390Y-106606811D01*
X151166390Y-106606809D01*
X151100503Y-106492690D01*
X151100501Y-106492688D01*
X151100500Y-106492686D01*
X151041922Y-106434108D01*
X156999500Y-106434108D01*
X156999500Y-106565892D01*
X157010464Y-106606809D01*
X157033609Y-106693190D01*
X157099496Y-106807309D01*
X157099498Y-106807311D01*
X157099500Y-106807314D01*
X157192686Y-106900500D01*
X157192688Y-106900501D01*
X157192690Y-106900503D01*
X157306810Y-106966390D01*
X157306808Y-106966390D01*
X157306812Y-106966391D01*
X157306814Y-106966392D01*
X157434108Y-107000500D01*
X157434110Y-107000500D01*
X157565890Y-107000500D01*
X157565892Y-107000500D01*
X157693186Y-106966392D01*
X157693188Y-106966390D01*
X157693190Y-106966390D01*
X157807309Y-106900503D01*
X157807309Y-106900502D01*
X157807314Y-106900500D01*
X157900500Y-106807314D01*
X157966392Y-106693186D01*
X158000500Y-106565892D01*
X158000500Y-106434108D01*
X157966392Y-106306814D01*
X157966390Y-106306811D01*
X157966390Y-106306809D01*
X157900503Y-106192690D01*
X157900501Y-106192688D01*
X157900500Y-106192686D01*
X157807314Y-106099500D01*
X157807311Y-106099498D01*
X157807309Y-106099496D01*
X157693189Y-106033609D01*
X157693191Y-106033609D01*
X157643799Y-106020375D01*
X157565892Y-105999500D01*
X157434108Y-105999500D01*
X157356200Y-106020375D01*
X157306809Y-106033609D01*
X157192690Y-106099496D01*
X157099496Y-106192690D01*
X157033609Y-106306809D01*
X157026428Y-106333609D01*
X156999500Y-106434108D01*
X151041922Y-106434108D01*
X151007314Y-106399500D01*
X151007311Y-106399498D01*
X151007309Y-106399496D01*
X150893189Y-106333609D01*
X150893191Y-106333609D01*
X150843799Y-106320375D01*
X150765892Y-106299500D01*
X150634108Y-106299500D01*
X150556200Y-106320375D01*
X150506809Y-106333609D01*
X150392690Y-106399496D01*
X150299496Y-106492690D01*
X150233609Y-106606809D01*
X150233608Y-106606814D01*
X150199500Y-106734108D01*
X124588000Y-106734108D01*
X124588000Y-104690352D01*
X125834500Y-104690352D01*
X125834500Y-104859647D01*
X125860980Y-105026842D01*
X125873669Y-105065892D01*
X125913295Y-105187849D01*
X125954594Y-105268903D01*
X125974165Y-105307314D01*
X125990150Y-105338685D01*
X126089654Y-105475641D01*
X126209359Y-105595346D01*
X126346315Y-105694850D01*
X126497151Y-105771705D01*
X126658153Y-105824018D01*
X126658154Y-105824018D01*
X126658157Y-105824019D01*
X126825353Y-105850500D01*
X126825356Y-105850500D01*
X126994647Y-105850500D01*
X127161842Y-105824019D01*
X127161843Y-105824018D01*
X127161847Y-105824018D01*
X127322849Y-105771705D01*
X127473685Y-105694850D01*
X127610641Y-105595346D01*
X127730346Y-105475641D01*
X127829850Y-105338685D01*
X127906705Y-105187849D01*
X127959018Y-105026847D01*
X127973706Y-104934109D01*
X127973706Y-104934108D01*
X160099500Y-104934108D01*
X160099500Y-105065892D01*
X160129579Y-105178151D01*
X160133609Y-105193190D01*
X160199496Y-105307309D01*
X160199498Y-105307311D01*
X160199500Y-105307314D01*
X160292686Y-105400500D01*
X160292688Y-105400501D01*
X160292690Y-105400503D01*
X160406810Y-105466390D01*
X160406808Y-105466390D01*
X160406812Y-105466391D01*
X160406814Y-105466392D01*
X160534108Y-105500500D01*
X160534110Y-105500500D01*
X160665890Y-105500500D01*
X160665892Y-105500500D01*
X160793186Y-105466392D01*
X160793188Y-105466390D01*
X160793190Y-105466390D01*
X160907309Y-105400503D01*
X160907309Y-105400502D01*
X160907314Y-105400500D01*
X161000500Y-105307314D01*
X161066392Y-105193186D01*
X161100500Y-105065892D01*
X161100500Y-104934108D01*
X161066392Y-104806814D01*
X161066390Y-104806811D01*
X161066390Y-104806809D01*
X161000503Y-104692690D01*
X161000501Y-104692688D01*
X161000500Y-104692686D01*
X160907314Y-104599500D01*
X160907311Y-104599498D01*
X160907309Y-104599496D01*
X160793189Y-104533609D01*
X160793191Y-104533609D01*
X160743799Y-104520375D01*
X160665892Y-104499500D01*
X160534108Y-104499500D01*
X160456200Y-104520375D01*
X160406809Y-104533609D01*
X160292690Y-104599496D01*
X160199496Y-104692690D01*
X160133609Y-104806809D01*
X160114539Y-104877978D01*
X160099500Y-104934108D01*
X127973706Y-104934108D01*
X127985500Y-104859647D01*
X127985500Y-104690352D01*
X127959019Y-104523157D01*
X127951333Y-104499500D01*
X127906705Y-104362151D01*
X127829850Y-104211315D01*
X127730346Y-104074359D01*
X127610641Y-103954654D01*
X127473685Y-103855150D01*
X127473684Y-103855149D01*
X127473682Y-103855148D01*
X127403903Y-103819594D01*
X127322849Y-103778295D01*
X127322846Y-103778294D01*
X127322844Y-103778293D01*
X127161842Y-103725980D01*
X126994647Y-103699500D01*
X126994644Y-103699500D01*
X126825356Y-103699500D01*
X126825353Y-103699500D01*
X126658157Y-103725980D01*
X126497155Y-103778293D01*
X126346317Y-103855148D01*
X126277837Y-103904902D01*
X126209359Y-103954654D01*
X126089654Y-104074359D01*
X126061808Y-104112686D01*
X125990148Y-104211317D01*
X125913293Y-104362155D01*
X125860980Y-104523157D01*
X125834500Y-104690352D01*
X124588000Y-104690352D01*
X124588000Y-103416579D01*
X128149500Y-103416579D01*
X128149500Y-103613420D01*
X128180289Y-103807821D01*
X128241116Y-103995025D01*
X128253586Y-104019500D01*
X128330476Y-104170405D01*
X128446172Y-104329646D01*
X128585354Y-104468828D01*
X128744595Y-104584524D01*
X128919975Y-104673884D01*
X129107174Y-104734709D01*
X129107175Y-104734709D01*
X129107178Y-104734710D01*
X129301580Y-104765500D01*
X129301583Y-104765500D01*
X129498420Y-104765500D01*
X129692821Y-104734710D01*
X129692822Y-104734709D01*
X129692826Y-104734709D01*
X129880025Y-104673884D01*
X130055405Y-104584524D01*
X130214646Y-104468828D01*
X130329366Y-104354108D01*
X135979500Y-104354108D01*
X135979500Y-104485892D01*
X135992286Y-104533609D01*
X136013609Y-104613190D01*
X136079496Y-104727309D01*
X136079498Y-104727311D01*
X136079500Y-104727314D01*
X136172686Y-104820500D01*
X136172688Y-104820501D01*
X136172690Y-104820503D01*
X136286810Y-104886390D01*
X136286808Y-104886390D01*
X136286812Y-104886391D01*
X136286814Y-104886392D01*
X136414108Y-104920500D01*
X136414110Y-104920500D01*
X136545890Y-104920500D01*
X136545892Y-104920500D01*
X136673186Y-104886392D01*
X136673188Y-104886390D01*
X136673190Y-104886390D01*
X136750279Y-104841883D01*
X136787309Y-104820503D01*
X136787309Y-104820502D01*
X136787314Y-104820500D01*
X136880500Y-104727314D01*
X136911348Y-104673884D01*
X136946390Y-104613190D01*
X136946390Y-104613188D01*
X136946392Y-104613186D01*
X136980500Y-104485892D01*
X136980500Y-104354108D01*
X136946392Y-104226814D01*
X136946390Y-104226811D01*
X136946390Y-104226809D01*
X136880503Y-104112690D01*
X136880501Y-104112688D01*
X136880500Y-104112686D01*
X136787314Y-104019500D01*
X136787311Y-104019498D01*
X136787309Y-104019496D01*
X136673189Y-103953609D01*
X136673191Y-103953609D01*
X136623799Y-103940375D01*
X136545892Y-103919500D01*
X136414108Y-103919500D01*
X136336200Y-103940375D01*
X136286809Y-103953609D01*
X136172690Y-104019496D01*
X136079496Y-104112690D01*
X136013609Y-104226809D01*
X136013608Y-104226814D01*
X135979500Y-104354108D01*
X130329366Y-104354108D01*
X130353828Y-104329646D01*
X130469524Y-104170405D01*
X130558884Y-103995025D01*
X130619709Y-103807826D01*
X130650500Y-103613417D01*
X130650500Y-103416583D01*
X130650500Y-103416579D01*
X130619710Y-103222178D01*
X130619709Y-103222174D01*
X130558884Y-103034975D01*
X130469524Y-102859595D01*
X130353828Y-102700354D01*
X130214646Y-102561172D01*
X130055405Y-102445476D01*
X130055404Y-102445475D01*
X130055402Y-102445474D01*
X129997219Y-102415829D01*
X129880025Y-102356116D01*
X129812292Y-102334108D01*
X133999500Y-102334108D01*
X133999500Y-102465892D01*
X134025030Y-102561171D01*
X134033609Y-102593190D01*
X134099496Y-102707309D01*
X134099498Y-102707311D01*
X134099500Y-102707314D01*
X134192686Y-102800500D01*
X134192688Y-102800501D01*
X134192690Y-102800503D01*
X134306810Y-102866390D01*
X134306808Y-102866390D01*
X134306812Y-102866391D01*
X134306814Y-102866392D01*
X134434108Y-102900500D01*
X134434110Y-102900500D01*
X134565890Y-102900500D01*
X134565892Y-102900500D01*
X134693186Y-102866392D01*
X134693188Y-102866390D01*
X134693190Y-102866390D01*
X134807309Y-102800503D01*
X134807309Y-102800502D01*
X134807314Y-102800500D01*
X134900500Y-102707314D01*
X134966392Y-102593186D01*
X135000500Y-102465892D01*
X135000500Y-102334108D01*
X134966392Y-102206814D01*
X134966390Y-102206811D01*
X134966390Y-102206809D01*
X134900503Y-102092690D01*
X134900501Y-102092688D01*
X134900500Y-102092686D01*
X134807314Y-101999500D01*
X134807311Y-101999498D01*
X134807309Y-101999496D01*
X134693189Y-101933609D01*
X134693191Y-101933609D01*
X134643799Y-101920375D01*
X134565892Y-101899500D01*
X134434108Y-101899500D01*
X134356200Y-101920375D01*
X134306809Y-101933609D01*
X134192690Y-101999496D01*
X134099496Y-102092690D01*
X134033609Y-102206809D01*
X134033608Y-102206814D01*
X133999500Y-102334108D01*
X129812292Y-102334108D01*
X129692821Y-102295289D01*
X129498420Y-102264500D01*
X129498417Y-102264500D01*
X129301583Y-102264500D01*
X129301580Y-102264500D01*
X129107178Y-102295289D01*
X128919974Y-102356116D01*
X128744597Y-102445474D01*
X128585355Y-102561171D01*
X128446171Y-102700355D01*
X128330474Y-102859597D01*
X128241116Y-103034974D01*
X128180289Y-103222178D01*
X128149500Y-103416579D01*
X124588000Y-103416579D01*
X124588000Y-97516581D01*
X128145000Y-97516581D01*
X128145000Y-97723418D01*
X128185349Y-97926272D01*
X128264501Y-98117361D01*
X128353022Y-98249843D01*
X128751328Y-97851536D01*
X128794901Y-97927007D01*
X128887993Y-98020099D01*
X128963460Y-98063670D01*
X128565154Y-98461977D01*
X128697625Y-98550491D01*
X128697639Y-98550498D01*
X128888727Y-98629650D01*
X129091581Y-98669999D01*
X129091586Y-98670000D01*
X129298414Y-98670000D01*
X129298418Y-98669999D01*
X129501272Y-98629650D01*
X129692360Y-98550498D01*
X129824843Y-98461976D01*
X129426538Y-98063671D01*
X129502007Y-98020099D01*
X129595099Y-97927007D01*
X129638671Y-97851538D01*
X130036976Y-98249843D01*
X130125498Y-98117360D01*
X130204650Y-97926272D01*
X130244999Y-97723418D01*
X130245000Y-97723413D01*
X130245000Y-97516586D01*
X130244999Y-97516581D01*
X130685000Y-97516581D01*
X130685000Y-97723418D01*
X130725349Y-97926272D01*
X130804501Y-98117361D01*
X130893022Y-98249843D01*
X131291328Y-97851536D01*
X131334901Y-97927007D01*
X131427993Y-98020099D01*
X131503460Y-98063670D01*
X131105154Y-98461977D01*
X131237625Y-98550491D01*
X131237639Y-98550498D01*
X131428727Y-98629650D01*
X131631581Y-98669999D01*
X131631586Y-98670000D01*
X131838414Y-98670000D01*
X131838418Y-98669999D01*
X132041272Y-98629650D01*
X132232360Y-98550498D01*
X132364843Y-98461976D01*
X131966538Y-98063671D01*
X132042007Y-98020099D01*
X132135099Y-97927007D01*
X132178671Y-97851538D01*
X132576976Y-98249843D01*
X132665498Y-98117359D01*
X132699983Y-98034108D01*
X141599500Y-98034108D01*
X141599500Y-98165892D01*
X141629579Y-98278151D01*
X141633609Y-98293190D01*
X141699496Y-98407309D01*
X141699498Y-98407311D01*
X141699500Y-98407314D01*
X141792686Y-98500500D01*
X141792688Y-98500501D01*
X141792690Y-98500503D01*
X141906810Y-98566390D01*
X141906808Y-98566390D01*
X141906812Y-98566391D01*
X141906814Y-98566392D01*
X142034108Y-98600500D01*
X142034110Y-98600500D01*
X142165890Y-98600500D01*
X142165892Y-98600500D01*
X142293186Y-98566392D01*
X142293188Y-98566390D01*
X142293190Y-98566390D01*
X142407309Y-98500503D01*
X142407309Y-98500502D01*
X142407314Y-98500500D01*
X142500500Y-98407314D01*
X142566392Y-98293186D01*
X142600500Y-98165892D01*
X142600500Y-98034108D01*
X142566392Y-97906814D01*
X142566390Y-97906811D01*
X142566390Y-97906809D01*
X142500503Y-97792690D01*
X142500501Y-97792688D01*
X142500500Y-97792686D01*
X142407314Y-97699500D01*
X142407311Y-97699498D01*
X142407309Y-97699496D01*
X142293189Y-97633609D01*
X142293191Y-97633609D01*
X142242396Y-97619999D01*
X142165892Y-97599500D01*
X142034108Y-97599500D01*
X141957604Y-97619999D01*
X141906809Y-97633609D01*
X141792690Y-97699496D01*
X141699496Y-97792690D01*
X141633609Y-97906809D01*
X141633608Y-97906814D01*
X141599500Y-98034108D01*
X132699983Y-98034108D01*
X132718364Y-97989733D01*
X132744650Y-97926272D01*
X132784999Y-97723418D01*
X132785000Y-97723413D01*
X132785000Y-97516586D01*
X132784999Y-97516579D01*
X132771146Y-97446932D01*
X132768595Y-97434108D01*
X149499500Y-97434108D01*
X149499500Y-97565892D01*
X149513998Y-97619999D01*
X149533609Y-97693190D01*
X149599496Y-97807309D01*
X149599498Y-97807311D01*
X149599500Y-97807314D01*
X149692686Y-97900500D01*
X149692688Y-97900501D01*
X149692690Y-97900503D01*
X149806810Y-97966390D01*
X149806808Y-97966390D01*
X149806812Y-97966391D01*
X149806814Y-97966392D01*
X149934108Y-98000500D01*
X149934110Y-98000500D01*
X150065890Y-98000500D01*
X150065892Y-98000500D01*
X150193186Y-97966392D01*
X150193188Y-97966390D01*
X150193190Y-97966390D01*
X150307309Y-97900503D01*
X150307309Y-97900502D01*
X150307314Y-97900500D01*
X150400500Y-97807314D01*
X150448938Y-97723418D01*
X150466390Y-97693190D01*
X150466390Y-97693188D01*
X150466392Y-97693186D01*
X150500500Y-97565892D01*
X150500500Y-97434108D01*
X150466392Y-97306814D01*
X150466390Y-97306811D01*
X150466390Y-97306809D01*
X150400503Y-97192690D01*
X150400501Y-97192688D01*
X150400500Y-97192686D01*
X150307314Y-97099500D01*
X150307311Y-97099498D01*
X150307309Y-97099496D01*
X150193189Y-97033609D01*
X150193191Y-97033609D01*
X150143799Y-97020375D01*
X150065892Y-96999500D01*
X149934108Y-96999500D01*
X149856200Y-97020375D01*
X149806809Y-97033609D01*
X149692690Y-97099496D01*
X149599496Y-97192690D01*
X149533609Y-97306809D01*
X149514539Y-97377978D01*
X149499500Y-97434108D01*
X132768595Y-97434108D01*
X132744650Y-97313727D01*
X132665498Y-97122639D01*
X132665491Y-97122625D01*
X132576976Y-96990154D01*
X132178670Y-97388460D01*
X132135099Y-97312993D01*
X132042007Y-97219901D01*
X131966536Y-97176328D01*
X132364843Y-96778022D01*
X132232361Y-96689501D01*
X132041272Y-96610349D01*
X131838418Y-96570000D01*
X131631581Y-96570000D01*
X131428727Y-96610349D01*
X131237638Y-96689501D01*
X131105155Y-96778022D01*
X131503461Y-97176328D01*
X131427993Y-97219901D01*
X131334901Y-97312993D01*
X131291328Y-97388461D01*
X130893022Y-96990155D01*
X130804501Y-97122638D01*
X130725349Y-97313727D01*
X130685000Y-97516581D01*
X130244999Y-97516581D01*
X130204650Y-97313727D01*
X130125498Y-97122639D01*
X130125491Y-97122625D01*
X130036976Y-96990154D01*
X129638670Y-97388460D01*
X129595099Y-97312993D01*
X129502007Y-97219901D01*
X129426536Y-97176328D01*
X129824843Y-96778022D01*
X129692361Y-96689501D01*
X129501272Y-96610349D01*
X129298418Y-96570000D01*
X129091581Y-96570000D01*
X128888727Y-96610349D01*
X128697638Y-96689501D01*
X128565155Y-96778022D01*
X128963461Y-97176328D01*
X128887993Y-97219901D01*
X128794901Y-97312993D01*
X128751328Y-97388461D01*
X128353022Y-96990155D01*
X128264501Y-97122638D01*
X128185349Y-97313727D01*
X128145000Y-97516581D01*
X124588000Y-97516581D01*
X124588000Y-96134108D01*
X145799500Y-96134108D01*
X145799500Y-96265892D01*
X145829579Y-96378151D01*
X145833609Y-96393190D01*
X145899496Y-96507309D01*
X145899498Y-96507311D01*
X145899500Y-96507314D01*
X145992686Y-96600500D01*
X145992688Y-96600501D01*
X145992690Y-96600503D01*
X146106810Y-96666390D01*
X146106808Y-96666390D01*
X146106812Y-96666391D01*
X146106814Y-96666392D01*
X146234108Y-96700500D01*
X146234110Y-96700500D01*
X146365890Y-96700500D01*
X146365892Y-96700500D01*
X146493186Y-96666392D01*
X146493188Y-96666390D01*
X146493190Y-96666390D01*
X146549104Y-96634108D01*
X148199500Y-96634108D01*
X148199500Y-96765892D01*
X148229579Y-96878151D01*
X148233609Y-96893190D01*
X148299496Y-97007309D01*
X148299498Y-97007311D01*
X148299500Y-97007314D01*
X148392686Y-97100500D01*
X148392688Y-97100501D01*
X148392690Y-97100503D01*
X148506810Y-97166390D01*
X148506808Y-97166390D01*
X148506812Y-97166391D01*
X148506814Y-97166392D01*
X148634108Y-97200500D01*
X148634110Y-97200500D01*
X148765890Y-97200500D01*
X148765892Y-97200500D01*
X148893186Y-97166392D01*
X148893188Y-97166390D01*
X148893190Y-97166390D01*
X149007309Y-97100503D01*
X149007309Y-97100502D01*
X149007314Y-97100500D01*
X149100500Y-97007314D01*
X149100503Y-97007309D01*
X149166390Y-96893190D01*
X149166390Y-96893188D01*
X149166392Y-96893186D01*
X149200500Y-96765892D01*
X149200500Y-96634108D01*
X149166392Y-96506814D01*
X149166390Y-96506811D01*
X149166390Y-96506809D01*
X149100503Y-96392690D01*
X149100501Y-96392688D01*
X149100500Y-96392686D01*
X149007314Y-96299500D01*
X149007311Y-96299498D01*
X149007309Y-96299496D01*
X148893189Y-96233609D01*
X148893191Y-96233609D01*
X148843799Y-96220375D01*
X148765892Y-96199500D01*
X148634108Y-96199500D01*
X148556200Y-96220375D01*
X148506809Y-96233609D01*
X148392690Y-96299496D01*
X148299496Y-96392690D01*
X148233609Y-96506809D01*
X148214539Y-96577978D01*
X148199500Y-96634108D01*
X146549104Y-96634108D01*
X146607309Y-96600503D01*
X146607309Y-96600502D01*
X146607314Y-96600500D01*
X146700500Y-96507314D01*
X146766392Y-96393186D01*
X146800500Y-96265892D01*
X146800500Y-96134108D01*
X146766392Y-96006814D01*
X146766390Y-96006811D01*
X146766390Y-96006809D01*
X146700503Y-95892690D01*
X146700501Y-95892688D01*
X146700500Y-95892686D01*
X146607314Y-95799500D01*
X146607311Y-95799498D01*
X146607309Y-95799496D01*
X146493189Y-95733609D01*
X146493191Y-95733609D01*
X146478722Y-95729732D01*
X146365892Y-95699500D01*
X146234108Y-95699500D01*
X146156200Y-95720375D01*
X146106809Y-95733609D01*
X145992690Y-95799496D01*
X145899496Y-95892690D01*
X145833609Y-96006809D01*
X145833608Y-96006814D01*
X145799500Y-96134108D01*
X124588000Y-96134108D01*
X124588000Y-94976532D01*
X128144500Y-94976532D01*
X128144500Y-95183467D01*
X128184869Y-95386418D01*
X128264058Y-95577597D01*
X128368301Y-95733609D01*
X128379023Y-95749655D01*
X128525345Y-95895977D01*
X128697402Y-96010941D01*
X128888580Y-96090130D01*
X129091535Y-96130500D01*
X129091536Y-96130500D01*
X129298464Y-96130500D01*
X129298465Y-96130500D01*
X129501420Y-96090130D01*
X129692598Y-96010941D01*
X129864655Y-95895977D01*
X130010977Y-95749655D01*
X130125941Y-95577598D01*
X130205130Y-95386420D01*
X130245500Y-95183465D01*
X130245500Y-94976535D01*
X130245499Y-94976532D01*
X130684500Y-94976532D01*
X130684500Y-95183467D01*
X130724869Y-95386418D01*
X130804058Y-95577597D01*
X130908301Y-95733609D01*
X130919023Y-95749655D01*
X131065345Y-95895977D01*
X131237402Y-96010941D01*
X131428580Y-96090130D01*
X131631535Y-96130500D01*
X131631536Y-96130500D01*
X131838464Y-96130500D01*
X131838465Y-96130500D01*
X132041420Y-96090130D01*
X132232598Y-96010941D01*
X132404655Y-95895977D01*
X132550977Y-95749655D01*
X132628182Y-95634108D01*
X159599500Y-95634108D01*
X159599500Y-95765892D01*
X159629579Y-95878151D01*
X159633609Y-95893190D01*
X159699496Y-96007309D01*
X159699498Y-96007311D01*
X159699500Y-96007314D01*
X159792686Y-96100500D01*
X159792688Y-96100501D01*
X159792690Y-96100503D01*
X159906810Y-96166390D01*
X159906808Y-96166390D01*
X159906812Y-96166391D01*
X159906814Y-96166392D01*
X160034108Y-96200500D01*
X160034110Y-96200500D01*
X160165890Y-96200500D01*
X160165892Y-96200500D01*
X160293186Y-96166392D01*
X160293188Y-96166390D01*
X160293190Y-96166390D01*
X160407309Y-96100503D01*
X160407309Y-96100502D01*
X160407314Y-96100500D01*
X160500500Y-96007314D01*
X160500792Y-96006809D01*
X160566390Y-95893190D01*
X160566390Y-95893188D01*
X160566392Y-95893186D01*
X160600500Y-95765892D01*
X160600500Y-95634108D01*
X160566392Y-95506814D01*
X160566390Y-95506811D01*
X160566390Y-95506809D01*
X160500503Y-95392690D01*
X160500501Y-95392688D01*
X160500500Y-95392686D01*
X160407314Y-95299500D01*
X160407311Y-95299498D01*
X160407309Y-95299496D01*
X160293189Y-95233609D01*
X160293191Y-95233609D01*
X160243799Y-95220375D01*
X160165892Y-95199500D01*
X160034108Y-95199500D01*
X159956200Y-95220375D01*
X159906809Y-95233609D01*
X159792690Y-95299496D01*
X159699496Y-95392690D01*
X159633609Y-95506809D01*
X159633608Y-95506814D01*
X159599500Y-95634108D01*
X132628182Y-95634108D01*
X132665941Y-95577598D01*
X132745130Y-95386420D01*
X132785500Y-95183465D01*
X132785500Y-94976535D01*
X132777061Y-94934108D01*
X155084500Y-94934108D01*
X155084500Y-95065892D01*
X155114579Y-95178151D01*
X155118609Y-95193190D01*
X155184496Y-95307309D01*
X155184498Y-95307311D01*
X155184500Y-95307314D01*
X155277686Y-95400500D01*
X155277688Y-95400501D01*
X155277690Y-95400503D01*
X155391810Y-95466390D01*
X155391808Y-95466390D01*
X155391812Y-95466391D01*
X155391814Y-95466392D01*
X155519108Y-95500500D01*
X155519110Y-95500500D01*
X155650890Y-95500500D01*
X155650892Y-95500500D01*
X155778186Y-95466392D01*
X155778188Y-95466390D01*
X155778190Y-95466390D01*
X155892309Y-95400503D01*
X155892309Y-95400502D01*
X155892314Y-95400500D01*
X155985500Y-95307314D01*
X155985503Y-95307309D01*
X156051390Y-95193190D01*
X156051390Y-95193188D01*
X156051392Y-95193186D01*
X156085500Y-95065892D01*
X156085500Y-94934108D01*
X156051392Y-94806814D01*
X156051390Y-94806811D01*
X156051390Y-94806809D01*
X155985503Y-94692690D01*
X155985501Y-94692688D01*
X155985500Y-94692686D01*
X155892314Y-94599500D01*
X155892311Y-94599498D01*
X155892309Y-94599496D01*
X155778189Y-94533609D01*
X155778191Y-94533609D01*
X155728799Y-94520375D01*
X155650892Y-94499500D01*
X155519108Y-94499500D01*
X155441200Y-94520375D01*
X155391809Y-94533609D01*
X155277690Y-94599496D01*
X155184496Y-94692690D01*
X155118609Y-94806809D01*
X155118608Y-94806814D01*
X155084500Y-94934108D01*
X132777061Y-94934108D01*
X132745130Y-94773580D01*
X132665941Y-94582402D01*
X132550977Y-94410345D01*
X132404655Y-94264023D01*
X132232598Y-94149059D01*
X132232599Y-94149059D01*
X132232597Y-94149058D01*
X132041418Y-94069869D01*
X131838467Y-94029500D01*
X131838465Y-94029500D01*
X131631535Y-94029500D01*
X131631532Y-94029500D01*
X131428581Y-94069869D01*
X131237402Y-94149058D01*
X131065348Y-94264020D01*
X130919020Y-94410348D01*
X130804058Y-94582402D01*
X130724869Y-94773581D01*
X130684500Y-94976532D01*
X130245499Y-94976532D01*
X130205130Y-94773580D01*
X130125941Y-94582402D01*
X130010977Y-94410345D01*
X129864655Y-94264023D01*
X129692598Y-94149059D01*
X129692599Y-94149059D01*
X129692597Y-94149058D01*
X129501418Y-94069869D01*
X129298467Y-94029500D01*
X129298465Y-94029500D01*
X129091535Y-94029500D01*
X129091532Y-94029500D01*
X128888581Y-94069869D01*
X128697402Y-94149058D01*
X128525348Y-94264020D01*
X128379020Y-94410348D01*
X128264058Y-94582402D01*
X128184869Y-94773581D01*
X128144500Y-94976532D01*
X124588000Y-94976532D01*
X124588000Y-92436532D01*
X128144500Y-92436532D01*
X128144500Y-92643467D01*
X128184869Y-92846418D01*
X128264058Y-93037597D01*
X128361525Y-93183467D01*
X128379023Y-93209655D01*
X128525345Y-93355977D01*
X128697402Y-93470941D01*
X128888580Y-93550130D01*
X129091535Y-93590500D01*
X129091536Y-93590500D01*
X129298464Y-93590500D01*
X129298465Y-93590500D01*
X129501420Y-93550130D01*
X129692598Y-93470941D01*
X129864655Y-93355977D01*
X130010977Y-93209655D01*
X130125941Y-93037598D01*
X130205130Y-92846420D01*
X130245500Y-92643465D01*
X130245500Y-92436535D01*
X130245499Y-92436532D01*
X130684500Y-92436532D01*
X130684500Y-92643467D01*
X130724869Y-92846418D01*
X130804058Y-93037597D01*
X130901525Y-93183467D01*
X130919023Y-93209655D01*
X131065345Y-93355977D01*
X131237402Y-93470941D01*
X131428580Y-93550130D01*
X131631535Y-93590500D01*
X131631536Y-93590500D01*
X131838464Y-93590500D01*
X131838465Y-93590500D01*
X132041420Y-93550130D01*
X132232598Y-93470941D01*
X132404655Y-93355977D01*
X132526524Y-93234108D01*
X142999500Y-93234108D01*
X142999500Y-93365892D01*
X143010598Y-93407309D01*
X143033609Y-93493190D01*
X143099496Y-93607309D01*
X143099498Y-93607311D01*
X143099500Y-93607314D01*
X143192686Y-93700500D01*
X143192688Y-93700501D01*
X143192690Y-93700503D01*
X143306810Y-93766390D01*
X143306808Y-93766390D01*
X143306812Y-93766391D01*
X143306814Y-93766392D01*
X143434108Y-93800500D01*
X143434110Y-93800500D01*
X143565890Y-93800500D01*
X143565892Y-93800500D01*
X143693186Y-93766392D01*
X143693188Y-93766390D01*
X143693190Y-93766390D01*
X143807309Y-93700503D01*
X143807309Y-93700502D01*
X143807314Y-93700500D01*
X143900500Y-93607314D01*
X143917657Y-93577597D01*
X143966390Y-93493190D01*
X143966390Y-93493188D01*
X143966392Y-93493186D01*
X144000500Y-93365892D01*
X144000500Y-93234108D01*
X143966392Y-93106814D01*
X143924415Y-93034108D01*
X144399500Y-93034108D01*
X144399500Y-93165892D01*
X144411225Y-93209651D01*
X144433609Y-93293190D01*
X144499496Y-93407309D01*
X144499498Y-93407311D01*
X144499500Y-93407314D01*
X144592686Y-93500500D01*
X144592688Y-93500501D01*
X144592690Y-93500503D01*
X144706810Y-93566390D01*
X144706808Y-93566390D01*
X144706812Y-93566391D01*
X144706814Y-93566392D01*
X144834108Y-93600500D01*
X144834110Y-93600500D01*
X144965890Y-93600500D01*
X144965892Y-93600500D01*
X145093186Y-93566392D01*
X145093188Y-93566390D01*
X145093190Y-93566390D01*
X145207309Y-93500503D01*
X145207309Y-93500502D01*
X145207314Y-93500500D01*
X145300500Y-93407314D01*
X145324416Y-93365890D01*
X145366390Y-93293190D01*
X145366390Y-93293188D01*
X145366392Y-93293186D01*
X145395619Y-93184108D01*
X146749500Y-93184108D01*
X146749500Y-93315892D01*
X146768397Y-93386418D01*
X146783609Y-93443190D01*
X146849496Y-93557309D01*
X146849498Y-93557311D01*
X146849500Y-93557314D01*
X146942686Y-93650500D01*
X146942688Y-93650501D01*
X146942690Y-93650503D01*
X147056810Y-93716390D01*
X147056808Y-93716390D01*
X147056812Y-93716391D01*
X147056814Y-93716392D01*
X147184108Y-93750500D01*
X147184110Y-93750500D01*
X147315890Y-93750500D01*
X147315892Y-93750500D01*
X147443186Y-93716392D01*
X147443188Y-93716390D01*
X147443190Y-93716390D01*
X147557309Y-93650503D01*
X147557309Y-93650502D01*
X147557314Y-93650500D01*
X147650500Y-93557314D01*
X147687522Y-93493190D01*
X147716390Y-93443190D01*
X147716390Y-93443188D01*
X147716392Y-93443186D01*
X147750500Y-93315892D01*
X147750500Y-93184108D01*
X147716392Y-93056814D01*
X147670041Y-92976532D01*
X161409500Y-92976532D01*
X161409500Y-93183467D01*
X161449869Y-93386418D01*
X161529058Y-93577597D01*
X161644020Y-93749651D01*
X161644023Y-93749655D01*
X161790345Y-93895977D01*
X161962402Y-94010941D01*
X162153580Y-94090130D01*
X162356535Y-94130500D01*
X162356536Y-94130500D01*
X162563464Y-94130500D01*
X162563465Y-94130500D01*
X162766420Y-94090130D01*
X162957598Y-94010941D01*
X163129655Y-93895977D01*
X163275977Y-93749655D01*
X163390941Y-93577598D01*
X163470130Y-93386420D01*
X163510500Y-93183465D01*
X163510500Y-92976535D01*
X163510499Y-92976532D01*
X163949500Y-92976532D01*
X163949500Y-93183467D01*
X163989869Y-93386418D01*
X164069058Y-93577597D01*
X164184020Y-93749651D01*
X164184023Y-93749655D01*
X164330345Y-93895977D01*
X164502402Y-94010941D01*
X164693580Y-94090130D01*
X164896535Y-94130500D01*
X164896536Y-94130500D01*
X165103464Y-94130500D01*
X165103465Y-94130500D01*
X165306420Y-94090130D01*
X165497598Y-94010941D01*
X165669655Y-93895977D01*
X165815977Y-93749655D01*
X165930941Y-93577598D01*
X166010130Y-93386420D01*
X166050500Y-93183465D01*
X166050500Y-92976535D01*
X166010130Y-92773580D01*
X165930941Y-92582402D01*
X165815977Y-92410345D01*
X165669655Y-92264023D01*
X165624094Y-92233580D01*
X165497597Y-92149058D01*
X165306418Y-92069869D01*
X165103467Y-92029500D01*
X165103465Y-92029500D01*
X164896535Y-92029500D01*
X164896532Y-92029500D01*
X164693581Y-92069869D01*
X164502402Y-92149058D01*
X164330348Y-92264020D01*
X164184020Y-92410348D01*
X164069058Y-92582402D01*
X163989869Y-92773581D01*
X163949500Y-92976532D01*
X163510499Y-92976532D01*
X163470130Y-92773580D01*
X163390941Y-92582402D01*
X163275977Y-92410345D01*
X163129655Y-92264023D01*
X163084094Y-92233580D01*
X162957597Y-92149058D01*
X162766418Y-92069869D01*
X162563467Y-92029500D01*
X162563465Y-92029500D01*
X162356535Y-92029500D01*
X162356532Y-92029500D01*
X162153581Y-92069869D01*
X161962402Y-92149058D01*
X161790348Y-92264020D01*
X161644020Y-92410348D01*
X161529058Y-92582402D01*
X161449869Y-92773581D01*
X161409500Y-92976532D01*
X147670041Y-92976532D01*
X147650500Y-92942686D01*
X147557314Y-92849500D01*
X147557311Y-92849498D01*
X147557309Y-92849496D01*
X147443189Y-92783609D01*
X147443191Y-92783609D01*
X147393799Y-92770375D01*
X147315892Y-92749500D01*
X147184108Y-92749500D01*
X147106200Y-92770375D01*
X147056809Y-92783609D01*
X146942690Y-92849496D01*
X146849496Y-92942690D01*
X146783609Y-93056809D01*
X146783608Y-93056814D01*
X146749500Y-93184108D01*
X145395619Y-93184108D01*
X145400500Y-93165892D01*
X145400500Y-93034108D01*
X145366392Y-92906814D01*
X145366390Y-92906811D01*
X145366390Y-92906809D01*
X145300503Y-92792690D01*
X145300501Y-92792688D01*
X145300500Y-92792686D01*
X145207314Y-92699500D01*
X145207311Y-92699498D01*
X145207309Y-92699496D01*
X145093189Y-92633609D01*
X145093191Y-92633609D01*
X145043799Y-92620375D01*
X144965892Y-92599500D01*
X144834108Y-92599500D01*
X144756200Y-92620375D01*
X144706809Y-92633609D01*
X144592690Y-92699496D01*
X144499496Y-92792690D01*
X144433609Y-92906809D01*
X144433608Y-92906814D01*
X144399500Y-93034108D01*
X143924415Y-93034108D01*
X143900500Y-92992686D01*
X143807314Y-92899500D01*
X143807311Y-92899498D01*
X143807309Y-92899496D01*
X143693189Y-92833609D01*
X143693191Y-92833609D01*
X143643799Y-92820375D01*
X143565892Y-92799500D01*
X143434108Y-92799500D01*
X143356200Y-92820375D01*
X143306809Y-92833609D01*
X143192690Y-92899496D01*
X143099496Y-92992690D01*
X143033609Y-93106809D01*
X143033608Y-93106814D01*
X142999500Y-93234108D01*
X132526524Y-93234108D01*
X132550977Y-93209655D01*
X132665941Y-93037598D01*
X132745130Y-92846420D01*
X132785500Y-92643465D01*
X132785500Y-92436535D01*
X132745130Y-92233580D01*
X132665941Y-92042402D01*
X132593582Y-91934108D01*
X145199500Y-91934108D01*
X145199500Y-92065892D01*
X145200566Y-92069869D01*
X145233609Y-92193190D01*
X145299496Y-92307309D01*
X145299498Y-92307311D01*
X145299500Y-92307314D01*
X145392686Y-92400500D01*
X145392688Y-92400501D01*
X145392690Y-92400503D01*
X145506810Y-92466390D01*
X145506808Y-92466390D01*
X145506812Y-92466391D01*
X145506814Y-92466392D01*
X145634108Y-92500500D01*
X145634110Y-92500500D01*
X145765890Y-92500500D01*
X145765892Y-92500500D01*
X145893186Y-92466392D01*
X145893188Y-92466390D01*
X145893190Y-92466390D01*
X146007309Y-92400503D01*
X146007309Y-92400502D01*
X146007314Y-92400500D01*
X146100500Y-92307314D01*
X146143070Y-92233581D01*
X146166390Y-92193190D01*
X146166390Y-92193188D01*
X146166392Y-92193186D01*
X146200500Y-92065892D01*
X146200500Y-91934108D01*
X146166392Y-91806814D01*
X146166390Y-91806811D01*
X146166390Y-91806809D01*
X146100503Y-91692690D01*
X146100501Y-91692688D01*
X146100500Y-91692686D01*
X146007314Y-91599500D01*
X146007311Y-91599498D01*
X146007309Y-91599496D01*
X145893189Y-91533609D01*
X145893191Y-91533609D01*
X145843799Y-91520375D01*
X145765892Y-91499500D01*
X145634108Y-91499500D01*
X145556200Y-91520375D01*
X145506809Y-91533609D01*
X145392690Y-91599496D01*
X145299496Y-91692690D01*
X145233609Y-91806809D01*
X145233608Y-91806814D01*
X145199500Y-91934108D01*
X132593582Y-91934108D01*
X132550977Y-91870345D01*
X132404655Y-91724023D01*
X132232598Y-91609059D01*
X132232599Y-91609059D01*
X132232597Y-91609058D01*
X132041418Y-91529869D01*
X131838467Y-91489500D01*
X131838465Y-91489500D01*
X131631535Y-91489500D01*
X131631532Y-91489500D01*
X131428581Y-91529869D01*
X131237402Y-91609058D01*
X131065348Y-91724020D01*
X130919020Y-91870348D01*
X130804058Y-92042402D01*
X130724869Y-92233581D01*
X130684500Y-92436532D01*
X130245499Y-92436532D01*
X130205130Y-92233580D01*
X130125941Y-92042402D01*
X130010977Y-91870345D01*
X129864655Y-91724023D01*
X129692598Y-91609059D01*
X129692599Y-91609059D01*
X129692597Y-91609058D01*
X129501418Y-91529869D01*
X129298467Y-91489500D01*
X129298465Y-91489500D01*
X129091535Y-91489500D01*
X129091532Y-91489500D01*
X128888581Y-91529869D01*
X128697402Y-91609058D01*
X128525348Y-91724020D01*
X128379020Y-91870348D01*
X128264058Y-92042402D01*
X128184869Y-92233581D01*
X128144500Y-92436532D01*
X124588000Y-92436532D01*
X124588000Y-89896532D01*
X128144500Y-89896532D01*
X128144500Y-90103467D01*
X128184869Y-90306418D01*
X128264058Y-90497597D01*
X128361525Y-90643467D01*
X128379023Y-90669655D01*
X128525345Y-90815977D01*
X128697402Y-90930941D01*
X128888580Y-91010130D01*
X129091535Y-91050500D01*
X129091536Y-91050500D01*
X129298464Y-91050500D01*
X129298465Y-91050500D01*
X129501420Y-91010130D01*
X129692598Y-90930941D01*
X129864655Y-90815977D01*
X130010977Y-90669655D01*
X130125941Y-90497598D01*
X130205130Y-90306420D01*
X130245500Y-90103465D01*
X130245500Y-89896535D01*
X130245499Y-89896532D01*
X130684500Y-89896532D01*
X130684500Y-90103467D01*
X130724869Y-90306418D01*
X130804058Y-90497597D01*
X130901525Y-90643467D01*
X130919023Y-90669655D01*
X131065345Y-90815977D01*
X131237402Y-90930941D01*
X131428580Y-91010130D01*
X131631535Y-91050500D01*
X131631536Y-91050500D01*
X131838464Y-91050500D01*
X131838465Y-91050500D01*
X131920874Y-91034108D01*
X141699500Y-91034108D01*
X141699500Y-91165892D01*
X141700559Y-91169843D01*
X141733609Y-91293190D01*
X141799496Y-91407309D01*
X141799498Y-91407311D01*
X141799500Y-91407314D01*
X141892686Y-91500500D01*
X141892688Y-91500501D01*
X141892690Y-91500503D01*
X142006810Y-91566390D01*
X142006808Y-91566390D01*
X142006812Y-91566391D01*
X142006814Y-91566392D01*
X142134108Y-91600500D01*
X142134110Y-91600500D01*
X142265890Y-91600500D01*
X142265892Y-91600500D01*
X142393186Y-91566392D01*
X142393188Y-91566390D01*
X142393190Y-91566390D01*
X142507309Y-91500503D01*
X142507309Y-91500502D01*
X142507314Y-91500500D01*
X142600500Y-91407314D01*
X142600503Y-91407309D01*
X142666390Y-91293190D01*
X142666390Y-91293188D01*
X142666392Y-91293186D01*
X142700500Y-91165892D01*
X142700500Y-91034108D01*
X142666392Y-90906814D01*
X142666390Y-90906811D01*
X142666390Y-90906809D01*
X142600503Y-90792690D01*
X142600501Y-90792688D01*
X142600500Y-90792686D01*
X142507314Y-90699500D01*
X142507311Y-90699498D01*
X142507309Y-90699496D01*
X142393189Y-90633609D01*
X142393191Y-90633609D01*
X142343799Y-90620375D01*
X142265892Y-90599500D01*
X142134108Y-90599500D01*
X142056200Y-90620375D01*
X142006809Y-90633609D01*
X141892690Y-90699496D01*
X141799496Y-90792690D01*
X141733609Y-90906809D01*
X141733608Y-90906814D01*
X141699500Y-91034108D01*
X131920874Y-91034108D01*
X132041420Y-91010130D01*
X132232598Y-90930941D01*
X132404655Y-90815977D01*
X132550977Y-90669655D01*
X132665941Y-90497598D01*
X132691236Y-90436532D01*
X161409500Y-90436532D01*
X161409500Y-90643467D01*
X161449869Y-90846418D01*
X161529058Y-91037597D01*
X161644020Y-91209651D01*
X161644023Y-91209655D01*
X161790345Y-91355977D01*
X161962402Y-91470941D01*
X162153580Y-91550130D01*
X162356535Y-91590500D01*
X162356536Y-91590500D01*
X162563464Y-91590500D01*
X162563465Y-91590500D01*
X162766420Y-91550130D01*
X162957598Y-91470941D01*
X163129655Y-91355977D01*
X163275977Y-91209655D01*
X163390941Y-91037598D01*
X163470130Y-90846420D01*
X163510500Y-90643465D01*
X163510500Y-90436581D01*
X163950000Y-90436581D01*
X163950000Y-90643418D01*
X163990349Y-90846272D01*
X164069501Y-91037361D01*
X164158022Y-91169843D01*
X164556328Y-90771536D01*
X164599901Y-90847007D01*
X164692993Y-90940099D01*
X164768460Y-90983670D01*
X164370154Y-91381977D01*
X164502625Y-91470491D01*
X164502639Y-91470498D01*
X164693727Y-91549650D01*
X164896581Y-91589999D01*
X164896586Y-91590000D01*
X165103414Y-91590000D01*
X165103418Y-91589999D01*
X165306272Y-91549650D01*
X165497360Y-91470498D01*
X165629843Y-91381976D01*
X165231538Y-90983671D01*
X165307007Y-90940099D01*
X165400099Y-90847007D01*
X165443671Y-90771538D01*
X165841976Y-91169843D01*
X165930498Y-91037360D01*
X166009650Y-90846272D01*
X166049999Y-90643418D01*
X166050000Y-90643413D01*
X166050000Y-90436586D01*
X166049999Y-90436581D01*
X166009650Y-90233727D01*
X165930498Y-90042639D01*
X165930491Y-90042625D01*
X165841976Y-89910154D01*
X165443670Y-90308460D01*
X165400099Y-90232993D01*
X165307007Y-90139901D01*
X165231536Y-90096328D01*
X165629843Y-89698022D01*
X165497361Y-89609501D01*
X165306272Y-89530349D01*
X165103418Y-89490000D01*
X164896581Y-89490000D01*
X164693727Y-89530349D01*
X164502638Y-89609501D01*
X164370155Y-89698022D01*
X164768461Y-90096328D01*
X164692993Y-90139901D01*
X164599901Y-90232993D01*
X164556328Y-90308461D01*
X164158022Y-89910155D01*
X164069501Y-90042638D01*
X163990349Y-90233727D01*
X163950000Y-90436581D01*
X163510500Y-90436581D01*
X163510500Y-90436535D01*
X163470130Y-90233580D01*
X163390941Y-90042402D01*
X163275977Y-89870345D01*
X163129655Y-89724023D01*
X163129651Y-89724020D01*
X162957597Y-89609058D01*
X162766418Y-89529869D01*
X162563467Y-89489500D01*
X162563465Y-89489500D01*
X162356535Y-89489500D01*
X162356532Y-89489500D01*
X162153581Y-89529869D01*
X161962402Y-89609058D01*
X161790348Y-89724020D01*
X161644020Y-89870348D01*
X161529058Y-90042402D01*
X161449869Y-90233581D01*
X161409500Y-90436532D01*
X132691236Y-90436532D01*
X132745130Y-90306420D01*
X132785500Y-90103465D01*
X132785500Y-89896535D01*
X132745130Y-89693580D01*
X132665941Y-89502402D01*
X132550977Y-89330345D01*
X132404655Y-89184023D01*
X132232598Y-89069059D01*
X132232599Y-89069059D01*
X132232597Y-89069058D01*
X132041418Y-88989869D01*
X131838467Y-88949500D01*
X131838465Y-88949500D01*
X131631535Y-88949500D01*
X131631532Y-88949500D01*
X131428581Y-88989869D01*
X131237402Y-89069058D01*
X131065348Y-89184020D01*
X130919020Y-89330348D01*
X130804058Y-89502402D01*
X130724869Y-89693581D01*
X130684500Y-89896532D01*
X130245499Y-89896532D01*
X130205130Y-89693580D01*
X130125941Y-89502402D01*
X130010977Y-89330345D01*
X129864655Y-89184023D01*
X129692598Y-89069059D01*
X129692599Y-89069059D01*
X129692597Y-89069058D01*
X129501418Y-88989869D01*
X129298467Y-88949500D01*
X129298465Y-88949500D01*
X129091535Y-88949500D01*
X129091532Y-88949500D01*
X128888581Y-88989869D01*
X128697402Y-89069058D01*
X128525348Y-89184020D01*
X128379020Y-89330348D01*
X128264058Y-89502402D01*
X128184869Y-89693581D01*
X128144500Y-89896532D01*
X124588000Y-89896532D01*
X124588000Y-86590253D01*
X128144500Y-86590253D01*
X128144500Y-88329746D01*
X128144501Y-88329758D01*
X128156132Y-88388227D01*
X128156134Y-88388233D01*
X128200445Y-88454548D01*
X128200448Y-88454552D01*
X128266769Y-88498867D01*
X128311231Y-88507711D01*
X128325241Y-88510498D01*
X128325246Y-88510498D01*
X128325252Y-88510500D01*
X128325253Y-88510500D01*
X130064747Y-88510500D01*
X130064748Y-88510500D01*
X130123231Y-88498867D01*
X130189552Y-88454552D01*
X130233867Y-88388231D01*
X130245500Y-88329748D01*
X130245500Y-87356532D01*
X130684500Y-87356532D01*
X130684500Y-87563467D01*
X130724869Y-87766418D01*
X130804058Y-87957597D01*
X130901525Y-88103467D01*
X130919023Y-88129655D01*
X131065345Y-88275977D01*
X131237402Y-88390941D01*
X131428580Y-88470130D01*
X131631535Y-88510500D01*
X131631536Y-88510500D01*
X131838464Y-88510500D01*
X131838465Y-88510500D01*
X132041420Y-88470130D01*
X132232598Y-88390941D01*
X132404655Y-88275977D01*
X132446524Y-88234108D01*
X150899500Y-88234108D01*
X150899500Y-88365892D01*
X150906212Y-88390941D01*
X150933609Y-88493190D01*
X150999496Y-88607309D01*
X150999498Y-88607311D01*
X150999500Y-88607314D01*
X151092686Y-88700500D01*
X151092688Y-88700501D01*
X151092690Y-88700503D01*
X151206810Y-88766390D01*
X151206808Y-88766390D01*
X151206812Y-88766391D01*
X151206814Y-88766392D01*
X151334108Y-88800500D01*
X151334110Y-88800500D01*
X151465890Y-88800500D01*
X151465892Y-88800500D01*
X151593186Y-88766392D01*
X151593188Y-88766390D01*
X151593190Y-88766390D01*
X151707309Y-88700503D01*
X151707309Y-88700502D01*
X151707314Y-88700500D01*
X151800500Y-88607314D01*
X151856396Y-88510500D01*
X151866390Y-88493190D01*
X151866390Y-88493188D01*
X151866392Y-88493186D01*
X151900500Y-88365892D01*
X151900500Y-88234108D01*
X151866392Y-88106814D01*
X151866390Y-88106811D01*
X151866390Y-88106809D01*
X151800503Y-87992690D01*
X151800501Y-87992688D01*
X151800500Y-87992686D01*
X151707314Y-87899500D01*
X151707311Y-87899498D01*
X151707309Y-87899496D01*
X151593189Y-87833609D01*
X151593191Y-87833609D01*
X151543799Y-87820375D01*
X151465892Y-87799500D01*
X151334108Y-87799500D01*
X151256200Y-87820375D01*
X151206809Y-87833609D01*
X151092690Y-87899496D01*
X150999496Y-87992690D01*
X150933609Y-88106809D01*
X150933608Y-88106814D01*
X150899500Y-88234108D01*
X132446524Y-88234108D01*
X132550977Y-88129655D01*
X132665941Y-87957598D01*
X132745130Y-87766420D01*
X132785500Y-87563465D01*
X132785500Y-87356535D01*
X132745130Y-87153580D01*
X132711243Y-87071769D01*
X132708648Y-87065504D01*
X132695643Y-87034108D01*
X152299500Y-87034108D01*
X152299500Y-87165892D01*
X152329579Y-87278151D01*
X152333609Y-87293190D01*
X152399496Y-87407309D01*
X152399498Y-87407311D01*
X152399500Y-87407314D01*
X152492686Y-87500500D01*
X152492688Y-87500501D01*
X152492690Y-87500503D01*
X152606810Y-87566390D01*
X152606808Y-87566390D01*
X152606812Y-87566391D01*
X152606814Y-87566392D01*
X152734108Y-87600500D01*
X152734110Y-87600500D01*
X152865890Y-87600500D01*
X152865892Y-87600500D01*
X152993186Y-87566392D01*
X152993188Y-87566390D01*
X152993190Y-87566390D01*
X153107309Y-87500503D01*
X153107309Y-87500502D01*
X153107314Y-87500500D01*
X153200500Y-87407314D01*
X153229817Y-87356536D01*
X153266390Y-87293190D01*
X153266390Y-87293188D01*
X153266392Y-87293186D01*
X153300500Y-87165892D01*
X153300500Y-87130253D01*
X161409500Y-87130253D01*
X161409500Y-88869746D01*
X161409501Y-88869758D01*
X161421132Y-88928227D01*
X161421134Y-88928233D01*
X161465445Y-88994548D01*
X161465448Y-88994552D01*
X161531769Y-89038867D01*
X161576231Y-89047711D01*
X161590241Y-89050498D01*
X161590246Y-89050498D01*
X161590252Y-89050500D01*
X161590253Y-89050500D01*
X163329747Y-89050500D01*
X163329748Y-89050500D01*
X163388231Y-89038867D01*
X163454552Y-88994552D01*
X163498867Y-88928231D01*
X163510500Y-88869748D01*
X163510500Y-87896532D01*
X163949500Y-87896532D01*
X163949500Y-88103467D01*
X163989869Y-88306418D01*
X164069058Y-88497597D01*
X164142365Y-88607309D01*
X164184023Y-88669655D01*
X164330345Y-88815977D01*
X164502402Y-88930941D01*
X164693580Y-89010130D01*
X164896535Y-89050500D01*
X164896536Y-89050500D01*
X165103464Y-89050500D01*
X165103465Y-89050500D01*
X165306420Y-89010130D01*
X165497598Y-88930941D01*
X165669655Y-88815977D01*
X165815977Y-88669655D01*
X165930941Y-88497598D01*
X166010130Y-88306420D01*
X166050500Y-88103465D01*
X166050500Y-87896535D01*
X166010130Y-87693580D01*
X165930941Y-87502402D01*
X165815977Y-87330345D01*
X165669655Y-87184023D01*
X165589182Y-87130253D01*
X165497597Y-87069058D01*
X165306418Y-86989869D01*
X165103467Y-86949500D01*
X165103465Y-86949500D01*
X164896535Y-86949500D01*
X164896532Y-86949500D01*
X164693581Y-86989869D01*
X164502402Y-87069058D01*
X164330348Y-87184020D01*
X164184020Y-87330348D01*
X164069058Y-87502402D01*
X163989869Y-87693581D01*
X163949500Y-87896532D01*
X163510500Y-87896532D01*
X163510500Y-87130252D01*
X163498867Y-87071769D01*
X163454552Y-87005448D01*
X163454548Y-87005445D01*
X163388233Y-86961134D01*
X163388231Y-86961133D01*
X163388228Y-86961132D01*
X163388227Y-86961132D01*
X163329758Y-86949501D01*
X163329748Y-86949500D01*
X161590252Y-86949500D01*
X161590251Y-86949500D01*
X161590241Y-86949501D01*
X161531772Y-86961132D01*
X161531766Y-86961134D01*
X161465451Y-87005445D01*
X161465445Y-87005451D01*
X161421134Y-87071766D01*
X161421132Y-87071772D01*
X161409501Y-87130241D01*
X161409500Y-87130253D01*
X153300500Y-87130253D01*
X153300500Y-87034108D01*
X153266392Y-86906814D01*
X153266390Y-86906811D01*
X153266390Y-86906809D01*
X153200503Y-86792690D01*
X153200501Y-86792688D01*
X153200500Y-86792686D01*
X153107314Y-86699500D01*
X153107311Y-86699498D01*
X153107309Y-86699496D01*
X152993189Y-86633609D01*
X152993191Y-86633609D01*
X152943799Y-86620375D01*
X152865892Y-86599500D01*
X152734108Y-86599500D01*
X152656200Y-86620375D01*
X152606809Y-86633609D01*
X152492690Y-86699496D01*
X152399496Y-86792690D01*
X152333609Y-86906809D01*
X152333608Y-86906814D01*
X152299500Y-87034108D01*
X132695643Y-87034108D01*
X132665941Y-86962402D01*
X132550979Y-86790348D01*
X132550977Y-86790345D01*
X132404655Y-86644023D01*
X132404651Y-86644020D01*
X132232597Y-86529058D01*
X132041418Y-86449869D01*
X131838467Y-86409500D01*
X131838465Y-86409500D01*
X131631535Y-86409500D01*
X131631532Y-86409500D01*
X131428581Y-86449869D01*
X131237402Y-86529058D01*
X131065348Y-86644020D01*
X130919020Y-86790348D01*
X130804058Y-86962402D01*
X130724869Y-87153581D01*
X130684500Y-87356532D01*
X130245500Y-87356532D01*
X130245500Y-86590252D01*
X130233867Y-86531769D01*
X130189552Y-86465448D01*
X130189548Y-86465445D01*
X130123233Y-86421134D01*
X130123231Y-86421133D01*
X130123228Y-86421132D01*
X130123227Y-86421132D01*
X130064758Y-86409501D01*
X130064748Y-86409500D01*
X128325252Y-86409500D01*
X128325251Y-86409500D01*
X128325241Y-86409501D01*
X128266772Y-86421132D01*
X128266766Y-86421134D01*
X128200451Y-86465445D01*
X128200445Y-86465451D01*
X128156134Y-86531766D01*
X128156132Y-86531772D01*
X128144501Y-86590241D01*
X128144500Y-86590253D01*
X124588000Y-86590253D01*
X124588000Y-85934108D01*
X152899500Y-85934108D01*
X152899500Y-86065892D01*
X152929579Y-86178151D01*
X152933609Y-86193190D01*
X152999496Y-86307309D01*
X152999498Y-86307311D01*
X152999500Y-86307314D01*
X153092686Y-86400500D01*
X153092688Y-86400501D01*
X153092690Y-86400503D01*
X153206810Y-86466390D01*
X153206808Y-86466390D01*
X153206812Y-86466391D01*
X153206814Y-86466392D01*
X153334108Y-86500500D01*
X153334110Y-86500500D01*
X153465890Y-86500500D01*
X153465892Y-86500500D01*
X153593186Y-86466392D01*
X153593188Y-86466390D01*
X153593190Y-86466390D01*
X153707309Y-86400503D01*
X153707309Y-86400502D01*
X153707314Y-86400500D01*
X153800500Y-86307314D01*
X153866392Y-86193186D01*
X153900500Y-86065892D01*
X153900500Y-85934108D01*
X153866392Y-85806814D01*
X153866390Y-85806811D01*
X153866390Y-85806809D01*
X153800503Y-85692690D01*
X153800501Y-85692688D01*
X153800500Y-85692686D01*
X153707314Y-85599500D01*
X153707311Y-85599498D01*
X153707309Y-85599496D01*
X153593189Y-85533609D01*
X153593191Y-85533609D01*
X153543799Y-85520375D01*
X153465892Y-85499500D01*
X153334108Y-85499500D01*
X153256200Y-85520375D01*
X153206809Y-85533609D01*
X153092690Y-85599496D01*
X152999496Y-85692690D01*
X152933609Y-85806809D01*
X152933608Y-85806814D01*
X152899500Y-85934108D01*
X124588000Y-85934108D01*
X124588000Y-81934108D01*
X156699500Y-81934108D01*
X156699500Y-82065892D01*
X156729579Y-82178151D01*
X156733609Y-82193190D01*
X156799496Y-82307309D01*
X156799498Y-82307311D01*
X156799500Y-82307314D01*
X156892686Y-82400500D01*
X156892688Y-82400501D01*
X156892690Y-82400503D01*
X157006810Y-82466390D01*
X157006808Y-82466390D01*
X157006812Y-82466391D01*
X157006814Y-82466392D01*
X157134108Y-82500500D01*
X157134110Y-82500500D01*
X157265890Y-82500500D01*
X157265892Y-82500500D01*
X157393186Y-82466392D01*
X157393188Y-82466390D01*
X157393190Y-82466390D01*
X157507309Y-82400503D01*
X157507309Y-82400502D01*
X157507314Y-82400500D01*
X157600500Y-82307314D01*
X157666392Y-82193186D01*
X157700500Y-82065892D01*
X157700500Y-81934108D01*
X157666392Y-81806814D01*
X157666390Y-81806811D01*
X157666390Y-81806809D01*
X157600503Y-81692690D01*
X157600501Y-81692688D01*
X157600500Y-81692686D01*
X157507314Y-81599500D01*
X157507311Y-81599498D01*
X157507309Y-81599496D01*
X157393189Y-81533609D01*
X157393191Y-81533609D01*
X157343799Y-81520375D01*
X157265892Y-81499500D01*
X157134108Y-81499500D01*
X157056200Y-81520375D01*
X157006809Y-81533609D01*
X156892690Y-81599496D01*
X156799496Y-81692690D01*
X156733609Y-81806809D01*
X156733608Y-81806814D01*
X156699500Y-81934108D01*
X124588000Y-81934108D01*
X124588000Y-80002435D01*
X124588119Y-79997578D01*
X124593958Y-79878712D01*
X124593958Y-79878710D01*
X126884500Y-79878710D01*
X126884500Y-80121289D01*
X126916161Y-80361781D01*
X126916161Y-80361786D01*
X126978944Y-80596092D01*
X126978948Y-80596105D01*
X127071772Y-80820204D01*
X127071774Y-80820208D01*
X127071776Y-80820212D01*
X127193064Y-81030289D01*
X127193066Y-81030292D01*
X127340729Y-81222731D01*
X127340731Y-81222733D01*
X127340735Y-81222738D01*
X127512262Y-81394265D01*
X127512266Y-81394268D01*
X127512268Y-81394270D01*
X127649407Y-81499500D01*
X127704711Y-81541936D01*
X127914788Y-81663224D01*
X128138900Y-81756054D01*
X128373211Y-81818838D01*
X128613712Y-81850500D01*
X128613713Y-81850500D01*
X128856287Y-81850500D01*
X128856288Y-81850500D01*
X129096789Y-81818838D01*
X129331100Y-81756054D01*
X129555212Y-81663224D01*
X129765289Y-81541936D01*
X129957738Y-81394265D01*
X130129265Y-81222738D01*
X130276936Y-81030289D01*
X130398224Y-80820212D01*
X130475311Y-80634108D01*
X157399500Y-80634108D01*
X157399500Y-80765892D01*
X157414053Y-80820204D01*
X157433609Y-80893190D01*
X157499496Y-81007309D01*
X157499498Y-81007311D01*
X157499500Y-81007314D01*
X157592686Y-81100500D01*
X157592688Y-81100501D01*
X157592690Y-81100503D01*
X157706810Y-81166390D01*
X157706808Y-81166390D01*
X157706812Y-81166391D01*
X157706814Y-81166392D01*
X157834108Y-81200500D01*
X157834110Y-81200500D01*
X157965890Y-81200500D01*
X157965892Y-81200500D01*
X158093186Y-81166392D01*
X158093188Y-81166390D01*
X158093190Y-81166390D01*
X158207309Y-81100503D01*
X158207309Y-81100502D01*
X158207314Y-81100500D01*
X158300500Y-81007314D01*
X158366392Y-80893186D01*
X158400500Y-80765892D01*
X158400500Y-80634108D01*
X158366392Y-80506814D01*
X158366390Y-80506811D01*
X158366390Y-80506809D01*
X158300503Y-80392690D01*
X158300501Y-80392688D01*
X158300500Y-80392686D01*
X158207314Y-80299500D01*
X158207311Y-80299498D01*
X158207309Y-80299496D01*
X158093189Y-80233609D01*
X158093191Y-80233609D01*
X158043799Y-80220375D01*
X157965892Y-80199500D01*
X157834108Y-80199500D01*
X157756200Y-80220375D01*
X157706809Y-80233609D01*
X157592690Y-80299496D01*
X157499496Y-80392690D01*
X157433609Y-80506809D01*
X157433608Y-80506814D01*
X157399500Y-80634108D01*
X130475311Y-80634108D01*
X130491054Y-80596100D01*
X130553838Y-80361789D01*
X130585500Y-80121288D01*
X130585500Y-79878712D01*
X130553838Y-79638211D01*
X130499148Y-79434108D01*
X139899500Y-79434108D01*
X139899500Y-79565892D01*
X139918878Y-79638211D01*
X139933609Y-79693190D01*
X139999496Y-79807309D01*
X139999498Y-79807311D01*
X139999500Y-79807314D01*
X140092686Y-79900500D01*
X140092688Y-79900501D01*
X140092690Y-79900503D01*
X140206810Y-79966390D01*
X140206808Y-79966390D01*
X140206812Y-79966391D01*
X140206814Y-79966392D01*
X140334108Y-80000500D01*
X140334110Y-80000500D01*
X140465890Y-80000500D01*
X140465892Y-80000500D01*
X140593186Y-79966392D01*
X140593188Y-79966390D01*
X140593190Y-79966390D01*
X140707309Y-79900503D01*
X140707309Y-79900502D01*
X140707314Y-79900500D01*
X140729104Y-79878710D01*
X162884500Y-79878710D01*
X162884500Y-80121289D01*
X162916161Y-80361781D01*
X162916161Y-80361786D01*
X162978944Y-80596092D01*
X162978948Y-80596105D01*
X163071772Y-80820204D01*
X163071774Y-80820208D01*
X163071776Y-80820212D01*
X163193064Y-81030289D01*
X163193066Y-81030292D01*
X163340729Y-81222731D01*
X163340731Y-81222733D01*
X163340735Y-81222738D01*
X163512262Y-81394265D01*
X163512266Y-81394268D01*
X163512268Y-81394270D01*
X163649407Y-81499500D01*
X163704711Y-81541936D01*
X163914788Y-81663224D01*
X164138900Y-81756054D01*
X164373211Y-81818838D01*
X164613712Y-81850500D01*
X164613713Y-81850500D01*
X164856287Y-81850500D01*
X164856288Y-81850500D01*
X165096789Y-81818838D01*
X165331100Y-81756054D01*
X165555212Y-81663224D01*
X165765289Y-81541936D01*
X165957738Y-81394265D01*
X166129265Y-81222738D01*
X166276936Y-81030289D01*
X166398224Y-80820212D01*
X166491054Y-80596100D01*
X166553838Y-80361789D01*
X166585500Y-80121288D01*
X166585500Y-79878712D01*
X166553838Y-79638211D01*
X166491054Y-79403900D01*
X166398224Y-79179788D01*
X166276936Y-78969711D01*
X166129265Y-78777262D01*
X165957738Y-78605735D01*
X165957733Y-78605731D01*
X165957731Y-78605729D01*
X165765292Y-78458066D01*
X165765289Y-78458064D01*
X165555212Y-78336776D01*
X165555208Y-78336774D01*
X165555204Y-78336772D01*
X165331105Y-78243948D01*
X165331104Y-78243947D01*
X165331100Y-78243946D01*
X165096789Y-78181162D01*
X165096786Y-78181161D01*
X165096784Y-78181161D01*
X164856289Y-78149500D01*
X164856288Y-78149500D01*
X164613712Y-78149500D01*
X164613710Y-78149500D01*
X164373218Y-78181161D01*
X164373213Y-78181161D01*
X164138907Y-78243944D01*
X164138894Y-78243948D01*
X163914795Y-78336772D01*
X163704707Y-78458066D01*
X163512268Y-78605729D01*
X163340729Y-78777268D01*
X163193066Y-78969707D01*
X163071772Y-79179795D01*
X162978948Y-79403894D01*
X162978944Y-79403907D01*
X162916161Y-79638213D01*
X162916161Y-79638218D01*
X162884500Y-79878710D01*
X140729104Y-79878710D01*
X140800500Y-79807314D01*
X140866392Y-79693186D01*
X140900500Y-79565892D01*
X140900500Y-79434108D01*
X140866392Y-79306814D01*
X140866390Y-79306811D01*
X140866390Y-79306809D01*
X140800503Y-79192690D01*
X140800501Y-79192688D01*
X140800500Y-79192686D01*
X140707314Y-79099500D01*
X140707311Y-79099498D01*
X140707309Y-79099496D01*
X140593189Y-79033609D01*
X140593191Y-79033609D01*
X140543799Y-79020375D01*
X140465892Y-78999500D01*
X140334108Y-78999500D01*
X140256200Y-79020375D01*
X140206809Y-79033609D01*
X140092690Y-79099496D01*
X139999496Y-79192690D01*
X139933609Y-79306809D01*
X139930803Y-79317281D01*
X139899500Y-79434108D01*
X130499148Y-79434108D01*
X130491054Y-79403900D01*
X130398224Y-79179788D01*
X130276936Y-78969711D01*
X130129265Y-78777262D01*
X129957738Y-78605735D01*
X129957733Y-78605731D01*
X129957731Y-78605729D01*
X129765292Y-78458066D01*
X129765289Y-78458064D01*
X129555212Y-78336776D01*
X129555208Y-78336774D01*
X129555204Y-78336772D01*
X129331105Y-78243948D01*
X129331104Y-78243947D01*
X129331100Y-78243946D01*
X129096789Y-78181162D01*
X129096786Y-78181161D01*
X129096784Y-78181161D01*
X128856289Y-78149500D01*
X128856288Y-78149500D01*
X128613712Y-78149500D01*
X128613710Y-78149500D01*
X128373218Y-78181161D01*
X128373213Y-78181161D01*
X128138907Y-78243944D01*
X128138894Y-78243948D01*
X127914795Y-78336772D01*
X127704707Y-78458066D01*
X127512268Y-78605729D01*
X127340729Y-78777268D01*
X127193066Y-78969707D01*
X127071772Y-79179795D01*
X126978948Y-79403894D01*
X126978944Y-79403907D01*
X126916161Y-79638213D01*
X126916161Y-79638218D01*
X126884500Y-79878710D01*
X124593958Y-79878710D01*
X124604613Y-79661824D01*
X124605563Y-79652186D01*
X124654529Y-79322080D01*
X124656418Y-79312582D01*
X124737509Y-78988849D01*
X124740318Y-78979590D01*
X124852749Y-78665367D01*
X124856458Y-78656412D01*
X124999144Y-78354728D01*
X125003711Y-78346185D01*
X125130824Y-78134108D01*
X132199500Y-78134108D01*
X132199500Y-78265892D01*
X132223307Y-78354741D01*
X132233609Y-78393190D01*
X132299496Y-78507309D01*
X132299498Y-78507311D01*
X132299500Y-78507314D01*
X132392686Y-78600500D01*
X132392688Y-78600501D01*
X132392690Y-78600503D01*
X132506810Y-78666390D01*
X132506808Y-78666390D01*
X132506812Y-78666391D01*
X132506814Y-78666392D01*
X132634108Y-78700500D01*
X132634110Y-78700500D01*
X132765890Y-78700500D01*
X132765892Y-78700500D01*
X132893186Y-78666392D01*
X132893188Y-78666390D01*
X132893190Y-78666390D01*
X133007309Y-78600503D01*
X133007309Y-78600502D01*
X133007314Y-78600500D01*
X133100500Y-78507314D01*
X133100503Y-78507309D01*
X133166390Y-78393190D01*
X133166390Y-78393188D01*
X133166392Y-78393186D01*
X133200500Y-78265892D01*
X133200500Y-78134108D01*
X133166392Y-78006814D01*
X133166390Y-78006811D01*
X133166390Y-78006809D01*
X133100503Y-77892690D01*
X133100501Y-77892688D01*
X133100500Y-77892686D01*
X133007314Y-77799500D01*
X133007311Y-77799498D01*
X133007309Y-77799496D01*
X132893189Y-77733609D01*
X132893191Y-77733609D01*
X132843799Y-77720375D01*
X132765892Y-77699500D01*
X132634108Y-77699500D01*
X132556200Y-77720375D01*
X132506809Y-77733609D01*
X132392690Y-77799496D01*
X132299496Y-77892690D01*
X132233609Y-78006809D01*
X132233608Y-78006814D01*
X132199500Y-78134108D01*
X125130824Y-78134108D01*
X125175280Y-78059938D01*
X125180663Y-78051883D01*
X125379457Y-77783841D01*
X125385607Y-77776346D01*
X125609728Y-77529067D01*
X125616567Y-77522228D01*
X125863846Y-77298107D01*
X125871341Y-77291957D01*
X126139383Y-77093163D01*
X126147438Y-77087780D01*
X126433685Y-76916211D01*
X126442228Y-76911644D01*
X126743912Y-76768958D01*
X126752867Y-76765249D01*
X127067090Y-76652818D01*
X127076349Y-76650009D01*
X127400082Y-76568918D01*
X127409580Y-76567029D01*
X127739686Y-76518063D01*
X127749324Y-76517113D01*
X128058106Y-76501944D01*
X128085079Y-76500619D01*
X128089936Y-76500500D01*
X128153392Y-76500500D01*
X165021608Y-76500500D01*
X165085064Y-76500500D01*
X165089921Y-76500619D01*
G37*
%TD.AperFunction*%
%TD*%
M02*
