%TF.GenerationSoftware,KiCad,Pcbnew,9.0.7*%
%TF.CreationDate,2026-09-10T20:05:50+01:00*%
%TF.ProjectId,ESP32-S3-SMALL,45535033-322d-4533-932d-534d414c4c2e,rev?*%
%TF.SameCoordinates,Original*%
%TF.FileFunction,Soldermask,Top*%
%TF.FilePolarity,Negative*%
%FSLAX46Y46*%
G04 Gerber Fmt 4.6, Leading zero omitted, Abs format (unit mm)*
G04 Created by KiCad (PCBNEW 9.0.7) date 2026-09-10 20:05:50*
%MOMM*%
%LPD*%
G01*
G04 APERTURE LIST*
G04 Aperture macros list*
%AMRoundRect*
0 Rectangle with rounded corners*
0 $1 Rounding radius*
0 $2 $3 $4 $5 $6 $7 $8 $9 X,Y pos of 4 corners*
0 Add a 4 corners polygon primitive as box body*
4,1,4,$2,$3,$4,$5,$6,$7,$8,$9,$2,$3,0*
0 Add four circle primitives for the rounded corners*
1,1,$1+$1,$2,$3*
1,1,$1+$1,$4,$5*
1,1,$1+$1,$6,$7*
1,1,$1+$1,$8,$9*
0 Add four rect primitives between the rounded corners*
20,1,$1+$1,$2,$3,$4,$5,0*
20,1,$1+$1,$4,$5,$6,$7,0*
20,1,$1+$1,$6,$7,$8,$9,0*
20,1,$1+$1,$8,$9,$2,$3,0*%
G04 Aperture macros list end*
%ADD10R,1.700000X1.700000*%
%ADD11C,1.700000*%
%ADD12C,3.200000*%
%ADD13RoundRect,0.150000X0.625000X-0.150000X0.625000X0.150000X-0.625000X0.150000X-0.625000X-0.150000X0*%
%ADD14RoundRect,0.250000X0.650000X-0.350000X0.650000X0.350000X-0.650000X0.350000X-0.650000X-0.350000X0*%
%ADD15C,2.100000*%
%ADD16C,1.750000*%
%ADD17RoundRect,0.225000X-0.225000X-0.250000X0.225000X-0.250000X0.225000X0.250000X-0.225000X0.250000X0*%
%ADD18C,0.600000*%
%ADD19R,3.900000X3.900000*%
%ADD20R,1.500000X0.900000*%
%ADD21R,0.900000X1.500000*%
%ADD22RoundRect,0.135000X0.135000X0.185000X-0.135000X0.185000X-0.135000X-0.185000X0.135000X-0.185000X0*%
%ADD23RoundRect,0.140000X-0.170000X0.140000X-0.170000X-0.140000X0.170000X-0.140000X0.170000X0.140000X0*%
%ADD24RoundRect,0.135000X-0.185000X0.135000X-0.185000X-0.135000X0.185000X-0.135000X0.185000X0.135000X0*%
%ADD25RoundRect,0.375000X0.375000X-0.625000X0.375000X0.625000X-0.375000X0.625000X-0.375000X-0.625000X0*%
%ADD26RoundRect,0.500000X1.400000X-0.500000X1.400000X0.500000X-1.400000X0.500000X-1.400000X-0.500000X0*%
%ADD27RoundRect,0.225000X-0.250000X0.225000X-0.250000X-0.225000X0.250000X-0.225000X0.250000X0.225000X0*%
%ADD28RoundRect,0.062500X-0.062500X0.117500X-0.062500X-0.117500X0.062500X-0.117500X0.062500X0.117500X0*%
%ADD29R,0.900000X1.700000*%
%ADD30RoundRect,0.135000X-0.135000X-0.185000X0.135000X-0.185000X0.135000X0.185000X-0.135000X0.185000X0*%
%ADD31RoundRect,0.237500X-0.287500X-0.237500X0.287500X-0.237500X0.287500X0.237500X-0.287500X0.237500X0*%
%ADD32RoundRect,0.200000X-0.300000X-0.200000X0.300000X-0.200000X0.300000X0.200000X-0.300000X0.200000X0*%
%ADD33RoundRect,0.225000X0.225000X0.250000X-0.225000X0.250000X-0.225000X-0.250000X0.225000X-0.250000X0*%
%ADD34RoundRect,0.250001X-0.949999X-0.949999X0.949999X-0.949999X0.949999X0.949999X-0.949999X0.949999X0*%
%ADD35C,2.400000*%
G04 APERTURE END LIST*
D10*
%TO.C,J4*%
X162460000Y-88000000D03*
D11*
X165000000Y-88000000D03*
X162460000Y-90540000D03*
X165000000Y-90540000D03*
X162460000Y-93080000D03*
X165000000Y-93080000D03*
%TD*%
D12*
%TO.C,H4*%
X165000000Y-117000000D03*
%TD*%
D13*
%TO.C,J2*%
X163735000Y-110500000D03*
X163735000Y-109500000D03*
X163735000Y-108500000D03*
X163735000Y-107500000D03*
D14*
X167610000Y-111800000D03*
X167610000Y-106200000D03*
%TD*%
D15*
%TO.C,SW1*%
X129400000Y-110525000D03*
X129400000Y-103515000D03*
D16*
X126910000Y-109275000D03*
X126910000Y-104775000D03*
%TD*%
D17*
%TO.C,C1*%
X145025000Y-110500000D03*
X146575000Y-110500000D03*
%TD*%
D18*
%TO.C,U2*%
X146735000Y-85300000D03*
X146735000Y-83900000D03*
X146035000Y-86000000D03*
X146035000Y-84600000D03*
X146035000Y-83200000D03*
X145335000Y-85300000D03*
D19*
X145335000Y-84600000D03*
D18*
X145335000Y-83900000D03*
X144635000Y-86000000D03*
X144635000Y-84600000D03*
X144635000Y-83200000D03*
X143935000Y-85300000D03*
X143935000Y-83900000D03*
D20*
X155585000Y-76880000D03*
X155585000Y-78150000D03*
X155585000Y-79420000D03*
X155585000Y-80690000D03*
X155585000Y-81960000D03*
X155585000Y-83230000D03*
X155585000Y-84500000D03*
X155585000Y-85770000D03*
X155585000Y-87040000D03*
X155585000Y-88310000D03*
X155585000Y-89580000D03*
X155585000Y-90850000D03*
X155585000Y-92120000D03*
X155585000Y-93390000D03*
D21*
X153820000Y-94640000D03*
X152550000Y-94640000D03*
X151280000Y-94640000D03*
X150010000Y-94640000D03*
X148740000Y-94640000D03*
X147470000Y-94640000D03*
X146200000Y-94640000D03*
X144930000Y-94640000D03*
X143660000Y-94640000D03*
X142390000Y-94640000D03*
X141120000Y-94640000D03*
X139850000Y-94640000D03*
D20*
X138085000Y-93390000D03*
X138085000Y-92120000D03*
X138085000Y-90850000D03*
X138085000Y-89580000D03*
X138085000Y-88310000D03*
X138085000Y-87040000D03*
X138085000Y-85770000D03*
X138085000Y-84500000D03*
X138085000Y-83230000D03*
X138085000Y-81960000D03*
X138085000Y-80690000D03*
X138085000Y-79420000D03*
X138085000Y-78150000D03*
X138085000Y-76880000D03*
%TD*%
D22*
%TO.C,R3*%
X151890000Y-115200000D03*
X152910000Y-115200000D03*
%TD*%
D23*
%TO.C,C6*%
X135500000Y-79160000D03*
X135500000Y-78200000D03*
%TD*%
D24*
%TO.C,R2*%
X160600000Y-106500000D03*
X160600000Y-107520000D03*
%TD*%
D25*
%TO.C,U1*%
X140300000Y-107650000D03*
X142600000Y-107650000D03*
D26*
X142600000Y-101350000D03*
D25*
X144900000Y-107650000D03*
%TD*%
D24*
%TO.C,R1*%
X159000000Y-107500000D03*
X159000000Y-106480000D03*
%TD*%
D12*
%TO.C,H2*%
X128735000Y-117000000D03*
%TD*%
D24*
%TO.C,R6*%
X134500000Y-104420000D03*
X134500000Y-103400000D03*
%TD*%
D27*
%TO.C,C3*%
X134500000Y-107475000D03*
X134500000Y-105925000D03*
%TD*%
D28*
%TO.C,D3*%
X133000000Y-105980000D03*
X133000000Y-106820000D03*
%TD*%
D12*
%TO.C,H1*%
X128735000Y-80000000D03*
%TD*%
%TO.C,H3*%
X164735000Y-80000000D03*
%TD*%
D29*
%TO.C,SW2*%
X167700000Y-99100000D03*
X164300000Y-99100000D03*
%TD*%
D22*
%TO.C,R9*%
X140910000Y-98100000D03*
X139890000Y-98100000D03*
%TD*%
D24*
%TO.C,R8*%
X160100000Y-96680000D03*
X160100000Y-97700000D03*
%TD*%
D22*
%TO.C,R7*%
X139610000Y-116800000D03*
X138590000Y-116800000D03*
%TD*%
D30*
%TO.C,R5*%
X158890000Y-113800000D03*
X159910000Y-113800000D03*
%TD*%
%TO.C,R4*%
X158790000Y-115200000D03*
X159810000Y-115200000D03*
%TD*%
D10*
%TO.C,J3*%
X129195000Y-87460000D03*
D11*
X131735000Y-87460000D03*
X129195000Y-90000000D03*
X131735000Y-90000000D03*
X129195000Y-92540000D03*
X131735000Y-92540000D03*
X129195000Y-95080000D03*
X131735000Y-95080000D03*
X129195000Y-97620000D03*
X131735000Y-97620000D03*
%TD*%
D28*
%TO.C,D4*%
X162500000Y-99920000D03*
X162500000Y-99080000D03*
%TD*%
D31*
%TO.C,D2*%
X134625000Y-116800000D03*
X136375000Y-116800000D03*
%TD*%
D32*
%TO.C,D1*%
X154650000Y-113800000D03*
X154650000Y-115200000D03*
X157150000Y-115200000D03*
X157150000Y-113800000D03*
%TD*%
D27*
%TO.C,C5*%
X133800000Y-78200000D03*
X133800000Y-79750000D03*
%TD*%
%TO.C,C4*%
X160100000Y-99125000D03*
X160100000Y-100675000D03*
%TD*%
D33*
%TO.C,C2*%
X142600000Y-110500000D03*
X141050000Y-110500000D03*
%TD*%
D34*
%TO.C,J1*%
X144985000Y-116267500D03*
D35*
X148485000Y-116267500D03*
%TD*%
M02*
