%TF.GenerationSoftware,KiCad,Pcbnew,9.0.7*%
%TF.CreationDate,2026-09-10T20:05:49+01:00*%
%TF.ProjectId,ESP32-S3-SMALL,45535033-322d-4533-932d-534d414c4c2e,rev?*%
%TF.SameCoordinates,Original*%
%TF.FileFunction,Copper,L1,Top*%
%TF.FilePolarity,Positive*%
%FSLAX46Y46*%
G04 Gerber Fmt 4.6, Leading zero omitted, Abs format (unit mm)*
G04 Created by KiCad (PCBNEW 9.0.7) date 2026-09-10 20:05:49*
%MOMM*%
%LPD*%
G01*
G04 APERTURE LIST*
G04 Aperture macros list*
%AMRoundRect*
0 Rectangle with rounded corners*
0 $1 Rounding radius*
0 $2 $3 $4 $5 $6 $7 $8 $9 X,Y pos of 4 corners*
0 Add a 4 corners polygon primitive as box body*
4,1,4,$2,$3,$4,$5,$6,$7,$8,$9,$2,$3,0*
0 Add four circle primitives for the rounded corners*
1,1,$1+$1,$2,$3*
1,1,$1+$1,$4,$5*
1,1,$1+$1,$6,$7*
1,1,$1+$1,$8,$9*
0 Add four rect primitives between the rounded corners*
20,1,$1+$1,$2,$3,$4,$5,0*
20,1,$1+$1,$4,$5,$6,$7,0*
20,1,$1+$1,$6,$7,$8,$9,0*
20,1,$1+$1,$8,$9,$2,$3,0*%
G04 Aperture macros list end*
%TA.AperFunction,ComponentPad*%
%ADD10R,1.700000X1.700000*%
%TD*%
%TA.AperFunction,ComponentPad*%
%ADD11C,1.700000*%
%TD*%
%TA.AperFunction,SMDPad,CuDef*%
%ADD12RoundRect,0.150000X0.625000X-0.150000X0.625000X0.150000X-0.625000X0.150000X-0.625000X-0.150000X0*%
%TD*%
%TA.AperFunction,SMDPad,CuDef*%
%ADD13RoundRect,0.250000X0.650000X-0.350000X0.650000X0.350000X-0.650000X0.350000X-0.650000X-0.350000X0*%
%TD*%
%TA.AperFunction,ComponentPad*%
%ADD14C,2.100000*%
%TD*%
%TA.AperFunction,ComponentPad*%
%ADD15C,1.750000*%
%TD*%
%TA.AperFunction,SMDPad,CuDef*%
%ADD16RoundRect,0.225000X-0.225000X-0.250000X0.225000X-0.250000X0.225000X0.250000X-0.225000X0.250000X0*%
%TD*%
%TA.AperFunction,HeatsinkPad*%
%ADD17C,0.600000*%
%TD*%
%TA.AperFunction,HeatsinkPad*%
%ADD18R,3.900000X3.900000*%
%TD*%
%TA.AperFunction,SMDPad,CuDef*%
%ADD19R,1.500000X0.900000*%
%TD*%
%TA.AperFunction,SMDPad,CuDef*%
%ADD20R,0.900000X1.500000*%
%TD*%
%TA.AperFunction,SMDPad,CuDef*%
%ADD21RoundRect,0.135000X0.135000X0.185000X-0.135000X0.185000X-0.135000X-0.185000X0.135000X-0.185000X0*%
%TD*%
%TA.AperFunction,SMDPad,CuDef*%
%ADD22RoundRect,0.140000X-0.170000X0.140000X-0.170000X-0.140000X0.170000X-0.140000X0.170000X0.140000X0*%
%TD*%
%TA.AperFunction,SMDPad,CuDef*%
%ADD23RoundRect,0.135000X-0.185000X0.135000X-0.185000X-0.135000X0.185000X-0.135000X0.185000X0.135000X0*%
%TD*%
%TA.AperFunction,SMDPad,CuDef*%
%ADD24RoundRect,0.375000X0.375000X-0.625000X0.375000X0.625000X-0.375000X0.625000X-0.375000X-0.625000X0*%
%TD*%
%TA.AperFunction,SMDPad,CuDef*%
%ADD25RoundRect,0.500000X1.400000X-0.500000X1.400000X0.500000X-1.400000X0.500000X-1.400000X-0.500000X0*%
%TD*%
%TA.AperFunction,SMDPad,CuDef*%
%ADD26RoundRect,0.225000X-0.250000X0.225000X-0.250000X-0.225000X0.250000X-0.225000X0.250000X0.225000X0*%
%TD*%
%TA.AperFunction,SMDPad,CuDef*%
%ADD27RoundRect,0.062500X-0.062500X0.117500X-0.062500X-0.117500X0.062500X-0.117500X0.062500X0.117500X0*%
%TD*%
%TA.AperFunction,SMDPad,CuDef*%
%ADD28R,0.900000X1.700000*%
%TD*%
%TA.AperFunction,SMDPad,CuDef*%
%ADD29RoundRect,0.135000X-0.135000X-0.185000X0.135000X-0.185000X0.135000X0.185000X-0.135000X0.185000X0*%
%TD*%
%TA.AperFunction,SMDPad,CuDef*%
%ADD30RoundRect,0.237500X-0.287500X-0.237500X0.287500X-0.237500X0.287500X0.237500X-0.287500X0.237500X0*%
%TD*%
%TA.AperFunction,SMDPad,CuDef*%
%ADD31RoundRect,0.200000X-0.300000X-0.200000X0.300000X-0.200000X0.300000X0.200000X-0.300000X0.200000X0*%
%TD*%
%TA.AperFunction,SMDPad,CuDef*%
%ADD32RoundRect,0.225000X0.225000X0.250000X-0.225000X0.250000X-0.225000X-0.250000X0.225000X-0.250000X0*%
%TD*%
%TA.AperFunction,ComponentPad*%
%ADD33RoundRect,0.250001X-0.949999X-0.949999X0.949999X-0.949999X0.949999X0.949999X-0.949999X0.949999X0*%
%TD*%
%TA.AperFunction,ComponentPad*%
%ADD34C,2.400000*%
%TD*%
%TA.AperFunction,ViaPad*%
%ADD35C,0.600000*%
%TD*%
%TA.AperFunction,Conductor*%
%ADD36C,0.200000*%
%TD*%
%TA.AperFunction,Conductor*%
%ADD37C,0.600000*%
%TD*%
%TA.AperFunction,Conductor*%
%ADD38C,1.000000*%
%TD*%
G04 APERTURE END LIST*
D10*
%TO.P,J4,1,Pin_1*%
%TO.N,/ESP_EN*%
X162460000Y-88000000D03*
D11*
%TO.P,J4,2,Pin_2*%
%TO.N,+3V3*%
X165000000Y-88000000D03*
%TO.P,J4,3,Pin_3*%
%TO.N,/ESP_TXD*%
X162460000Y-90540000D03*
%TO.P,J4,4,Pin_4*%
%TO.N,GND*%
X165000000Y-90540000D03*
%TO.P,J4,5,Pin_5*%
%TO.N,/ESP_RND*%
X162460000Y-93080000D03*
%TO.P,J4,6,Pin_6*%
%TO.N,/ESP_IO0*%
X165000000Y-93080000D03*
%TD*%
D12*
%TO.P,J2,1,Pin_1*%
%TO.N,GND*%
X163735000Y-110500000D03*
%TO.P,J2,2,Pin_2*%
%TO.N,+3V3*%
X163735000Y-109500000D03*
%TO.P,J2,3,Pin_3*%
%TO.N,/SDA*%
X163735000Y-108500000D03*
%TO.P,J2,4,Pin_4*%
%TO.N,/SCL*%
X163735000Y-107500000D03*
D13*
%TO.P,J2,MP*%
%TO.N,N/C*%
X167610000Y-111800000D03*
X167610000Y-106200000D03*
%TD*%
D14*
%TO.P,SW1,*%
%TO.N,*%
X129400000Y-110525000D03*
X129400000Y-103515000D03*
D15*
%TO.P,SW1,1,A*%
%TO.N,GND*%
X126910000Y-109275000D03*
%TO.P,SW1,2,B*%
%TO.N,/USR_SW*%
X126910000Y-104775000D03*
%TD*%
D16*
%TO.P,C1,1*%
%TO.N,+5V*%
X145025000Y-110500000D03*
%TO.P,C1,2*%
%TO.N,GND*%
X146575000Y-110500000D03*
%TD*%
D17*
%TO.P,U2,41,EPAD(GND)*%
%TO.N,GND*%
X146735000Y-85300000D03*
X146735000Y-83900000D03*
X146035000Y-86000000D03*
X146035000Y-84600000D03*
X146035000Y-83200000D03*
X145335000Y-85300000D03*
D18*
X145335000Y-84600000D03*
D17*
X145335000Y-83900000D03*
X144635000Y-86000000D03*
X144635000Y-84600000D03*
X144635000Y-83200000D03*
X143935000Y-85300000D03*
X143935000Y-83900000D03*
D19*
%TO.P,U2,40,GND*%
X155585000Y-76880000D03*
%TO.P,U2,39,GPIO1*%
%TO.N,unconnected-(U2-GPIO1-Pad39)*%
X155585000Y-78150000D03*
%TO.P,U2,38,GPIO2*%
%TO.N,unconnected-(U2-GPIO2-Pad38)*%
X155585000Y-79420000D03*
%TO.P,U2,37,TXD0/U0TXD/GPIO43*%
%TO.N,/ESP_TXD*%
X155585000Y-80690000D03*
%TO.P,U2,36,RXD0/U0RXD/GPIO44*%
%TO.N,/ESP_RND*%
X155585000Y-81960000D03*
%TO.P,U2,35,GPIO42*%
%TO.N,unconnected-(U2-GPIO42-Pad35)*%
X155585000Y-83230000D03*
%TO.P,U2,34,GPIO41*%
%TO.N,unconnected-(U2-GPIO41-Pad34)*%
X155585000Y-84500000D03*
%TO.P,U2,33,GPIO40*%
%TO.N,/LED_B*%
X155585000Y-85770000D03*
%TO.P,U2,32,GPIO39*%
%TO.N,/LED_G*%
X155585000Y-87040000D03*
%TO.P,U2,31,GPIO38*%
%TO.N,/LED_R*%
X155585000Y-88310000D03*
%TO.P,U2,30,GPIO37\u002A*%
%TO.N,unconnected-(U2-GPIO37\u002A-Pad30)*%
X155585000Y-89580000D03*
%TO.P,U2,29,GPIO36\u002A*%
%TO.N,unconnected-(U2-GPIO36\u002A-Pad29)*%
X155585000Y-90850000D03*
%TO.P,U2,28,GPIO35\u002A*%
%TO.N,unconnected-(U2-GPIO35\u002A-Pad28)*%
X155585000Y-92120000D03*
%TO.P,U2,27,GPIO0*%
%TO.N,/ESP_IO0*%
X155585000Y-93390000D03*
D20*
%TO.P,U2,26,GPIO45*%
%TO.N,unconnected-(U2-GPIO45-Pad26)*%
X153820000Y-94640000D03*
%TO.P,U2,25,GPIO48*%
%TO.N,/USR_SW*%
X152550000Y-94640000D03*
%TO.P,U2,24,GPIO47*%
%TO.N,unconnected-(U2-GPIO47-Pad24)*%
X151280000Y-94640000D03*
%TO.P,U2,23,GPIO21*%
%TO.N,unconnected-(U2-GPIO21-Pad23)*%
X150010000Y-94640000D03*
%TO.P,U2,22,GPIO14*%
%TO.N,/IO14*%
X148740000Y-94640000D03*
%TO.P,U2,21,GPIO13*%
%TO.N,/IO13*%
X147470000Y-94640000D03*
%TO.P,U2,20,GPIO12*%
%TO.N,/IO12*%
X146200000Y-94640000D03*
%TO.P,U2,19,GPIO11*%
%TO.N,/IO11*%
X144930000Y-94640000D03*
%TO.P,U2,18,GPIO10*%
%TO.N,/IO10*%
X143660000Y-94640000D03*
%TO.P,U2,17,GPIO9*%
%TO.N,/SCL*%
X142390000Y-94640000D03*
%TO.P,U2,16,GPIO46*%
%TO.N,unconnected-(U2-GPIO46-Pad16)*%
X141120000Y-94640000D03*
%TO.P,U2,15,GPIO3*%
%TO.N,Net-(U2-GPIO3)*%
X139850000Y-94640000D03*
D19*
%TO.P,U2,14,GPIO20/USB_D+*%
%TO.N,Net-(U2-GPIO20{slash}USB_D+)*%
X138085000Y-93390000D03*
%TO.P,U2,13,GPIO19/USB_D-*%
%TO.N,Net-(U2-GPIO19{slash}USB_D-)*%
X138085000Y-92120000D03*
%TO.P,U2,12,GPIO8*%
%TO.N,/SDA*%
X138085000Y-90850000D03*
%TO.P,U2,11,GPIO18*%
%TO.N,unconnected-(U2-GPIO18-Pad11)*%
X138085000Y-89580000D03*
%TO.P,U2,10,GPIO17*%
%TO.N,unconnected-(U2-GPIO17-Pad10)*%
X138085000Y-88310000D03*
%TO.P,U2,9,GPIO16*%
%TO.N,unconnected-(U2-GPIO16-Pad9)*%
X138085000Y-87040000D03*
%TO.P,U2,8,GPIO15*%
%TO.N,/IO15*%
X138085000Y-85770000D03*
%TO.P,U2,7,GPIO7*%
%TO.N,unconnected-(U2-GPIO7-Pad7)*%
X138085000Y-84500000D03*
%TO.P,U2,6,GPIO6*%
%TO.N,unconnected-(U2-GPIO6-Pad6)*%
X138085000Y-83230000D03*
%TO.P,U2,5,GPIO5*%
%TO.N,unconnected-(U2-GPIO5-Pad5)*%
X138085000Y-81960000D03*
%TO.P,U2,4,GPIO4*%
%TO.N,unconnected-(U2-GPIO4-Pad4)*%
X138085000Y-80690000D03*
%TO.P,U2,3,EN*%
%TO.N,/ESP_EN*%
X138085000Y-79420000D03*
%TO.P,U2,2,3V3*%
%TO.N,+3V3*%
X138085000Y-78150000D03*
%TO.P,U2,1,GND*%
%TO.N,GND*%
X138085000Y-76880000D03*
%TD*%
D21*
%TO.P,R3,2*%
%TO.N,/LED_R*%
X151890000Y-115200000D03*
%TO.P,R3,1*%
%TO.N,Net-(D1-RK)*%
X152910000Y-115200000D03*
%TD*%
D22*
%TO.P,C6,2*%
%TO.N,GND*%
X135500000Y-79160000D03*
%TO.P,C6,1*%
%TO.N,+3V3*%
X135500000Y-78200000D03*
%TD*%
D23*
%TO.P,R2,1*%
%TO.N,+3V3*%
X160600000Y-106500000D03*
%TO.P,R2,2*%
%TO.N,/SCL*%
X160600000Y-107520000D03*
%TD*%
D24*
%TO.P,U1,1,GND*%
%TO.N,GND*%
X140300000Y-107650000D03*
%TO.P,U1,2,VO*%
%TO.N,+3V3*%
X142600000Y-107650000D03*
D25*
X142600000Y-101350000D03*
D24*
%TO.P,U1,3,VI*%
%TO.N,+5V*%
X144900000Y-107650000D03*
%TD*%
D23*
%TO.P,R1,2*%
%TO.N,/SDA*%
X159000000Y-107500000D03*
%TO.P,R1,1*%
%TO.N,+3V3*%
X159000000Y-106480000D03*
%TD*%
%TO.P,R6,2*%
%TO.N,/USR_SW*%
X134500000Y-104420000D03*
%TO.P,R6,1*%
%TO.N,+3V3*%
X134500000Y-103400000D03*
%TD*%
D26*
%TO.P,C3,2*%
%TO.N,GND*%
X134500000Y-107475000D03*
%TO.P,C3,1*%
%TO.N,/USR_SW*%
X134500000Y-105925000D03*
%TD*%
D27*
%TO.P,D3,2,A2*%
%TO.N,/USR_SW*%
X133000000Y-105980000D03*
%TO.P,D3,1,A1*%
%TO.N,GND*%
X133000000Y-106820000D03*
%TD*%
D28*
%TO.P,SW2,1,A*%
%TO.N,GND*%
X167700000Y-99100000D03*
%TO.P,SW2,2,B*%
%TO.N,/ESP_EN*%
X164300000Y-99100000D03*
%TD*%
D21*
%TO.P,R9,1*%
%TO.N,+3V3*%
X140910000Y-98100000D03*
%TO.P,R9,2*%
%TO.N,Net-(U2-GPIO3)*%
X139890000Y-98100000D03*
%TD*%
D23*
%TO.P,R8,1*%
%TO.N,+3V3*%
X160100000Y-96680000D03*
%TO.P,R8,2*%
%TO.N,/ESP_EN*%
X160100000Y-97700000D03*
%TD*%
D21*
%TO.P,R7,1*%
%TO.N,+3V3*%
X139610000Y-116800000D03*
%TO.P,R7,2*%
%TO.N,Net-(D2-A)*%
X138590000Y-116800000D03*
%TD*%
D29*
%TO.P,R5,1*%
%TO.N,Net-(D1-BK)*%
X158890000Y-113800000D03*
%TO.P,R5,2*%
%TO.N,/LED_B*%
X159910000Y-113800000D03*
%TD*%
%TO.P,R4,1*%
%TO.N,Net-(D1-GK)*%
X158790000Y-115200000D03*
%TO.P,R4,2*%
%TO.N,/LED_G*%
X159810000Y-115200000D03*
%TD*%
D10*
%TO.P,J3,1,Pin_1*%
%TO.N,+3V3*%
X129195000Y-87460000D03*
D11*
%TO.P,J3,2,Pin_2*%
X131735000Y-87460000D03*
%TO.P,J3,3,Pin_3*%
%TO.N,/IO10*%
X129195000Y-90000000D03*
%TO.P,J3,4,Pin_4*%
%TO.N,/IO11*%
X131735000Y-90000000D03*
%TO.P,J3,5,Pin_5*%
%TO.N,/IO12*%
X129195000Y-92540000D03*
%TO.P,J3,6,Pin_6*%
%TO.N,/IO13*%
X131735000Y-92540000D03*
%TO.P,J3,7,Pin_7*%
%TO.N,/IO14*%
X129195000Y-95080000D03*
%TO.P,J3,8,Pin_8*%
%TO.N,/IO15*%
X131735000Y-95080000D03*
%TO.P,J3,9,Pin_9*%
%TO.N,GND*%
X129195000Y-97620000D03*
%TO.P,J3,10,Pin_10*%
X131735000Y-97620000D03*
%TD*%
D27*
%TO.P,D4,1,A1*%
%TO.N,GND*%
X162500000Y-99920000D03*
%TO.P,D4,2,A2*%
%TO.N,/ESP_EN*%
X162500000Y-99080000D03*
%TD*%
D30*
%TO.P,D2,1,K*%
%TO.N,GND*%
X134625000Y-116800000D03*
%TO.P,D2,2,A*%
%TO.N,Net-(D2-A)*%
X136375000Y-116800000D03*
%TD*%
D31*
%TO.P,D1,1,A*%
%TO.N,+3V3*%
X154650000Y-113800000D03*
%TO.P,D1,2,RK*%
%TO.N,Net-(D1-RK)*%
X154650000Y-115200000D03*
%TO.P,D1,3,GK*%
%TO.N,Net-(D1-GK)*%
X157150000Y-115200000D03*
%TO.P,D1,4,BK*%
%TO.N,Net-(D1-BK)*%
X157150000Y-113800000D03*
%TD*%
D26*
%TO.P,C5,1*%
%TO.N,+3V3*%
X133800000Y-78200000D03*
%TO.P,C5,2*%
%TO.N,GND*%
X133800000Y-79750000D03*
%TD*%
%TO.P,C4,1*%
%TO.N,/ESP_EN*%
X160100000Y-99125000D03*
%TO.P,C4,2*%
%TO.N,GND*%
X160100000Y-100675000D03*
%TD*%
D32*
%TO.P,C2,1*%
%TO.N,+3V3*%
X142600000Y-110500000D03*
%TO.P,C2,2*%
%TO.N,GND*%
X141050000Y-110500000D03*
%TD*%
D33*
%TO.P,J1,1,Pin_1*%
%TO.N,+5V*%
X144985000Y-116267500D03*
D34*
%TO.P,J1,2,Pin_2*%
%TO.N,GND*%
X148485000Y-116267500D03*
%TD*%
D35*
%TO.N,GND*%
X165200000Y-110500000D03*
X143800000Y-98500000D03*
X141800000Y-97000000D03*
X137500000Y-97800000D03*
%TO.N,+3V3*%
X142600000Y-111900000D03*
X152900000Y-113800000D03*
%TO.N,/LED_B*%
X153400000Y-86000000D03*
%TO.N,/LED_R*%
X151400000Y-88300000D03*
X150700000Y-106800000D03*
%TO.N,/LED_B*%
X157000000Y-108800000D03*
%TO.N,/LED_G*%
X152800000Y-87100000D03*
X159810000Y-117500000D03*
%TO.N,/ESP_IO0*%
X155585000Y-95000000D03*
%TO.N,/ESP_EN*%
X140400000Y-79500000D03*
%TO.N,/ESP_RND*%
X157200000Y-82000000D03*
%TO.N,/ESP_TXD*%
X157900000Y-80700000D03*
%TO.N,+3V3*%
X157500000Y-106500000D03*
X160600000Y-105000000D03*
%TO.N,/IO14*%
X148700000Y-96700000D03*
%TO.N,/IO12*%
X146300000Y-96200000D03*
%TO.N,/IO13*%
X147250000Y-93250000D03*
%TO.N,/IO10*%
X143500000Y-93300000D03*
%TO.N,/IO11*%
X144900000Y-93100000D03*
%TO.N,Net-(U2-GPIO20{slash}USB_D+)*%
X145700000Y-92000000D03*
%TO.N,Net-(U2-GPIO19{slash}USB_D-)*%
X142200000Y-91100000D03*
%TO.N,/USR_SW*%
X150000000Y-97500000D03*
%TO.N,+3V3*%
X160100000Y-95700000D03*
%TO.N,GND*%
X160100000Y-102000000D03*
X162500000Y-100800000D03*
X167700000Y-96400000D03*
%TO.N,+3V3*%
X165200000Y-109500000D03*
%TO.N,GND*%
X133200000Y-116800000D03*
%TO.N,+3V3*%
X140700000Y-116800000D03*
%TO.N,GND*%
X148100000Y-110500000D03*
X139800000Y-110500000D03*
%TO.N,+3V3*%
X142100000Y-98100000D03*
X132700000Y-78200000D03*
%TO.N,GND*%
X135500000Y-80200000D03*
X133800000Y-80900000D03*
%TO.N,+3V3*%
X134500000Y-102400000D03*
%TO.N,GND*%
X133000000Y-107800000D03*
X134500000Y-108700000D03*
%TO.N,/USR_SW*%
X136480000Y-104420000D03*
%TD*%
D36*
%TO.N,GND*%
X163735000Y-110500000D02*
X165200000Y-110500000D01*
%TO.N,+5V*%
X145025000Y-110575000D02*
X144985000Y-110615000D01*
D37*
X144985000Y-110615000D02*
X144985000Y-116267500D01*
D36*
X145025000Y-110500000D02*
X145025000Y-110575000D01*
D37*
%TO.N,+3V3*%
X142600000Y-110500000D02*
X142600000Y-107650000D01*
X142600000Y-111900000D02*
X142600000Y-110500000D01*
D36*
X154650000Y-113800000D02*
X152900000Y-113800000D01*
%TO.N,/LED_R*%
X151410000Y-88310000D02*
X151400000Y-88300000D01*
X155585000Y-88310000D02*
X151410000Y-88310000D01*
%TO.N,/LED_B*%
X153630000Y-85770000D02*
X153400000Y-86000000D01*
X155585000Y-85770000D02*
X153630000Y-85770000D01*
%TO.N,/LED_G*%
X152860000Y-87040000D02*
X152800000Y-87100000D01*
X155585000Y-87040000D02*
X152860000Y-87040000D01*
%TO.N,/USR_SW*%
X152200000Y-94990000D02*
X152550000Y-94640000D01*
X152200000Y-96100000D02*
X152200000Y-94990000D01*
X150800000Y-97500000D02*
X152200000Y-96100000D01*
X150000000Y-97500000D02*
X150800000Y-97500000D01*
%TO.N,/LED_G*%
X159810000Y-117500000D02*
X159810000Y-117590000D01*
X159810000Y-117590000D02*
X159800000Y-117600000D01*
X159810000Y-115200000D02*
X159810000Y-117500000D01*
%TO.N,/LED_B*%
X159910000Y-111710000D02*
X157000000Y-108800000D01*
X159910000Y-113800000D02*
X159910000Y-111710000D01*
%TO.N,/LED_R*%
X151890000Y-107990000D02*
X150700000Y-106800000D01*
X151890000Y-115200000D02*
X151890000Y-107990000D01*
%TO.N,/ESP_IO0*%
X155585000Y-95000000D02*
X155585000Y-93390000D01*
%TO.N,/ESP_EN*%
X140320000Y-79420000D02*
X140400000Y-79500000D01*
X138085000Y-79420000D02*
X140320000Y-79420000D01*
%TO.N,/ESP_RND*%
X157160000Y-81960000D02*
X157200000Y-82000000D01*
X155585000Y-81960000D02*
X157160000Y-81960000D01*
%TO.N,/ESP_TXD*%
X157890000Y-80690000D02*
X157900000Y-80700000D01*
X155585000Y-80690000D02*
X157890000Y-80690000D01*
%TO.N,/ESP_EN*%
X160200000Y-88000000D02*
X162460000Y-88000000D01*
X158500000Y-89700000D02*
X160200000Y-88000000D01*
X158500000Y-97525000D02*
X158500000Y-89700000D01*
X160100000Y-99125000D02*
X158500000Y-97525000D01*
%TO.N,+3V3*%
X160600000Y-106500000D02*
X160600000Y-105000000D01*
X157520000Y-106480000D02*
X157500000Y-106500000D01*
X159000000Y-106480000D02*
X157520000Y-106480000D01*
%TO.N,/SCL*%
X159500000Y-105600000D02*
X159900000Y-106000000D01*
X155200000Y-105600000D02*
X159500000Y-105600000D01*
X148599000Y-98999000D02*
X155200000Y-105600000D01*
X145599000Y-98999000D02*
X148599000Y-98999000D01*
X142390000Y-95790000D02*
X145599000Y-98999000D01*
X159900000Y-106000000D02*
X159900000Y-106820000D01*
X142390000Y-94640000D02*
X142390000Y-95790000D01*
X159900000Y-106820000D02*
X160600000Y-107520000D01*
%TO.N,/SDA*%
X136000000Y-99400000D02*
X147600000Y-99400000D01*
X136000000Y-90900000D02*
X136000000Y-99400000D01*
X136050000Y-90850000D02*
X136000000Y-90900000D01*
X155700000Y-107500000D02*
X159000000Y-107500000D01*
X147600000Y-99400000D02*
X155700000Y-107500000D01*
X138085000Y-90850000D02*
X136050000Y-90850000D01*
%TO.N,/IO14*%
X148740000Y-94640000D02*
X148740000Y-96660000D01*
X148740000Y-96660000D02*
X148700000Y-96700000D01*
%TO.N,/IO15*%
X136930000Y-85770000D02*
X138085000Y-85770000D01*
X135100000Y-94200000D02*
X135100000Y-87600000D01*
X135100000Y-87600000D02*
X136930000Y-85770000D01*
X134220000Y-95080000D02*
X135100000Y-94200000D01*
X131735000Y-95080000D02*
X134220000Y-95080000D01*
%TO.N,/IO12*%
X146200000Y-96100000D02*
X146300000Y-96200000D01*
X146200000Y-94640000D02*
X146200000Y-96100000D01*
%TO.N,/IO13*%
X147470000Y-93470000D02*
X147250000Y-93250000D01*
X147470000Y-94640000D02*
X147470000Y-93470000D01*
%TO.N,/IO10*%
X143660000Y-93460000D02*
X143500000Y-93300000D01*
X143660000Y-94640000D02*
X143660000Y-93460000D01*
%TO.N,/IO11*%
X144900000Y-93100000D02*
X144930000Y-93130000D01*
X144930000Y-93130000D02*
X144930000Y-94640000D01*
%TO.N,Net-(U2-GPIO20{slash}USB_D+)*%
X142500000Y-92000000D02*
X145700000Y-92000000D01*
X141500000Y-93000000D02*
X142500000Y-92000000D01*
X138475000Y-93000000D02*
X141500000Y-93000000D01*
X138085000Y-93390000D02*
X138475000Y-93000000D01*
%TO.N,Net-(U2-GPIO19{slash}USB_D-)*%
X140900000Y-92400000D02*
X142200000Y-91100000D01*
X138365000Y-92400000D02*
X140900000Y-92400000D01*
X138085000Y-92120000D02*
X138365000Y-92400000D01*
%TO.N,/USR_SW*%
X136500000Y-104400000D02*
X136480000Y-104420000D01*
X134500000Y-104420000D02*
X136480000Y-104420000D01*
%TO.N,GND*%
X134625000Y-116800000D02*
X133200000Y-116800000D01*
%TO.N,+3V3*%
X139610000Y-116800000D02*
X140700000Y-116800000D01*
%TO.N,Net-(D1-BK)*%
X158890000Y-113800000D02*
X157150000Y-113800000D01*
%TO.N,Net-(D1-GK)*%
X157150000Y-115200000D02*
X158790000Y-115200000D01*
%TO.N,Net-(D1-RK)*%
X152910000Y-115200000D02*
X154650000Y-115200000D01*
%TO.N,Net-(D2-A)*%
X136375000Y-116800000D02*
X138590000Y-116800000D01*
%TO.N,GND*%
X135500000Y-79160000D02*
X135500000Y-80200000D01*
X133800000Y-79750000D02*
X133800000Y-80900000D01*
D37*
%TO.N,+3V3*%
X133800000Y-78200000D02*
X132700000Y-78200000D01*
D36*
X138035000Y-78200000D02*
X138085000Y-78150000D01*
D37*
X135500000Y-78200000D02*
X138035000Y-78200000D01*
X133800000Y-78200000D02*
X135500000Y-78200000D01*
D36*
%TO.N,GND*%
X167700000Y-99100000D02*
X167700000Y-96400000D01*
%TO.N,+3V3*%
X160100000Y-96680000D02*
X160100000Y-95700000D01*
%TO.N,GND*%
X160100000Y-100675000D02*
X160100000Y-102000000D01*
X162500000Y-99920000D02*
X162500000Y-100800000D01*
%TO.N,+5V*%
X145025000Y-107775000D02*
X144900000Y-107650000D01*
%TO.N,/ESP_EN*%
X164280000Y-99080000D02*
X164300000Y-99100000D01*
X162500000Y-99080000D02*
X164280000Y-99080000D01*
X160270000Y-99080000D02*
X162500000Y-99080000D01*
X160225000Y-99125000D02*
X160270000Y-99080000D01*
X160100000Y-99125000D02*
X160225000Y-99125000D01*
X160100000Y-99125000D02*
X160100000Y-97700000D01*
%TO.N,+3V3*%
X163735000Y-109500000D02*
X165200000Y-109500000D01*
%TO.N,/SDA*%
X159639660Y-107500000D02*
X159000000Y-107500000D01*
X160639660Y-108500000D02*
X159639660Y-107500000D01*
X163735000Y-108500000D02*
X160639660Y-108500000D01*
%TO.N,/SCL*%
X160600000Y-107520000D02*
X163715000Y-107520000D01*
X163715000Y-107520000D02*
X163735000Y-107500000D01*
%TO.N,+3V3*%
X140910000Y-98100000D02*
X142100000Y-98100000D01*
%TO.N,Net-(U2-GPIO3)*%
X139850000Y-98060000D02*
X139890000Y-98100000D01*
X139850000Y-94640000D02*
X139850000Y-98060000D01*
%TO.N,+3V3*%
X134500000Y-103400000D02*
X134500000Y-102400000D01*
%TO.N,GND*%
X133000000Y-106820000D02*
X133000000Y-107800000D01*
X134500000Y-107475000D02*
X134500000Y-108700000D01*
%TO.N,/USR_SW*%
X134500000Y-105925000D02*
X134500000Y-104420000D01*
X128302500Y-105980000D02*
X133000000Y-105980000D01*
X127097500Y-104775000D02*
X128302500Y-105980000D01*
%TO.N,GND*%
X140300000Y-107650000D02*
X140300000Y-105700000D01*
D38*
%TO.N,+3V3*%
X142600000Y-101350000D02*
X142600000Y-107650000D01*
D36*
%TO.N,GND*%
X141050000Y-110500000D02*
X139800000Y-110500000D01*
X146575000Y-110500000D02*
X148100000Y-110500000D01*
%TO.N,+5V*%
X144985000Y-107735000D02*
X144900000Y-107650000D01*
X144985000Y-116285000D02*
X145000000Y-116300000D01*
X144985000Y-116267500D02*
X144985000Y-116285000D01*
D37*
X145025000Y-110500000D02*
X145025000Y-107775000D01*
%TD*%
%TA.AperFunction,Conductor*%
%TO.N,GND*%
G36*
X137093691Y-91169407D02*
G01*
X137129655Y-91218907D01*
X137134500Y-91249500D01*
X137134500Y-91319746D01*
X137134501Y-91319758D01*
X137146132Y-91378227D01*
X137146134Y-91378233D01*
X137180723Y-91429998D01*
X137197332Y-91488886D01*
X137180723Y-91540002D01*
X137146134Y-91591766D01*
X137146132Y-91591772D01*
X137134501Y-91650241D01*
X137134500Y-91650253D01*
X137134500Y-92589746D01*
X137134501Y-92589758D01*
X137146132Y-92648227D01*
X137146134Y-92648233D01*
X137180723Y-92699998D01*
X137197332Y-92758886D01*
X137180723Y-92810002D01*
X137146134Y-92861766D01*
X137146132Y-92861772D01*
X137134501Y-92920241D01*
X137134500Y-92920253D01*
X137134500Y-93859746D01*
X137134501Y-93859758D01*
X137146132Y-93918227D01*
X137146134Y-93918233D01*
X137188566Y-93981736D01*
X137190448Y-93984552D01*
X137256769Y-94028867D01*
X137301231Y-94037711D01*
X137315241Y-94040498D01*
X137315246Y-94040498D01*
X137315252Y-94040500D01*
X137315253Y-94040500D01*
X138854747Y-94040500D01*
X138854748Y-94040500D01*
X138913231Y-94028867D01*
X138979552Y-93984552D01*
X139018185Y-93926733D01*
X139066235Y-93888855D01*
X139127373Y-93886453D01*
X139178247Y-93920446D01*
X139199424Y-93977850D01*
X139199500Y-93981736D01*
X139199500Y-95409746D01*
X139199501Y-95409758D01*
X139211132Y-95468227D01*
X139211134Y-95468233D01*
X139254375Y-95532946D01*
X139255448Y-95534552D01*
X139321769Y-95578867D01*
X139366231Y-95587711D01*
X139380241Y-95590498D01*
X139380246Y-95590498D01*
X139380252Y-95590500D01*
X139450500Y-95590500D01*
X139508691Y-95609407D01*
X139544655Y-95658907D01*
X139549500Y-95689500D01*
X139549500Y-97605023D01*
X139530593Y-97663214D01*
X139520504Y-97675026D01*
X139475935Y-97719595D01*
X139475933Y-97719598D01*
X139425932Y-97826824D01*
X139425932Y-97826825D01*
X139419500Y-97875685D01*
X139419500Y-98324314D01*
X139425932Y-98373174D01*
X139425932Y-98373175D01*
X139475933Y-98480401D01*
X139475934Y-98480402D01*
X139475935Y-98480404D01*
X139559596Y-98564065D01*
X139559597Y-98564065D01*
X139559598Y-98564066D01*
X139666824Y-98614067D01*
X139666825Y-98614067D01*
X139666827Y-98614068D01*
X139715684Y-98620500D01*
X139715685Y-98620500D01*
X140064314Y-98620500D01*
X140064316Y-98620500D01*
X140113173Y-98614068D01*
X140220404Y-98564065D01*
X140304065Y-98480404D01*
X140310275Y-98467085D01*
X140352003Y-98422337D01*
X140412064Y-98410662D01*
X140467517Y-98436519D01*
X140489724Y-98467084D01*
X140495935Y-98480404D01*
X140579596Y-98564065D01*
X140579597Y-98564065D01*
X140579598Y-98564066D01*
X140686824Y-98614067D01*
X140686825Y-98614067D01*
X140686827Y-98614068D01*
X140735684Y-98620500D01*
X140735685Y-98620500D01*
X141084314Y-98620500D01*
X141084316Y-98620500D01*
X141133173Y-98614068D01*
X141240404Y-98564065D01*
X141324065Y-98480404D01*
X141330534Y-98466530D01*
X141334671Y-98457660D01*
X141376399Y-98412912D01*
X141424395Y-98400500D01*
X141651679Y-98400500D01*
X141709870Y-98419407D01*
X141721676Y-98429490D01*
X141792686Y-98500500D01*
X141792688Y-98500501D01*
X141792690Y-98500503D01*
X141906810Y-98566390D01*
X141906808Y-98566390D01*
X141906812Y-98566391D01*
X141906814Y-98566392D01*
X142034108Y-98600500D01*
X142034110Y-98600500D01*
X142165890Y-98600500D01*
X142165892Y-98600500D01*
X142293186Y-98566392D01*
X142293188Y-98566390D01*
X142293190Y-98566390D01*
X142407309Y-98500503D01*
X142407309Y-98500502D01*
X142407314Y-98500500D01*
X142500500Y-98407314D01*
X142520211Y-98373174D01*
X142566390Y-98293190D01*
X142566390Y-98293188D01*
X142566392Y-98293186D01*
X142600500Y-98165892D01*
X142600500Y-98034108D01*
X142566392Y-97906814D01*
X142566390Y-97906811D01*
X142566390Y-97906809D01*
X142500503Y-97792690D01*
X142500501Y-97792688D01*
X142500500Y-97792686D01*
X142407314Y-97699500D01*
X142407311Y-97699498D01*
X142407309Y-97699496D01*
X142293189Y-97633609D01*
X142293191Y-97633609D01*
X142242396Y-97619999D01*
X142165892Y-97599500D01*
X142034108Y-97599500D01*
X141957604Y-97619999D01*
X141906809Y-97633609D01*
X141792690Y-97699496D01*
X141792689Y-97699497D01*
X141792686Y-97699499D01*
X141792686Y-97699500D01*
X141721680Y-97770505D01*
X141667166Y-97798281D01*
X141651679Y-97799500D01*
X141424395Y-97799500D01*
X141366204Y-97780593D01*
X141334671Y-97742340D01*
X141324066Y-97719598D01*
X141324065Y-97719597D01*
X141324065Y-97719596D01*
X141240404Y-97635935D01*
X141240402Y-97635934D01*
X141240401Y-97635933D01*
X141133175Y-97585932D01*
X141100601Y-97581644D01*
X141084316Y-97579500D01*
X140735684Y-97579500D01*
X140719398Y-97581644D01*
X140686825Y-97585932D01*
X140686824Y-97585932D01*
X140579598Y-97635933D01*
X140495933Y-97719598D01*
X140489724Y-97732915D01*
X140447995Y-97777663D01*
X140387934Y-97789337D01*
X140332482Y-97763478D01*
X140310276Y-97732915D01*
X140304066Y-97719598D01*
X140304065Y-97719597D01*
X140304065Y-97719596D01*
X140220404Y-97635935D01*
X140207658Y-97629991D01*
X140162911Y-97588261D01*
X140150500Y-97540268D01*
X140150500Y-95689500D01*
X140169407Y-95631309D01*
X140218907Y-95595345D01*
X140249500Y-95590500D01*
X140319747Y-95590500D01*
X140319748Y-95590500D01*
X140378231Y-95578867D01*
X140430000Y-95544274D01*
X140488885Y-95527667D01*
X140539998Y-95544274D01*
X140591769Y-95578867D01*
X140636231Y-95587711D01*
X140650241Y-95590498D01*
X140650246Y-95590498D01*
X140650252Y-95590500D01*
X140650253Y-95590500D01*
X141589747Y-95590500D01*
X141589748Y-95590500D01*
X141648231Y-95578867D01*
X141700000Y-95544274D01*
X141758885Y-95527667D01*
X141809998Y-95544274D01*
X141861769Y-95578867D01*
X141906231Y-95587711D01*
X141920241Y-95590498D01*
X141920246Y-95590498D01*
X141920252Y-95590500D01*
X141990500Y-95590500D01*
X142048691Y-95609407D01*
X142084655Y-95658907D01*
X142089500Y-95689500D01*
X142089500Y-95829564D01*
X142109976Y-95905982D01*
X142109980Y-95905992D01*
X142115463Y-95915487D01*
X142115464Y-95915490D01*
X142115562Y-95915659D01*
X142149540Y-95974511D01*
X143651853Y-97476824D01*
X145105525Y-98930496D01*
X145133302Y-98985013D01*
X145123731Y-99045445D01*
X145080466Y-99088710D01*
X145035521Y-99099500D01*
X136399500Y-99099500D01*
X136341309Y-99080593D01*
X136305345Y-99031093D01*
X136300500Y-99000500D01*
X136300500Y-91249500D01*
X136319407Y-91191309D01*
X136368907Y-91155345D01*
X136399500Y-91150500D01*
X137035500Y-91150500D01*
X137093691Y-91169407D01*
G37*
%TD.AperFunction*%
%TA.AperFunction,Conductor*%
G36*
X137094191Y-76519407D02*
G01*
X137130155Y-76568907D01*
X137135000Y-76599500D01*
X137135000Y-76729999D01*
X137135001Y-76730000D01*
X139034999Y-76730000D01*
X139035000Y-76729999D01*
X139035000Y-76599500D01*
X139053907Y-76541309D01*
X139103407Y-76505345D01*
X139134000Y-76500500D01*
X154536000Y-76500500D01*
X154594191Y-76519407D01*
X154630155Y-76568907D01*
X154635000Y-76599500D01*
X154635000Y-76729999D01*
X154635001Y-76730000D01*
X156534999Y-76730000D01*
X156535000Y-76729999D01*
X156535000Y-76599500D01*
X156553907Y-76541309D01*
X156603407Y-76505345D01*
X156634000Y-76500500D01*
X165021608Y-76500500D01*
X165085064Y-76500500D01*
X165089921Y-76500619D01*
X165118658Y-76502030D01*
X165425673Y-76517113D01*
X165435315Y-76518063D01*
X165765415Y-76567029D01*
X165774921Y-76568919D01*
X166098644Y-76650008D01*
X166107915Y-76652820D01*
X166422125Y-76765246D01*
X166431094Y-76768961D01*
X166732763Y-76911640D01*
X166741326Y-76916218D01*
X167027549Y-77087773D01*
X167035627Y-77093171D01*
X167303650Y-77291951D01*
X167311160Y-77298114D01*
X167558421Y-77522218D01*
X167565281Y-77529078D01*
X167649291Y-77621769D01*
X167789385Y-77776339D01*
X167795548Y-77783849D01*
X167994328Y-78051872D01*
X167999726Y-78059950D01*
X168171281Y-78346173D01*
X168175861Y-78354741D01*
X168318536Y-78656402D01*
X168322254Y-78665378D01*
X168434675Y-78979571D01*
X168437495Y-78988868D01*
X168518577Y-79312567D01*
X168520472Y-79322096D01*
X168569434Y-79652170D01*
X168570387Y-79661838D01*
X168586881Y-79997577D01*
X168587000Y-80002435D01*
X168587000Y-105347611D01*
X168568093Y-105405802D01*
X168518593Y-105441766D01*
X168457407Y-105441766D01*
X168455303Y-105441056D01*
X168431806Y-105432834D01*
X168344699Y-105402354D01*
X168344697Y-105402353D01*
X168344694Y-105402353D01*
X168314274Y-105399500D01*
X168314266Y-105399500D01*
X166905734Y-105399500D01*
X166905725Y-105399500D01*
X166875305Y-105402353D01*
X166875296Y-105402355D01*
X166747116Y-105447207D01*
X166637855Y-105527845D01*
X166637845Y-105527855D01*
X166557207Y-105637116D01*
X166512355Y-105765296D01*
X166512353Y-105765305D01*
X166509500Y-105795725D01*
X166509500Y-106604274D01*
X166512353Y-106634694D01*
X166512355Y-106634703D01*
X166557207Y-106762883D01*
X166637845Y-106872144D01*
X166637847Y-106872146D01*
X166637850Y-106872150D01*
X166637853Y-106872152D01*
X166637855Y-106872154D01*
X166747116Y-106952792D01*
X166747117Y-106952792D01*
X166747118Y-106952793D01*
X166875301Y-106997646D01*
X166905725Y-107000499D01*
X166905727Y-107000500D01*
X166905734Y-107000500D01*
X168314273Y-107000500D01*
X168314273Y-107000499D01*
X168344699Y-106997646D01*
X168455303Y-106958943D01*
X168516472Y-106957571D01*
X168566766Y-106992414D01*
X168586975Y-107050166D01*
X168587000Y-107052388D01*
X168587000Y-110947611D01*
X168568093Y-111005802D01*
X168518593Y-111041766D01*
X168457407Y-111041766D01*
X168455303Y-111041056D01*
X168344699Y-111002354D01*
X168344697Y-111002353D01*
X168344694Y-111002353D01*
X168314274Y-110999500D01*
X168314266Y-110999500D01*
X166905734Y-110999500D01*
X166905725Y-110999500D01*
X166875305Y-111002353D01*
X166875296Y-111002355D01*
X166747116Y-111047207D01*
X166637855Y-111127845D01*
X166637845Y-111127855D01*
X166557207Y-111237116D01*
X166512355Y-111365296D01*
X166512353Y-111365305D01*
X166509500Y-111395725D01*
X166509500Y-112204274D01*
X166512353Y-112234694D01*
X166512355Y-112234703D01*
X166557207Y-112362883D01*
X166637845Y-112472144D01*
X166637847Y-112472146D01*
X166637850Y-112472150D01*
X166637853Y-112472152D01*
X166637855Y-112472154D01*
X166747116Y-112552792D01*
X166747117Y-112552792D01*
X166747118Y-112552793D01*
X166875301Y-112597646D01*
X166905725Y-112600499D01*
X166905727Y-112600500D01*
X166905734Y-112600500D01*
X168314273Y-112600500D01*
X168314273Y-112600499D01*
X168344699Y-112597646D01*
X168455303Y-112558943D01*
X168516472Y-112557571D01*
X168566766Y-112592414D01*
X168586975Y-112650166D01*
X168587000Y-112652388D01*
X168587000Y-116997564D01*
X168586881Y-117002422D01*
X168570387Y-117338161D01*
X168569434Y-117347829D01*
X168520472Y-117677903D01*
X168518577Y-117687432D01*
X168437495Y-118011131D01*
X168434675Y-118020428D01*
X168322254Y-118334621D01*
X168318536Y-118343597D01*
X168175861Y-118645258D01*
X168171281Y-118653826D01*
X167999726Y-118940049D01*
X167994328Y-118948127D01*
X167795548Y-119216150D01*
X167789385Y-119223660D01*
X167565286Y-119470916D01*
X167558416Y-119477786D01*
X167311160Y-119701885D01*
X167303650Y-119708048D01*
X167035627Y-119906828D01*
X167027549Y-119912226D01*
X166741326Y-120083781D01*
X166732758Y-120088361D01*
X166431097Y-120231036D01*
X166422121Y-120234754D01*
X166107928Y-120347175D01*
X166098631Y-120349995D01*
X165774932Y-120431077D01*
X165765403Y-120432972D01*
X165435329Y-120481934D01*
X165425661Y-120482887D01*
X165089922Y-120499381D01*
X165085064Y-120499500D01*
X128089936Y-120499500D01*
X128085078Y-120499381D01*
X127749338Y-120482887D01*
X127739670Y-120481934D01*
X127409596Y-120432972D01*
X127400067Y-120431077D01*
X127076368Y-120349995D01*
X127067071Y-120347175D01*
X126752878Y-120234754D01*
X126743902Y-120231036D01*
X126442241Y-120088361D01*
X126433673Y-120083781D01*
X126147450Y-119912226D01*
X126139372Y-119906828D01*
X125871349Y-119708048D01*
X125863839Y-119701885D01*
X125616583Y-119477786D01*
X125609718Y-119470921D01*
X125385614Y-119223660D01*
X125379451Y-119216150D01*
X125180671Y-118948127D01*
X125175273Y-118940049D01*
X125045723Y-118723908D01*
X125003716Y-118653823D01*
X124999138Y-118645258D01*
X124950270Y-118541936D01*
X124856461Y-118343594D01*
X124852745Y-118334621D01*
X124740320Y-118020415D01*
X124737508Y-118011144D01*
X124656419Y-117687421D01*
X124654529Y-117677915D01*
X124605563Y-117347815D01*
X124604613Y-117338173D01*
X124588119Y-117002421D01*
X124588000Y-116997564D01*
X124588000Y-116878710D01*
X126884500Y-116878710D01*
X126884500Y-117121289D01*
X126916161Y-117361781D01*
X126916161Y-117361786D01*
X126978944Y-117596092D01*
X126978948Y-117596105D01*
X127071772Y-117820204D01*
X127071774Y-117820208D01*
X127071776Y-117820212D01*
X127187371Y-118020428D01*
X127193066Y-118030292D01*
X127340729Y-118222731D01*
X127340731Y-118222733D01*
X127340735Y-118222738D01*
X127512262Y-118394265D01*
X127512266Y-118394268D01*
X127512268Y-118394270D01*
X127704707Y-118541933D01*
X127704711Y-118541936D01*
X127914788Y-118663224D01*
X128138900Y-118756054D01*
X128373211Y-118818838D01*
X128613712Y-118850500D01*
X128613713Y-118850500D01*
X128856287Y-118850500D01*
X128856288Y-118850500D01*
X129096789Y-118818838D01*
X129331100Y-118756054D01*
X129555212Y-118663224D01*
X129765289Y-118541936D01*
X129957738Y-118394265D01*
X130129265Y-118222738D01*
X130276936Y-118030289D01*
X130398224Y-117820212D01*
X130491054Y-117596100D01*
X130553838Y-117361789D01*
X130585500Y-117121288D01*
X130585500Y-116950001D01*
X133900000Y-116950001D01*
X133900000Y-117090201D01*
X133902771Y-117119758D01*
X133902772Y-117119759D01*
X133946330Y-117244240D01*
X134024641Y-117350348D01*
X134024651Y-117350358D01*
X134130759Y-117428669D01*
X134255240Y-117472227D01*
X134255241Y-117472228D01*
X134284799Y-117475000D01*
X134474999Y-117475000D01*
X134475000Y-117474999D01*
X134475000Y-116950001D01*
X134775000Y-116950001D01*
X134775000Y-117474999D01*
X134775001Y-117475000D01*
X134965201Y-117475000D01*
X134994758Y-117472228D01*
X134994759Y-117472227D01*
X135119240Y-117428669D01*
X135225348Y-117350358D01*
X135225358Y-117350348D01*
X135303669Y-117244240D01*
X135347227Y-117119759D01*
X135347228Y-117119758D01*
X135350000Y-117090201D01*
X135350000Y-116950001D01*
X135349999Y-116950000D01*
X134775001Y-116950000D01*
X134775000Y-116950001D01*
X134475000Y-116950001D01*
X134474999Y-116950000D01*
X133900001Y-116950000D01*
X133900000Y-116950001D01*
X130585500Y-116950001D01*
X130585500Y-116878712D01*
X130553838Y-116638211D01*
X130519430Y-116509798D01*
X133900000Y-116509798D01*
X133900000Y-116649999D01*
X133900001Y-116650000D01*
X134474999Y-116650000D01*
X134475000Y-116649999D01*
X134475000Y-116125001D01*
X134775000Y-116125001D01*
X134775000Y-116649999D01*
X134775001Y-116650000D01*
X135349999Y-116650000D01*
X135350000Y-116649999D01*
X135350000Y-116509798D01*
X135349994Y-116509733D01*
X135649500Y-116509733D01*
X135649500Y-117090266D01*
X135652274Y-117119844D01*
X135652276Y-117119852D01*
X135695884Y-117244476D01*
X135768606Y-117343011D01*
X135774289Y-117350711D01*
X135774292Y-117350713D01*
X135774293Y-117350714D01*
X135880523Y-117429115D01*
X135880524Y-117429115D01*
X135880525Y-117429116D01*
X136005151Y-117472725D01*
X136029412Y-117475000D01*
X136034733Y-117475499D01*
X136034738Y-117475500D01*
X136034744Y-117475500D01*
X136715262Y-117475500D01*
X136715265Y-117475499D01*
X136744849Y-117472725D01*
X136869475Y-117429116D01*
X136975711Y-117350711D01*
X137054116Y-117244475D01*
X137081295Y-117166801D01*
X137118360Y-117118122D01*
X137174739Y-117100500D01*
X138075605Y-117100500D01*
X138133796Y-117119407D01*
X138165329Y-117157660D01*
X138175933Y-117180401D01*
X138175934Y-117180402D01*
X138175935Y-117180404D01*
X138259596Y-117264065D01*
X138259597Y-117264065D01*
X138259598Y-117264066D01*
X138366824Y-117314067D01*
X138366825Y-117314067D01*
X138366827Y-117314068D01*
X138415684Y-117320500D01*
X138415685Y-117320500D01*
X138764314Y-117320500D01*
X138764316Y-117320500D01*
X138813173Y-117314068D01*
X138920404Y-117264065D01*
X139004065Y-117180404D01*
X139010275Y-117167085D01*
X139052003Y-117122337D01*
X139112064Y-117110662D01*
X139167517Y-117136519D01*
X139189724Y-117167084D01*
X139195935Y-117180404D01*
X139279596Y-117264065D01*
X139279597Y-117264065D01*
X139279598Y-117264066D01*
X139386824Y-117314067D01*
X139386825Y-117314067D01*
X139386827Y-117314068D01*
X139435684Y-117320500D01*
X139435685Y-117320500D01*
X139784314Y-117320500D01*
X139784316Y-117320500D01*
X139833173Y-117314068D01*
X139940404Y-117264065D01*
X140024065Y-117180404D01*
X140034671Y-117157660D01*
X140051605Y-117139499D01*
X140066204Y-117119407D01*
X140072141Y-117117477D01*
X140076399Y-117112912D01*
X140124395Y-117100500D01*
X140251679Y-117100500D01*
X140309870Y-117119407D01*
X140321676Y-117129490D01*
X140392686Y-117200500D01*
X140392688Y-117200501D01*
X140392690Y-117200503D01*
X140506810Y-117266390D01*
X140506808Y-117266390D01*
X140506812Y-117266391D01*
X140506814Y-117266392D01*
X140634108Y-117300500D01*
X140634110Y-117300500D01*
X140765890Y-117300500D01*
X140765892Y-117300500D01*
X140893186Y-117266392D01*
X140893188Y-117266390D01*
X140893190Y-117266390D01*
X141007309Y-117200503D01*
X141007309Y-117200502D01*
X141007314Y-117200500D01*
X141100500Y-117107314D01*
X141104434Y-117100500D01*
X141166390Y-116993190D01*
X141166390Y-116993188D01*
X141166392Y-116993186D01*
X141200500Y-116865892D01*
X141200500Y-116734108D01*
X141166392Y-116606814D01*
X141166390Y-116606811D01*
X141166390Y-116606809D01*
X141100503Y-116492690D01*
X141100501Y-116492688D01*
X141100500Y-116492686D01*
X141007314Y-116399500D01*
X141007311Y-116399498D01*
X141007309Y-116399496D01*
X140893189Y-116333609D01*
X140893191Y-116333609D01*
X140843799Y-116320375D01*
X140765892Y-116299500D01*
X140634108Y-116299500D01*
X140556200Y-116320375D01*
X140506809Y-116333609D01*
X140392690Y-116399496D01*
X140392689Y-116399497D01*
X140392686Y-116399499D01*
X140392686Y-116399500D01*
X140321680Y-116470505D01*
X140314565Y-116474130D01*
X140309870Y-116480593D01*
X140287821Y-116487756D01*
X140267166Y-116498281D01*
X140251679Y-116499500D01*
X140124395Y-116499500D01*
X140066204Y-116480593D01*
X140034671Y-116442340D01*
X140024066Y-116419598D01*
X140024065Y-116419597D01*
X140024065Y-116419596D01*
X139940404Y-116335935D01*
X139940402Y-116335934D01*
X139940401Y-116335933D01*
X139833175Y-116285932D01*
X139800601Y-116281644D01*
X139784316Y-116279500D01*
X139435684Y-116279500D01*
X139419398Y-116281644D01*
X139386825Y-116285932D01*
X139386824Y-116285932D01*
X139279598Y-116335933D01*
X139195933Y-116419598D01*
X139189724Y-116432915D01*
X139147995Y-116477663D01*
X139087934Y-116489337D01*
X139032482Y-116463478D01*
X139010276Y-116432915D01*
X139004066Y-116419598D01*
X139004065Y-116419597D01*
X139004065Y-116419596D01*
X138920404Y-116335935D01*
X138920402Y-116335934D01*
X138920401Y-116335933D01*
X138813175Y-116285932D01*
X138780601Y-116281644D01*
X138764316Y-116279500D01*
X138415684Y-116279500D01*
X138399398Y-116281644D01*
X138366825Y-116285932D01*
X138366824Y-116285932D01*
X138259598Y-116335933D01*
X138175933Y-116419598D01*
X138165329Y-116442340D01*
X138123601Y-116487088D01*
X138075605Y-116499500D01*
X137174739Y-116499500D01*
X137116548Y-116480593D01*
X137081295Y-116433198D01*
X137076536Y-116419598D01*
X137054116Y-116355525D01*
X137037941Y-116333609D01*
X136975714Y-116249293D01*
X136975713Y-116249292D01*
X136975711Y-116249289D01*
X136975706Y-116249285D01*
X136869476Y-116170884D01*
X136744852Y-116127276D01*
X136744851Y-116127275D01*
X136744849Y-116127275D01*
X136744847Y-116127274D01*
X136744844Y-116127274D01*
X136715266Y-116124500D01*
X136715256Y-116124500D01*
X136034744Y-116124500D01*
X136034733Y-116124500D01*
X136005155Y-116127274D01*
X136005147Y-116127276D01*
X135880523Y-116170884D01*
X135774293Y-116249285D01*
X135774285Y-116249293D01*
X135695884Y-116355523D01*
X135652276Y-116480147D01*
X135652274Y-116480155D01*
X135649500Y-116509733D01*
X135349994Y-116509733D01*
X135347228Y-116480241D01*
X135347227Y-116480240D01*
X135303669Y-116355759D01*
X135225358Y-116249651D01*
X135225348Y-116249641D01*
X135119240Y-116171330D01*
X134994759Y-116127772D01*
X134994758Y-116127771D01*
X134965201Y-116125000D01*
X134775001Y-116125000D01*
X134775000Y-116125001D01*
X134475000Y-116125001D01*
X134474999Y-116125000D01*
X134284799Y-116125000D01*
X134255241Y-116127771D01*
X134255240Y-116127772D01*
X134130759Y-116171330D01*
X134024651Y-116249641D01*
X134024641Y-116249651D01*
X133946330Y-116355759D01*
X133902772Y-116480240D01*
X133902771Y-116480241D01*
X133900000Y-116509798D01*
X130519430Y-116509798D01*
X130491054Y-116403900D01*
X130398224Y-116179788D01*
X130276936Y-115969711D01*
X130147096Y-115800500D01*
X130129270Y-115777268D01*
X130129268Y-115777266D01*
X130129265Y-115777262D01*
X129957738Y-115605735D01*
X129957733Y-115605731D01*
X129957731Y-115605729D01*
X129765292Y-115458066D01*
X129765289Y-115458064D01*
X129555212Y-115336776D01*
X129555207Y-115336773D01*
X129377647Y-115263226D01*
X143584500Y-115263226D01*
X143584500Y-117271765D01*
X143587353Y-117302194D01*
X143587353Y-117302196D01*
X143587354Y-117302198D01*
X143607249Y-117359055D01*
X143632208Y-117430385D01*
X143712845Y-117539644D01*
X143712847Y-117539646D01*
X143712850Y-117539650D01*
X143712853Y-117539652D01*
X143712855Y-117539654D01*
X143822114Y-117620291D01*
X143822116Y-117620291D01*
X143822118Y-117620293D01*
X143950302Y-117665146D01*
X143980735Y-117668000D01*
X145989264Y-117667999D01*
X145989265Y-117667999D01*
X145995350Y-117667428D01*
X146019698Y-117665146D01*
X146147882Y-117620293D01*
X146257150Y-117539650D01*
X146312329Y-117464885D01*
X146337791Y-117430385D01*
X146337791Y-117430384D01*
X146337793Y-117430382D01*
X146382646Y-117302198D01*
X146385500Y-117271765D01*
X146385499Y-116157314D01*
X147085000Y-116157314D01*
X147085000Y-116377685D01*
X147119471Y-116595329D01*
X147187569Y-116804913D01*
X147287612Y-117001259D01*
X147287614Y-117001263D01*
X147393442Y-117146923D01*
X147968123Y-116572241D01*
X148004881Y-116635908D01*
X148116592Y-116747619D01*
X148180255Y-116784375D01*
X147605575Y-117359056D01*
X147751236Y-117464885D01*
X147751240Y-117464887D01*
X147947586Y-117564930D01*
X148157170Y-117633028D01*
X148374815Y-117667500D01*
X148595185Y-117667500D01*
X148812829Y-117633028D01*
X149022413Y-117564930D01*
X149218757Y-117464888D01*
X149364422Y-117359055D01*
X148789743Y-116784376D01*
X148853408Y-116747619D01*
X148965119Y-116635908D01*
X149001876Y-116572243D01*
X149576555Y-117146922D01*
X149682388Y-117001257D01*
X149782430Y-116804913D01*
X149850528Y-116595329D01*
X149885000Y-116377685D01*
X149885000Y-116157314D01*
X149850528Y-115939670D01*
X149782430Y-115730086D01*
X149682387Y-115533740D01*
X149682385Y-115533736D01*
X149576556Y-115388075D01*
X149001875Y-115962755D01*
X148965119Y-115899092D01*
X148853408Y-115787381D01*
X148789741Y-115750623D01*
X149364423Y-115175942D01*
X149218763Y-115070114D01*
X149218759Y-115070112D01*
X149022413Y-114970069D01*
X148812829Y-114901971D01*
X148595185Y-114867500D01*
X148374815Y-114867500D01*
X148157170Y-114901971D01*
X147947586Y-114970069D01*
X147751241Y-115070112D01*
X147605575Y-115175942D01*
X148180256Y-115750623D01*
X148116592Y-115787381D01*
X148004881Y-115899092D01*
X147968123Y-115962756D01*
X147393442Y-115388075D01*
X147287612Y-115533741D01*
X147187569Y-115730086D01*
X147119471Y-115939670D01*
X147085000Y-116157314D01*
X146385499Y-116157314D01*
X146385499Y-115263236D01*
X146382646Y-115232802D01*
X146337793Y-115104618D01*
X146337791Y-115104616D01*
X146337791Y-115104614D01*
X146257154Y-114995355D01*
X146257152Y-114995353D01*
X146257150Y-114995350D01*
X146257146Y-114995347D01*
X146257144Y-114995345D01*
X146147885Y-114914708D01*
X146104422Y-114899500D01*
X146019698Y-114869854D01*
X146019696Y-114869853D01*
X146019694Y-114869853D01*
X145989273Y-114867000D01*
X145989265Y-114867000D01*
X145584500Y-114867000D01*
X145526309Y-114848093D01*
X145490345Y-114798593D01*
X145485500Y-114768000D01*
X145485500Y-111157255D01*
X145504407Y-111099064D01*
X145514490Y-111087257D01*
X145598528Y-111003220D01*
X145659719Y-110883126D01*
X145675500Y-110783488D01*
X145675500Y-110783453D01*
X145925000Y-110783453D01*
X145940760Y-110882965D01*
X145940762Y-110882969D01*
X146001881Y-111002921D01*
X146097078Y-111098118D01*
X146217030Y-111159237D01*
X146217029Y-111159237D01*
X146316545Y-111174999D01*
X146425000Y-111174999D01*
X146425000Y-110650001D01*
X146725000Y-110650001D01*
X146725000Y-111174998D01*
X146725001Y-111174999D01*
X146833453Y-111174999D01*
X146932965Y-111159239D01*
X146932969Y-111159237D01*
X147052921Y-111098118D01*
X147148118Y-111002921D01*
X147209237Y-110882969D01*
X147225000Y-110783453D01*
X147225000Y-110650001D01*
X147224999Y-110650000D01*
X146725001Y-110650000D01*
X146725000Y-110650001D01*
X146425000Y-110650001D01*
X146424999Y-110650000D01*
X145925002Y-110650000D01*
X145925001Y-110650001D01*
X145925001Y-110783453D01*
X145925000Y-110783453D01*
X145675500Y-110783453D01*
X145675500Y-110216546D01*
X145925000Y-110216546D01*
X145925000Y-110349999D01*
X145925001Y-110350000D01*
X146424999Y-110350000D01*
X146425000Y-110349999D01*
X146425000Y-109825001D01*
X146725000Y-109825001D01*
X146725000Y-110349999D01*
X146725001Y-110350000D01*
X147224998Y-110350000D01*
X147224999Y-110349999D01*
X147224999Y-110216546D01*
X147209239Y-110117034D01*
X147209237Y-110117030D01*
X147148118Y-109997078D01*
X147052921Y-109901881D01*
X146932969Y-109840762D01*
X146932970Y-109840762D01*
X146833454Y-109825000D01*
X146725001Y-109825000D01*
X146725000Y-109825001D01*
X146425000Y-109825001D01*
X146425000Y-109825000D01*
X146316547Y-109825000D01*
X146316546Y-109825001D01*
X146217034Y-109840760D01*
X146217030Y-109840762D01*
X146097078Y-109901881D01*
X146001881Y-109997078D01*
X145940762Y-110117030D01*
X145925000Y-110216546D01*
X145675500Y-110216546D01*
X145675500Y-110216512D01*
X145659719Y-110116874D01*
X145659716Y-110116869D01*
X145659716Y-110116867D01*
X145598529Y-109996782D01*
X145598528Y-109996780D01*
X145586614Y-109984866D01*
X145554496Y-109952747D01*
X145526719Y-109898230D01*
X145525500Y-109882744D01*
X145525500Y-108857007D01*
X145544407Y-108798816D01*
X145564233Y-108778465D01*
X145565233Y-108777698D01*
X145685451Y-108685451D01*
X145777698Y-108565233D01*
X145835687Y-108425236D01*
X145850500Y-108312720D01*
X145850500Y-106987280D01*
X145835687Y-106874764D01*
X145777698Y-106734767D01*
X145777192Y-106734108D01*
X150199500Y-106734108D01*
X150199500Y-106865892D01*
X150222785Y-106952792D01*
X150233609Y-106993190D01*
X150299496Y-107107309D01*
X150299498Y-107107311D01*
X150299500Y-107107314D01*
X150392686Y-107200500D01*
X150392688Y-107200501D01*
X150392690Y-107200503D01*
X150506810Y-107266390D01*
X150506808Y-107266390D01*
X150506812Y-107266391D01*
X150506814Y-107266392D01*
X150634108Y-107300500D01*
X150634110Y-107300500D01*
X150734521Y-107300500D01*
X150792712Y-107319407D01*
X150804525Y-107329496D01*
X151560504Y-108085475D01*
X151588281Y-108139992D01*
X151589500Y-108155479D01*
X151589500Y-114665024D01*
X151570593Y-114723215D01*
X151560504Y-114735028D01*
X151559597Y-114735934D01*
X151559596Y-114735935D01*
X151496938Y-114798593D01*
X151475933Y-114819598D01*
X151425932Y-114926824D01*
X151425932Y-114926825D01*
X151425932Y-114926827D01*
X151419500Y-114975684D01*
X151419500Y-115424316D01*
X151420449Y-115431522D01*
X151425932Y-115473174D01*
X151425932Y-115473175D01*
X151475933Y-115580401D01*
X151475934Y-115580402D01*
X151475935Y-115580404D01*
X151559596Y-115664065D01*
X151559597Y-115664065D01*
X151559598Y-115664066D01*
X151666824Y-115714067D01*
X151666825Y-115714067D01*
X151666827Y-115714068D01*
X151715684Y-115720500D01*
X151715685Y-115720500D01*
X152064314Y-115720500D01*
X152064316Y-115720500D01*
X152113173Y-115714068D01*
X152220404Y-115664065D01*
X152304065Y-115580404D01*
X152310275Y-115567085D01*
X152352003Y-115522337D01*
X152412064Y-115510662D01*
X152467517Y-115536519D01*
X152489724Y-115567084D01*
X152495935Y-115580404D01*
X152579596Y-115664065D01*
X152579597Y-115664065D01*
X152579598Y-115664066D01*
X152686824Y-115714067D01*
X152686825Y-115714067D01*
X152686827Y-115714068D01*
X152735684Y-115720500D01*
X152735685Y-115720500D01*
X153084314Y-115720500D01*
X153084316Y-115720500D01*
X153133173Y-115714068D01*
X153240404Y-115664065D01*
X153324065Y-115580404D01*
X153334671Y-115557660D01*
X153376399Y-115512912D01*
X153424395Y-115500500D01*
X153891049Y-115500500D01*
X153949240Y-115519407D01*
X153979257Y-115554552D01*
X154021950Y-115638342D01*
X154111658Y-115728050D01*
X154224696Y-115785646D01*
X154318481Y-115800500D01*
X154981518Y-115800499D01*
X154981520Y-115800499D01*
X154981521Y-115800498D01*
X155028411Y-115793072D01*
X155075299Y-115785647D01*
X155075299Y-115785646D01*
X155075304Y-115785646D01*
X155188342Y-115728050D01*
X155278050Y-115638342D01*
X155335646Y-115525304D01*
X155350500Y-115431519D01*
X155350499Y-114968482D01*
X155350498Y-114968477D01*
X156449500Y-114968477D01*
X156449500Y-115431520D01*
X156449501Y-115431523D01*
X156464352Y-115525299D01*
X156464354Y-115525304D01*
X156521950Y-115638342D01*
X156611658Y-115728050D01*
X156724696Y-115785646D01*
X156818481Y-115800500D01*
X157481518Y-115800499D01*
X157481520Y-115800499D01*
X157481521Y-115800498D01*
X157528411Y-115793072D01*
X157575299Y-115785647D01*
X157575299Y-115785646D01*
X157575304Y-115785646D01*
X157688342Y-115728050D01*
X157778050Y-115638342D01*
X157820742Y-115554553D01*
X157864006Y-115511290D01*
X157908951Y-115500500D01*
X158275605Y-115500500D01*
X158333796Y-115519407D01*
X158365329Y-115557660D01*
X158375933Y-115580401D01*
X158375934Y-115580402D01*
X158375935Y-115580404D01*
X158459596Y-115664065D01*
X158459597Y-115664065D01*
X158459598Y-115664066D01*
X158566824Y-115714067D01*
X158566825Y-115714067D01*
X158566827Y-115714068D01*
X158615684Y-115720500D01*
X158615685Y-115720500D01*
X158964314Y-115720500D01*
X158964316Y-115720500D01*
X159013173Y-115714068D01*
X159120404Y-115664065D01*
X159204065Y-115580404D01*
X159210275Y-115567085D01*
X159252003Y-115522337D01*
X159312064Y-115510662D01*
X159367517Y-115536519D01*
X159374445Y-115543664D01*
X159383755Y-115554284D01*
X159395935Y-115580404D01*
X159479596Y-115664065D01*
X159480264Y-115664376D01*
X159484945Y-115669716D01*
X159495792Y-115694977D01*
X159508281Y-115719489D01*
X159508721Y-115725088D01*
X159509086Y-115725937D01*
X159508865Y-115726911D01*
X159509500Y-115734976D01*
X159509500Y-117051679D01*
X159490593Y-117109870D01*
X159480509Y-117121676D01*
X159444526Y-117157660D01*
X159409497Y-117192689D01*
X159409496Y-117192690D01*
X159343609Y-117306809D01*
X159331847Y-117350706D01*
X159309500Y-117434108D01*
X159309500Y-117565892D01*
X159339513Y-117677903D01*
X159343609Y-117693190D01*
X159409496Y-117807309D01*
X159409498Y-117807311D01*
X159409500Y-117807314D01*
X159502686Y-117900500D01*
X159502688Y-117900501D01*
X159502690Y-117900503D01*
X159616810Y-117966390D01*
X159616808Y-117966390D01*
X159616812Y-117966391D01*
X159616814Y-117966392D01*
X159744108Y-118000500D01*
X159744110Y-118000500D01*
X159875890Y-118000500D01*
X159875892Y-118000500D01*
X160003186Y-117966392D01*
X160003188Y-117966390D01*
X160003190Y-117966390D01*
X160117309Y-117900503D01*
X160117309Y-117900502D01*
X160117314Y-117900500D01*
X160210500Y-117807314D01*
X160276392Y-117693186D01*
X160310500Y-117565892D01*
X160310500Y-117434108D01*
X160276392Y-117306814D01*
X160276390Y-117306811D01*
X160276390Y-117306809D01*
X160210503Y-117192690D01*
X160210501Y-117192688D01*
X160210500Y-117192686D01*
X160139494Y-117121680D01*
X160135869Y-117114565D01*
X160129407Y-117109870D01*
X160122243Y-117087821D01*
X160111719Y-117067166D01*
X160110500Y-117051679D01*
X160110500Y-116878710D01*
X163149500Y-116878710D01*
X163149500Y-117121289D01*
X163181161Y-117361781D01*
X163181161Y-117361786D01*
X163243944Y-117596092D01*
X163243948Y-117596105D01*
X163336772Y-117820204D01*
X163336774Y-117820208D01*
X163336776Y-117820212D01*
X163452371Y-118020428D01*
X163458066Y-118030292D01*
X163605729Y-118222731D01*
X163605731Y-118222733D01*
X163605735Y-118222738D01*
X163777262Y-118394265D01*
X163777266Y-118394268D01*
X163777268Y-118394270D01*
X163969707Y-118541933D01*
X163969711Y-118541936D01*
X164179788Y-118663224D01*
X164403900Y-118756054D01*
X164638211Y-118818838D01*
X164878712Y-118850500D01*
X164878713Y-118850500D01*
X165121287Y-118850500D01*
X165121288Y-118850500D01*
X165361789Y-118818838D01*
X165596100Y-118756054D01*
X165820212Y-118663224D01*
X166030289Y-118541936D01*
X166222738Y-118394265D01*
X166394265Y-118222738D01*
X166541936Y-118030289D01*
X166663224Y-117820212D01*
X166756054Y-117596100D01*
X166818838Y-117361789D01*
X166850500Y-117121288D01*
X166850500Y-116878712D01*
X166818838Y-116638211D01*
X166756054Y-116403900D01*
X166663224Y-116179788D01*
X166541936Y-115969711D01*
X166412096Y-115800500D01*
X166394270Y-115777268D01*
X166394268Y-115777266D01*
X166394265Y-115777262D01*
X166222738Y-115605735D01*
X166222733Y-115605731D01*
X166222731Y-115605729D01*
X166030292Y-115458066D01*
X166030289Y-115458064D01*
X165820212Y-115336776D01*
X165820208Y-115336774D01*
X165820204Y-115336772D01*
X165596105Y-115243948D01*
X165596104Y-115243947D01*
X165596100Y-115243946D01*
X165361789Y-115181162D01*
X165361786Y-115181161D01*
X165361784Y-115181161D01*
X165121289Y-115149500D01*
X165121288Y-115149500D01*
X164878712Y-115149500D01*
X164878710Y-115149500D01*
X164638218Y-115181161D01*
X164638213Y-115181161D01*
X164403907Y-115243944D01*
X164403894Y-115243948D01*
X164179795Y-115336772D01*
X163969707Y-115458066D01*
X163777268Y-115605729D01*
X163605729Y-115777268D01*
X163458066Y-115969707D01*
X163336772Y-116179795D01*
X163243948Y-116403894D01*
X163243944Y-116403907D01*
X163181161Y-116638213D01*
X163181161Y-116638218D01*
X163149500Y-116878710D01*
X160110500Y-116878710D01*
X160110500Y-115734976D01*
X160129407Y-115676785D01*
X160139496Y-115664972D01*
X160140402Y-115664065D01*
X160140404Y-115664065D01*
X160224065Y-115580404D01*
X160274068Y-115473173D01*
X160280500Y-115424316D01*
X160280500Y-114975684D01*
X160274068Y-114926827D01*
X160268416Y-114914707D01*
X160224066Y-114819598D01*
X160224065Y-114819597D01*
X160224065Y-114819596D01*
X160140404Y-114735935D01*
X160140402Y-114735934D01*
X160140401Y-114735933D01*
X160033175Y-114685932D01*
X159991995Y-114680511D01*
X159984316Y-114679500D01*
X159635684Y-114679500D01*
X159628005Y-114680511D01*
X159586825Y-114685932D01*
X159586824Y-114685932D01*
X159479598Y-114735933D01*
X159395933Y-114819598D01*
X159389724Y-114832915D01*
X159347995Y-114877663D01*
X159287934Y-114889337D01*
X159232482Y-114863478D01*
X159210276Y-114832915D01*
X159204066Y-114819598D01*
X159204065Y-114819597D01*
X159204065Y-114819596D01*
X159120404Y-114735935D01*
X159120402Y-114735934D01*
X159120401Y-114735933D01*
X159013175Y-114685932D01*
X158971995Y-114680511D01*
X158964316Y-114679500D01*
X158615684Y-114679500D01*
X158608005Y-114680511D01*
X158566825Y-114685932D01*
X158566824Y-114685932D01*
X158459598Y-114735933D01*
X158375933Y-114819598D01*
X158365329Y-114842340D01*
X158323601Y-114887088D01*
X158275605Y-114899500D01*
X157908951Y-114899500D01*
X157850760Y-114880593D01*
X157820742Y-114845447D01*
X157778050Y-114761658D01*
X157688342Y-114671950D01*
X157575304Y-114614354D01*
X157575305Y-114614354D01*
X157481522Y-114599500D01*
X156818479Y-114599500D01*
X156818476Y-114599501D01*
X156724700Y-114614352D01*
X156724695Y-114614354D01*
X156611659Y-114671949D01*
X156521949Y-114761659D01*
X156464354Y-114874695D01*
X156449500Y-114968477D01*
X155350498Y-114968477D01*
X155350498Y-114968475D01*
X155335647Y-114874700D01*
X155335646Y-114874698D01*
X155335646Y-114874696D01*
X155278050Y-114761658D01*
X155188342Y-114671950D01*
X155075304Y-114614354D01*
X155075305Y-114614354D01*
X154981522Y-114599500D01*
X154318479Y-114599500D01*
X154318476Y-114599501D01*
X154224700Y-114614352D01*
X154224695Y-114614354D01*
X154111659Y-114671949D01*
X154111658Y-114671950D01*
X154021950Y-114761658D01*
X153979257Y-114845446D01*
X153935994Y-114888710D01*
X153891049Y-114899500D01*
X153424395Y-114899500D01*
X153366204Y-114880593D01*
X153334671Y-114842340D01*
X153324066Y-114819598D01*
X153324065Y-114819597D01*
X153324065Y-114819596D01*
X153240404Y-114735935D01*
X153240402Y-114735934D01*
X153240401Y-114735933D01*
X153133175Y-114685932D01*
X153091995Y-114680511D01*
X153084316Y-114679500D01*
X152735684Y-114679500D01*
X152728005Y-114680511D01*
X152686825Y-114685932D01*
X152686824Y-114685932D01*
X152579598Y-114735933D01*
X152495933Y-114819598D01*
X152489724Y-114832915D01*
X152447995Y-114877663D01*
X152387934Y-114889337D01*
X152332482Y-114863478D01*
X152310276Y-114832915D01*
X152304066Y-114819598D01*
X152304065Y-114819597D01*
X152304065Y-114819596D01*
X152220404Y-114735935D01*
X152220402Y-114735934D01*
X152219496Y-114735028D01*
X152191719Y-114680511D01*
X152190500Y-114665024D01*
X152190500Y-113734108D01*
X152399500Y-113734108D01*
X152399500Y-113865892D01*
X152429579Y-113978151D01*
X152433609Y-113993190D01*
X152499496Y-114107309D01*
X152499498Y-114107311D01*
X152499500Y-114107314D01*
X152592686Y-114200500D01*
X152592688Y-114200501D01*
X152592690Y-114200503D01*
X152706810Y-114266390D01*
X152706808Y-114266390D01*
X152706812Y-114266391D01*
X152706814Y-114266392D01*
X152834108Y-114300500D01*
X152834110Y-114300500D01*
X152965890Y-114300500D01*
X152965892Y-114300500D01*
X153093186Y-114266392D01*
X153093188Y-114266390D01*
X153093190Y-114266390D01*
X153207309Y-114200503D01*
X153207309Y-114200502D01*
X153207314Y-114200500D01*
X153278319Y-114129494D01*
X153332834Y-114101719D01*
X153348321Y-114100500D01*
X153891049Y-114100500D01*
X153949240Y-114119407D01*
X153979257Y-114154552D01*
X154021950Y-114238342D01*
X154111658Y-114328050D01*
X154224696Y-114385646D01*
X154318481Y-114400500D01*
X154981518Y-114400499D01*
X154981520Y-114400499D01*
X154981521Y-114400498D01*
X155028411Y-114393072D01*
X155075299Y-114385647D01*
X155075299Y-114385646D01*
X155075304Y-114385646D01*
X155188342Y-114328050D01*
X155278050Y-114238342D01*
X155335646Y-114125304D01*
X155350500Y-114031519D01*
X155350499Y-113568482D01*
X155350498Y-113568477D01*
X156449500Y-113568477D01*
X156449500Y-114031520D01*
X156449501Y-114031523D01*
X156464352Y-114125299D01*
X156464354Y-114125304D01*
X156521950Y-114238342D01*
X156611658Y-114328050D01*
X156724696Y-114385646D01*
X156818481Y-114400500D01*
X157481518Y-114400499D01*
X157481520Y-114400499D01*
X157481521Y-114400498D01*
X157528411Y-114393072D01*
X157575299Y-114385647D01*
X157575299Y-114385646D01*
X157575304Y-114385646D01*
X157688342Y-114328050D01*
X157778050Y-114238342D01*
X157820742Y-114154553D01*
X157864006Y-114111290D01*
X157908951Y-114100500D01*
X158375605Y-114100500D01*
X158433796Y-114119407D01*
X158465329Y-114157660D01*
X158475933Y-114180401D01*
X158475934Y-114180402D01*
X158475935Y-114180404D01*
X158559596Y-114264065D01*
X158559597Y-114264065D01*
X158559598Y-114264066D01*
X158666824Y-114314067D01*
X158666825Y-114314067D01*
X158666827Y-114314068D01*
X158715684Y-114320500D01*
X158715685Y-114320500D01*
X159064314Y-114320500D01*
X159064316Y-114320500D01*
X159113173Y-114314068D01*
X159220404Y-114264065D01*
X159304065Y-114180404D01*
X159310275Y-114167085D01*
X159352003Y-114122337D01*
X159412064Y-114110662D01*
X159467517Y-114136519D01*
X159489724Y-114167084D01*
X159495935Y-114180404D01*
X159579596Y-114264065D01*
X159579597Y-114264065D01*
X159579598Y-114264066D01*
X159686824Y-114314067D01*
X159686825Y-114314067D01*
X159686827Y-114314068D01*
X159735684Y-114320500D01*
X159735685Y-114320500D01*
X160084314Y-114320500D01*
X160084316Y-114320500D01*
X160133173Y-114314068D01*
X160240404Y-114264065D01*
X160324065Y-114180404D01*
X160374068Y-114073173D01*
X160380500Y-114024316D01*
X160380500Y-113575684D01*
X160374068Y-113526827D01*
X160355537Y-113487088D01*
X160324066Y-113419598D01*
X160324065Y-113419597D01*
X160324065Y-113419596D01*
X160240404Y-113335935D01*
X160240402Y-113335934D01*
X160239496Y-113335028D01*
X160211719Y-113280511D01*
X160210500Y-113265024D01*
X160210500Y-111670437D01*
X160210499Y-111670435D01*
X160190021Y-111594011D01*
X160190019Y-111594007D01*
X160150460Y-111525489D01*
X160094511Y-111469539D01*
X160094511Y-111469540D01*
X159274972Y-110650001D01*
X162760001Y-110650001D01*
X162760001Y-110683216D01*
X162769912Y-110751250D01*
X162821214Y-110856188D01*
X162903812Y-110938786D01*
X163008751Y-110990087D01*
X163076784Y-110999999D01*
X163584998Y-110999999D01*
X163585000Y-110999998D01*
X163585000Y-110650001D01*
X163885000Y-110650001D01*
X163885000Y-110999998D01*
X163885001Y-110999999D01*
X164393213Y-110999999D01*
X164393216Y-110999998D01*
X164461250Y-110990087D01*
X164566188Y-110938785D01*
X164648786Y-110856187D01*
X164700087Y-110751248D01*
X164710000Y-110683215D01*
X164710000Y-110650001D01*
X164709999Y-110650000D01*
X163885001Y-110650000D01*
X163885000Y-110650001D01*
X163585000Y-110650001D01*
X163584999Y-110650000D01*
X162760002Y-110650000D01*
X162760001Y-110650001D01*
X159274972Y-110650001D01*
X157529496Y-108904525D01*
X157501719Y-108850008D01*
X157500500Y-108834521D01*
X157500500Y-108734109D01*
X157494463Y-108711577D01*
X157466392Y-108606814D01*
X157466390Y-108606811D01*
X157466390Y-108606809D01*
X157400503Y-108492690D01*
X157400501Y-108492688D01*
X157400500Y-108492686D01*
X157307314Y-108399500D01*
X157307311Y-108399498D01*
X157307309Y-108399496D01*
X157193189Y-108333609D01*
X157193191Y-108333609D01*
X157130233Y-108316740D01*
X157065892Y-108299500D01*
X156934108Y-108299500D01*
X156869767Y-108316740D01*
X156806809Y-108333609D01*
X156692690Y-108399496D01*
X156599496Y-108492690D01*
X156533609Y-108606809D01*
X156533608Y-108606814D01*
X156499500Y-108734108D01*
X156499500Y-108865892D01*
X156517451Y-108932886D01*
X156533609Y-108993190D01*
X156599496Y-109107309D01*
X156599498Y-109107311D01*
X156599500Y-109107314D01*
X156692686Y-109200500D01*
X156692688Y-109200501D01*
X156692690Y-109200503D01*
X156806810Y-109266390D01*
X156806808Y-109266390D01*
X156806812Y-109266391D01*
X156806814Y-109266392D01*
X156934108Y-109300500D01*
X156934110Y-109300500D01*
X157034521Y-109300500D01*
X157092712Y-109319407D01*
X157104525Y-109329496D01*
X159580504Y-111805475D01*
X159608281Y-111859992D01*
X159609500Y-111875479D01*
X159609500Y-113265024D01*
X159608049Y-113269487D01*
X159609086Y-113274063D01*
X159600867Y-113291593D01*
X159590593Y-113323215D01*
X159584945Y-113330285D01*
X159580265Y-113335622D01*
X159579596Y-113335935D01*
X159495935Y-113419596D01*
X159483755Y-113445715D01*
X159474445Y-113456336D01*
X159459697Y-113465113D01*
X159447995Y-113477663D01*
X159434064Y-113480370D01*
X159421868Y-113487630D01*
X159404778Y-113486062D01*
X159387934Y-113489337D01*
X159375071Y-113483339D01*
X159360938Y-113482043D01*
X159348032Y-113470729D01*
X159332482Y-113463478D01*
X159319713Y-113445904D01*
X159314929Y-113441710D01*
X159314142Y-113438236D01*
X159310276Y-113432915D01*
X159304066Y-113419598D01*
X159304065Y-113419597D01*
X159304065Y-113419596D01*
X159220404Y-113335935D01*
X159220402Y-113335934D01*
X159220401Y-113335933D01*
X159113175Y-113285932D01*
X159071995Y-113280511D01*
X159064316Y-113279500D01*
X158715684Y-113279500D01*
X158708005Y-113280511D01*
X158666825Y-113285932D01*
X158666824Y-113285932D01*
X158559598Y-113335933D01*
X158475933Y-113419598D01*
X158465329Y-113442340D01*
X158423601Y-113487088D01*
X158375605Y-113499500D01*
X157908951Y-113499500D01*
X157850760Y-113480593D01*
X157820742Y-113445447D01*
X157778050Y-113361658D01*
X157688342Y-113271950D01*
X157575304Y-113214354D01*
X157575305Y-113214354D01*
X157481522Y-113199500D01*
X156818479Y-113199500D01*
X156818476Y-113199501D01*
X156724700Y-113214352D01*
X156724695Y-113214354D01*
X156611659Y-113271949D01*
X156521949Y-113361659D01*
X156464354Y-113474695D01*
X156449500Y-113568477D01*
X155350498Y-113568477D01*
X155350498Y-113568475D01*
X155335647Y-113474700D01*
X155335646Y-113474698D01*
X155335646Y-113474696D01*
X155278050Y-113361658D01*
X155188342Y-113271950D01*
X155075304Y-113214354D01*
X155075305Y-113214354D01*
X154981522Y-113199500D01*
X154318479Y-113199500D01*
X154318476Y-113199501D01*
X154224700Y-113214352D01*
X154224695Y-113214354D01*
X154111659Y-113271949D01*
X154111658Y-113271950D01*
X154021950Y-113361658D01*
X153979257Y-113445446D01*
X153935994Y-113488710D01*
X153891049Y-113499500D01*
X153348321Y-113499500D01*
X153290130Y-113480593D01*
X153278323Y-113470509D01*
X153207314Y-113399500D01*
X153207311Y-113399498D01*
X153207309Y-113399496D01*
X153093189Y-113333609D01*
X153093191Y-113333609D01*
X153043799Y-113320375D01*
X152965892Y-113299500D01*
X152834108Y-113299500D01*
X152756200Y-113320375D01*
X152706809Y-113333609D01*
X152592690Y-113399496D01*
X152499496Y-113492690D01*
X152433609Y-113606809D01*
X152433608Y-113606814D01*
X152399500Y-113734108D01*
X152190500Y-113734108D01*
X152190500Y-107950437D01*
X152190499Y-107950435D01*
X152170021Y-107874011D01*
X152170019Y-107874007D01*
X152130460Y-107805489D01*
X152074511Y-107749539D01*
X152074511Y-107749540D01*
X151229496Y-106904525D01*
X151201719Y-106850008D01*
X151200500Y-106834521D01*
X151200500Y-106734109D01*
X151200500Y-106734108D01*
X151166392Y-106606814D01*
X151166390Y-106606811D01*
X151166390Y-106606809D01*
X151100503Y-106492690D01*
X151100501Y-106492688D01*
X151100500Y-106492686D01*
X151007314Y-106399500D01*
X151007311Y-106399498D01*
X151007309Y-106399496D01*
X150893189Y-106333609D01*
X150893191Y-106333609D01*
X150834876Y-106317984D01*
X150765892Y-106299500D01*
X150634108Y-106299500D01*
X150565124Y-106317984D01*
X150506809Y-106333609D01*
X150392690Y-106399496D01*
X150299496Y-106492690D01*
X150233609Y-106606809D01*
X150226136Y-106634699D01*
X150199500Y-106734108D01*
X145777192Y-106734108D01*
X145685451Y-106614549D01*
X145565233Y-106522302D01*
X145543372Y-106513247D01*
X145425238Y-106464314D01*
X145425240Y-106464314D01*
X145425236Y-106464313D01*
X145425234Y-106464312D01*
X145425232Y-106464312D01*
X145312720Y-106449500D01*
X144487280Y-106449500D01*
X144487279Y-106449500D01*
X144374767Y-106464312D01*
X144374761Y-106464314D01*
X144234768Y-106522301D01*
X144114551Y-106614547D01*
X144114547Y-106614551D01*
X144022301Y-106734768D01*
X143964314Y-106874761D01*
X143964312Y-106874767D01*
X143949500Y-106987279D01*
X143949500Y-108312720D01*
X143964312Y-108425232D01*
X143964314Y-108425238D01*
X144022197Y-108564981D01*
X144022302Y-108565233D01*
X144114549Y-108685451D01*
X144234767Y-108777698D01*
X144374764Y-108835687D01*
X144438422Y-108844067D01*
X144493646Y-108870407D01*
X144522842Y-108924178D01*
X144524500Y-108942220D01*
X144524500Y-109882744D01*
X144505593Y-109940935D01*
X144495504Y-109952747D01*
X144451473Y-109996778D01*
X144451470Y-109996782D01*
X144390283Y-110116867D01*
X144390281Y-110116874D01*
X144377999Y-110194422D01*
X144374500Y-110216512D01*
X144374500Y-110783488D01*
X144386014Y-110856188D01*
X144390281Y-110883125D01*
X144390283Y-110883132D01*
X144451470Y-111003217D01*
X144451472Y-111003220D01*
X144455505Y-111007253D01*
X144483281Y-111061768D01*
X144484500Y-111077255D01*
X144484500Y-114768000D01*
X144465593Y-114826191D01*
X144416093Y-114862155D01*
X144385500Y-114867000D01*
X143980734Y-114867000D01*
X143950305Y-114869853D01*
X143822114Y-114914708D01*
X143712855Y-114995345D01*
X143712845Y-114995355D01*
X143632208Y-115104614D01*
X143587353Y-115232805D01*
X143584500Y-115263226D01*
X129377647Y-115263226D01*
X129331105Y-115243948D01*
X129331104Y-115243947D01*
X129331100Y-115243946D01*
X129096789Y-115181162D01*
X129096786Y-115181161D01*
X129096784Y-115181161D01*
X128856289Y-115149500D01*
X128856288Y-115149500D01*
X128613712Y-115149500D01*
X128613710Y-115149500D01*
X128373218Y-115181161D01*
X128373213Y-115181161D01*
X128138907Y-115243944D01*
X128138894Y-115243948D01*
X127914795Y-115336772D01*
X127704707Y-115458066D01*
X127512268Y-115605729D01*
X127340729Y-115777268D01*
X127193066Y-115969707D01*
X127071772Y-116179795D01*
X126978948Y-116403894D01*
X126978944Y-116403907D01*
X126916161Y-116638213D01*
X126916161Y-116638218D01*
X126884500Y-116878710D01*
X124588000Y-116878710D01*
X124588000Y-110426579D01*
X128149500Y-110426579D01*
X128149500Y-110623420D01*
X128180289Y-110817821D01*
X128241116Y-111005025D01*
X128327721Y-111174999D01*
X128330476Y-111180405D01*
X128446172Y-111339646D01*
X128585354Y-111478828D01*
X128744595Y-111594524D01*
X128919975Y-111683884D01*
X129107174Y-111744709D01*
X129107175Y-111744709D01*
X129107178Y-111744710D01*
X129301580Y-111775500D01*
X129301583Y-111775500D01*
X129498420Y-111775500D01*
X129692821Y-111744710D01*
X129692822Y-111744709D01*
X129692826Y-111744709D01*
X129880025Y-111683884D01*
X130055405Y-111594524D01*
X130214646Y-111478828D01*
X130353828Y-111339646D01*
X130469524Y-111180405D01*
X130558884Y-111005025D01*
X130619709Y-110817826D01*
X130619710Y-110817821D01*
X130625153Y-110783453D01*
X140400000Y-110783453D01*
X140415760Y-110882965D01*
X140415762Y-110882969D01*
X140476881Y-111002921D01*
X140572078Y-111098118D01*
X140692030Y-111159237D01*
X140692029Y-111159237D01*
X140791545Y-111174999D01*
X140900000Y-111174999D01*
X140900000Y-110650001D01*
X141200000Y-110650001D01*
X141200000Y-111174998D01*
X141200001Y-111174999D01*
X141308453Y-111174999D01*
X141407965Y-111159239D01*
X141407969Y-111159237D01*
X141527921Y-111098118D01*
X141623118Y-111002921D01*
X141684237Y-110882969D01*
X141700000Y-110783453D01*
X141700000Y-110650001D01*
X141699999Y-110650000D01*
X141200001Y-110650000D01*
X141200000Y-110650001D01*
X140900000Y-110650001D01*
X140899999Y-110650000D01*
X140400002Y-110650000D01*
X140400001Y-110650001D01*
X140400001Y-110783453D01*
X140400000Y-110783453D01*
X130625153Y-110783453D01*
X130650500Y-110623420D01*
X130650500Y-110426579D01*
X130625897Y-110271242D01*
X130619709Y-110232174D01*
X130614631Y-110216546D01*
X140400000Y-110216546D01*
X140400000Y-110349999D01*
X140400001Y-110350000D01*
X140899999Y-110350000D01*
X140900000Y-110349999D01*
X140900000Y-109825001D01*
X141200000Y-109825001D01*
X141200000Y-110349999D01*
X141200001Y-110350000D01*
X141699998Y-110350000D01*
X141699999Y-110349999D01*
X141699999Y-110216546D01*
X141684239Y-110117034D01*
X141684237Y-110117030D01*
X141623118Y-109997078D01*
X141527921Y-109901881D01*
X141407969Y-109840762D01*
X141407970Y-109840762D01*
X141308454Y-109825000D01*
X141200001Y-109825000D01*
X141200000Y-109825001D01*
X140900000Y-109825001D01*
X140900000Y-109825000D01*
X140791547Y-109825000D01*
X140791546Y-109825001D01*
X140692034Y-109840760D01*
X140692030Y-109840762D01*
X140572078Y-109901881D01*
X140476881Y-109997078D01*
X140415762Y-110117030D01*
X140400000Y-110216546D01*
X130614631Y-110216546D01*
X130558884Y-110044975D01*
X130469524Y-109869595D01*
X130353828Y-109710354D01*
X130214646Y-109571172D01*
X130055405Y-109455476D01*
X130055404Y-109455475D01*
X130055402Y-109455474D01*
X129880025Y-109366116D01*
X129692821Y-109305289D01*
X129498420Y-109274500D01*
X129498417Y-109274500D01*
X129301583Y-109274500D01*
X129301580Y-109274500D01*
X129107178Y-109305289D01*
X128919974Y-109366116D01*
X128744597Y-109455474D01*
X128585355Y-109571171D01*
X128446171Y-109710355D01*
X128330474Y-109869597D01*
X128241116Y-110044974D01*
X128180289Y-110232178D01*
X128149500Y-110426579D01*
X124588000Y-110426579D01*
X124588000Y-109190392D01*
X125835000Y-109190392D01*
X125835000Y-109359607D01*
X125861469Y-109526731D01*
X125861470Y-109526735D01*
X125913755Y-109687650D01*
X125913757Y-109687653D01*
X125990576Y-109838420D01*
X126051118Y-109921748D01*
X126469988Y-109502876D01*
X126513902Y-109578937D01*
X126606063Y-109671098D01*
X126682120Y-109715010D01*
X126263250Y-110133880D01*
X126263250Y-110133881D01*
X126346571Y-110194418D01*
X126346577Y-110194422D01*
X126497346Y-110271242D01*
X126497349Y-110271244D01*
X126658264Y-110323529D01*
X126658268Y-110323530D01*
X126825393Y-110350000D01*
X126994607Y-110350000D01*
X127153008Y-110324912D01*
X127161730Y-110323530D01*
X127161735Y-110323529D01*
X127322650Y-110271244D01*
X127322653Y-110271242D01*
X127473422Y-110194422D01*
X127473427Y-110194418D01*
X127556748Y-110133882D01*
X127556748Y-110133881D01*
X127137877Y-109715010D01*
X127213937Y-109671098D01*
X127306098Y-109578937D01*
X127350010Y-109502877D01*
X127768881Y-109921748D01*
X127768882Y-109921748D01*
X127829418Y-109838427D01*
X127829422Y-109838422D01*
X127906242Y-109687653D01*
X127906244Y-109687650D01*
X127958529Y-109526735D01*
X127958530Y-109526731D01*
X127985000Y-109359607D01*
X127985000Y-109190392D01*
X127958530Y-109023268D01*
X127958529Y-109023264D01*
X127906244Y-108862349D01*
X127906242Y-108862346D01*
X127829422Y-108711577D01*
X127829418Y-108711571D01*
X127768881Y-108628250D01*
X127768880Y-108628250D01*
X127350010Y-109047120D01*
X127306098Y-108971063D01*
X127213937Y-108878902D01*
X127137876Y-108834988D01*
X127556748Y-108416118D01*
X127473420Y-108355576D01*
X127322653Y-108278757D01*
X127322650Y-108278755D01*
X127161735Y-108226470D01*
X127161731Y-108226469D01*
X126994607Y-108200000D01*
X126825393Y-108200000D01*
X126658268Y-108226469D01*
X126658264Y-108226470D01*
X126497349Y-108278755D01*
X126497346Y-108278757D01*
X126346577Y-108355577D01*
X126346573Y-108355579D01*
X126263250Y-108416117D01*
X126682122Y-108834989D01*
X126606063Y-108878902D01*
X126513902Y-108971063D01*
X126469989Y-109047122D01*
X126051117Y-108628250D01*
X125990579Y-108711573D01*
X125990577Y-108711577D01*
X125913757Y-108862346D01*
X125913755Y-108862349D01*
X125861470Y-109023264D01*
X125861469Y-109023268D01*
X125835000Y-109190392D01*
X124588000Y-109190392D01*
X124588000Y-107733453D01*
X133825000Y-107733453D01*
X133840760Y-107832965D01*
X133840762Y-107832969D01*
X133901881Y-107952921D01*
X133997078Y-108048118D01*
X134117030Y-108109237D01*
X134117029Y-108109237D01*
X134216545Y-108124999D01*
X134350000Y-108124999D01*
X134350000Y-107625001D01*
X134650000Y-107625001D01*
X134650000Y-108124998D01*
X134650001Y-108124999D01*
X134783453Y-108124999D01*
X134882965Y-108109239D01*
X134882969Y-108109237D01*
X135002921Y-108048118D01*
X135098118Y-107952921D01*
X135159237Y-107832970D01*
X135164459Y-107800001D01*
X139350000Y-107800001D01*
X139350000Y-108312690D01*
X139364799Y-108425101D01*
X139364801Y-108425109D01*
X139422736Y-108564977D01*
X139422738Y-108564981D01*
X139514900Y-108685089D01*
X139514910Y-108685099D01*
X139635018Y-108777261D01*
X139635022Y-108777263D01*
X139774890Y-108835198D01*
X139774898Y-108835200D01*
X139887309Y-108849999D01*
X139887311Y-108850000D01*
X140149999Y-108850000D01*
X140150000Y-108849999D01*
X140150000Y-107800001D01*
X140450000Y-107800001D01*
X140450000Y-108849999D01*
X140450001Y-108850000D01*
X140712689Y-108850000D01*
X140712690Y-108849999D01*
X140825101Y-108835200D01*
X140825109Y-108835198D01*
X140964977Y-108777263D01*
X140964981Y-108777261D01*
X141085089Y-108685099D01*
X141085099Y-108685089D01*
X141177261Y-108564981D01*
X141177263Y-108564977D01*
X141235198Y-108425109D01*
X141235200Y-108425101D01*
X141249999Y-108312690D01*
X141250000Y-108312689D01*
X141250000Y-107800001D01*
X141249999Y-107800000D01*
X140450001Y-107800000D01*
X140450000Y-107800001D01*
X140150000Y-107800001D01*
X140149999Y-107800000D01*
X139350001Y-107800000D01*
X139350000Y-107800001D01*
X135164459Y-107800001D01*
X135173408Y-107743505D01*
X135173408Y-107743504D01*
X135175000Y-107733454D01*
X135175000Y-107625001D01*
X135174999Y-107625000D01*
X134650001Y-107625000D01*
X134650000Y-107625001D01*
X134350000Y-107625001D01*
X134349999Y-107625000D01*
X133825002Y-107625000D01*
X133825001Y-107625001D01*
X133825001Y-107733453D01*
X133825000Y-107733453D01*
X124588000Y-107733453D01*
X124588000Y-107216546D01*
X133825000Y-107216546D01*
X133825000Y-107324999D01*
X133825001Y-107325000D01*
X134349999Y-107325000D01*
X134350000Y-107324999D01*
X134350000Y-106825001D01*
X134650000Y-106825001D01*
X134650000Y-107324999D01*
X134650001Y-107325000D01*
X135174998Y-107325000D01*
X135174999Y-107324999D01*
X135174999Y-107216546D01*
X135159239Y-107117034D01*
X135159238Y-107117030D01*
X135114391Y-107029015D01*
X135114390Y-107029013D01*
X135098119Y-106997079D01*
X135088349Y-106987309D01*
X139350000Y-106987309D01*
X139350000Y-107499999D01*
X139350001Y-107500000D01*
X140149999Y-107500000D01*
X140150000Y-107499999D01*
X140150000Y-106450001D01*
X140450000Y-106450001D01*
X140450000Y-107499999D01*
X140450001Y-107500000D01*
X141249999Y-107500000D01*
X141250000Y-107499999D01*
X141250000Y-106987311D01*
X141249999Y-106987309D01*
X141235200Y-106874898D01*
X141235198Y-106874890D01*
X141177263Y-106735022D01*
X141177261Y-106735018D01*
X141085099Y-106614910D01*
X141085089Y-106614900D01*
X140964981Y-106522738D01*
X140964977Y-106522736D01*
X140825109Y-106464801D01*
X140825101Y-106464799D01*
X140712690Y-106450000D01*
X140450001Y-106450000D01*
X140450000Y-106450001D01*
X140150000Y-106450001D01*
X140149999Y-106450000D01*
X139887309Y-106450000D01*
X139774898Y-106464799D01*
X139774890Y-106464801D01*
X139635022Y-106522736D01*
X139635018Y-106522738D01*
X139514910Y-106614900D01*
X139514900Y-106614910D01*
X139422738Y-106735018D01*
X139422736Y-106735022D01*
X139364801Y-106874890D01*
X139364799Y-106874898D01*
X139350000Y-106987309D01*
X135088349Y-106987309D01*
X135002921Y-106901881D01*
X134882969Y-106840762D01*
X134882970Y-106840762D01*
X134783454Y-106825000D01*
X134650001Y-106825000D01*
X134650000Y-106825001D01*
X134350000Y-106825001D01*
X134349999Y-106825000D01*
X134216547Y-106825000D01*
X134216546Y-106825001D01*
X134117034Y-106840760D01*
X134117030Y-106840762D01*
X133997078Y-106901881D01*
X133901881Y-106997078D01*
X133840762Y-107117030D01*
X133825000Y-107216546D01*
X124588000Y-107216546D01*
X124588000Y-106945001D01*
X132675000Y-106945001D01*
X132675000Y-106963356D01*
X132690231Y-107039923D01*
X132690230Y-107039923D01*
X132748246Y-107126749D01*
X132748251Y-107126754D01*
X132835076Y-107184770D01*
X132874999Y-107192710D01*
X132875000Y-107192710D01*
X132875000Y-106945001D01*
X133125000Y-106945001D01*
X133125000Y-107192710D01*
X133164923Y-107184770D01*
X133246376Y-107130344D01*
X133246377Y-107130343D01*
X133251750Y-107126752D01*
X133251753Y-107126749D01*
X133309768Y-107039923D01*
X133324999Y-106963356D01*
X133325000Y-106963354D01*
X133325000Y-106945001D01*
X133324999Y-106945000D01*
X133125001Y-106945000D01*
X133125000Y-106945001D01*
X132875000Y-106945001D01*
X132874999Y-106945000D01*
X132675001Y-106945000D01*
X132675000Y-106945001D01*
X124588000Y-106945001D01*
X124588000Y-104690352D01*
X125834500Y-104690352D01*
X125834500Y-104859647D01*
X125860980Y-105026842D01*
X125902502Y-105154631D01*
X125913295Y-105187849D01*
X125945386Y-105250831D01*
X125980618Y-105319979D01*
X125990150Y-105338685D01*
X126089654Y-105475641D01*
X126209359Y-105595346D01*
X126346315Y-105694850D01*
X126497151Y-105771705D01*
X126658153Y-105824018D01*
X126658154Y-105824018D01*
X126658157Y-105824019D01*
X126825353Y-105850500D01*
X126825356Y-105850500D01*
X126994647Y-105850500D01*
X127161842Y-105824019D01*
X127161843Y-105824018D01*
X127161847Y-105824018D01*
X127322849Y-105771705D01*
X127473685Y-105694850D01*
X127474007Y-105694615D01*
X127474139Y-105694572D01*
X127477006Y-105692816D01*
X127477427Y-105693503D01*
X127532192Y-105675695D01*
X127590388Y-105694588D01*
X127602220Y-105704691D01*
X128062040Y-106164511D01*
X128062039Y-106164511D01*
X128117989Y-106220460D01*
X128186507Y-106260019D01*
X128186511Y-106260021D01*
X128262935Y-106280499D01*
X128262937Y-106280500D01*
X128262938Y-106280500D01*
X128342062Y-106280500D01*
X132707961Y-106280500D01*
X132762961Y-106297183D01*
X132794092Y-106317984D01*
X132831972Y-106366034D01*
X132834374Y-106427172D01*
X132800382Y-106478046D01*
X132794093Y-106482615D01*
X132748250Y-106513246D01*
X132748246Y-106513250D01*
X132690231Y-106600076D01*
X132675000Y-106676643D01*
X132675000Y-106694999D01*
X132675001Y-106695000D01*
X133324999Y-106695000D01*
X133325000Y-106694999D01*
X133325000Y-106676645D01*
X133324999Y-106676643D01*
X133309768Y-106600076D01*
X133309769Y-106600076D01*
X133251753Y-106513250D01*
X133251750Y-106513247D01*
X133205907Y-106482616D01*
X133168027Y-106434566D01*
X133165625Y-106373428D01*
X133199617Y-106322554D01*
X133205888Y-106317997D01*
X133252112Y-106287112D01*
X133310240Y-106200117D01*
X133325500Y-106123401D01*
X133325499Y-105836600D01*
X133310240Y-105759883D01*
X133252112Y-105672888D01*
X133242567Y-105666510D01*
X133824500Y-105666510D01*
X133824500Y-106183489D01*
X133840281Y-106283125D01*
X133840283Y-106283132D01*
X133901470Y-106403217D01*
X133901472Y-106403220D01*
X133996780Y-106498528D01*
X133996782Y-106498529D01*
X134116867Y-106559716D01*
X134116869Y-106559716D01*
X134116874Y-106559719D01*
X134192541Y-106571703D01*
X134216510Y-106575500D01*
X134216512Y-106575500D01*
X134783490Y-106575500D01*
X134804885Y-106572111D01*
X134883126Y-106559719D01*
X135003220Y-106498528D01*
X135098528Y-106403220D01*
X135159719Y-106283126D01*
X135175500Y-106183488D01*
X135175500Y-105666512D01*
X135174914Y-105662815D01*
X135170844Y-105637116D01*
X135159719Y-105566874D01*
X135159716Y-105566869D01*
X135159716Y-105566867D01*
X135098529Y-105446782D01*
X135098528Y-105446780D01*
X135003220Y-105351472D01*
X135003217Y-105351470D01*
X134883129Y-105290282D01*
X134875718Y-105287874D01*
X134876185Y-105286434D01*
X134829491Y-105262638D01*
X134801718Y-105208119D01*
X134800500Y-105192640D01*
X134800500Y-104934394D01*
X134819407Y-104876203D01*
X134835467Y-104858890D01*
X134845605Y-104850291D01*
X134880404Y-104834065D01*
X134964065Y-104750404D01*
X134964508Y-104749452D01*
X134970943Y-104743996D01*
X134995673Y-104733853D01*
X135019489Y-104721719D01*
X135026630Y-104721156D01*
X135027552Y-104720779D01*
X135028498Y-104721009D01*
X135034976Y-104720500D01*
X136031679Y-104720500D01*
X136089870Y-104739407D01*
X136101676Y-104749490D01*
X136172686Y-104820500D01*
X136172688Y-104820501D01*
X136172690Y-104820503D01*
X136286810Y-104886390D01*
X136286808Y-104886390D01*
X136286812Y-104886391D01*
X136286814Y-104886392D01*
X136414108Y-104920500D01*
X136414110Y-104920500D01*
X136545890Y-104920500D01*
X136545892Y-104920500D01*
X136673186Y-104886392D01*
X136673188Y-104886390D01*
X136673190Y-104886390D01*
X136787309Y-104820503D01*
X136787309Y-104820502D01*
X136787314Y-104820500D01*
X136880500Y-104727314D01*
X136911348Y-104673884D01*
X136946390Y-104613190D01*
X136946390Y-104613188D01*
X136946392Y-104613186D01*
X136980500Y-104485892D01*
X136980500Y-104354108D01*
X136946392Y-104226814D01*
X136946390Y-104226811D01*
X136946390Y-104226809D01*
X136880503Y-104112690D01*
X136880501Y-104112688D01*
X136880500Y-104112686D01*
X136787314Y-104019500D01*
X136787311Y-104019498D01*
X136787309Y-104019496D01*
X136673189Y-103953609D01*
X136673191Y-103953609D01*
X136592050Y-103931868D01*
X136545892Y-103919500D01*
X136414108Y-103919500D01*
X136367950Y-103931868D01*
X136286809Y-103953609D01*
X136172690Y-104019496D01*
X136172689Y-104019497D01*
X136172686Y-104019499D01*
X136172686Y-104019500D01*
X136101680Y-104090505D01*
X136047166Y-104118281D01*
X136031679Y-104119500D01*
X135034976Y-104119500D01*
X135030512Y-104118049D01*
X135025937Y-104119086D01*
X135008406Y-104110867D01*
X134976785Y-104100593D01*
X134969716Y-104094945D01*
X134964376Y-104090264D01*
X134964065Y-104089596D01*
X134880404Y-104005935D01*
X134854284Y-103993755D01*
X134843664Y-103984445D01*
X134834887Y-103969700D01*
X134822337Y-103957997D01*
X134819628Y-103944064D01*
X134812369Y-103931868D01*
X134813936Y-103914778D01*
X134810662Y-103897936D01*
X134816659Y-103885072D01*
X134817956Y-103870939D01*
X134829266Y-103858036D01*
X134836519Y-103842483D01*
X134854094Y-103829713D01*
X134858289Y-103824929D01*
X134861763Y-103824142D01*
X134867084Y-103820275D01*
X134880404Y-103814065D01*
X134964065Y-103730404D01*
X135014068Y-103623173D01*
X135020500Y-103574316D01*
X135020500Y-103225684D01*
X135014068Y-103176827D01*
X134964065Y-103069596D01*
X134880404Y-102985935D01*
X134880402Y-102985934D01*
X134880401Y-102985933D01*
X134857659Y-102975328D01*
X134839500Y-102958393D01*
X134819407Y-102943795D01*
X134817477Y-102937855D01*
X134812912Y-102933598D01*
X134800500Y-102885604D01*
X134800500Y-102848321D01*
X134819407Y-102790130D01*
X134829490Y-102778323D01*
X134900500Y-102707314D01*
X134966392Y-102593186D01*
X135000500Y-102465892D01*
X135000500Y-102334108D01*
X134966392Y-102206814D01*
X134966390Y-102206811D01*
X134966390Y-102206809D01*
X134900503Y-102092690D01*
X134900501Y-102092688D01*
X134900500Y-102092686D01*
X134807314Y-101999500D01*
X134807311Y-101999498D01*
X134807309Y-101999496D01*
X134693189Y-101933609D01*
X134693191Y-101933609D01*
X134643799Y-101920375D01*
X134565892Y-101899500D01*
X134434108Y-101899500D01*
X134356200Y-101920375D01*
X134306809Y-101933609D01*
X134192690Y-101999496D01*
X134099496Y-102092690D01*
X134033609Y-102206809D01*
X134033608Y-102206814D01*
X133999500Y-102334108D01*
X133999500Y-102465892D01*
X134029579Y-102578151D01*
X134033609Y-102593190D01*
X134099496Y-102707309D01*
X134099498Y-102707311D01*
X134099500Y-102707314D01*
X134170505Y-102778319D01*
X134174130Y-102785434D01*
X134180593Y-102790130D01*
X134187756Y-102812178D01*
X134198281Y-102832834D01*
X134199500Y-102848321D01*
X134199500Y-102885604D01*
X134180593Y-102943795D01*
X134142341Y-102975328D01*
X134119598Y-102985933D01*
X134035933Y-103069598D01*
X133985932Y-103176824D01*
X133985932Y-103176825D01*
X133979500Y-103225685D01*
X133979500Y-103574314D01*
X133985932Y-103623174D01*
X133985932Y-103623175D01*
X134035933Y-103730401D01*
X134035934Y-103730402D01*
X134035935Y-103730404D01*
X134119596Y-103814065D01*
X134119597Y-103814065D01*
X134119598Y-103814066D01*
X134132915Y-103820276D01*
X134177663Y-103862005D01*
X134189337Y-103922066D01*
X134163478Y-103977518D01*
X134132915Y-103999724D01*
X134119598Y-104005933D01*
X134035933Y-104089598D01*
X133985932Y-104196824D01*
X133985932Y-104196825D01*
X133985932Y-104196827D01*
X133979500Y-104245684D01*
X133979500Y-104594316D01*
X133981984Y-104613186D01*
X133985932Y-104643174D01*
X133985932Y-104643175D01*
X134035933Y-104750401D01*
X134035934Y-104750402D01*
X134035935Y-104750404D01*
X134119596Y-104834065D01*
X134142337Y-104844669D01*
X134187086Y-104886396D01*
X134199500Y-104934394D01*
X134199500Y-105192640D01*
X134180593Y-105250831D01*
X134131093Y-105286795D01*
X134117721Y-105290005D01*
X134116870Y-105290282D01*
X133996782Y-105351470D01*
X133901470Y-105446782D01*
X133840283Y-105566867D01*
X133840281Y-105566874D01*
X133824500Y-105666510D01*
X133242567Y-105666510D01*
X133165117Y-105614760D01*
X133165113Y-105614759D01*
X133088410Y-105599501D01*
X133088402Y-105599500D01*
X133088401Y-105599500D01*
X133088400Y-105599500D01*
X132911602Y-105599500D01*
X132911595Y-105599501D01*
X132834883Y-105614759D01*
X132834878Y-105614761D01*
X132762962Y-105662815D01*
X132707961Y-105679500D01*
X128467979Y-105679500D01*
X128409788Y-105660593D01*
X128397975Y-105650504D01*
X127956619Y-105209148D01*
X127928842Y-105154631D01*
X127932468Y-105108556D01*
X127959018Y-105026847D01*
X127973706Y-104934108D01*
X127985500Y-104859647D01*
X127985500Y-104690352D01*
X127959019Y-104523157D01*
X127951333Y-104499500D01*
X127906705Y-104362151D01*
X127829850Y-104211315D01*
X127730346Y-104074359D01*
X127610641Y-103954654D01*
X127473685Y-103855150D01*
X127473684Y-103855149D01*
X127473682Y-103855148D01*
X127393051Y-103814065D01*
X127322849Y-103778295D01*
X127322846Y-103778294D01*
X127322844Y-103778293D01*
X127161842Y-103725980D01*
X126994647Y-103699500D01*
X126994644Y-103699500D01*
X126825356Y-103699500D01*
X126825353Y-103699500D01*
X126658157Y-103725980D01*
X126497155Y-103778293D01*
X126346317Y-103855148D01*
X126287425Y-103897936D01*
X126209359Y-103954654D01*
X126089654Y-104074359D01*
X126057743Y-104118281D01*
X125990148Y-104211317D01*
X125913293Y-104362155D01*
X125860980Y-104523157D01*
X125834500Y-104690352D01*
X124588000Y-104690352D01*
X124588000Y-103416579D01*
X128149500Y-103416579D01*
X128149500Y-103613420D01*
X128180289Y-103807821D01*
X128241116Y-103995025D01*
X128304538Y-104119500D01*
X128330476Y-104170405D01*
X128446172Y-104329646D01*
X128585354Y-104468828D01*
X128744595Y-104584524D01*
X128919975Y-104673884D01*
X129107174Y-104734709D01*
X129107175Y-104734709D01*
X129107178Y-104734710D01*
X129301580Y-104765500D01*
X129301583Y-104765500D01*
X129498420Y-104765500D01*
X129692821Y-104734710D01*
X129692822Y-104734709D01*
X129692826Y-104734709D01*
X129880025Y-104673884D01*
X130055405Y-104584524D01*
X130214646Y-104468828D01*
X130353828Y-104329646D01*
X130469524Y-104170405D01*
X130558884Y-103995025D01*
X130619709Y-103807826D01*
X130624387Y-103778293D01*
X130650500Y-103613420D01*
X130650500Y-103416579D01*
X130619710Y-103222178D01*
X130619709Y-103222174D01*
X130558884Y-103034975D01*
X130469524Y-102859595D01*
X130353828Y-102700354D01*
X130214646Y-102561172D01*
X130055405Y-102445476D01*
X130055404Y-102445475D01*
X130055402Y-102445474D01*
X129880025Y-102356116D01*
X129692821Y-102295289D01*
X129498420Y-102264500D01*
X129498417Y-102264500D01*
X129301583Y-102264500D01*
X129301580Y-102264500D01*
X129107178Y-102295289D01*
X128919974Y-102356116D01*
X128744597Y-102445474D01*
X128585355Y-102561171D01*
X128446171Y-102700355D01*
X128330474Y-102859597D01*
X128241116Y-103034974D01*
X128180289Y-103222178D01*
X128149500Y-103416579D01*
X124588000Y-103416579D01*
X124588000Y-100793379D01*
X140499500Y-100793379D01*
X140499500Y-101906620D01*
X140505913Y-101977194D01*
X140556521Y-102139605D01*
X140556522Y-102139607D01*
X140597148Y-102206809D01*
X140644528Y-102285185D01*
X140764815Y-102405472D01*
X140910394Y-102493478D01*
X141072804Y-102544086D01*
X141143384Y-102550500D01*
X141800500Y-102550500D01*
X141858691Y-102569407D01*
X141894655Y-102618907D01*
X141899500Y-102649500D01*
X141899500Y-106500541D01*
X141880593Y-106558732D01*
X141860768Y-106579082D01*
X141814552Y-106614544D01*
X141722301Y-106734768D01*
X141664314Y-106874761D01*
X141664312Y-106874767D01*
X141649500Y-106987279D01*
X141649500Y-108312720D01*
X141664312Y-108425232D01*
X141664314Y-108425238D01*
X141722197Y-108564981D01*
X141722302Y-108565233D01*
X141814549Y-108685451D01*
X141934767Y-108777698D01*
X141934768Y-108777698D01*
X141934769Y-108777699D01*
X141974500Y-108794156D01*
X142038385Y-108820618D01*
X142084911Y-108860354D01*
X142099500Y-108912082D01*
X142099500Y-109882744D01*
X142080593Y-109940935D01*
X142070504Y-109952747D01*
X142026473Y-109996778D01*
X142026470Y-109996782D01*
X141965283Y-110116867D01*
X141965281Y-110116874D01*
X141952999Y-110194422D01*
X141949500Y-110216512D01*
X141949500Y-110783488D01*
X141961014Y-110856188D01*
X141965281Y-110883125D01*
X141965283Y-110883132D01*
X142026470Y-111003217D01*
X142026472Y-111003220D01*
X142070505Y-111047253D01*
X142098281Y-111101768D01*
X142099500Y-111117255D01*
X142099500Y-111965892D01*
X142129579Y-112078151D01*
X142133609Y-112093190D01*
X142199496Y-112207309D01*
X142199498Y-112207311D01*
X142199500Y-112207314D01*
X142292686Y-112300500D01*
X142292688Y-112300501D01*
X142292690Y-112300503D01*
X142406810Y-112366390D01*
X142406808Y-112366390D01*
X142406812Y-112366391D01*
X142406814Y-112366392D01*
X142534108Y-112400500D01*
X142534110Y-112400500D01*
X142665890Y-112400500D01*
X142665892Y-112400500D01*
X142793186Y-112366392D01*
X142793188Y-112366390D01*
X142793190Y-112366390D01*
X142907309Y-112300503D01*
X142907309Y-112300502D01*
X142907314Y-112300500D01*
X143000500Y-112207314D01*
X143066392Y-112093186D01*
X143100500Y-111965892D01*
X143100500Y-111117255D01*
X143119407Y-111059064D01*
X143129490Y-111047257D01*
X143173528Y-111003220D01*
X143234719Y-110883126D01*
X143250500Y-110783488D01*
X143250500Y-110216512D01*
X143234719Y-110116874D01*
X143234716Y-110116869D01*
X143234716Y-110116867D01*
X143173529Y-109996782D01*
X143173528Y-109996780D01*
X143161614Y-109984866D01*
X143129496Y-109952747D01*
X143101719Y-109898230D01*
X143100500Y-109882744D01*
X143100500Y-108912082D01*
X143119407Y-108853891D01*
X143161614Y-108820618D01*
X143265233Y-108777698D01*
X143385451Y-108685451D01*
X143477698Y-108565233D01*
X143535687Y-108425236D01*
X143550500Y-108312720D01*
X143550500Y-106987280D01*
X143535687Y-106874764D01*
X143477698Y-106734767D01*
X143385451Y-106614549D01*
X143385450Y-106614548D01*
X143385447Y-106614544D01*
X143339232Y-106579082D01*
X143304577Y-106528658D01*
X143300500Y-106500541D01*
X143300500Y-102649500D01*
X143319407Y-102591309D01*
X143368907Y-102555345D01*
X143399500Y-102550500D01*
X144056611Y-102550500D01*
X144056616Y-102550500D01*
X144127196Y-102544086D01*
X144289606Y-102493478D01*
X144435185Y-102405472D01*
X144555472Y-102285185D01*
X144643478Y-102139606D01*
X144694086Y-101977196D01*
X144700500Y-101906616D01*
X144700500Y-100793384D01*
X144694086Y-100722804D01*
X144643478Y-100560394D01*
X144555472Y-100414815D01*
X144435185Y-100294528D01*
X144323074Y-100226754D01*
X144289607Y-100206522D01*
X144289605Y-100206521D01*
X144127194Y-100155913D01*
X144056620Y-100149500D01*
X144056616Y-100149500D01*
X141143384Y-100149500D01*
X141143379Y-100149500D01*
X141072805Y-100155913D01*
X140910394Y-100206521D01*
X140910392Y-100206522D01*
X140764816Y-100294527D01*
X140644527Y-100414816D01*
X140556522Y-100560392D01*
X140556521Y-100560394D01*
X140505913Y-100722805D01*
X140499500Y-100793379D01*
X124588000Y-100793379D01*
X124588000Y-97516581D01*
X128145000Y-97516581D01*
X128145000Y-97723418D01*
X128185349Y-97926272D01*
X128264501Y-98117361D01*
X128353022Y-98249843D01*
X128751328Y-97851536D01*
X128794901Y-97927007D01*
X128887993Y-98020099D01*
X128963460Y-98063670D01*
X128565154Y-98461977D01*
X128697625Y-98550491D01*
X128697639Y-98550498D01*
X128888727Y-98629650D01*
X129091581Y-98669999D01*
X129091586Y-98670000D01*
X129298414Y-98670000D01*
X129298418Y-98669999D01*
X129501272Y-98629650D01*
X129692360Y-98550498D01*
X129824843Y-98461976D01*
X129426538Y-98063671D01*
X129502007Y-98020099D01*
X129595099Y-97927007D01*
X129638671Y-97851538D01*
X130036976Y-98249843D01*
X130125498Y-98117360D01*
X130204650Y-97926272D01*
X130244999Y-97723418D01*
X130245000Y-97723413D01*
X130245000Y-97516586D01*
X130244999Y-97516581D01*
X130685000Y-97516581D01*
X130685000Y-97723418D01*
X130725349Y-97926272D01*
X130804501Y-98117361D01*
X130893022Y-98249843D01*
X131291328Y-97851536D01*
X131334901Y-97927007D01*
X131427993Y-98020099D01*
X131503460Y-98063670D01*
X131105154Y-98461977D01*
X131237625Y-98550491D01*
X131237639Y-98550498D01*
X131428727Y-98629650D01*
X131631581Y-98669999D01*
X131631586Y-98670000D01*
X131838414Y-98670000D01*
X131838418Y-98669999D01*
X132041272Y-98629650D01*
X132232360Y-98550498D01*
X132364843Y-98461976D01*
X131966538Y-98063671D01*
X132042007Y-98020099D01*
X132135099Y-97927007D01*
X132178671Y-97851538D01*
X132576976Y-98249843D01*
X132665498Y-98117360D01*
X132744650Y-97926272D01*
X132784999Y-97723418D01*
X132785000Y-97723413D01*
X132785000Y-97516586D01*
X132784999Y-97516581D01*
X132744650Y-97313727D01*
X132665498Y-97122639D01*
X132665491Y-97122625D01*
X132576976Y-96990154D01*
X132178670Y-97388460D01*
X132135099Y-97312993D01*
X132042007Y-97219901D01*
X131966536Y-97176328D01*
X132364843Y-96778022D01*
X132232361Y-96689501D01*
X132041272Y-96610349D01*
X131838418Y-96570000D01*
X131631581Y-96570000D01*
X131428727Y-96610349D01*
X131237638Y-96689501D01*
X131105155Y-96778022D01*
X131503461Y-97176328D01*
X131427993Y-97219901D01*
X131334901Y-97312993D01*
X131291328Y-97388461D01*
X130893022Y-96990155D01*
X130804501Y-97122638D01*
X130725349Y-97313727D01*
X130685000Y-97516581D01*
X130244999Y-97516581D01*
X130204650Y-97313727D01*
X130125498Y-97122639D01*
X130125491Y-97122625D01*
X130036976Y-96990154D01*
X129638670Y-97388460D01*
X129595099Y-97312993D01*
X129502007Y-97219901D01*
X129426536Y-97176328D01*
X129824843Y-96778022D01*
X129692361Y-96689501D01*
X129501272Y-96610349D01*
X129298418Y-96570000D01*
X129091581Y-96570000D01*
X128888727Y-96610349D01*
X128697638Y-96689501D01*
X128565155Y-96778022D01*
X128963461Y-97176328D01*
X128887993Y-97219901D01*
X128794901Y-97312993D01*
X128751328Y-97388461D01*
X128353022Y-96990155D01*
X128264501Y-97122638D01*
X128185349Y-97313727D01*
X128145000Y-97516581D01*
X124588000Y-97516581D01*
X124588000Y-94976532D01*
X128144500Y-94976532D01*
X128144500Y-95183467D01*
X128184869Y-95386418D01*
X128264058Y-95577597D01*
X128322812Y-95665529D01*
X128379023Y-95749655D01*
X128525345Y-95895977D01*
X128697402Y-96010941D01*
X128888580Y-96090130D01*
X129091535Y-96130500D01*
X129091536Y-96130500D01*
X129298464Y-96130500D01*
X129298465Y-96130500D01*
X129501420Y-96090130D01*
X129692598Y-96010941D01*
X129864655Y-95895977D01*
X130010977Y-95749655D01*
X130125941Y-95577598D01*
X130205130Y-95386420D01*
X130245500Y-95183465D01*
X130245500Y-94976535D01*
X130245499Y-94976532D01*
X130684500Y-94976532D01*
X130684500Y-95183467D01*
X130724869Y-95386418D01*
X130804058Y-95577597D01*
X130862812Y-95665529D01*
X130919023Y-95749655D01*
X131065345Y-95895977D01*
X131237402Y-96010941D01*
X131428580Y-96090130D01*
X131631535Y-96130500D01*
X131631536Y-96130500D01*
X131838464Y-96130500D01*
X131838465Y-96130500D01*
X132041420Y-96090130D01*
X132232598Y-96010941D01*
X132404655Y-95895977D01*
X132550977Y-95749655D01*
X132665941Y-95577598D01*
X132722268Y-95441614D01*
X132762005Y-95395088D01*
X132813732Y-95380500D01*
X134259563Y-95380500D01*
X134259563Y-95380499D01*
X134335989Y-95360021D01*
X134404511Y-95320460D01*
X134460460Y-95264511D01*
X135340460Y-94384511D01*
X135354624Y-94359978D01*
X135380021Y-94315989D01*
X135400500Y-94239562D01*
X135400500Y-87765479D01*
X135419407Y-87707288D01*
X135429496Y-87695475D01*
X136965496Y-86159475D01*
X137020013Y-86131698D01*
X137080445Y-86141269D01*
X137123710Y-86184534D01*
X137128695Y-86196077D01*
X137134500Y-86212273D01*
X137134500Y-86239748D01*
X137146133Y-86298231D01*
X137187492Y-86360128D01*
X137191603Y-86371598D01*
X137192172Y-86390593D01*
X137197332Y-86408886D01*
X137193110Y-86421877D01*
X137193437Y-86432756D01*
X137186059Y-86443578D01*
X137180723Y-86460002D01*
X137146134Y-86511766D01*
X137146132Y-86511772D01*
X137134501Y-86570241D01*
X137134500Y-86570253D01*
X137134500Y-87509746D01*
X137134501Y-87509758D01*
X137146132Y-87568227D01*
X137146134Y-87568233D01*
X137180723Y-87619998D01*
X137197332Y-87678886D01*
X137180723Y-87730002D01*
X137146134Y-87781766D01*
X137146132Y-87781772D01*
X137134501Y-87840241D01*
X137134500Y-87840253D01*
X137134500Y-88779746D01*
X137134501Y-88779758D01*
X137146132Y-88838227D01*
X137146134Y-88838233D01*
X137180723Y-88889998D01*
X137197332Y-88948886D01*
X137180723Y-89000002D01*
X137146134Y-89051766D01*
X137146132Y-89051772D01*
X137134501Y-89110241D01*
X137134500Y-89110253D01*
X137134500Y-90049746D01*
X137134501Y-90049758D01*
X137146132Y-90108227D01*
X137146134Y-90108233D01*
X137180723Y-90159998D01*
X137197332Y-90218886D01*
X137180723Y-90270002D01*
X137146134Y-90321766D01*
X137146132Y-90321772D01*
X137134501Y-90380241D01*
X137134500Y-90380253D01*
X137134500Y-90450500D01*
X137115593Y-90508691D01*
X137066093Y-90544655D01*
X137035500Y-90549500D01*
X136089562Y-90549500D01*
X136010438Y-90549500D01*
X135963661Y-90562033D01*
X135934007Y-90569979D01*
X135865493Y-90609536D01*
X135865487Y-90609540D01*
X135815488Y-90659540D01*
X135759539Y-90715489D01*
X135719980Y-90784007D01*
X135719978Y-90784011D01*
X135699500Y-90860435D01*
X135699500Y-99439564D01*
X135719978Y-99515988D01*
X135719980Y-99515992D01*
X135755807Y-99578045D01*
X135759540Y-99584511D01*
X135815489Y-99640460D01*
X135815491Y-99640461D01*
X135884007Y-99680019D01*
X135884011Y-99680021D01*
X135960435Y-99700499D01*
X135960437Y-99700500D01*
X135960438Y-99700500D01*
X136039562Y-99700500D01*
X147434521Y-99700500D01*
X147492712Y-99719407D01*
X147504525Y-99729496D01*
X155459540Y-107684511D01*
X155459539Y-107684511D01*
X155515489Y-107740460D01*
X155584007Y-107780019D01*
X155584011Y-107780021D01*
X155660435Y-107800499D01*
X155660437Y-107800500D01*
X155660438Y-107800500D01*
X155739562Y-107800500D01*
X158465024Y-107800500D01*
X158523215Y-107819407D01*
X158535028Y-107829496D01*
X158535934Y-107830402D01*
X158535935Y-107830404D01*
X158619596Y-107914065D01*
X158619597Y-107914065D01*
X158619598Y-107914066D01*
X158726824Y-107964067D01*
X158726825Y-107964067D01*
X158726827Y-107964068D01*
X158775684Y-107970500D01*
X158775685Y-107970500D01*
X159224314Y-107970500D01*
X159224316Y-107970500D01*
X159273173Y-107964068D01*
X159380404Y-107914065D01*
X159434576Y-107859892D01*
X159489090Y-107832116D01*
X159549522Y-107841687D01*
X159574582Y-107859893D01*
X160455149Y-108740460D01*
X160455151Y-108740461D01*
X160455152Y-108740462D01*
X160455153Y-108740463D01*
X160523668Y-108780020D01*
X160523666Y-108780020D01*
X160523670Y-108780021D01*
X160523672Y-108780022D01*
X160600098Y-108800500D01*
X162731635Y-108800500D01*
X162789826Y-108819407D01*
X162804414Y-108832386D01*
X162814220Y-108843020D01*
X162820802Y-108856483D01*
X162895740Y-108931421D01*
X162897091Y-108932886D01*
X162909071Y-108958955D01*
X162922093Y-108984513D01*
X162921765Y-108986579D01*
X162922640Y-108988482D01*
X162917008Y-109016615D01*
X162912522Y-109044945D01*
X162910887Y-109047194D01*
X162910631Y-109048478D01*
X162908583Y-109050366D01*
X162894318Y-109070000D01*
X162857010Y-109107309D01*
X162820801Y-109143518D01*
X162769427Y-109248604D01*
X162769427Y-109248607D01*
X162759500Y-109316740D01*
X162759500Y-109683260D01*
X162760947Y-109693190D01*
X162769427Y-109751395D01*
X162820801Y-109856481D01*
X162820802Y-109856483D01*
X162894670Y-109930351D01*
X162922446Y-109984866D01*
X162912875Y-110045298D01*
X162894669Y-110070357D01*
X162821213Y-110143812D01*
X162769912Y-110248751D01*
X162760000Y-110316784D01*
X162760000Y-110349999D01*
X162760001Y-110350000D01*
X164709998Y-110350000D01*
X164709999Y-110349999D01*
X164709999Y-110316786D01*
X164709998Y-110316783D01*
X164700087Y-110248749D01*
X164648785Y-110143811D01*
X164575331Y-110070357D01*
X164569098Y-110058124D01*
X164559009Y-110048818D01*
X164555553Y-110031539D01*
X164547554Y-110015840D01*
X164549701Y-110002281D01*
X164547009Y-109988821D01*
X164554176Y-109974022D01*
X164557125Y-109955408D01*
X164572566Y-109933229D01*
X164573921Y-109931759D01*
X164649198Y-109856483D01*
X164655781Y-109843015D01*
X164665596Y-109832376D01*
X164680266Y-109824139D01*
X164691965Y-109812047D01*
X164709640Y-109807648D01*
X164718948Y-109802423D01*
X164726893Y-109803354D01*
X164738365Y-109800500D01*
X164751679Y-109800500D01*
X164779428Y-109809516D01*
X164779717Y-109809550D01*
X164779817Y-109809642D01*
X164809870Y-109819407D01*
X164821676Y-109829490D01*
X164892686Y-109900500D01*
X164892688Y-109900501D01*
X164892690Y-109900503D01*
X165006810Y-109966390D01*
X165006808Y-109966390D01*
X165006812Y-109966391D01*
X165006814Y-109966392D01*
X165134108Y-110000500D01*
X165134110Y-110000500D01*
X165265890Y-110000500D01*
X165265892Y-110000500D01*
X165393186Y-109966392D01*
X165393188Y-109966390D01*
X165393190Y-109966390D01*
X165507309Y-109900503D01*
X165507309Y-109900502D01*
X165507314Y-109900500D01*
X165600500Y-109807314D01*
X165641520Y-109736266D01*
X165666390Y-109693190D01*
X165666390Y-109693188D01*
X165666392Y-109693186D01*
X165700500Y-109565892D01*
X165700500Y-109434108D01*
X165666392Y-109306814D01*
X165666390Y-109306811D01*
X165666390Y-109306809D01*
X165600503Y-109192690D01*
X165600501Y-109192688D01*
X165600500Y-109192686D01*
X165507314Y-109099500D01*
X165507311Y-109099498D01*
X165507309Y-109099496D01*
X165393189Y-109033609D01*
X165393191Y-109033609D01*
X165343799Y-109020375D01*
X165265892Y-108999500D01*
X165134108Y-108999500D01*
X165056200Y-109020375D01*
X165006809Y-109033609D01*
X164892690Y-109099496D01*
X164892689Y-109099497D01*
X164892686Y-109099499D01*
X164892686Y-109099500D01*
X164821680Y-109170505D01*
X164814565Y-109174130D01*
X164809870Y-109180593D01*
X164787821Y-109187756D01*
X164767166Y-109198281D01*
X164751679Y-109199500D01*
X164738365Y-109199500D01*
X164680174Y-109180593D01*
X164654389Y-109149891D01*
X164653965Y-109150194D01*
X164650115Y-109144802D01*
X164649423Y-109143978D01*
X164649198Y-109143518D01*
X164649198Y-109143517D01*
X164575682Y-109070001D01*
X164547907Y-109015487D01*
X164557478Y-108955055D01*
X164575681Y-108929999D01*
X164649198Y-108856483D01*
X164700573Y-108751393D01*
X164710500Y-108683260D01*
X164710500Y-108316740D01*
X164700573Y-108248607D01*
X164689750Y-108226469D01*
X164662391Y-108170504D01*
X164649198Y-108143517D01*
X164575682Y-108070001D01*
X164547907Y-108015487D01*
X164557478Y-107955055D01*
X164575681Y-107929999D01*
X164649198Y-107856483D01*
X164700573Y-107751393D01*
X164710500Y-107683260D01*
X164710500Y-107316740D01*
X164700573Y-107248607D01*
X164684899Y-107216546D01*
X164659202Y-107163981D01*
X164649198Y-107143517D01*
X164566483Y-107060802D01*
X164560745Y-107057997D01*
X164461395Y-107009427D01*
X164434139Y-107005456D01*
X164393260Y-106999500D01*
X163076740Y-106999500D01*
X163042673Y-107004463D01*
X163008604Y-107009427D01*
X162903518Y-107060801D01*
X162820800Y-107143519D01*
X162820799Y-107143521D01*
X162810797Y-107163981D01*
X162768254Y-107207955D01*
X162721857Y-107219500D01*
X161134976Y-107219500D01*
X161130512Y-107218049D01*
X161125937Y-107219086D01*
X161108406Y-107210867D01*
X161076785Y-107200593D01*
X161069716Y-107194945D01*
X161064376Y-107190264D01*
X161064065Y-107189596D01*
X160980404Y-107105935D01*
X160954284Y-107093755D01*
X160943664Y-107084445D01*
X160934887Y-107069700D01*
X160922337Y-107057997D01*
X160919628Y-107044064D01*
X160912369Y-107031868D01*
X160913936Y-107014778D01*
X160910662Y-106997936D01*
X160916659Y-106985072D01*
X160917956Y-106970939D01*
X160929266Y-106958036D01*
X160936519Y-106942483D01*
X160954094Y-106929713D01*
X160958289Y-106924929D01*
X160961763Y-106924142D01*
X160967084Y-106920275D01*
X160980404Y-106914065D01*
X161064065Y-106830404D01*
X161114068Y-106723173D01*
X161120500Y-106674316D01*
X161120500Y-106325684D01*
X161114068Y-106276827D01*
X161106231Y-106260021D01*
X161064066Y-106169598D01*
X161064065Y-106169597D01*
X161064065Y-106169596D01*
X160980404Y-106085935D01*
X160980402Y-106085934D01*
X160980401Y-106085933D01*
X160957659Y-106075328D01*
X160912912Y-106033598D01*
X160900500Y-105985604D01*
X160900500Y-105448321D01*
X160919407Y-105390130D01*
X160929490Y-105378323D01*
X161000500Y-105307314D01*
X161000503Y-105307309D01*
X161066390Y-105193190D01*
X161066390Y-105193188D01*
X161066392Y-105193186D01*
X161100500Y-105065892D01*
X161100500Y-104934108D01*
X161066392Y-104806814D01*
X161066390Y-104806811D01*
X161066390Y-104806809D01*
X161000503Y-104692690D01*
X161000501Y-104692688D01*
X161000500Y-104692686D01*
X160907314Y-104599500D01*
X160907311Y-104599498D01*
X160907309Y-104599496D01*
X160793189Y-104533609D01*
X160793191Y-104533609D01*
X160743799Y-104520375D01*
X160665892Y-104499500D01*
X160534108Y-104499500D01*
X160456200Y-104520375D01*
X160406809Y-104533609D01*
X160292690Y-104599496D01*
X160199496Y-104692690D01*
X160133609Y-104806809D01*
X160116322Y-104871325D01*
X160099500Y-104934108D01*
X160099500Y-105065892D01*
X160110930Y-105108549D01*
X160133609Y-105193190D01*
X160199496Y-105307309D01*
X160199498Y-105307311D01*
X160199500Y-105307314D01*
X160270505Y-105378319D01*
X160298281Y-105432834D01*
X160299500Y-105448321D01*
X160299500Y-105735521D01*
X160280593Y-105793712D01*
X160231093Y-105829676D01*
X160169907Y-105829676D01*
X160130496Y-105805525D01*
X160084511Y-105759540D01*
X160084511Y-105759539D01*
X159684511Y-105359540D01*
X159670537Y-105351472D01*
X159615989Y-105319979D01*
X159615987Y-105319978D01*
X159615985Y-105319977D01*
X159539564Y-105299500D01*
X159539562Y-105299500D01*
X155365479Y-105299500D01*
X155307288Y-105280593D01*
X155295475Y-105270504D01*
X153094567Y-103069596D01*
X150958424Y-100933453D01*
X159425000Y-100933453D01*
X159440760Y-101032965D01*
X159440762Y-101032969D01*
X159501881Y-101152921D01*
X159597078Y-101248118D01*
X159717030Y-101309237D01*
X159717029Y-101309237D01*
X159816545Y-101324999D01*
X159950000Y-101324999D01*
X159950000Y-100825001D01*
X160250000Y-100825001D01*
X160250000Y-101324998D01*
X160250001Y-101324999D01*
X160383453Y-101324999D01*
X160482965Y-101309239D01*
X160482969Y-101309237D01*
X160602921Y-101248118D01*
X160698118Y-101152921D01*
X160759237Y-101032969D01*
X160775000Y-100933453D01*
X160775000Y-100825001D01*
X160774999Y-100825000D01*
X160250001Y-100825000D01*
X160250000Y-100825001D01*
X159950000Y-100825001D01*
X159949999Y-100825000D01*
X159425002Y-100825000D01*
X159425001Y-100825001D01*
X159425001Y-100933453D01*
X159425000Y-100933453D01*
X150958424Y-100933453D01*
X150441517Y-100416546D01*
X159425000Y-100416546D01*
X159425000Y-100524999D01*
X159425001Y-100525000D01*
X159949999Y-100525000D01*
X159950000Y-100524999D01*
X159950000Y-100025001D01*
X160250000Y-100025001D01*
X160250000Y-100524999D01*
X160250001Y-100525000D01*
X160774998Y-100525000D01*
X160774999Y-100524999D01*
X160774999Y-100416546D01*
X160759239Y-100317034D01*
X160759237Y-100317030D01*
X160698118Y-100197078D01*
X160602921Y-100101881D01*
X160583925Y-100092202D01*
X160491288Y-100045001D01*
X162175000Y-100045001D01*
X162175000Y-100063356D01*
X162190231Y-100139923D01*
X162190230Y-100139923D01*
X162248246Y-100226749D01*
X162248251Y-100226754D01*
X162335076Y-100284770D01*
X162374999Y-100292710D01*
X162375000Y-100292710D01*
X162375000Y-100045001D01*
X162625000Y-100045001D01*
X162625000Y-100292710D01*
X162664923Y-100284770D01*
X162751748Y-100226754D01*
X162751753Y-100226749D01*
X162809768Y-100139923D01*
X162824999Y-100063356D01*
X162825000Y-100063354D01*
X162825000Y-100045001D01*
X162824999Y-100045000D01*
X162625001Y-100045000D01*
X162625000Y-100045001D01*
X162375000Y-100045001D01*
X162374999Y-100045000D01*
X162175001Y-100045000D01*
X162175000Y-100045001D01*
X160491288Y-100045001D01*
X160482969Y-100040762D01*
X160482970Y-100040762D01*
X160383454Y-100025000D01*
X160250001Y-100025000D01*
X160250000Y-100025001D01*
X159950000Y-100025001D01*
X159949999Y-100025000D01*
X159816547Y-100025000D01*
X159816546Y-100025001D01*
X159717034Y-100040760D01*
X159717030Y-100040762D01*
X159597078Y-100101881D01*
X159501881Y-100197078D01*
X159440762Y-100317030D01*
X159425000Y-100416546D01*
X150441517Y-100416546D01*
X148783511Y-98758540D01*
X148783508Y-98758538D01*
X148714992Y-98718980D01*
X148714988Y-98718978D01*
X148638564Y-98698500D01*
X148638562Y-98698500D01*
X145764479Y-98698500D01*
X145706288Y-98679593D01*
X145694475Y-98669504D01*
X142784475Y-95759504D01*
X142756698Y-95704987D01*
X142766269Y-95644555D01*
X142809534Y-95601290D01*
X142820213Y-95596619D01*
X142836799Y-95590500D01*
X142859748Y-95590500D01*
X142918231Y-95578867D01*
X142979744Y-95537764D01*
X142990734Y-95533710D01*
X143010166Y-95532946D01*
X143028885Y-95527667D01*
X143041361Y-95531720D01*
X143051872Y-95531308D01*
X143063023Y-95538759D01*
X143079998Y-95544274D01*
X143131769Y-95578867D01*
X143176231Y-95587711D01*
X143190241Y-95590498D01*
X143190246Y-95590498D01*
X143190252Y-95590500D01*
X143190253Y-95590500D01*
X144129747Y-95590500D01*
X144129748Y-95590500D01*
X144188231Y-95578867D01*
X144240000Y-95544274D01*
X144298885Y-95527667D01*
X144349998Y-95544274D01*
X144401769Y-95578867D01*
X144446231Y-95587711D01*
X144460241Y-95590498D01*
X144460246Y-95590498D01*
X144460252Y-95590500D01*
X144460253Y-95590500D01*
X145399747Y-95590500D01*
X145399748Y-95590500D01*
X145458231Y-95578867D01*
X145510000Y-95544274D01*
X145568885Y-95527667D01*
X145619998Y-95544274D01*
X145671769Y-95578867D01*
X145716231Y-95587711D01*
X145730241Y-95590498D01*
X145730246Y-95590498D01*
X145730252Y-95590500D01*
X145800500Y-95590500D01*
X145815412Y-95595345D01*
X145831093Y-95595345D01*
X145843778Y-95604561D01*
X145858691Y-95609407D01*
X145867907Y-95622092D01*
X145880593Y-95631309D01*
X145885438Y-95646221D01*
X145894655Y-95658907D01*
X145899500Y-95689500D01*
X145899500Y-95866159D01*
X145886236Y-95915659D01*
X145833609Y-96006809D01*
X145833608Y-96006814D01*
X145799500Y-96134108D01*
X145799500Y-96265892D01*
X145808506Y-96299503D01*
X145833609Y-96393190D01*
X145899496Y-96507309D01*
X145899498Y-96507311D01*
X145899500Y-96507314D01*
X145992686Y-96600500D01*
X145992688Y-96600501D01*
X145992690Y-96600503D01*
X146106810Y-96666390D01*
X146106808Y-96666390D01*
X146106812Y-96666391D01*
X146106814Y-96666392D01*
X146234108Y-96700500D01*
X146234110Y-96700500D01*
X146365890Y-96700500D01*
X146365892Y-96700500D01*
X146493186Y-96666392D01*
X146493188Y-96666390D01*
X146493190Y-96666390D01*
X146607309Y-96600503D01*
X146607309Y-96600502D01*
X146607314Y-96600500D01*
X146700500Y-96507314D01*
X146729650Y-96456825D01*
X146766390Y-96393190D01*
X146766390Y-96393188D01*
X146766392Y-96393186D01*
X146800500Y-96265892D01*
X146800500Y-96134108D01*
X146766392Y-96006814D01*
X146766390Y-96006811D01*
X146766390Y-96006809D01*
X146700503Y-95892690D01*
X146700501Y-95892688D01*
X146700500Y-95892686D01*
X146607314Y-95799500D01*
X146607311Y-95799498D01*
X146607309Y-95799496D01*
X146565289Y-95775236D01*
X146524348Y-95729767D01*
X146517952Y-95668917D01*
X146548545Y-95615929D01*
X146604441Y-95591042D01*
X146614789Y-95590500D01*
X146669747Y-95590500D01*
X146669748Y-95590500D01*
X146728231Y-95578867D01*
X146780000Y-95544274D01*
X146838885Y-95527667D01*
X146889998Y-95544274D01*
X146941769Y-95578867D01*
X146986231Y-95587711D01*
X147000241Y-95590498D01*
X147000246Y-95590498D01*
X147000252Y-95590500D01*
X147000253Y-95590500D01*
X147939747Y-95590500D01*
X147939748Y-95590500D01*
X147998231Y-95578867D01*
X148050000Y-95544274D01*
X148108885Y-95527667D01*
X148159998Y-95544274D01*
X148211769Y-95578867D01*
X148256231Y-95587711D01*
X148270241Y-95590498D01*
X148270246Y-95590498D01*
X148270252Y-95590500D01*
X148340500Y-95590500D01*
X148398691Y-95609407D01*
X148434655Y-95658907D01*
X148439500Y-95689500D01*
X148439500Y-96215314D01*
X148420593Y-96273505D01*
X148397124Y-96294640D01*
X148397827Y-96295556D01*
X148392681Y-96299503D01*
X148299500Y-96392685D01*
X148299496Y-96392690D01*
X148233609Y-96506809D01*
X148214539Y-96577978D01*
X148199500Y-96634108D01*
X148199500Y-96765892D01*
X148223192Y-96854314D01*
X148233609Y-96893190D01*
X148299496Y-97007309D01*
X148299498Y-97007311D01*
X148299500Y-97007314D01*
X148392686Y-97100500D01*
X148392688Y-97100501D01*
X148392690Y-97100503D01*
X148506810Y-97166390D01*
X148506808Y-97166390D01*
X148506812Y-97166391D01*
X148506814Y-97166392D01*
X148634108Y-97200500D01*
X148634110Y-97200500D01*
X148765890Y-97200500D01*
X148765892Y-97200500D01*
X148893186Y-97166392D01*
X148893188Y-97166390D01*
X148893190Y-97166390D01*
X149007309Y-97100503D01*
X149007309Y-97100502D01*
X149007314Y-97100500D01*
X149100500Y-97007314D01*
X149100503Y-97007309D01*
X149166390Y-96893190D01*
X149166390Y-96893188D01*
X149166392Y-96893186D01*
X149200500Y-96765892D01*
X149200500Y-96634108D01*
X149166392Y-96506814D01*
X149166390Y-96506811D01*
X149166390Y-96506809D01*
X149100503Y-96392690D01*
X149100502Y-96392689D01*
X149100501Y-96392688D01*
X149100500Y-96392686D01*
X149069495Y-96361681D01*
X149041719Y-96307164D01*
X149040500Y-96291678D01*
X149040500Y-95689500D01*
X149059407Y-95631309D01*
X149108907Y-95595345D01*
X149139500Y-95590500D01*
X149209747Y-95590500D01*
X149209748Y-95590500D01*
X149268231Y-95578867D01*
X149320000Y-95544274D01*
X149378885Y-95527667D01*
X149429998Y-95544274D01*
X149481769Y-95578867D01*
X149526231Y-95587711D01*
X149540241Y-95590498D01*
X149540246Y-95590498D01*
X149540252Y-95590500D01*
X149540253Y-95590500D01*
X150479747Y-95590500D01*
X150479748Y-95590500D01*
X150538231Y-95578867D01*
X150590000Y-95544274D01*
X150648885Y-95527667D01*
X150699998Y-95544274D01*
X150751769Y-95578867D01*
X150796231Y-95587711D01*
X150810241Y-95590498D01*
X150810246Y-95590498D01*
X150810252Y-95590500D01*
X150810253Y-95590500D01*
X151749747Y-95590500D01*
X151749748Y-95590500D01*
X151749749Y-95590499D01*
X151749755Y-95590499D01*
X151781184Y-95584247D01*
X151841945Y-95591437D01*
X151886876Y-95632969D01*
X151899500Y-95681344D01*
X151899500Y-95934521D01*
X151880593Y-95992712D01*
X151870504Y-96004525D01*
X150704525Y-97170504D01*
X150697407Y-97174130D01*
X150692712Y-97180593D01*
X150670663Y-97187756D01*
X150650008Y-97198281D01*
X150634521Y-97199500D01*
X150448321Y-97199500D01*
X150390130Y-97180593D01*
X150378323Y-97170509D01*
X150307314Y-97099500D01*
X150307311Y-97099498D01*
X150307309Y-97099496D01*
X150193189Y-97033609D01*
X150193191Y-97033609D01*
X150143799Y-97020375D01*
X150065892Y-96999500D01*
X149934108Y-96999500D01*
X149856200Y-97020375D01*
X149806809Y-97033609D01*
X149692690Y-97099496D01*
X149599496Y-97192690D01*
X149533609Y-97306809D01*
X149519485Y-97359521D01*
X149499500Y-97434108D01*
X149499500Y-97565892D01*
X149533608Y-97693186D01*
X149533609Y-97693188D01*
X149533609Y-97693189D01*
X149599496Y-97807309D01*
X149599498Y-97807311D01*
X149599500Y-97807314D01*
X149692686Y-97900500D01*
X149692688Y-97900501D01*
X149692690Y-97900503D01*
X149806810Y-97966390D01*
X149806808Y-97966390D01*
X149806812Y-97966391D01*
X149806814Y-97966392D01*
X149934108Y-98000500D01*
X149934110Y-98000500D01*
X150065890Y-98000500D01*
X150065892Y-98000500D01*
X150193186Y-97966392D01*
X150193188Y-97966390D01*
X150193190Y-97966390D01*
X150307309Y-97900503D01*
X150307309Y-97900502D01*
X150307314Y-97900500D01*
X150378319Y-97829494D01*
X150432834Y-97801719D01*
X150448321Y-97800500D01*
X150839563Y-97800500D01*
X150839563Y-97800499D01*
X150915989Y-97780021D01*
X150984511Y-97740460D01*
X151040460Y-97684511D01*
X152440460Y-96284511D01*
X152440463Y-96284506D01*
X152451184Y-96265937D01*
X152451184Y-96265936D01*
X152451185Y-96265935D01*
X152480021Y-96215989D01*
X152500500Y-96139562D01*
X152500500Y-95689500D01*
X152519407Y-95631309D01*
X152568907Y-95595345D01*
X152599500Y-95590500D01*
X153019747Y-95590500D01*
X153019748Y-95590500D01*
X153078231Y-95578867D01*
X153130000Y-95544274D01*
X153188885Y-95527667D01*
X153239998Y-95544274D01*
X153291769Y-95578867D01*
X153336231Y-95587711D01*
X153350241Y-95590498D01*
X153350246Y-95590498D01*
X153350252Y-95590500D01*
X153350253Y-95590500D01*
X154289747Y-95590500D01*
X154289748Y-95590500D01*
X154348231Y-95578867D01*
X154414552Y-95534552D01*
X154458867Y-95468231D01*
X154470500Y-95409748D01*
X154470500Y-93981736D01*
X154489407Y-93923545D01*
X154538907Y-93887581D01*
X154600093Y-93887581D01*
X154649593Y-93923545D01*
X154651805Y-93926720D01*
X154690448Y-93984552D01*
X154756769Y-94028867D01*
X154801231Y-94037711D01*
X154815241Y-94040498D01*
X154815246Y-94040498D01*
X154815252Y-94040500D01*
X155185500Y-94040500D01*
X155243691Y-94059407D01*
X155279655Y-94108907D01*
X155284500Y-94139500D01*
X155284500Y-94551679D01*
X155265593Y-94609870D01*
X155255509Y-94621676D01*
X155184500Y-94692686D01*
X155184497Y-94692689D01*
X155184496Y-94692690D01*
X155118609Y-94806809D01*
X155118608Y-94806814D01*
X155084500Y-94934108D01*
X155084500Y-95065892D01*
X155114579Y-95178151D01*
X155118609Y-95193190D01*
X155184496Y-95307309D01*
X155184498Y-95307311D01*
X155184500Y-95307314D01*
X155277686Y-95400500D01*
X155277688Y-95400501D01*
X155277690Y-95400503D01*
X155391810Y-95466390D01*
X155391808Y-95466390D01*
X155391812Y-95466391D01*
X155391814Y-95466392D01*
X155519108Y-95500500D01*
X155519110Y-95500500D01*
X155650890Y-95500500D01*
X155650892Y-95500500D01*
X155778186Y-95466392D01*
X155778188Y-95466390D01*
X155778190Y-95466390D01*
X155892309Y-95400503D01*
X155892309Y-95400502D01*
X155892314Y-95400500D01*
X155985500Y-95307314D01*
X155985503Y-95307309D01*
X156051390Y-95193190D01*
X156051390Y-95193188D01*
X156051392Y-95193186D01*
X156085500Y-95065892D01*
X156085500Y-94934108D01*
X156051392Y-94806814D01*
X156051390Y-94806811D01*
X156051390Y-94806809D01*
X155985503Y-94692690D01*
X155985501Y-94692688D01*
X155985500Y-94692686D01*
X155914494Y-94621680D01*
X155886719Y-94567166D01*
X155885500Y-94551679D01*
X155885500Y-94139500D01*
X155904407Y-94081309D01*
X155953907Y-94045345D01*
X155984500Y-94040500D01*
X156354747Y-94040500D01*
X156354748Y-94040500D01*
X156413231Y-94028867D01*
X156479552Y-93984552D01*
X156523867Y-93918231D01*
X156535500Y-93859748D01*
X156535500Y-92920252D01*
X156523867Y-92861769D01*
X156489274Y-92809999D01*
X156472667Y-92751115D01*
X156489274Y-92700001D01*
X156523867Y-92648231D01*
X156535500Y-92589748D01*
X156535500Y-91650252D01*
X156523867Y-91591769D01*
X156489274Y-91539999D01*
X156472667Y-91481115D01*
X156489274Y-91430001D01*
X156523867Y-91378231D01*
X156535500Y-91319748D01*
X156535500Y-90380252D01*
X156523867Y-90321769D01*
X156489274Y-90269999D01*
X156472667Y-90211115D01*
X156489274Y-90160001D01*
X156523867Y-90108231D01*
X156535500Y-90049748D01*
X156535500Y-89660435D01*
X158199500Y-89660435D01*
X158199500Y-97564564D01*
X158219978Y-97640988D01*
X158219979Y-97640989D01*
X158250114Y-97693184D01*
X158250115Y-97693188D01*
X158250116Y-97693188D01*
X158259537Y-97709507D01*
X158259538Y-97709508D01*
X158259540Y-97709511D01*
X159395505Y-98845476D01*
X159423281Y-98899991D01*
X159424500Y-98915478D01*
X159424500Y-99383489D01*
X159429963Y-99417983D01*
X159436697Y-99460500D01*
X159440281Y-99483125D01*
X159440283Y-99483132D01*
X159491939Y-99584511D01*
X159501472Y-99603220D01*
X159596780Y-99698528D01*
X159596782Y-99698529D01*
X159716867Y-99759716D01*
X159716869Y-99759716D01*
X159716874Y-99759719D01*
X159792541Y-99771703D01*
X159816510Y-99775500D01*
X159816512Y-99775500D01*
X160383490Y-99775500D01*
X160404885Y-99772111D01*
X160483126Y-99759719D01*
X160603220Y-99698528D01*
X160698528Y-99603220D01*
X160759719Y-99483126D01*
X160762746Y-99464012D01*
X160790524Y-99409496D01*
X160845040Y-99381719D01*
X160860527Y-99380500D01*
X162207961Y-99380500D01*
X162262961Y-99397183D01*
X162294092Y-99417984D01*
X162331972Y-99466034D01*
X162334374Y-99527172D01*
X162300382Y-99578046D01*
X162294093Y-99582615D01*
X162248250Y-99613246D01*
X162248246Y-99613250D01*
X162190231Y-99700076D01*
X162175000Y-99776643D01*
X162175000Y-99794999D01*
X162175001Y-99795000D01*
X162824999Y-99795000D01*
X162825000Y-99794999D01*
X162825000Y-99776645D01*
X162824999Y-99776643D01*
X162809768Y-99700076D01*
X162809769Y-99700076D01*
X162751753Y-99613250D01*
X162751750Y-99613247D01*
X162705907Y-99582616D01*
X162703405Y-99579443D01*
X162699616Y-99578045D01*
X162684677Y-99555686D01*
X162668027Y-99534566D01*
X162667868Y-99530529D01*
X162665624Y-99527170D01*
X162666680Y-99500297D01*
X162665625Y-99473428D01*
X162667869Y-99470069D01*
X162668028Y-99466032D01*
X162684676Y-99444915D01*
X162699617Y-99422554D01*
X162705896Y-99417992D01*
X162733711Y-99399407D01*
X162737040Y-99397183D01*
X162792039Y-99380500D01*
X163550500Y-99380500D01*
X163608691Y-99399407D01*
X163644655Y-99448907D01*
X163649500Y-99479500D01*
X163649500Y-99969746D01*
X163649501Y-99969758D01*
X163661132Y-100028227D01*
X163661134Y-100028233D01*
X163705205Y-100094189D01*
X163705448Y-100094552D01*
X163771769Y-100138867D01*
X163816231Y-100147711D01*
X163830241Y-100150498D01*
X163830246Y-100150498D01*
X163830252Y-100150500D01*
X163830253Y-100150500D01*
X164769747Y-100150500D01*
X164769748Y-100150500D01*
X164828231Y-100138867D01*
X164894552Y-100094552D01*
X164938867Y-100028231D01*
X164950500Y-99969748D01*
X164950500Y-99250001D01*
X167050000Y-99250001D01*
X167050000Y-99969700D01*
X167061603Y-100028036D01*
X167105806Y-100094189D01*
X167105810Y-100094193D01*
X167171963Y-100138396D01*
X167230299Y-100149999D01*
X167230303Y-100150000D01*
X167549999Y-100150000D01*
X167550000Y-100149999D01*
X167550000Y-99250001D01*
X167850000Y-99250001D01*
X167850000Y-100149999D01*
X167850001Y-100150000D01*
X168169697Y-100150000D01*
X168169700Y-100149999D01*
X168228036Y-100138396D01*
X168294189Y-100094193D01*
X168294193Y-100094189D01*
X168338396Y-100028036D01*
X168349999Y-99969700D01*
X168350000Y-99969697D01*
X168350000Y-99250001D01*
X168349999Y-99250000D01*
X167850001Y-99250000D01*
X167850000Y-99250001D01*
X167550000Y-99250001D01*
X167549999Y-99250000D01*
X167050001Y-99250000D01*
X167050000Y-99250001D01*
X164950500Y-99250001D01*
X164950500Y-98230299D01*
X167050000Y-98230299D01*
X167050000Y-98949999D01*
X167050001Y-98950000D01*
X167549999Y-98950000D01*
X167550000Y-98949999D01*
X167550000Y-98050001D01*
X167850000Y-98050001D01*
X167850000Y-98949999D01*
X167850001Y-98950000D01*
X168349999Y-98950000D01*
X168350000Y-98949999D01*
X168350000Y-98230302D01*
X168349999Y-98230299D01*
X168338396Y-98171963D01*
X168294193Y-98105810D01*
X168294189Y-98105806D01*
X168228036Y-98061603D01*
X168169700Y-98050000D01*
X167850001Y-98050000D01*
X167850000Y-98050001D01*
X167550000Y-98050001D01*
X167549999Y-98050000D01*
X167230299Y-98050000D01*
X167171963Y-98061603D01*
X167105810Y-98105806D01*
X167105806Y-98105810D01*
X167061603Y-98171963D01*
X167050000Y-98230299D01*
X164950500Y-98230299D01*
X164950500Y-98230252D01*
X164938867Y-98171769D01*
X164894552Y-98105448D01*
X164894548Y-98105445D01*
X164828233Y-98061134D01*
X164828231Y-98061133D01*
X164828228Y-98061132D01*
X164828227Y-98061132D01*
X164769758Y-98049501D01*
X164769748Y-98049500D01*
X163830252Y-98049500D01*
X163830251Y-98049500D01*
X163830241Y-98049501D01*
X163771772Y-98061132D01*
X163771766Y-98061134D01*
X163705451Y-98105445D01*
X163705445Y-98105451D01*
X163661134Y-98171766D01*
X163661132Y-98171772D01*
X163649501Y-98230241D01*
X163649500Y-98230253D01*
X163649500Y-98680500D01*
X163630593Y-98738691D01*
X163581093Y-98774655D01*
X163550500Y-98779500D01*
X162792039Y-98779500D01*
X162737038Y-98762815D01*
X162665123Y-98714763D01*
X162665119Y-98714761D01*
X162665117Y-98714760D01*
X162665114Y-98714759D01*
X162665113Y-98714759D01*
X162588410Y-98699501D01*
X162588402Y-98699500D01*
X162588401Y-98699500D01*
X162588400Y-98699500D01*
X162411602Y-98699500D01*
X162411595Y-98699501D01*
X162334883Y-98714759D01*
X162334878Y-98714761D01*
X162262962Y-98762815D01*
X162207961Y-98779500D01*
X160826819Y-98779500D01*
X160768628Y-98760593D01*
X160738611Y-98725447D01*
X160698528Y-98646780D01*
X160603220Y-98551472D01*
X160603217Y-98551470D01*
X160483129Y-98490282D01*
X160475718Y-98487874D01*
X160476069Y-98486795D01*
X160468907Y-98486795D01*
X160450146Y-98473164D01*
X160429491Y-98462638D01*
X160425867Y-98455524D01*
X160419407Y-98450831D01*
X160412241Y-98428775D01*
X160401718Y-98408119D01*
X160400500Y-98392640D01*
X160400500Y-98214394D01*
X160419407Y-98156203D01*
X160457662Y-98124669D01*
X160480404Y-98114065D01*
X160564065Y-98030404D01*
X160614068Y-97923173D01*
X160620500Y-97874316D01*
X160620500Y-97525684D01*
X160614068Y-97476827D01*
X160590836Y-97427007D01*
X160564066Y-97369598D01*
X160564065Y-97369597D01*
X160564065Y-97369596D01*
X160480404Y-97285935D01*
X160467085Y-97279724D01*
X160422337Y-97237997D01*
X160410662Y-97177936D01*
X160436519Y-97122483D01*
X160467084Y-97100275D01*
X160480404Y-97094065D01*
X160564065Y-97010404D01*
X160614068Y-96903173D01*
X160620500Y-96854316D01*
X160620500Y-96505684D01*
X160614068Y-96456827D01*
X160584393Y-96393190D01*
X160564066Y-96349598D01*
X160564065Y-96349597D01*
X160564065Y-96349596D01*
X160480404Y-96265935D01*
X160480402Y-96265934D01*
X160480401Y-96265933D01*
X160457659Y-96255328D01*
X160439500Y-96238393D01*
X160419407Y-96223795D01*
X160417477Y-96217855D01*
X160412912Y-96213598D01*
X160400500Y-96165604D01*
X160400500Y-96148321D01*
X160419407Y-96090130D01*
X160429490Y-96078323D01*
X160500500Y-96007314D01*
X160502110Y-96004525D01*
X160566390Y-95893190D01*
X160566390Y-95893188D01*
X160566392Y-95893186D01*
X160600500Y-95765892D01*
X160600500Y-95634108D01*
X160566392Y-95506814D01*
X160566390Y-95506811D01*
X160566390Y-95506809D01*
X160500503Y-95392690D01*
X160500501Y-95392688D01*
X160500500Y-95392686D01*
X160407314Y-95299500D01*
X160407311Y-95299498D01*
X160407309Y-95299496D01*
X160293189Y-95233609D01*
X160293191Y-95233609D01*
X160243799Y-95220375D01*
X160165892Y-95199500D01*
X160034108Y-95199500D01*
X159956200Y-95220375D01*
X159906809Y-95233609D01*
X159792690Y-95299496D01*
X159699496Y-95392690D01*
X159633609Y-95506809D01*
X159626175Y-95534554D01*
X159599500Y-95634108D01*
X159599500Y-95765892D01*
X159616560Y-95829562D01*
X159633609Y-95893190D01*
X159699496Y-96007309D01*
X159699498Y-96007311D01*
X159699500Y-96007314D01*
X159770505Y-96078319D01*
X159774130Y-96085434D01*
X159780593Y-96090130D01*
X159787756Y-96112178D01*
X159798281Y-96132834D01*
X159799500Y-96148321D01*
X159799500Y-96165604D01*
X159780593Y-96223795D01*
X159742341Y-96255328D01*
X159719598Y-96265933D01*
X159635933Y-96349598D01*
X159585932Y-96456824D01*
X159585932Y-96456825D01*
X159579500Y-96505685D01*
X159579500Y-96854314D01*
X159585932Y-96903174D01*
X159585932Y-96903175D01*
X159635933Y-97010401D01*
X159635934Y-97010402D01*
X159635935Y-97010404D01*
X159719596Y-97094065D01*
X159719597Y-97094065D01*
X159719598Y-97094066D01*
X159732915Y-97100276D01*
X159777663Y-97142005D01*
X159789337Y-97202066D01*
X159763478Y-97257518D01*
X159732915Y-97279724D01*
X159719598Y-97285933D01*
X159635933Y-97369598D01*
X159585932Y-97476824D01*
X159585932Y-97476825D01*
X159585932Y-97476827D01*
X159579500Y-97525684D01*
X159579500Y-97874316D01*
X159585932Y-97923173D01*
X159585933Y-97923179D01*
X159585947Y-97923226D01*
X159585945Y-97923272D01*
X159586921Y-97930681D01*
X159585713Y-97930839D01*
X159584073Y-97984383D01*
X159546610Y-98032758D01*
X159487868Y-98049875D01*
X159430283Y-98029194D01*
X159420896Y-98020925D01*
X158829496Y-97429525D01*
X158801719Y-97375008D01*
X158800500Y-97359521D01*
X158800500Y-92976532D01*
X161409500Y-92976532D01*
X161409500Y-93183467D01*
X161449869Y-93386418D01*
X161529058Y-93577597D01*
X161641210Y-93745445D01*
X161644023Y-93749655D01*
X161790345Y-93895977D01*
X161962402Y-94010941D01*
X162153580Y-94090130D01*
X162356535Y-94130500D01*
X162356536Y-94130500D01*
X162563464Y-94130500D01*
X162563465Y-94130500D01*
X162766420Y-94090130D01*
X162957598Y-94010941D01*
X163129655Y-93895977D01*
X163275977Y-93749655D01*
X163390941Y-93577598D01*
X163470130Y-93386420D01*
X163510500Y-93183465D01*
X163510500Y-92976535D01*
X163510499Y-92976532D01*
X163949500Y-92976532D01*
X163949500Y-93183467D01*
X163989869Y-93386418D01*
X164069058Y-93577597D01*
X164181210Y-93745445D01*
X164184023Y-93749655D01*
X164330345Y-93895977D01*
X164502402Y-94010941D01*
X164693580Y-94090130D01*
X164896535Y-94130500D01*
X164896536Y-94130500D01*
X165103464Y-94130500D01*
X165103465Y-94130500D01*
X165306420Y-94090130D01*
X165497598Y-94010941D01*
X165669655Y-93895977D01*
X165815977Y-93749655D01*
X165930941Y-93577598D01*
X166010130Y-93386420D01*
X166050500Y-93183465D01*
X166050500Y-92976535D01*
X166010130Y-92773580D01*
X165930941Y-92582402D01*
X165815977Y-92410345D01*
X165669655Y-92264023D01*
X165624094Y-92233580D01*
X165497597Y-92149058D01*
X165306418Y-92069869D01*
X165103467Y-92029500D01*
X165103465Y-92029500D01*
X164896535Y-92029500D01*
X164896532Y-92029500D01*
X164693581Y-92069869D01*
X164502402Y-92149058D01*
X164330348Y-92264020D01*
X164184020Y-92410348D01*
X164069058Y-92582402D01*
X163989869Y-92773581D01*
X163949500Y-92976532D01*
X163510499Y-92976532D01*
X163470130Y-92773580D01*
X163390941Y-92582402D01*
X163275977Y-92410345D01*
X163129655Y-92264023D01*
X163084094Y-92233580D01*
X162957597Y-92149058D01*
X162766418Y-92069869D01*
X162563467Y-92029500D01*
X162563465Y-92029500D01*
X162356535Y-92029500D01*
X162356532Y-92029500D01*
X162153581Y-92069869D01*
X161962402Y-92149058D01*
X161790348Y-92264020D01*
X161644020Y-92410348D01*
X161529058Y-92582402D01*
X161449869Y-92773581D01*
X161409500Y-92976532D01*
X158800500Y-92976532D01*
X158800500Y-90436532D01*
X161409500Y-90436532D01*
X161409500Y-90643467D01*
X161449869Y-90846418D01*
X161529058Y-91037597D01*
X161644020Y-91209651D01*
X161644023Y-91209655D01*
X161790345Y-91355977D01*
X161962402Y-91470941D01*
X162153580Y-91550130D01*
X162356535Y-91590500D01*
X162356536Y-91590500D01*
X162563464Y-91590500D01*
X162563465Y-91590500D01*
X162766420Y-91550130D01*
X162957598Y-91470941D01*
X163129655Y-91355977D01*
X163275977Y-91209655D01*
X163390941Y-91037598D01*
X163470130Y-90846420D01*
X163510500Y-90643465D01*
X163510500Y-90436581D01*
X163950000Y-90436581D01*
X163950000Y-90643418D01*
X163990349Y-90846272D01*
X164069501Y-91037361D01*
X164158022Y-91169843D01*
X164556328Y-90771536D01*
X164599901Y-90847007D01*
X164692993Y-90940099D01*
X164768460Y-90983670D01*
X164370154Y-91381977D01*
X164502625Y-91470491D01*
X164502639Y-91470498D01*
X164693727Y-91549650D01*
X164896581Y-91589999D01*
X164896586Y-91590000D01*
X165103414Y-91590000D01*
X165103418Y-91589999D01*
X165306272Y-91549650D01*
X165497360Y-91470498D01*
X165629843Y-91381976D01*
X165231538Y-90983671D01*
X165307007Y-90940099D01*
X165400099Y-90847007D01*
X165443671Y-90771538D01*
X165841976Y-91169843D01*
X165930498Y-91037360D01*
X166009650Y-90846272D01*
X166049999Y-90643418D01*
X166050000Y-90643413D01*
X166050000Y-90436586D01*
X166049999Y-90436581D01*
X166009650Y-90233727D01*
X165930498Y-90042639D01*
X165930491Y-90042625D01*
X165841976Y-89910154D01*
X165443670Y-90308460D01*
X165400099Y-90232993D01*
X165307007Y-90139901D01*
X165231536Y-90096328D01*
X165629843Y-89698022D01*
X165497361Y-89609501D01*
X165306272Y-89530349D01*
X165103418Y-89490000D01*
X164896581Y-89490000D01*
X164693727Y-89530349D01*
X164502638Y-89609501D01*
X164370155Y-89698022D01*
X164768461Y-90096328D01*
X164692993Y-90139901D01*
X164599901Y-90232993D01*
X164556328Y-90308461D01*
X164158022Y-89910155D01*
X164069501Y-90042638D01*
X163990349Y-90233727D01*
X163950000Y-90436581D01*
X163510500Y-90436581D01*
X163510500Y-90436535D01*
X163470130Y-90233580D01*
X163390941Y-90042402D01*
X163275977Y-89870345D01*
X163129655Y-89724023D01*
X163129651Y-89724020D01*
X162957597Y-89609058D01*
X162766418Y-89529869D01*
X162563467Y-89489500D01*
X162563465Y-89489500D01*
X162356535Y-89489500D01*
X162356532Y-89489500D01*
X162153581Y-89529869D01*
X161962402Y-89609058D01*
X161790348Y-89724020D01*
X161644020Y-89870348D01*
X161529058Y-90042402D01*
X161449869Y-90233581D01*
X161409500Y-90436532D01*
X158800500Y-90436532D01*
X158800500Y-89865479D01*
X158819407Y-89807288D01*
X158829496Y-89795475D01*
X160295475Y-88329496D01*
X160349992Y-88301719D01*
X160365479Y-88300500D01*
X161310500Y-88300500D01*
X161368691Y-88319407D01*
X161404655Y-88368907D01*
X161409500Y-88399500D01*
X161409500Y-88869746D01*
X161409501Y-88869758D01*
X161421132Y-88928227D01*
X161421134Y-88928233D01*
X161465445Y-88994548D01*
X161465448Y-88994552D01*
X161531769Y-89038867D01*
X161576231Y-89047711D01*
X161590241Y-89050498D01*
X161590246Y-89050498D01*
X161590252Y-89050500D01*
X161590253Y-89050500D01*
X163329747Y-89050500D01*
X163329748Y-89050500D01*
X163388231Y-89038867D01*
X163454552Y-88994552D01*
X163498867Y-88928231D01*
X163510500Y-88869748D01*
X163510500Y-87896532D01*
X163949500Y-87896532D01*
X163949500Y-88103467D01*
X163989869Y-88306418D01*
X164069058Y-88497597D01*
X164184020Y-88669651D01*
X164184023Y-88669655D01*
X164330345Y-88815977D01*
X164502402Y-88930941D01*
X164693580Y-89010130D01*
X164896535Y-89050500D01*
X164896536Y-89050500D01*
X165103464Y-89050500D01*
X165103465Y-89050500D01*
X165306420Y-89010130D01*
X165497598Y-88930941D01*
X165669655Y-88815977D01*
X165815977Y-88669655D01*
X165930941Y-88497598D01*
X166010130Y-88306420D01*
X166050500Y-88103465D01*
X166050500Y-87896535D01*
X166010130Y-87693580D01*
X165930941Y-87502402D01*
X165815977Y-87330345D01*
X165669655Y-87184023D01*
X165589182Y-87130253D01*
X165497597Y-87069058D01*
X165306418Y-86989869D01*
X165103467Y-86949500D01*
X165103465Y-86949500D01*
X164896535Y-86949500D01*
X164896532Y-86949500D01*
X164693581Y-86989869D01*
X164502402Y-87069058D01*
X164330348Y-87184020D01*
X164184020Y-87330348D01*
X164069058Y-87502402D01*
X163989869Y-87693581D01*
X163949500Y-87896532D01*
X163510500Y-87896532D01*
X163510500Y-87130252D01*
X163498867Y-87071769D01*
X163454552Y-87005448D01*
X163454548Y-87005445D01*
X163388233Y-86961134D01*
X163388231Y-86961133D01*
X163388228Y-86961132D01*
X163388227Y-86961132D01*
X163329758Y-86949501D01*
X163329748Y-86949500D01*
X161590252Y-86949500D01*
X161590251Y-86949500D01*
X161590241Y-86949501D01*
X161531772Y-86961132D01*
X161531766Y-86961134D01*
X161465451Y-87005445D01*
X161465445Y-87005451D01*
X161421134Y-87071766D01*
X161421132Y-87071772D01*
X161409501Y-87130241D01*
X161409500Y-87130253D01*
X161409500Y-87600500D01*
X161390593Y-87658691D01*
X161341093Y-87694655D01*
X161310500Y-87699500D01*
X160160435Y-87699500D01*
X160084011Y-87719978D01*
X160084007Y-87719980D01*
X160015491Y-87759538D01*
X158315489Y-89459540D01*
X158315488Y-89459539D01*
X158259539Y-89515489D01*
X158219980Y-89584007D01*
X158219978Y-89584011D01*
X158199500Y-89660435D01*
X156535500Y-89660435D01*
X156535500Y-89110252D01*
X156523867Y-89051769D01*
X156489274Y-88999999D01*
X156472667Y-88941115D01*
X156489274Y-88890001D01*
X156523867Y-88838231D01*
X156535500Y-88779748D01*
X156535500Y-87840252D01*
X156534178Y-87833608D01*
X156527394Y-87799500D01*
X156523867Y-87781769D01*
X156489274Y-87729999D01*
X156472667Y-87671115D01*
X156489274Y-87620001D01*
X156523867Y-87568231D01*
X156535500Y-87509748D01*
X156535500Y-86570252D01*
X156523867Y-86511769D01*
X156489274Y-86459999D01*
X156472667Y-86401115D01*
X156489274Y-86350001D01*
X156523867Y-86298231D01*
X156535500Y-86239748D01*
X156535500Y-85300252D01*
X156523867Y-85241769D01*
X156489274Y-85189999D01*
X156472667Y-85131115D01*
X156489274Y-85080001D01*
X156523867Y-85028231D01*
X156535500Y-84969748D01*
X156535500Y-84030252D01*
X156523867Y-83971769D01*
X156489274Y-83919999D01*
X156472667Y-83861115D01*
X156489274Y-83810001D01*
X156523867Y-83758231D01*
X156535500Y-83699748D01*
X156535500Y-82760252D01*
X156523867Y-82701769D01*
X156489274Y-82649999D01*
X156472667Y-82591115D01*
X156489274Y-82540001D01*
X156523867Y-82488231D01*
X156535500Y-82429748D01*
X156535500Y-82359500D01*
X156540345Y-82344588D01*
X156540345Y-82328907D01*
X156549561Y-82316221D01*
X156554407Y-82301309D01*
X156567092Y-82292092D01*
X156576309Y-82279407D01*
X156591221Y-82274561D01*
X156603907Y-82265345D01*
X156634500Y-82260500D01*
X156715315Y-82260500D01*
X156773506Y-82279407D01*
X156794632Y-82302872D01*
X156795551Y-82302168D01*
X156799494Y-82307307D01*
X156799498Y-82307311D01*
X156799500Y-82307314D01*
X156892686Y-82400500D01*
X156892688Y-82400501D01*
X156892690Y-82400503D01*
X157006810Y-82466390D01*
X157006808Y-82466390D01*
X157006812Y-82466391D01*
X157006814Y-82466392D01*
X157134108Y-82500500D01*
X157134110Y-82500500D01*
X157265890Y-82500500D01*
X157265892Y-82500500D01*
X157393186Y-82466392D01*
X157393188Y-82466390D01*
X157393190Y-82466390D01*
X157507309Y-82400503D01*
X157507309Y-82400502D01*
X157507314Y-82400500D01*
X157600500Y-82307314D01*
X157603967Y-82301309D01*
X157666390Y-82193190D01*
X157666390Y-82193188D01*
X157666392Y-82193186D01*
X157700500Y-82065892D01*
X157700500Y-81934108D01*
X157666392Y-81806814D01*
X157666390Y-81806811D01*
X157666390Y-81806809D01*
X157600503Y-81692690D01*
X157600501Y-81692688D01*
X157600500Y-81692686D01*
X157507314Y-81599500D01*
X157507311Y-81599498D01*
X157507309Y-81599496D01*
X157393189Y-81533609D01*
X157393191Y-81533609D01*
X157343799Y-81520375D01*
X157265892Y-81499500D01*
X157134108Y-81499500D01*
X157056200Y-81520375D01*
X157006809Y-81533609D01*
X156892690Y-81599496D01*
X156861681Y-81630505D01*
X156854563Y-81634131D01*
X156849869Y-81640593D01*
X156827819Y-81647757D01*
X156807164Y-81658281D01*
X156791678Y-81659500D01*
X156634500Y-81659500D01*
X156576309Y-81640593D01*
X156540345Y-81591093D01*
X156535500Y-81560500D01*
X156535500Y-81490253D01*
X156535498Y-81490241D01*
X156532711Y-81476231D01*
X156523867Y-81431769D01*
X156489274Y-81379999D01*
X156472667Y-81321115D01*
X156489274Y-81270001D01*
X156523867Y-81218231D01*
X156535500Y-81159748D01*
X156535500Y-81089500D01*
X156554407Y-81031309D01*
X156603907Y-80995345D01*
X156634500Y-80990500D01*
X157441678Y-80990500D01*
X157499869Y-81009407D01*
X157511681Y-81019496D01*
X157592685Y-81100499D01*
X157592690Y-81100503D01*
X157706810Y-81166390D01*
X157706808Y-81166390D01*
X157706812Y-81166391D01*
X157706814Y-81166392D01*
X157834108Y-81200500D01*
X157834110Y-81200500D01*
X157965890Y-81200500D01*
X157965892Y-81200500D01*
X158093186Y-81166392D01*
X158093188Y-81166390D01*
X158093190Y-81166390D01*
X158207309Y-81100503D01*
X158207309Y-81100502D01*
X158207314Y-81100500D01*
X158300500Y-81007314D01*
X158366392Y-80893186D01*
X158400500Y-80765892D01*
X158400500Y-80634108D01*
X158366392Y-80506814D01*
X158366390Y-80506811D01*
X158366390Y-80506809D01*
X158300503Y-80392690D01*
X158300501Y-80392688D01*
X158300500Y-80392686D01*
X158207314Y-80299500D01*
X158207311Y-80299498D01*
X158207309Y-80299496D01*
X158093189Y-80233609D01*
X158093191Y-80233609D01*
X158043299Y-80220241D01*
X157965892Y-80199500D01*
X157834108Y-80199500D01*
X157756701Y-80220241D01*
X157706809Y-80233609D01*
X157592690Y-80299496D01*
X157592685Y-80299500D01*
X157531681Y-80360504D01*
X157477164Y-80388281D01*
X157461678Y-80389500D01*
X156634500Y-80389500D01*
X156576309Y-80370593D01*
X156540345Y-80321093D01*
X156535500Y-80290500D01*
X156535500Y-80220253D01*
X156535498Y-80220241D01*
X156531372Y-80199500D01*
X156523867Y-80161769D01*
X156489274Y-80109999D01*
X156472667Y-80051115D01*
X156478161Y-80022261D01*
X156482307Y-80010428D01*
X156523867Y-79948231D01*
X156535500Y-79889748D01*
X156535500Y-79878710D01*
X162884500Y-79878710D01*
X162884500Y-80121289D01*
X162916161Y-80361781D01*
X162916161Y-80361786D01*
X162978944Y-80596092D01*
X162978948Y-80596105D01*
X163071772Y-80820204D01*
X163071774Y-80820208D01*
X163071776Y-80820212D01*
X163181008Y-81009407D01*
X163193066Y-81030292D01*
X163340729Y-81222731D01*
X163340731Y-81222733D01*
X163340735Y-81222738D01*
X163512262Y-81394265D01*
X163512266Y-81394268D01*
X163512268Y-81394270D01*
X163637355Y-81490252D01*
X163704711Y-81541936D01*
X163914788Y-81663224D01*
X164138900Y-81756054D01*
X164373211Y-81818838D01*
X164613712Y-81850500D01*
X164613713Y-81850500D01*
X164856287Y-81850500D01*
X164856288Y-81850500D01*
X165096789Y-81818838D01*
X165331100Y-81756054D01*
X165555212Y-81663224D01*
X165765289Y-81541936D01*
X165957738Y-81394265D01*
X166129265Y-81222738D01*
X166276936Y-81030289D01*
X166398224Y-80820212D01*
X166491054Y-80596100D01*
X166553838Y-80361789D01*
X166585500Y-80121288D01*
X166585500Y-79878712D01*
X166553838Y-79638211D01*
X166491054Y-79403900D01*
X166398224Y-79179788D01*
X166276936Y-78969711D01*
X166246959Y-78930644D01*
X166129270Y-78777268D01*
X166129268Y-78777266D01*
X166129265Y-78777262D01*
X165957738Y-78605735D01*
X165957733Y-78605731D01*
X165957731Y-78605729D01*
X165765292Y-78458066D01*
X165765289Y-78458064D01*
X165555212Y-78336776D01*
X165555208Y-78336774D01*
X165555204Y-78336772D01*
X165331105Y-78243948D01*
X165331104Y-78243947D01*
X165331100Y-78243946D01*
X165096789Y-78181162D01*
X165096786Y-78181161D01*
X165096784Y-78181161D01*
X164856289Y-78149500D01*
X164856288Y-78149500D01*
X164613712Y-78149500D01*
X164613710Y-78149500D01*
X164373218Y-78181161D01*
X164373213Y-78181161D01*
X164138907Y-78243944D01*
X164138894Y-78243948D01*
X163914795Y-78336772D01*
X163704707Y-78458066D01*
X163512268Y-78605729D01*
X163340729Y-78777268D01*
X163193066Y-78969707D01*
X163071772Y-79179795D01*
X162978948Y-79403894D01*
X162978944Y-79403907D01*
X162916161Y-79638213D01*
X162916161Y-79638218D01*
X162884500Y-79878710D01*
X156535500Y-79878710D01*
X156535500Y-78950252D01*
X156523867Y-78891769D01*
X156489274Y-78839999D01*
X156472667Y-78781115D01*
X156489274Y-78730001D01*
X156523867Y-78678231D01*
X156535500Y-78619748D01*
X156535500Y-77680252D01*
X156523867Y-77621769D01*
X156488975Y-77569551D01*
X156472367Y-77510664D01*
X156488976Y-77459547D01*
X156523396Y-77408034D01*
X156534999Y-77349700D01*
X156535000Y-77349697D01*
X156535000Y-77030001D01*
X156534999Y-77030000D01*
X154635001Y-77030000D01*
X154635000Y-77030001D01*
X154635000Y-77349700D01*
X154646603Y-77408036D01*
X154681023Y-77459548D01*
X154697632Y-77518437D01*
X154681024Y-77569551D01*
X154646134Y-77621767D01*
X154646132Y-77621772D01*
X154634501Y-77680241D01*
X154634500Y-77680253D01*
X154634500Y-78619746D01*
X154634501Y-78619758D01*
X154646132Y-78678227D01*
X154646134Y-78678233D01*
X154680723Y-78729998D01*
X154697332Y-78788886D01*
X154680723Y-78840002D01*
X154646134Y-78891766D01*
X154646132Y-78891772D01*
X154634501Y-78950241D01*
X154634500Y-78950253D01*
X154634500Y-79889746D01*
X154634501Y-79889758D01*
X154646132Y-79948227D01*
X154646134Y-79948233D01*
X154680723Y-79999998D01*
X154697332Y-80058886D01*
X154680723Y-80110002D01*
X154646134Y-80161766D01*
X154646132Y-80161772D01*
X154634501Y-80220241D01*
X154634500Y-80220253D01*
X154634500Y-81159746D01*
X154634501Y-81159758D01*
X154646132Y-81218227D01*
X154646134Y-81218233D01*
X154680723Y-81269998D01*
X154697332Y-81328886D01*
X154680723Y-81380002D01*
X154646134Y-81431766D01*
X154646132Y-81431772D01*
X154634501Y-81490241D01*
X154634500Y-81490253D01*
X154634500Y-82429746D01*
X154634501Y-82429758D01*
X154646132Y-82488227D01*
X154646134Y-82488233D01*
X154680723Y-82539998D01*
X154697332Y-82598886D01*
X154680723Y-82650002D01*
X154646134Y-82701766D01*
X154646132Y-82701772D01*
X154634501Y-82760241D01*
X154634500Y-82760253D01*
X154634500Y-83699746D01*
X154634501Y-83699758D01*
X154646132Y-83758227D01*
X154646134Y-83758233D01*
X154680723Y-83809998D01*
X154697332Y-83868886D01*
X154680723Y-83920002D01*
X154646134Y-83971766D01*
X154646132Y-83971772D01*
X154634501Y-84030241D01*
X154634500Y-84030253D01*
X154634500Y-84969746D01*
X154634501Y-84969758D01*
X154646132Y-85028227D01*
X154646134Y-85028233D01*
X154680723Y-85079998D01*
X154697332Y-85138886D01*
X154680723Y-85190002D01*
X154646134Y-85241766D01*
X154646132Y-85241772D01*
X154634501Y-85300241D01*
X154634500Y-85300253D01*
X154634500Y-85370500D01*
X154615593Y-85428691D01*
X154566093Y-85464655D01*
X154535500Y-85469500D01*
X153590435Y-85469500D01*
X153514011Y-85489978D01*
X153509218Y-85491964D01*
X153471333Y-85499500D01*
X153465892Y-85499500D01*
X153334108Y-85499500D01*
X153256200Y-85520375D01*
X153206809Y-85533609D01*
X153092690Y-85599496D01*
X152999496Y-85692690D01*
X152933609Y-85806809D01*
X152933608Y-85806814D01*
X152899500Y-85934108D01*
X152899500Y-86065892D01*
X152919064Y-86138907D01*
X152933609Y-86193190D01*
X152999496Y-86307309D01*
X152999498Y-86307311D01*
X152999500Y-86307314D01*
X153092686Y-86400500D01*
X153092688Y-86400501D01*
X153092690Y-86400503D01*
X153206810Y-86466390D01*
X153206808Y-86466390D01*
X153206812Y-86466391D01*
X153206814Y-86466392D01*
X153334108Y-86500500D01*
X153334110Y-86500500D01*
X153465890Y-86500500D01*
X153465892Y-86500500D01*
X153593186Y-86466392D01*
X153593188Y-86466390D01*
X153593190Y-86466390D01*
X153707309Y-86400503D01*
X153707309Y-86400502D01*
X153707314Y-86400500D01*
X153800500Y-86307314D01*
X153866392Y-86193186D01*
X153875425Y-86159475D01*
X153879605Y-86143876D01*
X153912929Y-86092562D01*
X153970050Y-86070636D01*
X153975231Y-86070500D01*
X154535500Y-86070500D01*
X154593691Y-86089407D01*
X154629655Y-86138907D01*
X154634500Y-86169500D01*
X154634500Y-86239746D01*
X154634501Y-86239758D01*
X154646132Y-86298227D01*
X154646134Y-86298233D01*
X154680723Y-86349998D01*
X154697332Y-86408886D01*
X154680723Y-86460002D01*
X154646134Y-86511766D01*
X154646132Y-86511772D01*
X154634501Y-86570241D01*
X154634500Y-86570253D01*
X154634500Y-86640500D01*
X154615593Y-86698691D01*
X154566093Y-86734655D01*
X154535500Y-86739500D01*
X153188321Y-86739500D01*
X153130130Y-86720593D01*
X153118323Y-86710509D01*
X153107314Y-86699500D01*
X153107311Y-86699498D01*
X153107309Y-86699496D01*
X152993189Y-86633609D01*
X152993191Y-86633609D01*
X152943799Y-86620375D01*
X152865892Y-86599500D01*
X152734108Y-86599500D01*
X152656200Y-86620375D01*
X152606809Y-86633609D01*
X152492690Y-86699496D01*
X152399496Y-86792690D01*
X152333609Y-86906809D01*
X152333608Y-86906814D01*
X152299500Y-87034108D01*
X152299500Y-87165892D01*
X152329579Y-87278151D01*
X152333609Y-87293190D01*
X152399496Y-87407309D01*
X152399498Y-87407311D01*
X152399500Y-87407314D01*
X152492686Y-87500500D01*
X152492688Y-87500501D01*
X152492690Y-87500503D01*
X152606810Y-87566390D01*
X152606808Y-87566390D01*
X152606812Y-87566391D01*
X152606814Y-87566392D01*
X152734108Y-87600500D01*
X152734110Y-87600500D01*
X152865890Y-87600500D01*
X152865892Y-87600500D01*
X152993186Y-87566392D01*
X152993188Y-87566390D01*
X152993190Y-87566390D01*
X153107309Y-87500503D01*
X153107309Y-87500502D01*
X153107314Y-87500500D01*
X153200500Y-87407314D01*
X153210497Y-87389997D01*
X153255968Y-87349058D01*
X153296233Y-87340500D01*
X154535500Y-87340500D01*
X154593691Y-87359407D01*
X154629655Y-87408907D01*
X154634500Y-87439500D01*
X154634500Y-87509746D01*
X154634501Y-87509758D01*
X154646132Y-87568227D01*
X154646134Y-87568233D01*
X154680723Y-87619998D01*
X154697332Y-87678886D01*
X154680723Y-87730002D01*
X154646134Y-87781766D01*
X154646132Y-87781772D01*
X154634501Y-87840241D01*
X154634500Y-87840253D01*
X154634500Y-87910500D01*
X154615593Y-87968691D01*
X154566093Y-88004655D01*
X154535500Y-88009500D01*
X151858322Y-88009500D01*
X151800131Y-87990593D01*
X151788319Y-87980504D01*
X151707314Y-87899500D01*
X151707309Y-87899496D01*
X151593189Y-87833609D01*
X151593191Y-87833609D01*
X151543799Y-87820375D01*
X151465892Y-87799500D01*
X151334108Y-87799500D01*
X151256200Y-87820375D01*
X151206809Y-87833609D01*
X151092690Y-87899496D01*
X150999496Y-87992690D01*
X150933609Y-88106809D01*
X150933608Y-88106814D01*
X150899500Y-88234108D01*
X150899500Y-88365892D01*
X150923255Y-88454548D01*
X150933609Y-88493190D01*
X150999496Y-88607309D01*
X150999498Y-88607311D01*
X150999500Y-88607314D01*
X151092686Y-88700500D01*
X151092688Y-88700501D01*
X151092690Y-88700503D01*
X151206810Y-88766390D01*
X151206808Y-88766390D01*
X151206812Y-88766391D01*
X151206814Y-88766392D01*
X151334108Y-88800500D01*
X151334110Y-88800500D01*
X151465890Y-88800500D01*
X151465892Y-88800500D01*
X151593186Y-88766392D01*
X151593188Y-88766390D01*
X151593190Y-88766390D01*
X151707309Y-88700503D01*
X151707309Y-88700502D01*
X151707314Y-88700500D01*
X151738163Y-88669651D01*
X151768319Y-88639496D01*
X151822836Y-88611719D01*
X151838322Y-88610500D01*
X154535500Y-88610500D01*
X154593691Y-88629407D01*
X154629655Y-88678907D01*
X154634500Y-88709500D01*
X154634500Y-88779746D01*
X154634501Y-88779758D01*
X154646132Y-88838227D01*
X154646134Y-88838233D01*
X154680723Y-88889998D01*
X154697332Y-88948886D01*
X154680723Y-89000002D01*
X154646134Y-89051766D01*
X154646132Y-89051772D01*
X154634501Y-89110241D01*
X154634500Y-89110253D01*
X154634500Y-90049746D01*
X154634501Y-90049758D01*
X154646132Y-90108227D01*
X154646134Y-90108233D01*
X154680723Y-90159998D01*
X154697332Y-90218886D01*
X154680723Y-90270002D01*
X154646134Y-90321766D01*
X154646132Y-90321772D01*
X154634501Y-90380241D01*
X154634500Y-90380253D01*
X154634500Y-91319746D01*
X154634501Y-91319758D01*
X154646132Y-91378227D01*
X154646134Y-91378233D01*
X154680723Y-91429998D01*
X154697332Y-91488886D01*
X154680723Y-91540002D01*
X154646134Y-91591766D01*
X154646132Y-91591772D01*
X154634501Y-91650241D01*
X154634500Y-91650253D01*
X154634500Y-92589746D01*
X154634501Y-92589758D01*
X154646132Y-92648227D01*
X154646134Y-92648233D01*
X154680723Y-92699998D01*
X154697332Y-92758886D01*
X154680723Y-92810002D01*
X154646134Y-92861766D01*
X154646132Y-92861772D01*
X154634501Y-92920241D01*
X154634500Y-92920253D01*
X154634500Y-93748263D01*
X154615593Y-93806454D01*
X154566093Y-93842418D01*
X154504907Y-93842418D01*
X154455407Y-93806454D01*
X154453185Y-93803265D01*
X154414554Y-93745451D01*
X154414552Y-93745448D01*
X154414548Y-93745445D01*
X154348233Y-93701134D01*
X154348231Y-93701133D01*
X154348228Y-93701132D01*
X154348227Y-93701132D01*
X154289758Y-93689501D01*
X154289748Y-93689500D01*
X153350252Y-93689500D01*
X153350251Y-93689500D01*
X153350241Y-93689501D01*
X153291772Y-93701132D01*
X153291766Y-93701134D01*
X153240002Y-93735723D01*
X153181114Y-93752332D01*
X153129998Y-93735723D01*
X153078233Y-93701134D01*
X153078231Y-93701133D01*
X153078228Y-93701132D01*
X153078227Y-93701132D01*
X153019758Y-93689501D01*
X153019748Y-93689500D01*
X152080252Y-93689500D01*
X152080251Y-93689500D01*
X152080241Y-93689501D01*
X152021772Y-93701132D01*
X152021766Y-93701134D01*
X151970002Y-93735723D01*
X151911114Y-93752332D01*
X151859998Y-93735723D01*
X151808233Y-93701134D01*
X151808231Y-93701133D01*
X151808228Y-93701132D01*
X151808227Y-93701132D01*
X151749758Y-93689501D01*
X151749748Y-93689500D01*
X150810252Y-93689500D01*
X150810251Y-93689500D01*
X150810241Y-93689501D01*
X150751772Y-93701132D01*
X150751766Y-93701134D01*
X150700002Y-93735723D01*
X150641114Y-93752332D01*
X150589998Y-93735723D01*
X150538233Y-93701134D01*
X150538231Y-93701133D01*
X150538228Y-93701132D01*
X150538227Y-93701132D01*
X150479758Y-93689501D01*
X150479748Y-93689500D01*
X149540252Y-93689500D01*
X149540251Y-93689500D01*
X149540241Y-93689501D01*
X149481772Y-93701132D01*
X149481766Y-93701134D01*
X149430002Y-93735723D01*
X149371114Y-93752332D01*
X149319998Y-93735723D01*
X149268233Y-93701134D01*
X149268231Y-93701133D01*
X149268228Y-93701132D01*
X149268227Y-93701132D01*
X149209758Y-93689501D01*
X149209748Y-93689500D01*
X148270252Y-93689500D01*
X148270251Y-93689500D01*
X148270241Y-93689501D01*
X148211772Y-93701132D01*
X148211766Y-93701134D01*
X148160002Y-93735723D01*
X148101114Y-93752332D01*
X148049998Y-93735723D01*
X147998233Y-93701134D01*
X147998231Y-93701133D01*
X147998228Y-93701132D01*
X147998227Y-93701132D01*
X147939758Y-93689501D01*
X147939748Y-93689500D01*
X147939747Y-93689500D01*
X147869500Y-93689500D01*
X147811309Y-93670593D01*
X147775345Y-93621093D01*
X147770500Y-93590500D01*
X147770500Y-93430437D01*
X147770499Y-93430435D01*
X147752020Y-93361470D01*
X147752028Y-93322641D01*
X147749653Y-93322329D01*
X147750500Y-93315895D01*
X147750500Y-93184109D01*
X147750328Y-93183467D01*
X147716392Y-93056814D01*
X147716390Y-93056811D01*
X147716390Y-93056809D01*
X147650503Y-92942690D01*
X147650501Y-92942688D01*
X147650500Y-92942686D01*
X147557314Y-92849500D01*
X147557311Y-92849498D01*
X147557309Y-92849496D01*
X147443189Y-92783609D01*
X147443191Y-92783609D01*
X147393799Y-92770375D01*
X147315892Y-92749500D01*
X147184108Y-92749500D01*
X147106200Y-92770375D01*
X147056809Y-92783609D01*
X146942690Y-92849496D01*
X146849496Y-92942690D01*
X146783609Y-93056809D01*
X146783608Y-93056814D01*
X146749500Y-93184108D01*
X146749500Y-93315892D01*
X146773995Y-93407309D01*
X146783609Y-93443190D01*
X146850926Y-93559785D01*
X146863648Y-93619633D01*
X146838762Y-93675529D01*
X146785773Y-93706122D01*
X146738050Y-93701738D01*
X146737793Y-93703035D01*
X146669758Y-93689501D01*
X146669748Y-93689500D01*
X145730252Y-93689500D01*
X145730251Y-93689500D01*
X145730241Y-93689501D01*
X145671772Y-93701132D01*
X145671766Y-93701134D01*
X145620002Y-93735723D01*
X145561114Y-93752332D01*
X145509998Y-93735723D01*
X145458233Y-93701134D01*
X145458231Y-93701133D01*
X145458228Y-93701132D01*
X145458227Y-93701132D01*
X145399758Y-93689501D01*
X145399748Y-93689500D01*
X145399747Y-93689500D01*
X145329500Y-93689500D01*
X145314588Y-93684655D01*
X145298907Y-93684655D01*
X145286221Y-93675438D01*
X145271309Y-93670593D01*
X145262092Y-93657907D01*
X145249407Y-93648691D01*
X145244561Y-93633778D01*
X145235345Y-93621093D01*
X145230500Y-93590500D01*
X145230500Y-93518321D01*
X145249407Y-93460130D01*
X145259490Y-93448323D01*
X145300500Y-93407314D01*
X145300503Y-93407309D01*
X145366390Y-93293190D01*
X145366390Y-93293188D01*
X145366392Y-93293186D01*
X145400500Y-93165892D01*
X145400500Y-93034108D01*
X145366392Y-92906814D01*
X145366390Y-92906811D01*
X145366390Y-92906809D01*
X145300503Y-92792690D01*
X145300501Y-92792688D01*
X145300500Y-92792686D01*
X145207314Y-92699500D01*
X145207311Y-92699498D01*
X145207309Y-92699496D01*
X145093189Y-92633609D01*
X145093191Y-92633609D01*
X145043799Y-92620375D01*
X144965892Y-92599500D01*
X144834108Y-92599500D01*
X144756200Y-92620375D01*
X144706809Y-92633609D01*
X144592690Y-92699496D01*
X144499496Y-92792690D01*
X144433609Y-92906809D01*
X144433608Y-92906814D01*
X144399500Y-93034108D01*
X144399500Y-93165892D01*
X144404489Y-93184511D01*
X144433609Y-93293190D01*
X144499496Y-93407309D01*
X144499498Y-93407311D01*
X144499500Y-93407314D01*
X144592686Y-93500500D01*
X144592688Y-93500501D01*
X144597275Y-93505088D01*
X144595884Y-93506478D01*
X144598925Y-93510901D01*
X144610593Y-93519378D01*
X144615826Y-93535485D01*
X144625419Y-93549439D01*
X144629500Y-93577569D01*
X144629500Y-93590500D01*
X144610593Y-93648691D01*
X144561093Y-93684655D01*
X144530500Y-93689500D01*
X144460252Y-93689500D01*
X144460251Y-93689500D01*
X144460241Y-93689501D01*
X144401772Y-93701132D01*
X144401766Y-93701134D01*
X144350002Y-93735723D01*
X144291114Y-93752332D01*
X144239998Y-93735723D01*
X144188233Y-93701134D01*
X144188231Y-93701133D01*
X144188228Y-93701132D01*
X144188227Y-93701132D01*
X144129758Y-93689501D01*
X144129748Y-93689500D01*
X144129747Y-93689500D01*
X144059500Y-93689500D01*
X144044588Y-93684655D01*
X144028907Y-93684655D01*
X144016221Y-93675438D01*
X144001309Y-93670593D01*
X143992092Y-93657907D01*
X143979407Y-93648691D01*
X143974561Y-93633778D01*
X143965345Y-93621093D01*
X143960500Y-93590500D01*
X143960500Y-93527102D01*
X143965935Y-93499781D01*
X143964712Y-93499454D01*
X143966391Y-93493187D01*
X143966392Y-93493186D01*
X144000500Y-93365892D01*
X144000500Y-93234108D01*
X143966392Y-93106814D01*
X143966390Y-93106811D01*
X143966390Y-93106809D01*
X143900503Y-92992690D01*
X143900501Y-92992688D01*
X143900500Y-92992686D01*
X143807314Y-92899500D01*
X143807311Y-92899498D01*
X143807309Y-92899496D01*
X143693189Y-92833609D01*
X143693191Y-92833609D01*
X143643799Y-92820375D01*
X143565892Y-92799500D01*
X143434108Y-92799500D01*
X143356200Y-92820375D01*
X143306809Y-92833609D01*
X143192690Y-92899496D01*
X143099496Y-92992690D01*
X143033609Y-93106809D01*
X143033608Y-93106814D01*
X142999500Y-93234108D01*
X142999500Y-93365892D01*
X143010598Y-93407309D01*
X143033609Y-93493190D01*
X143089240Y-93589544D01*
X143101962Y-93649392D01*
X143077076Y-93705288D01*
X143024088Y-93735881D01*
X142963237Y-93729485D01*
X142948503Y-93721360D01*
X142918232Y-93701134D01*
X142918233Y-93701134D01*
X142918231Y-93701133D01*
X142918228Y-93701132D01*
X142918227Y-93701132D01*
X142859758Y-93689501D01*
X142859748Y-93689500D01*
X141920252Y-93689500D01*
X141920251Y-93689500D01*
X141920241Y-93689501D01*
X141861772Y-93701132D01*
X141861766Y-93701134D01*
X141810002Y-93735723D01*
X141751114Y-93752332D01*
X141699998Y-93735723D01*
X141648233Y-93701134D01*
X141648231Y-93701133D01*
X141648228Y-93701132D01*
X141648227Y-93701132D01*
X141589758Y-93689501D01*
X141589748Y-93689500D01*
X140650252Y-93689500D01*
X140650251Y-93689500D01*
X140650241Y-93689501D01*
X140591772Y-93701132D01*
X140591766Y-93701134D01*
X140540002Y-93735723D01*
X140481114Y-93752332D01*
X140429998Y-93735723D01*
X140378233Y-93701134D01*
X140378231Y-93701133D01*
X140378228Y-93701132D01*
X140378227Y-93701132D01*
X140319758Y-93689501D01*
X140319748Y-93689500D01*
X139380252Y-93689500D01*
X139380251Y-93689500D01*
X139380241Y-93689501D01*
X139321772Y-93701132D01*
X139321766Y-93701134D01*
X139255451Y-93745445D01*
X139255445Y-93745451D01*
X139216815Y-93803265D01*
X139168765Y-93841144D01*
X139107626Y-93843546D01*
X139056753Y-93809552D01*
X139035576Y-93752149D01*
X139035500Y-93748263D01*
X139035500Y-93399500D01*
X139054407Y-93341309D01*
X139103907Y-93305345D01*
X139134500Y-93300500D01*
X141539563Y-93300500D01*
X141539563Y-93300499D01*
X141615989Y-93280021D01*
X141684511Y-93240460D01*
X141740460Y-93184511D01*
X142595475Y-92329496D01*
X142649992Y-92301719D01*
X142665479Y-92300500D01*
X145251679Y-92300500D01*
X145309870Y-92319407D01*
X145321676Y-92329490D01*
X145392686Y-92400500D01*
X145392688Y-92400501D01*
X145392690Y-92400503D01*
X145506810Y-92466390D01*
X145506808Y-92466390D01*
X145506812Y-92466391D01*
X145506814Y-92466392D01*
X145634108Y-92500500D01*
X145634110Y-92500500D01*
X145765890Y-92500500D01*
X145765892Y-92500500D01*
X145893186Y-92466392D01*
X145893188Y-92466390D01*
X145893190Y-92466390D01*
X146007309Y-92400503D01*
X146007309Y-92400502D01*
X146007314Y-92400500D01*
X146100500Y-92307314D01*
X146143070Y-92233581D01*
X146166390Y-92193190D01*
X146166390Y-92193188D01*
X146166392Y-92193186D01*
X146200500Y-92065892D01*
X146200500Y-91934108D01*
X146166392Y-91806814D01*
X146166390Y-91806811D01*
X146166390Y-91806809D01*
X146100503Y-91692690D01*
X146100501Y-91692688D01*
X146100500Y-91692686D01*
X146007314Y-91599500D01*
X146007311Y-91599498D01*
X146007309Y-91599496D01*
X145893189Y-91533609D01*
X145893191Y-91533609D01*
X145843799Y-91520375D01*
X145765892Y-91499500D01*
X145634108Y-91499500D01*
X145556200Y-91520375D01*
X145506809Y-91533609D01*
X145392690Y-91599496D01*
X145392689Y-91599497D01*
X145392686Y-91599499D01*
X145392686Y-91599500D01*
X145321680Y-91670505D01*
X145267166Y-91698281D01*
X145251679Y-91699500D01*
X142532109Y-91699500D01*
X142473918Y-91680593D01*
X142437954Y-91631093D01*
X142437954Y-91569907D01*
X142473918Y-91520407D01*
X142482602Y-91514767D01*
X142507314Y-91500500D01*
X142600500Y-91407314D01*
X142600503Y-91407309D01*
X142666390Y-91293190D01*
X142666390Y-91293188D01*
X142666392Y-91293186D01*
X142700500Y-91165892D01*
X142700500Y-91034108D01*
X142666392Y-90906814D01*
X142666390Y-90906811D01*
X142666390Y-90906809D01*
X142600503Y-90792690D01*
X142600501Y-90792688D01*
X142600500Y-90792686D01*
X142507314Y-90699500D01*
X142507311Y-90699498D01*
X142507309Y-90699496D01*
X142393189Y-90633609D01*
X142393191Y-90633609D01*
X142343799Y-90620375D01*
X142265892Y-90599500D01*
X142134108Y-90599500D01*
X142056200Y-90620375D01*
X142006809Y-90633609D01*
X141892690Y-90699496D01*
X141799496Y-90792690D01*
X141733609Y-90906809D01*
X141699500Y-91034109D01*
X141699500Y-91134520D01*
X141680593Y-91192711D01*
X141670504Y-91204524D01*
X140804525Y-92070504D01*
X140750008Y-92098281D01*
X140734521Y-92099500D01*
X139134500Y-92099500D01*
X139076309Y-92080593D01*
X139040345Y-92031093D01*
X139035500Y-92000500D01*
X139035500Y-91650253D01*
X139035498Y-91650241D01*
X139031371Y-91629496D01*
X139023867Y-91591769D01*
X138989274Y-91539999D01*
X138972667Y-91481115D01*
X138989274Y-91430001D01*
X139023867Y-91378231D01*
X139035500Y-91319748D01*
X139035500Y-90380252D01*
X139023867Y-90321769D01*
X138989274Y-90269999D01*
X138972667Y-90211115D01*
X138989274Y-90160001D01*
X139023867Y-90108231D01*
X139035500Y-90049748D01*
X139035500Y-89110252D01*
X139023867Y-89051769D01*
X138989274Y-88999999D01*
X138972667Y-88941115D01*
X138989274Y-88890001D01*
X139023867Y-88838231D01*
X139035500Y-88779748D01*
X139035500Y-87840252D01*
X139034178Y-87833608D01*
X139027394Y-87799500D01*
X139023867Y-87781769D01*
X138989274Y-87729999D01*
X138972667Y-87671115D01*
X138989274Y-87620001D01*
X139023867Y-87568231D01*
X139035500Y-87509748D01*
X139035500Y-86570252D01*
X139023867Y-86511769D01*
X138989274Y-86459999D01*
X138972667Y-86401115D01*
X138989274Y-86350001D01*
X139023867Y-86298231D01*
X139035500Y-86239748D01*
X139035500Y-85300252D01*
X139023867Y-85241769D01*
X138989274Y-85189999D01*
X138972667Y-85131115D01*
X138989274Y-85080001D01*
X139023867Y-85028231D01*
X139035500Y-84969748D01*
X139035500Y-84030252D01*
X139023867Y-83971769D01*
X138989274Y-83919999D01*
X138972667Y-83861115D01*
X138989274Y-83810001D01*
X139023867Y-83758231D01*
X139035500Y-83699748D01*
X139035500Y-82760252D01*
X139023867Y-82701769D01*
X138989274Y-82649999D01*
X138972667Y-82591115D01*
X138989274Y-82540001D01*
X139023867Y-82488231D01*
X139035500Y-82429748D01*
X139035500Y-81490252D01*
X139023867Y-81431769D01*
X138989274Y-81379999D01*
X138972667Y-81321115D01*
X138989274Y-81270001D01*
X139023867Y-81218231D01*
X139035500Y-81159748D01*
X139035500Y-80220252D01*
X139023867Y-80161769D01*
X138989274Y-80109999D01*
X138972667Y-80051115D01*
X138989275Y-80000000D01*
X139023867Y-79948231D01*
X139035500Y-79889748D01*
X139035500Y-79819500D01*
X139054407Y-79761309D01*
X139103907Y-79725345D01*
X139134500Y-79720500D01*
X139892220Y-79720500D01*
X139950411Y-79739407D01*
X139977956Y-79769999D01*
X139999500Y-79807314D01*
X140092686Y-79900500D01*
X140092688Y-79900501D01*
X140092690Y-79900503D01*
X140206810Y-79966390D01*
X140206808Y-79966390D01*
X140206812Y-79966391D01*
X140206814Y-79966392D01*
X140334108Y-80000500D01*
X140334110Y-80000500D01*
X140465890Y-80000500D01*
X140465892Y-80000500D01*
X140593186Y-79966392D01*
X140593188Y-79966390D01*
X140593190Y-79966390D01*
X140707309Y-79900503D01*
X140707309Y-79900502D01*
X140707314Y-79900500D01*
X140800500Y-79807314D01*
X140866392Y-79693186D01*
X140900500Y-79565892D01*
X140900500Y-79434108D01*
X140866392Y-79306814D01*
X140866390Y-79306811D01*
X140866390Y-79306809D01*
X140800503Y-79192690D01*
X140800501Y-79192688D01*
X140800500Y-79192686D01*
X140707314Y-79099500D01*
X140707311Y-79099498D01*
X140707309Y-79099496D01*
X140593189Y-79033609D01*
X140593191Y-79033609D01*
X140543799Y-79020375D01*
X140465892Y-78999500D01*
X140334108Y-78999500D01*
X140256200Y-79020375D01*
X140206809Y-79033609D01*
X140087066Y-79102744D01*
X140086346Y-79101498D01*
X140035605Y-79119466D01*
X140033015Y-79119500D01*
X139134500Y-79119500D01*
X139076309Y-79100593D01*
X139040345Y-79051093D01*
X139035500Y-79020500D01*
X139035500Y-78950253D01*
X139035498Y-78950241D01*
X139031600Y-78930644D01*
X139023867Y-78891769D01*
X138989274Y-78839999D01*
X138972667Y-78781115D01*
X138989274Y-78730001D01*
X139023867Y-78678231D01*
X139035500Y-78619748D01*
X139035500Y-77680252D01*
X139023867Y-77621769D01*
X138988975Y-77569551D01*
X138972367Y-77510664D01*
X138988976Y-77459547D01*
X139023396Y-77408034D01*
X139034999Y-77349700D01*
X139035000Y-77349697D01*
X139035000Y-77030001D01*
X139034999Y-77030000D01*
X137135001Y-77030000D01*
X137135000Y-77030001D01*
X137135000Y-77349700D01*
X137146603Y-77408036D01*
X137181023Y-77459548D01*
X137187446Y-77482323D01*
X137197134Y-77503909D01*
X137195459Y-77510733D01*
X137197632Y-77518437D01*
X137184591Y-77563795D01*
X137182899Y-77566744D01*
X137146133Y-77621769D01*
X137143362Y-77635698D01*
X137135308Y-77649745D01*
X137124050Y-77659942D01*
X137116629Y-77673195D01*
X137101946Y-77679964D01*
X137089961Y-77690821D01*
X137074858Y-77692453D01*
X137061065Y-77698813D01*
X137049425Y-77699500D01*
X134417256Y-77699500D01*
X134359065Y-77680593D01*
X134347253Y-77670504D01*
X134303221Y-77626473D01*
X134303217Y-77626470D01*
X134183132Y-77565283D01*
X134183127Y-77565281D01*
X134183126Y-77565281D01*
X134149913Y-77560020D01*
X134083490Y-77549500D01*
X134083488Y-77549500D01*
X133516512Y-77549500D01*
X133516510Y-77549500D01*
X133416874Y-77565281D01*
X133416867Y-77565283D01*
X133296782Y-77626470D01*
X133296778Y-77626473D01*
X133252747Y-77670504D01*
X133198230Y-77698281D01*
X133182744Y-77699500D01*
X132634108Y-77699500D01*
X132556200Y-77720375D01*
X132506809Y-77733609D01*
X132392690Y-77799496D01*
X132299496Y-77892690D01*
X132233609Y-78006809D01*
X132233608Y-78006814D01*
X132199500Y-78134108D01*
X132199500Y-78265892D01*
X132223307Y-78354741D01*
X132233609Y-78393190D01*
X132299496Y-78507309D01*
X132299498Y-78507311D01*
X132299500Y-78507314D01*
X132392686Y-78600500D01*
X132392688Y-78600501D01*
X132392690Y-78600503D01*
X132506810Y-78666390D01*
X132506808Y-78666390D01*
X132506812Y-78666391D01*
X132506814Y-78666392D01*
X132634108Y-78700500D01*
X133182744Y-78700500D01*
X133240935Y-78719407D01*
X133252747Y-78729496D01*
X133292159Y-78768907D01*
X133296780Y-78773528D01*
X133296782Y-78773529D01*
X133416867Y-78834716D01*
X133416869Y-78834716D01*
X133416874Y-78834719D01*
X133492541Y-78846703D01*
X133516510Y-78850500D01*
X133516512Y-78850500D01*
X134083490Y-78850500D01*
X134104885Y-78847111D01*
X134183126Y-78834719D01*
X134303220Y-78773528D01*
X134332196Y-78744552D01*
X134347253Y-78729496D01*
X134401770Y-78701719D01*
X134417256Y-78700500D01*
X134948438Y-78700500D01*
X135006629Y-78719407D01*
X135042593Y-78768907D01*
X135042593Y-78830093D01*
X135038163Y-78841339D01*
X134996519Y-78930644D01*
X134996519Y-78930645D01*
X134990000Y-78980161D01*
X134990000Y-79009999D01*
X134990001Y-79010000D01*
X136009999Y-79010000D01*
X136010000Y-79009999D01*
X136010000Y-78980161D01*
X136003480Y-78930645D01*
X136003480Y-78930644D01*
X135961837Y-78841339D01*
X135954381Y-78780610D01*
X135984044Y-78727096D01*
X136039497Y-78701238D01*
X136051562Y-78700500D01*
X137088719Y-78700500D01*
X137146910Y-78719407D01*
X137182874Y-78768907D01*
X137182874Y-78830093D01*
X137171034Y-78854502D01*
X137146134Y-78891766D01*
X137146132Y-78891772D01*
X137134501Y-78950241D01*
X137134500Y-78950253D01*
X137134500Y-79889746D01*
X137134501Y-79889758D01*
X137146132Y-79948227D01*
X137146134Y-79948233D01*
X137180723Y-79999998D01*
X137197332Y-80058886D01*
X137180723Y-80110002D01*
X137146134Y-80161766D01*
X137146132Y-80161772D01*
X137134501Y-80220241D01*
X137134500Y-80220253D01*
X137134500Y-81159746D01*
X137134501Y-81159758D01*
X137146132Y-81218227D01*
X137146134Y-81218233D01*
X137180723Y-81269998D01*
X137197332Y-81328886D01*
X137180723Y-81380002D01*
X137146134Y-81431766D01*
X137146132Y-81431772D01*
X137134501Y-81490241D01*
X137134500Y-81490253D01*
X137134500Y-82429746D01*
X137134501Y-82429758D01*
X137146132Y-82488227D01*
X137146134Y-82488233D01*
X137180723Y-82539998D01*
X137197332Y-82598886D01*
X137180723Y-82650002D01*
X137146134Y-82701766D01*
X137146132Y-82701772D01*
X137134501Y-82760241D01*
X137134500Y-82760253D01*
X137134500Y-83699746D01*
X137134501Y-83699758D01*
X137146132Y-83758227D01*
X137146134Y-83758233D01*
X137180723Y-83809998D01*
X137197332Y-83868886D01*
X137180723Y-83920002D01*
X137146134Y-83971766D01*
X137146132Y-83971772D01*
X137134501Y-84030241D01*
X137134500Y-84030253D01*
X137134500Y-84969746D01*
X137134501Y-84969758D01*
X137146132Y-85028227D01*
X137146134Y-85028233D01*
X137180723Y-85079998D01*
X137197332Y-85138886D01*
X137180723Y-85190002D01*
X137146134Y-85241766D01*
X137146132Y-85241772D01*
X137134501Y-85300241D01*
X137134500Y-85300253D01*
X137134500Y-85370500D01*
X137115593Y-85428691D01*
X137066093Y-85464655D01*
X137035500Y-85469500D01*
X136890435Y-85469500D01*
X136814011Y-85489978D01*
X136814007Y-85489980D01*
X136745491Y-85529538D01*
X134915489Y-87359540D01*
X134915488Y-87359539D01*
X134859539Y-87415489D01*
X134819980Y-87484007D01*
X134819978Y-87484011D01*
X134799500Y-87560435D01*
X134799500Y-94034521D01*
X134780593Y-94092712D01*
X134770504Y-94104525D01*
X134124525Y-94750504D01*
X134070008Y-94778281D01*
X134054521Y-94779500D01*
X132813732Y-94779500D01*
X132755541Y-94760593D01*
X132722268Y-94718386D01*
X132665941Y-94582402D01*
X132550979Y-94410348D01*
X132550977Y-94410345D01*
X132404655Y-94264023D01*
X132404651Y-94264020D01*
X132232597Y-94149058D01*
X132041418Y-94069869D01*
X131838467Y-94029500D01*
X131838465Y-94029500D01*
X131631535Y-94029500D01*
X131631532Y-94029500D01*
X131428581Y-94069869D01*
X131237402Y-94149058D01*
X131065348Y-94264020D01*
X130919020Y-94410348D01*
X130804058Y-94582402D01*
X130724869Y-94773581D01*
X130684500Y-94976532D01*
X130245499Y-94976532D01*
X130205130Y-94773580D01*
X130125941Y-94582402D01*
X130010977Y-94410345D01*
X129864655Y-94264023D01*
X129864651Y-94264020D01*
X129692597Y-94149058D01*
X129501418Y-94069869D01*
X129298467Y-94029500D01*
X129298465Y-94029500D01*
X129091535Y-94029500D01*
X129091532Y-94029500D01*
X128888581Y-94069869D01*
X128697402Y-94149058D01*
X128525348Y-94264020D01*
X128379020Y-94410348D01*
X128264058Y-94582402D01*
X128184869Y-94773581D01*
X128144500Y-94976532D01*
X124588000Y-94976532D01*
X124588000Y-92436532D01*
X128144500Y-92436532D01*
X128144500Y-92643467D01*
X128184869Y-92846418D01*
X128264058Y-93037597D01*
X128361525Y-93183467D01*
X128379023Y-93209655D01*
X128525345Y-93355977D01*
X128697402Y-93470941D01*
X128888580Y-93550130D01*
X129091535Y-93590500D01*
X129091536Y-93590500D01*
X129298464Y-93590500D01*
X129298465Y-93590500D01*
X129501420Y-93550130D01*
X129692598Y-93470941D01*
X129864655Y-93355977D01*
X130010977Y-93209655D01*
X130125941Y-93037598D01*
X130205130Y-92846420D01*
X130245500Y-92643465D01*
X130245500Y-92436535D01*
X130245499Y-92436532D01*
X130684500Y-92436532D01*
X130684500Y-92643467D01*
X130724869Y-92846418D01*
X130804058Y-93037597D01*
X130901525Y-93183467D01*
X130919023Y-93209655D01*
X131065345Y-93355977D01*
X131237402Y-93470941D01*
X131428580Y-93550130D01*
X131631535Y-93590500D01*
X131631536Y-93590500D01*
X131838464Y-93590500D01*
X131838465Y-93590500D01*
X132041420Y-93550130D01*
X132232598Y-93470941D01*
X132404655Y-93355977D01*
X132550977Y-93209655D01*
X132665941Y-93037598D01*
X132745130Y-92846420D01*
X132785500Y-92643465D01*
X132785500Y-92436535D01*
X132745130Y-92233580D01*
X132665941Y-92042402D01*
X132550977Y-91870345D01*
X132404655Y-91724023D01*
X132404651Y-91724020D01*
X132232597Y-91609058D01*
X132041418Y-91529869D01*
X131838467Y-91489500D01*
X131838465Y-91489500D01*
X131631535Y-91489500D01*
X131631532Y-91489500D01*
X131428581Y-91529869D01*
X131237402Y-91609058D01*
X131065348Y-91724020D01*
X130919020Y-91870348D01*
X130804058Y-92042402D01*
X130724869Y-92233581D01*
X130684500Y-92436532D01*
X130245499Y-92436532D01*
X130205130Y-92233580D01*
X130125941Y-92042402D01*
X130010977Y-91870345D01*
X129864655Y-91724023D01*
X129864651Y-91724020D01*
X129692597Y-91609058D01*
X129501418Y-91529869D01*
X129298467Y-91489500D01*
X129298465Y-91489500D01*
X129091535Y-91489500D01*
X129091532Y-91489500D01*
X128888581Y-91529869D01*
X128697402Y-91609058D01*
X128525348Y-91724020D01*
X128379020Y-91870348D01*
X128264058Y-92042402D01*
X128184869Y-92233581D01*
X128144500Y-92436532D01*
X124588000Y-92436532D01*
X124588000Y-89896532D01*
X128144500Y-89896532D01*
X128144500Y-90103467D01*
X128184869Y-90306418D01*
X128264058Y-90497597D01*
X128361525Y-90643467D01*
X128379023Y-90669655D01*
X128525345Y-90815977D01*
X128697402Y-90930941D01*
X128888580Y-91010130D01*
X129091535Y-91050500D01*
X129091536Y-91050500D01*
X129298464Y-91050500D01*
X129298465Y-91050500D01*
X129501420Y-91010130D01*
X129692598Y-90930941D01*
X129864655Y-90815977D01*
X130010977Y-90669655D01*
X130125941Y-90497598D01*
X130205130Y-90306420D01*
X130245500Y-90103465D01*
X130245500Y-89896535D01*
X130245499Y-89896532D01*
X130684500Y-89896532D01*
X130684500Y-90103467D01*
X130724869Y-90306418D01*
X130804058Y-90497597D01*
X130901525Y-90643467D01*
X130919023Y-90669655D01*
X131065345Y-90815977D01*
X131237402Y-90930941D01*
X131428580Y-91010130D01*
X131631535Y-91050500D01*
X131631536Y-91050500D01*
X131838464Y-91050500D01*
X131838465Y-91050500D01*
X132041420Y-91010130D01*
X132232598Y-90930941D01*
X132404655Y-90815977D01*
X132550977Y-90669655D01*
X132665941Y-90497598D01*
X132745130Y-90306420D01*
X132785500Y-90103465D01*
X132785500Y-89896535D01*
X132745130Y-89693580D01*
X132665941Y-89502402D01*
X132550977Y-89330345D01*
X132404655Y-89184023D01*
X132294250Y-89110253D01*
X132232597Y-89069058D01*
X132041418Y-88989869D01*
X131838467Y-88949500D01*
X131838465Y-88949500D01*
X131631535Y-88949500D01*
X131631532Y-88949500D01*
X131428581Y-88989869D01*
X131237402Y-89069058D01*
X131065348Y-89184020D01*
X130919020Y-89330348D01*
X130804058Y-89502402D01*
X130724869Y-89693581D01*
X130684500Y-89896532D01*
X130245499Y-89896532D01*
X130205130Y-89693580D01*
X130125941Y-89502402D01*
X130010977Y-89330345D01*
X129864655Y-89184023D01*
X129754250Y-89110253D01*
X129692597Y-89069058D01*
X129501418Y-88989869D01*
X129298467Y-88949500D01*
X129298465Y-88949500D01*
X129091535Y-88949500D01*
X129091532Y-88949500D01*
X128888581Y-88989869D01*
X128697402Y-89069058D01*
X128525348Y-89184020D01*
X128379020Y-89330348D01*
X128264058Y-89502402D01*
X128184869Y-89693581D01*
X128144500Y-89896532D01*
X124588000Y-89896532D01*
X124588000Y-86590253D01*
X128144500Y-86590253D01*
X128144500Y-88329746D01*
X128144501Y-88329758D01*
X128156132Y-88388227D01*
X128156134Y-88388233D01*
X128200445Y-88454548D01*
X128200448Y-88454552D01*
X128266769Y-88498867D01*
X128311231Y-88507711D01*
X128325241Y-88510498D01*
X128325246Y-88510498D01*
X128325252Y-88510500D01*
X128325253Y-88510500D01*
X130064747Y-88510500D01*
X130064748Y-88510500D01*
X130123231Y-88498867D01*
X130189552Y-88454552D01*
X130233867Y-88388231D01*
X130245500Y-88329748D01*
X130245500Y-87356532D01*
X130684500Y-87356532D01*
X130684500Y-87563467D01*
X130724869Y-87766418D01*
X130804058Y-87957597D01*
X130901525Y-88103467D01*
X130919023Y-88129655D01*
X131065345Y-88275977D01*
X131237402Y-88390941D01*
X131428580Y-88470130D01*
X131631535Y-88510500D01*
X131631536Y-88510500D01*
X131838464Y-88510500D01*
X131838465Y-88510500D01*
X132041420Y-88470130D01*
X132232598Y-88390941D01*
X132404655Y-88275977D01*
X132550977Y-88129655D01*
X132665941Y-87957598D01*
X132745130Y-87766420D01*
X132785500Y-87563465D01*
X132785500Y-87356535D01*
X132745130Y-87153580D01*
X132665941Y-86962402D01*
X132550977Y-86790345D01*
X132404655Y-86644023D01*
X132404651Y-86644020D01*
X132232597Y-86529058D01*
X132041418Y-86449869D01*
X131838467Y-86409500D01*
X131838465Y-86409500D01*
X131631535Y-86409500D01*
X131631532Y-86409500D01*
X131428581Y-86449869D01*
X131237402Y-86529058D01*
X131065348Y-86644020D01*
X130919020Y-86790348D01*
X130804058Y-86962402D01*
X130724869Y-87153581D01*
X130684500Y-87356532D01*
X130245500Y-87356532D01*
X130245500Y-86590252D01*
X130233867Y-86531769D01*
X130189552Y-86465448D01*
X130189548Y-86465445D01*
X130123233Y-86421134D01*
X130123231Y-86421133D01*
X130123228Y-86421132D01*
X130123227Y-86421132D01*
X130064758Y-86409501D01*
X130064748Y-86409500D01*
X128325252Y-86409500D01*
X128325251Y-86409500D01*
X128325241Y-86409501D01*
X128266772Y-86421132D01*
X128266766Y-86421134D01*
X128200451Y-86465445D01*
X128200445Y-86465451D01*
X128156134Y-86531766D01*
X128156132Y-86531772D01*
X128144501Y-86590241D01*
X128144500Y-86590253D01*
X124588000Y-86590253D01*
X124588000Y-80002435D01*
X124588119Y-79997578D01*
X124592888Y-79900500D01*
X124593958Y-79878710D01*
X126884500Y-79878710D01*
X126884500Y-80121289D01*
X126916161Y-80361781D01*
X126916161Y-80361786D01*
X126978944Y-80596092D01*
X126978948Y-80596105D01*
X127071772Y-80820204D01*
X127071774Y-80820208D01*
X127071776Y-80820212D01*
X127181008Y-81009407D01*
X127193066Y-81030292D01*
X127340729Y-81222731D01*
X127340731Y-81222733D01*
X127340735Y-81222738D01*
X127512262Y-81394265D01*
X127512266Y-81394268D01*
X127512268Y-81394270D01*
X127637355Y-81490252D01*
X127704711Y-81541936D01*
X127914788Y-81663224D01*
X128138900Y-81756054D01*
X128373211Y-81818838D01*
X128613712Y-81850500D01*
X128613713Y-81850500D01*
X128856287Y-81850500D01*
X128856288Y-81850500D01*
X129096789Y-81818838D01*
X129331100Y-81756054D01*
X129555212Y-81663224D01*
X129765289Y-81541936D01*
X129957738Y-81394265D01*
X130129265Y-81222738D01*
X130276936Y-81030289D01*
X130398224Y-80820212D01*
X130491054Y-80596100D01*
X130553838Y-80361789D01*
X130585500Y-80121288D01*
X130585500Y-80008453D01*
X133125000Y-80008453D01*
X133140760Y-80107965D01*
X133140762Y-80107969D01*
X133201881Y-80227921D01*
X133297078Y-80323118D01*
X133417030Y-80384237D01*
X133417029Y-80384237D01*
X133516545Y-80399999D01*
X133650000Y-80399999D01*
X133650000Y-79900001D01*
X133950000Y-79900001D01*
X133950000Y-80399998D01*
X133950001Y-80399999D01*
X134083453Y-80399999D01*
X134182965Y-80384239D01*
X134182969Y-80384237D01*
X134302921Y-80323118D01*
X134398118Y-80227921D01*
X134459237Y-80107969D01*
X134475000Y-80008453D01*
X134475000Y-79900001D01*
X134474999Y-79900000D01*
X133950001Y-79900000D01*
X133950000Y-79900001D01*
X133650000Y-79900001D01*
X133649999Y-79900000D01*
X133125002Y-79900000D01*
X133125001Y-79900001D01*
X133125001Y-80008453D01*
X133125000Y-80008453D01*
X130585500Y-80008453D01*
X130585500Y-79878712D01*
X130553838Y-79638211D01*
X130514539Y-79491546D01*
X133125000Y-79491546D01*
X133125000Y-79599999D01*
X133125001Y-79600000D01*
X133649999Y-79600000D01*
X133650000Y-79599999D01*
X133650000Y-79100001D01*
X133950000Y-79100001D01*
X133950000Y-79599999D01*
X133950001Y-79600000D01*
X134474998Y-79600000D01*
X134474999Y-79599999D01*
X134474999Y-79491546D01*
X134459239Y-79392034D01*
X134459237Y-79392027D01*
X134419449Y-79313940D01*
X134419448Y-79313939D01*
X134417441Y-79310001D01*
X134990000Y-79310001D01*
X134990000Y-79339838D01*
X134996519Y-79389354D01*
X134996521Y-79389361D01*
X135047190Y-79498021D01*
X135131978Y-79582809D01*
X135240638Y-79633478D01*
X135240645Y-79633480D01*
X135290161Y-79640000D01*
X135349999Y-79640000D01*
X135350000Y-79639999D01*
X135350000Y-79310001D01*
X135650000Y-79310001D01*
X135650000Y-79639999D01*
X135650001Y-79640000D01*
X135709838Y-79640000D01*
X135759354Y-79633480D01*
X135759361Y-79633478D01*
X135868021Y-79582809D01*
X135952809Y-79498021D01*
X136003478Y-79389361D01*
X136003480Y-79389354D01*
X136010000Y-79339838D01*
X136010000Y-79310001D01*
X136009999Y-79310000D01*
X135650001Y-79310000D01*
X135650000Y-79310001D01*
X135350000Y-79310001D01*
X135349999Y-79310000D01*
X134990001Y-79310000D01*
X134990000Y-79310001D01*
X134417441Y-79310001D01*
X134398118Y-79272078D01*
X134302921Y-79176881D01*
X134182969Y-79115762D01*
X134182970Y-79115762D01*
X134083454Y-79100000D01*
X133950001Y-79100000D01*
X133950000Y-79100001D01*
X133650000Y-79100001D01*
X133649999Y-79100000D01*
X133516547Y-79100000D01*
X133516546Y-79100001D01*
X133417034Y-79115760D01*
X133417030Y-79115762D01*
X133297078Y-79176881D01*
X133201881Y-79272078D01*
X133140762Y-79392030D01*
X133125000Y-79491546D01*
X130514539Y-79491546D01*
X130491054Y-79403900D01*
X130398224Y-79179788D01*
X130276936Y-78969711D01*
X130246959Y-78930644D01*
X130129270Y-78777268D01*
X130129268Y-78777266D01*
X130129265Y-78777262D01*
X129957738Y-78605735D01*
X129957733Y-78605731D01*
X129957731Y-78605729D01*
X129765292Y-78458066D01*
X129765289Y-78458064D01*
X129555212Y-78336776D01*
X129555208Y-78336774D01*
X129555204Y-78336772D01*
X129331105Y-78243948D01*
X129331104Y-78243947D01*
X129331100Y-78243946D01*
X129096789Y-78181162D01*
X129096786Y-78181161D01*
X129096784Y-78181161D01*
X128856289Y-78149500D01*
X128856288Y-78149500D01*
X128613712Y-78149500D01*
X128613710Y-78149500D01*
X128373218Y-78181161D01*
X128373213Y-78181161D01*
X128138907Y-78243944D01*
X128138894Y-78243948D01*
X127914795Y-78336772D01*
X127704707Y-78458066D01*
X127512268Y-78605729D01*
X127340729Y-78777268D01*
X127193066Y-78969707D01*
X127071772Y-79179795D01*
X126978948Y-79403894D01*
X126978944Y-79403907D01*
X126916161Y-79638213D01*
X126916161Y-79638218D01*
X126884500Y-79878710D01*
X124593958Y-79878710D01*
X124604613Y-79661824D01*
X124605563Y-79652186D01*
X124654529Y-79322080D01*
X124656418Y-79312582D01*
X124737509Y-78988849D01*
X124740318Y-78979590D01*
X124852749Y-78665367D01*
X124856458Y-78656412D01*
X124999144Y-78354728D01*
X125003711Y-78346185D01*
X125175280Y-78059938D01*
X125180663Y-78051883D01*
X125379457Y-77783841D01*
X125385607Y-77776346D01*
X125609728Y-77529067D01*
X125616567Y-77522228D01*
X125863846Y-77298107D01*
X125871341Y-77291957D01*
X126139383Y-77093163D01*
X126147438Y-77087780D01*
X126433685Y-76916211D01*
X126442228Y-76911644D01*
X126743912Y-76768958D01*
X126752867Y-76765249D01*
X127067090Y-76652818D01*
X127076349Y-76650009D01*
X127400082Y-76568918D01*
X127409580Y-76567029D01*
X127739686Y-76518063D01*
X127749324Y-76517113D01*
X128058106Y-76501944D01*
X128085079Y-76500619D01*
X128089936Y-76500500D01*
X128153392Y-76500500D01*
X137036000Y-76500500D01*
X137094191Y-76519407D01*
G37*
%TD.AperFunction*%
%TD*%
M02*
